<svg width="177" height="31" viewBox="0 0 177 31" fill="none" xmlns="http://www.w3.org/2000/svg">
<path fill-rule="evenodd" clip-rule="evenodd" d="M36.7128 21.7678C36.3328 22.0378 36.0228 22.4578 36.0228 22.9378C36.0228 23.2778 36.2528 23.7478 36.6428 23.7478C36.8328 23.7478 36.9828 23.6378 36.9828 23.4278C36.9828 23.2378 36.8528 23.1178 36.6628 23.1178C36.6028 23.1178 36.5328 23.1378 36.4728 23.1578C36.3328 23.0978 36.2828 22.9578 36.2828 22.8178C36.2828 22.4478 36.5528 22.1278 36.8228 21.8978L36.6928 21.7578L36.7128 21.7678ZM35.2828 21.7678C34.9028 22.0378 34.5928 22.4578 34.5928 22.9378C34.5928 23.2778 34.8228 23.7478 35.2128 23.7478C35.4028 23.7478 35.5528 23.6378 35.5528 23.4278C35.5528 23.2378 35.4228 23.1178 35.2328 23.1178C35.1628 23.1178 35.1028 23.1378 35.0428 23.1578C34.9028 23.0978 34.8528 22.9578 34.8528 22.8178C34.8528 22.4478 35.1228 22.1278 35.3928 21.8978L35.2628 21.7578L35.2828 21.7678Z" fill="white"/>
<path d="M43.6728 21.9477C43.3728 21.8077 42.9728 21.7677 42.6628 21.7677C41.6228 21.7677 40.6028 22.4377 40.6028 23.3877C40.6028 25.4877 43.6328 24.6877 43.6328 26.5177C43.6328 27.3177 42.8628 27.7277 42.0728 27.7277C41.6428 27.7277 40.7228 27.5377 40.6128 27.0177C40.6128 26.9477 40.5828 26.8477 40.4928 26.8477C40.4328 26.8477 40.4028 26.8877 40.4028 26.9477C40.4028 27.0077 40.4628 27.3177 40.5328 27.7777C40.9328 27.9377 41.5028 28.0277 41.9328 28.0277C43.0428 28.0277 44.1228 27.3877 44.1228 26.2177C44.1228 24.1677 41.0728 24.8077 41.0728 23.1877C41.0728 22.7177 41.4528 22.0577 42.4028 22.0577C42.6828 22.0577 43.4528 22.1577 43.5128 22.5377C43.5128 22.6077 43.5328 22.6677 43.6028 22.6677C43.6728 22.6677 43.6828 22.6077 43.6828 22.5577V21.9277L43.6728 21.9477Z" fill="white"/>
<path fill-rule="evenodd" clip-rule="evenodd" d="M49.6628 26.7978C49.4028 27.1978 48.9528 27.5578 48.4728 27.5578C48.1228 27.5578 47.9428 27.3378 47.9428 26.9878C47.9428 26.2478 48.8228 25.9078 49.6628 25.6078V26.7878V26.7978ZM49.6628 25.3678C48.3328 25.9078 47.3628 26.3078 47.3628 27.1478C47.3628 27.6578 47.6628 28.0178 48.1728 28.0178C48.6828 28.0178 49.3528 27.5178 49.6928 27.1378C49.7428 27.6278 50.2128 28.0178 50.5628 28.0178L50.8628 27.5978C50.2128 27.4578 50.2128 27.0278 50.2128 26.4478V24.9678C50.2128 24.2778 50.2128 23.7578 49.2328 23.7578C48.5328 23.7578 47.4428 24.2478 47.4428 24.9978C47.4428 25.0878 47.5228 25.1978 47.6428 25.1978C47.9328 25.1978 48.0928 24.7778 48.0928 24.3878C48.3228 24.1878 48.6928 24.0978 48.9928 24.0978C49.6728 24.0978 49.6728 24.5578 49.6728 24.7578V25.3778L49.6628 25.3678Z" fill="white"/>
<path fill-rule="evenodd" clip-rule="evenodd" d="M54.8628 22.4578C54.8228 23.0678 55.3228 23.4378 55.8928 23.4378C56.4628 23.4378 56.9628 23.0778 56.9228 22.4578H56.7028C56.7028 22.8978 56.2628 23.0878 55.8928 23.0878C55.5228 23.0878 55.0728 22.8878 55.0828 22.4578H54.8628V22.4578ZM55.7728 26.3778C55.0828 26.3778 54.7528 25.6678 54.7528 25.0678C54.7528 24.5078 55.0028 23.9978 55.6328 23.9978C56.3228 23.9978 56.6628 24.6778 56.6628 25.2778C56.6628 25.8278 56.4028 26.3778 55.7828 26.3778H55.7728ZM55.4828 28.0178L56.2628 28.0678C57.1228 28.1278 57.4428 28.5078 57.4428 28.9478C57.4428 29.5578 56.6728 29.9478 55.7828 29.9478C55.1928 29.9478 54.3328 29.7678 54.3328 29.0378C54.3328 28.4478 54.9428 28.0778 55.4828 28.0278V28.0178ZM56.2828 27.5578C55.0928 27.4878 54.8128 27.4378 54.8128 27.1478C54.8128 26.9878 55.0328 26.6778 55.1528 26.5578C55.3128 26.5978 55.4728 26.6278 55.6328 26.6278C56.4828 26.6278 57.1928 26.0178 57.1928 25.1478C57.1928 24.7778 57.1128 24.4878 56.8528 24.2078C57.0028 24.2278 57.2328 24.2678 57.3528 24.2678C57.6328 24.2678 57.6028 24.1778 57.6828 23.9478C57.7028 23.8978 57.7328 23.7978 57.7328 23.7578C57.7328 23.7078 57.7028 23.6878 57.6628 23.6878C57.4928 23.6878 57.6928 23.9078 57.0628 23.9078C56.8028 23.9078 56.5228 23.8678 56.2628 23.8178C56.0928 23.7878 55.9328 23.7478 55.7728 23.7478C54.8828 23.7478 54.2128 24.4578 54.2128 25.3378C54.2128 25.8578 54.4728 26.2378 54.9328 26.4878C54.7228 26.7278 54.3628 27.0978 54.3628 27.3678C54.3628 27.6878 54.6628 27.8378 54.9328 27.9178C54.4028 28.1578 53.9028 28.4778 53.9028 29.1278C53.9028 30.0178 54.8828 30.1878 55.5928 30.1878C56.6028 30.1878 57.9128 29.8078 57.9128 28.7978C57.9128 27.6478 56.7628 27.5878 56.3028 27.5578H56.2828Z" fill="white"/>
<path d="M61.4229 27.5377C61.4229 27.6277 61.3329 27.6277 61.2429 27.6277H60.8929V27.8477H62.7228V27.6277H62.3529C62.0129 27.6277 61.9629 27.6277 61.9629 26.2177V21.2877C61.5329 21.3977 61.1029 21.4777 60.6729 21.4977V21.7177H61.1628C61.3228 21.7177 61.4229 21.7177 61.4229 22.5477V27.5277V27.5377Z" fill="white"/>
<path d="M66.9428 23.7478C66.8028 23.7478 66.5928 23.7878 66.3028 23.8178C66.0828 23.8478 65.7828 23.8878 65.6528 23.8878V24.1078H66.1428C66.3028 24.1078 66.4028 24.1078 66.4028 24.9378V27.5378C66.4028 27.6278 66.3128 27.6278 66.2228 27.6278H65.8828V27.8478H67.7028V27.6278H67.3328C66.9928 27.6278 66.9428 27.6278 66.9428 26.2178V23.7278V23.7478Z" fill="white"/>
<path d="M71.4131 27.5377C71.4131 27.6277 71.3231 27.6277 71.2331 27.6277H70.8931V27.8477H72.7131V27.6277H72.3431C72.0031 27.6277 71.9531 27.6277 71.9531 26.2877L72.6531 25.8177C74.2131 27.7977 74.2531 27.8477 74.3531 27.8477H75.2431V27.6277H75.0731C74.8431 27.6277 74.4631 27.3077 73.0431 25.5077L74.4031 24.2777C74.5531 24.1477 74.6131 24.1077 74.8131 24.1077H74.9431V23.8877H73.1831V24.1077H73.8131C73.8731 24.1077 73.8931 24.1377 73.8931 24.1877C73.8931 24.3377 73.4631 24.9977 71.9331 25.9877V21.2877C71.5031 21.3977 71.0731 21.4777 70.6431 21.4977V21.7177H71.1331C71.2931 21.7177 71.3931 21.7177 71.3931 22.5477V27.5277L71.4131 27.5377Z" fill="white"/>
<path d="M78.8027 27.5377C78.8027 27.6277 78.7127 27.6277 78.6227 27.6277H78.2827V27.8477H80.1027V27.6277H79.7327C79.3927 27.6277 79.3427 27.6277 79.3427 26.2177V21.2877C78.9127 21.3977 78.4827 21.4777 78.0527 21.4977V21.7177H78.5427C78.7027 21.7177 78.8027 21.7177 78.8027 22.5477V27.5277V27.5377Z" fill="white"/>
<path d="M84.3227 23.7478C84.1827 23.7478 83.9727 23.7878 83.6827 23.8178C83.4627 23.8478 83.1627 23.8878 83.0327 23.8878V24.1078H83.5227C83.6827 24.1078 83.7827 24.1078 83.7827 24.9378V27.5378C83.7827 27.6278 83.6927 27.6278 83.6027 27.6278H83.2627V27.8478H85.0927V27.6278H84.7227C84.3827 27.6278 84.3327 27.6278 84.3327 26.2178V23.7278L84.3227 23.7478Z" fill="white"/>
<path d="M96.4931 21.9477C96.1931 21.8077 95.7931 21.7677 95.4831 21.7677C94.4431 21.7677 93.4231 22.4377 93.4231 23.3877C93.4231 25.4877 96.4531 24.6877 96.4531 26.5177C96.4531 27.3177 95.6832 27.7277 94.8932 27.7277C94.4632 27.7277 93.5431 27.5377 93.4331 27.0177C93.4331 26.9477 93.4031 26.8477 93.3131 26.8477C93.2531 26.8477 93.2231 26.8877 93.2231 26.9477C93.2231 27.0077 93.2831 27.3177 93.3531 27.7777C93.7531 27.9377 94.3231 28.0277 94.7531 28.0277C95.8631 28.0277 96.9431 27.3877 96.9431 26.2177C96.9431 24.1677 93.8932 24.8077 93.8932 23.1877C93.8932 22.7177 94.2731 22.0577 95.2231 22.0577C95.5031 22.0577 96.2731 22.1577 96.3331 22.5377C96.3331 22.6077 96.3531 22.6677 96.4231 22.6677C96.4931 22.6677 96.5031 22.6077 96.5031 22.5577V21.9277L96.4931 21.9477Z" fill="white"/>
<path fill-rule="evenodd" clip-rule="evenodd" d="M101.353 23.7477C101.213 23.7477 101.003 23.7877 100.713 23.8177C100.493 23.8477 100.193 23.8877 100.063 23.8877V24.1077H100.553C100.713 24.1077 100.813 24.1077 100.813 24.9377V27.5377C100.813 27.6277 100.723 27.6277 100.633 27.6277H100.293V27.8477H102.113V27.6277H101.743C101.393 27.6277 101.353 27.6277 101.353 26.2177V23.7277V23.7477ZM100.683 22.3877C100.683 22.5877 100.843 22.7377 101.023 22.7377C101.203 22.7377 101.363 22.5777 101.363 22.3877C101.363 22.1977 101.203 22.0477 101.023 22.0477C100.843 22.0477 100.683 22.2077 100.683 22.3877Z" fill="white"/>
<path fill-rule="evenodd" clip-rule="evenodd" d="M107.043 26.3777C106.353 26.3777 106.023 25.6677 106.023 25.0677C106.023 24.5077 106.273 23.9977 106.903 23.9977C107.593 23.9977 107.933 24.6777 107.933 25.2777C107.933 25.8277 107.673 26.3777 107.053 26.3777H107.043ZM106.753 28.0177L107.533 28.0677C108.393 28.1277 108.713 28.5077 108.713 28.9477C108.713 29.5577 107.943 29.9477 107.053 29.9477C106.463 29.9477 105.603 29.7677 105.603 29.0377C105.603 28.4477 106.223 28.0777 106.753 28.0277V28.0177ZM107.553 27.5577C106.363 27.4877 106.083 27.4377 106.083 27.1477C106.083 26.9877 106.303 26.6777 106.433 26.5577C106.593 26.5977 106.753 26.6277 106.913 26.6277C107.763 26.6277 108.463 26.0177 108.463 25.1477C108.463 24.7777 108.383 24.4877 108.123 24.2077C108.273 24.2277 108.503 24.2677 108.623 24.2677C108.903 24.2677 108.873 24.1777 108.953 23.9477C108.973 23.8977 109.003 23.7977 109.003 23.7577C109.003 23.7077 108.973 23.6877 108.923 23.6877C108.753 23.6877 108.953 23.9077 108.323 23.9077C108.063 23.9077 107.783 23.8677 107.523 23.8177C107.353 23.7877 107.193 23.7477 107.033 23.7477C106.143 23.7477 105.473 24.4577 105.473 25.3377C105.473 25.8577 105.733 26.2377 106.193 26.4877C105.983 26.7277 105.623 27.0977 105.623 27.3677C105.623 27.6877 105.923 27.8377 106.193 27.9177C105.663 28.1577 105.163 28.4777 105.163 29.1277C105.163 30.0177 106.143 30.1877 106.843 30.1877C107.853 30.1877 109.163 29.8077 109.163 28.7977C109.163 27.6477 108.023 27.5877 107.553 27.5577V27.5577Z" fill="white"/>
<path fill-rule="evenodd" clip-rule="evenodd" d="M112.143 26.0078C112.143 27.1478 112.843 28.0078 113.973 28.0078C114.713 28.0078 116.023 27.4178 116.023 25.7478C116.023 24.6078 115.323 23.7478 114.193 23.7478C113.453 23.7478 112.143 24.3378 112.143 26.0078ZM112.733 25.8278C112.733 24.9778 112.973 24.0178 114.003 24.0178C115.033 24.0178 115.433 25.0278 115.433 25.9178C115.433 26.7678 115.193 27.7278 114.163 27.7278C113.133 27.7278 112.733 26.7178 112.733 25.8278Z" fill="white"/>
<path d="M119.983 27.5378C119.983 27.6278 119.893 27.6278 119.803 27.6278H119.453V27.8478H121.283V27.6278H120.913C120.573 27.6278 120.523 27.6278 120.523 26.2178V24.8278C120.923 24.4078 121.163 24.2778 121.463 24.2778C121.953 24.2778 121.863 24.5578 122.003 24.5578C122.073 24.5578 122.093 24.5278 122.203 23.9378C122.103 23.8078 121.923 23.7278 121.763 23.7278C121.473 23.7278 121.223 23.8978 120.523 24.5278V23.7278C120.383 23.7278 120.173 23.7678 119.883 23.7978C119.663 23.8278 119.363 23.8678 119.233 23.8678V24.0878H119.723C119.883 24.0878 119.983 24.0878 119.983 24.9178V27.5178V27.5378Z" fill="white"/>
<path d="M126.103 23.0078H125.973L125.223 23.8978C125.163 23.9578 125.133 23.9978 125.133 24.0478C125.133 24.1078 125.173 24.1078 125.363 24.1078H125.563V27.1478C125.563 27.6478 125.843 28.0078 126.373 28.0078C126.703 28.0078 127.183 27.8478 127.473 27.6778L127.393 27.4878C127.193 27.5678 126.973 27.6378 126.763 27.6378C126.163 27.6378 126.113 27.1878 126.113 26.7678V24.1078H126.983C127.053 24.1078 127.093 24.1078 127.123 23.8878H126.103V23.0078V23.0078Z" fill="white"/>
<path fill-rule="evenodd" clip-rule="evenodd" d="M132.773 26.7978C132.513 27.1978 132.063 27.5578 131.583 27.5578C131.233 27.5578 131.053 27.3378 131.053 26.9878C131.053 26.2478 131.933 25.9078 132.773 25.6078V26.7878V26.7978ZM132.773 25.3678C131.443 25.9078 130.473 26.3078 130.473 27.1478C130.473 27.6578 130.773 28.0178 131.283 28.0178C131.793 28.0178 132.463 27.5178 132.803 27.1378C132.863 27.6278 133.323 28.0178 133.673 28.0178L133.973 27.5978C133.323 27.4578 133.323 27.0278 133.323 26.4478V24.9678C133.323 24.2778 133.323 23.7578 132.343 23.7578C131.643 23.7578 130.553 24.2478 130.553 24.9978C130.553 25.0878 130.633 25.1978 130.753 25.1978C131.043 25.1978 131.203 24.7778 131.203 24.3878C131.433 24.1878 131.813 24.0978 132.103 24.0978C132.783 24.0978 132.783 24.5578 132.783 24.7578V25.3778L132.773 25.3678Z" fill="white"/>
<path fill-rule="evenodd" clip-rule="evenodd" d="M137.423 23.7477C137.803 23.4777 138.113 23.0577 138.113 22.5777C138.113 22.2377 137.883 21.7677 137.493 21.7677C137.303 21.7677 137.153 21.8777 137.153 22.0877C137.153 22.2777 137.283 22.3977 137.473 22.3977C137.543 22.3977 137.603 22.3777 137.663 22.3577C137.803 22.4177 137.853 22.5577 137.853 22.6977C137.853 23.0677 137.583 23.3877 137.313 23.6177L137.443 23.7577L137.423 23.7477ZM138.853 23.7477C139.233 23.4777 139.543 23.0577 139.543 22.5777C139.543 22.2377 139.313 21.7677 138.923 21.7677C138.733 21.7677 138.583 21.8777 138.583 22.0877C138.583 22.2777 138.713 22.3977 138.903 22.3977C138.963 22.3977 139.033 22.3777 139.093 22.3577C139.233 22.4177 139.283 22.5577 139.283 22.6977C139.283 23.0677 139.013 23.3877 138.743 23.6177L138.873 23.7577L138.853 23.7477Z" fill="white"/>
<path d="M25.6729 2.25774C24.5729 1.60774 23.2729 1.31775 22.0029 1.31775C17.7129 1.31775 14.2529 4.53775 14.2529 8.66775C14.2529 12.7977 17.6929 15.8777 21.8529 15.8777C23.1329 15.8777 24.5629 15.5277 25.6829 14.8977V12.8377C24.6029 13.7677 23.2329 14.2877 21.7929 14.2877C18.5429 14.2877 16.0729 11.6777 16.0729 8.61774C16.0729 5.55774 18.5629 2.90775 21.8329 2.90775C23.2029 2.90775 24.6329 3.38775 25.6829 4.27775V2.25774H25.6729Z" fill="white"/>
<path d="M30.4929 1.60779H28.6729V15.5678H30.4929V1.60779Z" fill="white"/>
<path fill-rule="evenodd" clip-rule="evenodd" d="M33.823 15.5678H37.223C39.793 15.5678 42.283 14.4578 42.283 11.6578C42.283 10.0278 41.083 8.41777 39.363 8.11777V8.07777C40.353 7.63777 40.933 6.44778 40.933 5.42778C40.933 2.27778 38.343 1.59778 35.593 1.59778H33.813V15.5678H33.823ZM35.643 9.17778H36.763C38.383 9.17778 40.473 9.58778 40.473 11.5478C40.473 13.5078 38.713 14.0078 37.033 14.0078H35.643V9.17778ZM35.643 3.15778H36.143C37.843 3.15778 39.233 3.48778 39.233 5.45778C39.233 7.42778 37.823 7.78777 36.103 7.78777H35.643V3.15778V3.15778Z" fill="white"/>
<path fill-rule="evenodd" clip-rule="evenodd" d="M58.1531 15.5678H61.1131C65.7131 15.5678 69.3431 13.2678 69.3431 8.50777C69.3431 3.74777 65.6331 1.59778 61.1631 1.59778H58.1431V15.5678H58.1531ZM59.9731 3.19778H60.6131C64.3231 3.19778 67.5331 4.51778 67.5331 8.58778C67.5331 12.6578 64.3231 13.9778 60.6131 13.9778H59.9731V3.19778Z" fill="white"/>
<path d="M71.3628 15.5678H79.1928V13.9778H73.1728V8.69778H79.0128V7.10779H73.1728V3.19778H79.1928V1.60779H71.3628V15.5678Z" fill="white"/>
<path d="M89.3931 15.8678L93.7631 6.34782H93.8031L95.5031 15.5678H97.3831L94.4031 1.00781L89.3931 12.0178L84.3931 1.00781L81.4131 15.5678H83.2831L84.9931 6.34782H85.0231L89.3931 15.8678Z" fill="white"/>
<path fill-rule="evenodd" clip-rule="evenodd" d="M7.47291 4.80782L12.4529 15.5678H14.4029L7.44291 1.00781L0.48291 15.5678H2.44291L7.47291 4.80782Z" fill="white"/>
<path d="M49.563 4.80782L54.543 15.5678H56.503L49.543 1.00781L42.583 15.5678H44.533L49.563 4.80782Z" fill="white"/>
<path d="M102.143 8.42776C102.883 8.72776 103.423 8.92776 104.203 9.24776C105.333 9.70776 106.323 10.3778 106.323 11.6778C106.323 13.1578 105.043 14.0678 103.523 14.0678C102.003 14.0678 100.833 13.0678 100.253 12.3378L98.9331 13.5478C100.213 14.9578 101.573 15.8078 103.593 15.8078C106.003 15.8078 108.163 13.9878 108.163 11.5778C108.163 9.73776 107.083 8.38776 105.393 7.67776C104.593 7.34776 104.003 7.06776 103.203 6.80776C102.163 6.47776 101.383 5.78776 101.383 4.70776C101.383 3.62776 102.183 2.62776 103.763 2.62776C105.233 2.62776 106.323 3.79776 106.323 3.79776L107.383 2.53776C106.533 1.64776 105.323 0.957764 103.823 0.957764C101.433 0.957764 99.4931 2.49776 99.4931 4.87776C99.4931 6.58776 100.573 7.78776 102.143 8.42776V8.42776Z" fill="white"/>
<path d="M111.873 3.71777H109.943V15.4778H111.873V3.71777Z" fill="white"/>
<path d="M121.253 15.8177C124.723 15.8177 127.563 13.2177 127.563 9.39774V8.24774H122.253V9.91774H125.633C125.633 12.1277 123.873 13.9877 121.253 13.9877C118.153 13.9877 115.873 11.6277 115.873 8.34774C115.873 5.43774 117.823 2.81774 120.903 2.81774C123.983 2.81774 125.413 5.06774 125.413 5.06774L126.843 3.82774C125.603 2.52774 123.873 1.05774 120.843 1.05774C116.903 1.05774 113.863 4.39774 113.863 8.33774C113.863 12.6077 117.183 15.8377 121.253 15.8377V15.8177Z" fill="white"/>
<path fill-rule="evenodd" clip-rule="evenodd" d="M136.453 15.8178C140.663 15.8178 143.883 12.5678 143.883 8.51776C143.883 4.46776 140.783 0.957764 136.443 0.957764C132.383 0.957764 129.073 4.12776 129.073 8.36776C129.073 12.6078 132.193 15.8078 136.463 15.8078L136.453 15.8178ZM141.833 8.38776C141.833 11.6778 139.733 13.8678 136.453 13.8678C133.413 13.8678 131.123 11.6078 131.123 8.37776C131.123 5.38776 133.243 2.89776 136.523 2.89776C139.803 2.89776 141.833 5.30776 141.833 8.38776Z" fill="white"/>
<path fill-rule="evenodd" clip-rule="evenodd" d="M152.553 15.4778H154.803L150.363 9.25781C152.613 8.97781 153.893 7.32782 153.893 5.24782C153.893 3.05782 152.113 1.25781 149.943 1.25781H145.843V15.4778H147.733V8.51781L152.563 15.4778H152.553ZM149.453 2.96781C151.163 2.96781 151.883 3.94781 151.883 5.26781C151.883 6.58781 151.383 7.73782 149.283 7.73782H147.723V2.96781H149.453Z" fill="white"/>
<path d="M160.433 3.09782H163.553V1.25781H155.423V3.09782H158.503V15.4778H160.433V3.09782Z" fill="white"/>
<path d="M169.303 4.80782L174.283 15.5678H176.233L169.273 1.00781L162.313 15.5678H164.273L169.303 4.80782Z" fill="white"/>
<path d="M111.873 1.25781H109.943V3.13782H111.873V1.25781Z" fill="white"/>
</svg>
