<svg width="179" height="47" viewBox="0 0 179 47" fill="none" xmlns="http://www.w3.org/2000/svg">
<path d="M0.645996 22.303C0.691694 22.187 0.769028 22.071 0.783089 21.9515C0.89909 20.9954 0.930727 20.0217 1.13109 19.0866C1.37716 17.9477 1.74274 16.8299 2.09425 15.7155C2.55826 14.2462 3.25778 12.8788 4.05925 11.5676C4.74822 10.4357 5.54266 9.38821 6.40036 8.37583C7.41626 7.17715 8.57275 6.13314 9.80658 5.17349C11.2478 4.05215 12.8015 3.09953 14.4888 2.39649C15.5117 1.97116 16.5522 1.57746 17.6103 1.24703C18.3485 1.01503 19.1254 0.923631 19.8846 0.754902C20.8794 0.533445 21.9059 0.558051 22.9042 0.413928C24.1204 0.238169 25.3051 0.44908 26.4967 0.515869C27.5794 0.575627 28.6691 0.81466 29.7237 1.09236C30.8063 1.37709 31.8644 1.76728 32.9119 2.17152C34.6063 2.82886 36.174 3.72875 37.6399 4.79737C39.183 5.92223 40.5715 7.22285 41.8054 8.68868C42.7545 9.81706 43.6298 10.9946 44.3047 12.2988C44.8917 13.4342 45.4049 14.6118 45.8689 15.8034C46.224 16.7103 46.4946 17.6559 46.7231 18.6015C46.9024 19.3432 47.0114 20.113 47.0536 20.8723C47.1379 22.4014 47.2082 23.9376 47.1766 25.4667C47.1555 26.3701 46.9446 27.2735 46.7829 28.1699C46.6634 28.8237 46.5087 29.4705 46.3224 30.1067C46.0939 30.8906 45.8619 31.6815 45.5455 32.4338C44.9972 33.7485 44.3433 35.0139 43.563 36.2161C42.6068 37.689 41.5066 39.0318 40.2552 40.2621C38.255 42.2236 35.9877 43.7984 33.4041 44.8881C32.3073 45.3521 31.1719 45.7458 30.026 46.0657C29.0241 46.3469 27.9872 46.4981 26.9572 46.6668C26.3913 46.7617 25.8113 46.7687 25.2418 46.832C25.1223 46.8461 25.0098 46.9199 24.8938 46.9656H23.1186C23.0272 46.9199 22.9358 46.8461 22.8409 46.8355C21.8602 46.723 20.8724 46.6527 19.8952 46.5086C19.1289 46.3961 18.3555 46.259 17.6209 46.027C16.5628 45.6966 15.5223 45.3029 14.4994 44.8776C12.8086 44.1745 11.2584 43.2219 9.81362 42.1006C8.57978 41.1409 7.42328 40.0969 6.40739 38.8982C5.54969 37.8894 4.75525 36.8383 4.06628 35.7064C3.26481 34.3917 2.56529 33.0279 2.10129 31.5585C1.74977 30.4442 1.38419 29.3264 1.13812 28.1874C0.937757 27.2489 0.90612 26.2787 0.790119 25.3226C0.776058 25.203 0.698724 25.087 0.653026 24.971C0.653026 24.0852 0.653026 23.1994 0.653026 22.3136L0.645996 22.303ZM29.562 33.1966C30.4372 31.9206 31.2493 30.7324 32.0683 29.5478C32.8733 28.3773 33.6783 27.2137 34.4832 26.0432C35.2706 24.8972 36.0791 23.7618 36.8349 22.5913C37.3235 21.832 37.9738 21.1711 38.1531 20.215C38.2726 19.5752 38.0054 18.7175 37.4008 18.5031C37.0388 18.373 36.6345 18.3203 36.2514 18.3168C34.4164 18.2992 32.5815 18.3098 30.7466 18.3098C29.9697 18.3098 29.1929 18.3203 28.4195 18.3062C27.9309 18.2957 27.6005 18.4504 27.6778 19.0269C27.7024 19.2202 27.6954 19.4206 27.6778 19.6174C27.6321 20.1341 27.8501 20.2642 28.3141 20.2607C30.6657 20.2466 33.0209 20.2537 35.3726 20.2537C35.5132 20.2537 35.6538 20.2537 35.8752 20.2537C35.7874 20.454 35.7487 20.5771 35.6819 20.6825C35.348 21.1782 35.007 21.6703 34.666 22.1624C33.9349 23.2205 33.2002 24.275 32.469 25.3366C31.6781 26.4861 30.8977 27.6356 30.1068 28.785C29.2913 29.9732 28.4547 31.1507 27.6567 32.3529C27.2419 32.9751 27.2911 33.7063 27.4528 34.3777C27.5935 34.9612 28.1278 35.1616 28.7078 35.1616C31.9347 35.1651 35.1617 35.1686 38.3886 35.1721C38.4273 35.1721 38.4624 35.1721 38.5011 35.1721C38.8139 35.1721 38.9792 35.028 38.9721 34.7046C38.9686 34.4585 38.9546 34.2125 38.9721 33.9664C39.0143 33.4251 38.9124 33.2317 38.2199 33.2317C35.5343 33.2317 32.8487 33.2317 30.1631 33.2317C29.9978 33.2317 29.8291 33.2142 29.5655 33.2001L29.562 33.1966ZM29.4987 25.994C28.7394 25.9377 28.0469 25.9166 27.3615 25.8217C26.5881 25.7127 25.9448 25.4069 25.9413 24.3875C25.9237 20.9672 25.9343 17.5505 25.9413 14.1302C25.9413 13.6029 26.2155 13.1881 26.7076 13.0089C27.1224 12.8577 27.5724 12.7417 28.0118 12.7347C29.576 12.6995 31.1403 12.7206 32.7045 12.7171C33.1439 12.7171 33.1861 12.6749 33.1861 12.225C33.1861 11.9191 33.2178 11.6063 33.1721 11.304C33.151 11.1634 32.9928 10.9525 32.8733 10.9349C32.2933 10.854 31.7027 10.7873 31.1157 10.7943C29.7412 10.8119 28.3703 10.847 26.9994 10.9243C26.2647 10.9665 25.6003 11.2794 25.0168 11.7293C23.9939 12.5167 23.7197 13.6662 23.7267 14.8332C23.7443 18.0988 23.551 21.368 23.8322 24.6336C23.8955 25.3683 24.1451 26.0502 24.6548 26.5669C25.5968 27.5266 26.8131 27.8148 28.1207 27.7762C28.1875 27.7762 28.2754 27.7129 28.3176 27.6531C28.7078 27.1118 29.0909 26.5634 29.4952 25.9904L29.4987 25.994ZM19.9971 20.2537V20.7423C19.9971 24.3594 19.9971 27.973 19.9971 31.5901C19.9971 32.5744 19.9971 33.5586 19.9971 34.5429C19.9971 35.0913 20.0885 35.1791 20.6474 35.1827C20.9076 35.1827 21.1642 35.1721 21.4243 35.1827C21.9938 35.2143 22.1203 35.0667 22.1203 34.4831C22.1133 29.2455 22.1168 24.0044 22.1168 18.7667C22.1168 18.6226 22.1168 18.4785 22.1168 18.3414C22.0395 18.3168 22.0078 18.2957 21.9727 18.2957C19.6597 18.2957 17.3432 18.2887 15.0302 18.3027C14.9071 18.3027 14.6857 18.4433 14.6751 18.5347C14.6224 19.0093 14.5943 19.4873 14.6329 19.9619C14.6435 20.0709 14.9388 20.229 15.111 20.2396C15.6242 20.2783 16.1445 20.2537 16.6612 20.2537C17.7544 20.2537 18.8512 20.2537 20.0006 20.2537H19.9971ZM9.98234 27.6426C10.2179 27.6426 10.4604 27.6813 10.6819 27.6285C10.8471 27.5899 11.058 27.4633 11.1178 27.3192C11.2654 26.9677 11.3427 26.581 11.4447 26.2084C11.6134 25.5932 11.7716 24.9746 11.9403 24.3594C12.1196 23.7091 12.3094 23.0588 12.4852 22.4085C12.6082 21.9409 12.7031 21.4664 12.8261 20.9989C12.9984 20.3591 13.1882 19.7229 13.3604 19.0831C13.5292 18.4539 13.6803 17.8176 13.8491 17.1884C14.0248 16.5381 14.2217 15.8913 14.4045 15.2445C14.5697 14.6504 14.7173 14.0529 14.886 13.4623C14.9493 13.2373 14.9915 12.928 15.1532 12.819C15.4801 12.6011 15.452 12.3269 15.4485 12.0246C15.4485 11.7188 15.4309 11.4094 15.452 11.1036C15.4731 10.8013 15.3219 10.731 15.0723 10.7837C14.3095 10.9454 13.6557 11.2759 13.3183 12.0281C13.1777 12.3445 13.0652 12.6749 12.9667 13.0089C12.784 13.6099 12.6223 14.2146 12.4535 14.8192C12.2848 15.4238 12.1266 16.0284 11.9544 16.633C11.7294 17.4204 11.4974 18.2043 11.2724 18.9952C11.1037 19.5858 10.949 20.1834 10.7803 20.7739C10.608 21.3645 10.4147 21.948 10.2495 22.5385C10.0316 23.3154 9.84174 24.1028 9.62028 24.8796C9.40234 25.6424 9.14573 26.3947 8.9313 27.161C8.85748 27.4282 8.98403 27.6215 9.27931 27.6426C9.51131 27.6602 9.74683 27.6426 9.98234 27.6461V27.6426Z" fill="white"/>
<path d="M61.9744 14.4915C62.4068 14.4915 62.8356 14.4915 63.268 14.4915C63.8972 14.4915 64.312 14.8395 64.5018 15.4511C64.7655 16.3018 65.0713 17.1384 65.3384 17.9891C65.6126 18.8608 65.8552 19.7467 66.1293 20.6184C66.393 21.455 66.6918 22.2846 66.9589 23.1213C67.2296 23.9719 67.4757 24.8261 67.7428 25.6768C67.9678 26.3904 68.2103 27.0969 68.4353 27.807C68.6533 28.496 68.8571 29.192 69.0716 29.881C69.1454 30.12 69.2192 30.3625 69.3141 30.5981C69.5039 31.0656 69.2649 31.4347 68.7552 31.4382C68.1646 31.4382 67.5741 31.4382 66.98 31.4382C66.3227 31.4382 66.1504 31.2695 65.9887 30.6297C65.8411 30.0462 65.6337 29.4802 65.4544 28.9073C65.3841 28.6753 65.3068 28.4468 65.2541 28.2112C65.2013 27.9792 65.0607 27.8984 64.8322 27.8984C62.9094 27.9019 60.9901 27.9089 59.0673 27.8949C58.6033 27.8914 58.6666 28.278 58.5893 28.5065C58.301 29.3502 58.0831 30.2149 57.8089 31.0656C57.7351 31.2941 57.5488 31.4558 57.2535 31.4487C56.5645 31.4347 55.8755 31.4487 55.183 31.4417C54.7015 31.4417 54.473 31.1253 54.6206 30.6578C55.0424 29.3502 55.4818 28.0495 55.8966 26.7419C56.22 25.719 56.5083 24.6855 56.8317 23.6626C57.148 22.6537 57.496 21.6519 57.8159 20.643C58.0866 19.7924 58.3327 18.9347 58.5998 18.084C58.8107 17.4055 59.0322 16.7306 59.2572 16.0592C59.3626 15.7393 59.4575 15.4089 59.6052 15.1101C59.809 14.7024 60.1711 14.4985 60.6316 14.495C61.0745 14.4915 61.5174 14.495 61.9603 14.495L61.9744 14.4915ZM64.3507 25.1249C64.1468 24.4219 63.9605 23.7997 63.7812 23.174C63.5668 22.4182 63.3629 21.6624 63.1485 20.9067C62.8672 19.9224 62.586 18.9382 62.2837 17.9609C62.2415 17.8168 62.0974 17.7043 61.999 17.5778C61.8935 17.7043 61.7354 17.8168 61.6897 17.9645C61.4612 18.7027 61.2678 19.4479 61.0464 20.1896C60.8249 20.9278 60.5824 21.6589 60.3574 22.3971C60.1184 23.181 59.9039 23.9684 59.6579 24.7523C59.5454 25.1038 59.6122 25.2374 59.9813 25.2374C61.2854 25.2374 62.5931 25.2409 63.8972 25.2339C64.0448 25.2339 64.1925 25.1636 64.3507 25.1249V25.1249Z" fill="white"/>
<path d="M87.8413 17.2603C87.8413 18.6171 87.8413 19.9107 87.8413 21.2008C87.8413 21.4785 88.0381 21.4328 88.2034 21.4328C89.6938 21.4328 91.1842 21.4328 92.6747 21.4328C93.0824 21.4328 93.4867 21.4328 93.8944 21.4328C94.2671 21.4328 94.4991 21.6648 94.4991 22.0339C94.4991 22.5506 94.4991 23.0674 94.4991 23.5841C94.4991 23.9813 94.2741 24.1993 93.8698 24.2028C92.0209 24.2028 90.1754 24.2028 88.3264 24.2028C88.1823 24.2028 88.0381 24.2028 87.8694 24.2028V28.6671C88.0311 28.6671 88.1717 28.6671 88.3158 28.6671C90.3371 28.6671 92.3548 28.6671 94.376 28.6671C94.8646 28.6671 95.0826 28.8885 95.0826 29.3771C95.0826 29.8446 95.0826 30.3122 95.0826 30.7797C95.0826 31.205 94.8541 31.437 94.4428 31.437C92.0279 31.437 89.6129 31.4546 87.2015 31.43C86.0485 31.4195 84.9166 30.4493 84.769 29.3103C84.7022 28.7901 84.653 28.2663 84.6495 27.7426C84.6389 24.2731 84.6284 20.8036 84.653 17.3341C84.66 16.1776 85.1311 15.2355 86.2419 14.7293C86.509 14.6063 86.8184 14.5008 87.1066 14.5008C89.5708 14.4833 92.0349 14.4868 94.4955 14.4903C94.8471 14.4903 95.0756 14.7223 95.0791 15.0808C95.0861 15.5589 95.0791 16.0405 95.0791 16.5186C95.0791 17.0283 94.8541 17.2568 94.3479 17.2568C92.3407 17.2568 90.3336 17.2568 88.3264 17.2568C88.1823 17.2568 88.0381 17.2568 87.8413 17.2568V17.2603Z" fill="white"/>
<path d="M101.772 28.7838C101.965 28.7944 102.095 28.8049 102.229 28.8049C104.472 28.8049 106.711 28.8049 108.954 28.8049C109.537 28.8049 109.604 28.8717 109.604 29.4658C109.604 29.9438 109.611 30.4254 109.604 30.9035C109.597 31.3323 109.498 31.4378 109.084 31.4378C106.078 31.4378 103.073 31.4519 100.067 31.4308C99.1567 31.4237 98.2779 30.552 98.2146 29.6029C98.1689 28.949 98.4326 28.4323 98.7806 27.9191C99.9406 26.2212 101.08 24.5129 102.236 22.8115C103.22 21.3633 104.219 19.9185 105.21 18.4738C105.456 18.1187 105.709 17.7672 105.952 17.4122C105.994 17.3489 106.011 17.2645 106.057 17.145C105.871 17.1345 105.727 17.1204 105.586 17.1204C103.456 17.1204 101.326 17.1204 99.1919 17.1204C98.6716 17.1204 98.5169 16.9622 98.5169 16.442C98.5169 15.9639 98.5134 15.4823 98.5169 15.0043C98.5204 14.6422 98.6751 14.4911 99.0372 14.4911C101.944 14.4911 104.851 14.4875 107.758 14.4911C108.402 14.4911 109.207 15.18 109.439 15.7741C109.797 16.6951 109.421 17.4192 108.929 18.1398C108.043 19.4369 107.168 20.7411 106.286 22.0417C105.505 23.1947 104.721 24.3477 103.937 25.4971C103.273 26.4708 102.602 27.441 101.934 28.4147C101.874 28.5026 101.846 28.6116 101.772 28.7803V28.7838Z" fill="white"/>
<path d="M77.2251 24.2807C77.2251 26.432 77.2181 28.5869 77.2321 30.7381C77.2321 31.276 77.1408 31.4623 76.5397 31.4447C75.9491 31.4271 75.3586 31.4447 74.768 31.4412C74.3145 31.4412 74.1318 31.2549 74.1318 30.8014C74.1318 26.4602 74.1318 22.1189 74.1318 17.7776C74.1318 17.4355 73.9572 17.2644 73.608 17.2644C72.4374 17.2644 71.2669 17.2644 70.0998 17.2644C69.562 17.2644 69.3898 17.0992 69.3898 16.5754C69.3898 16.0833 69.4073 15.5912 69.3827 15.0991C69.3616 14.628 69.5444 14.4874 70.0155 14.4874C73.5728 14.498 77.1337 14.4945 80.6911 14.4945C80.9372 14.4945 81.1832 14.4945 81.4293 14.4945C81.8476 14.4945 82.0655 14.7159 82.0691 15.1483C82.0691 15.6158 82.0726 16.0833 82.0691 16.5508C82.0655 17.0219 81.823 17.2644 81.3449 17.2644C80.1252 17.2644 78.9054 17.2785 77.6891 17.2574C77.3341 17.2504 77.2216 17.3593 77.2216 17.7179C77.2357 19.9078 77.2286 22.0978 77.2286 24.2843L77.2251 24.2807Z" fill="white"/>
<path d="M146.474 19.6697C146.554 19.6064 146.656 19.5642 146.684 19.4975C147.047 18.5167 147.395 17.5325 147.753 16.5482C147.996 15.8803 148.228 15.2089 148.509 14.5586C148.66 14.2071 149.015 14.3793 149.317 14.3653C149.331 14.4883 149.345 14.5973 149.349 14.7027C149.405 16.5306 149.458 18.3585 149.511 20.1864C149.518 20.3798 149.542 20.5731 149.56 20.8086C149.419 20.8157 149.268 20.8227 149.106 20.8332C149.04 18.9034 148.973 17.0122 148.906 15.1175L148.801 15.0894C148.685 15.3777 148.565 15.6624 148.456 15.9506C148.087 16.9419 147.721 17.9332 147.349 18.9245C147.233 19.2409 147.099 19.5502 146.987 19.8666C146.86 20.2251 146.568 20.0388 146.361 20.0423C146.234 20.0423 146.038 19.9052 145.992 19.7857C145.486 18.4851 145.004 17.1774 144.519 15.8733C144.452 15.694 144.41 15.5042 144.34 15.3249C144.305 15.237 144.224 15.1667 144.164 15.0894C144.122 15.1773 144.045 15.2652 144.045 15.3531C144.027 16.608 144.02 17.8629 144.013 19.1178C144.013 19.5959 143.999 20.0775 144.009 20.5555C144.013 20.7664 143.929 20.8367 143.732 20.8438C143.524 20.8473 143.45 20.7664 143.457 20.559C143.51 19.3217 143.559 18.0844 143.598 16.847C143.619 16.1475 143.598 15.4444 143.63 14.7449C143.637 14.6113 143.777 14.3793 143.858 14.3793C144.069 14.3758 144.357 14.1966 144.491 14.5446C144.719 15.1386 144.966 15.7257 145.194 16.3197C145.465 17.0263 145.721 17.7434 145.988 18.4499C146.136 18.8401 146.298 19.2303 146.47 19.6697H146.474Z" fill="white"/>
<path d="M174.332 29.1326C174.846 29.913 175.345 30.6617 175.833 31.4175C175.879 31.4878 175.883 31.5792 175.907 31.6635C175.802 31.6741 175.658 31.7303 175.598 31.6846C175.419 31.5475 175.25 31.3858 175.123 31.1995C174.694 30.5773 174.297 29.9341 173.865 29.3154C173.788 29.2064 173.608 29.115 173.471 29.108C173.028 29.0834 172.585 29.1045 172.142 29.0974C171.882 29.0939 171.801 29.217 171.805 29.463C171.816 30.1028 171.805 30.7426 171.808 31.3823C171.808 31.551 171.808 31.7549 171.58 31.7022C171.457 31.6741 171.281 31.4948 171.281 31.3823C171.264 29.4138 171.267 27.4488 171.267 25.4803C171.267 25.2307 171.397 25.1358 171.64 25.1358C172.304 25.1429 172.972 25.1042 173.633 25.1499C174.012 25.1745 174.399 25.287 174.754 25.4276C175.141 25.5823 175.334 25.9338 175.352 26.3486C175.373 26.8512 175.373 27.3574 175.352 27.8601C175.334 28.3557 175.123 28.7424 174.638 28.9428C174.533 28.9885 174.438 29.0658 174.329 29.1326H174.332ZM171.808 27.1395C171.808 27.5437 171.819 27.9515 171.805 28.3557C171.798 28.5948 171.879 28.6827 172.121 28.6791C172.736 28.6651 173.352 28.6756 173.967 28.6651C174.417 28.658 174.719 28.4506 174.8 28.0042C174.881 27.5402 174.923 27.0551 174.891 26.5876C174.863 26.1869 174.708 25.7545 174.227 25.6947C173.548 25.6139 172.86 25.5963 172.174 25.5682C171.931 25.5576 171.794 25.6807 171.805 25.9549C171.823 26.3486 171.808 26.7423 171.808 27.136V27.1395Z" fill="white"/>
<path d="M133.685 25.7581C133.685 26.4823 133.685 27.0693 133.685 27.6598C133.685 28.8656 133.685 30.0713 133.685 31.277C133.685 31.3613 133.714 31.4668 133.675 31.5301C133.629 31.6074 133.531 31.6883 133.446 31.7023C133.394 31.7093 133.292 31.6004 133.267 31.5266C133.236 31.4246 133.257 31.3086 133.257 31.1961C133.257 29.326 133.257 27.456 133.264 25.5894C133.264 25.4418 133.341 25.1746 133.401 25.1676C133.647 25.143 133.949 25.027 134.121 25.3504C134.406 25.8882 134.705 26.419 134.986 26.9568C135.612 28.1625 136.227 29.3682 136.849 30.5775C136.927 30.7321 137.018 30.8798 137.102 31.0274C137.137 31.0204 137.176 31.0169 137.211 31.0098C137.222 30.8762 137.243 30.7427 137.243 30.6056C137.243 28.9077 137.243 27.2099 137.243 25.5156C137.243 25.3644 137.162 25.1395 137.454 25.143C137.742 25.143 137.665 25.3679 137.665 25.5191C137.668 27.4489 137.672 29.3788 137.661 31.3121C137.661 31.4457 137.584 31.6742 137.503 31.6953C137.264 31.755 136.965 31.7972 136.814 31.5125C136.111 30.1732 135.422 28.8269 134.73 27.4841C134.476 26.992 134.237 26.4928 133.977 26.0007C133.939 25.9269 133.837 25.8847 133.682 25.7616L133.685 25.7581Z" fill="white"/>
<path d="M154.692 28.4575C154.636 29.0902 154.58 29.7194 154.53 30.3521C154.481 30.9708 154.098 31.3751 153.574 31.5579C152.681 31.8707 151.757 31.8883 150.878 31.4489C150.382 31.1993 150.126 30.7564 150.112 30.2221C150.084 29.1183 150.098 28.011 150.098 26.9037C150.098 25.9687 150.393 25.5152 151.289 25.2481C152.122 24.9985 152.973 24.9704 153.771 25.3992C154.189 25.6277 154.481 25.9687 154.523 26.4784C154.551 26.8053 154.611 27.1287 154.632 27.4556C154.65 27.7861 154.636 28.12 154.636 28.4504C154.653 28.4504 154.671 28.4504 154.689 28.4539L154.692 28.4575ZM154.098 28.4293C154.098 27.888 154.105 27.3502 154.098 26.8088C154.091 26.2991 153.785 25.814 153.29 25.6875C152.85 25.575 152.376 25.5152 151.922 25.5469C150.973 25.6137 150.611 26.0601 150.555 26.8932C150.484 27.9091 150.513 28.932 150.548 29.9479C150.565 30.4576 150.871 31.136 151.465 31.1923C151.971 31.238 152.492 31.3505 152.984 31.2802C153.638 31.1888 154.109 30.665 154.102 29.9725C154.098 29.4558 154.102 28.9426 154.102 28.4258L154.098 28.4293Z" fill="white"/>
<path d="M139.458 28.4066C139.458 27.9145 139.465 27.4224 139.458 26.9337C139.433 25.8018 140.002 25.3343 140.86 25.1621C141.553 25.025 142.305 24.9969 142.994 25.3062C143.746 25.6437 143.964 26.3256 143.992 27.0638C144.027 27.9707 144.034 28.8847 143.992 29.7916C143.936 30.9481 143.433 31.6898 142.041 31.7425C141.419 31.7636 140.8 31.7847 140.227 31.4543C139.76 31.1836 139.51 30.7688 139.479 30.2521C139.44 29.6404 139.468 29.0253 139.468 28.4101H139.461L139.458 28.4066ZM143.458 28.4453C143.458 27.8934 143.479 27.338 143.451 26.7861C143.426 26.2659 143.173 25.837 142.663 25.6894C142.242 25.5663 141.778 25.5241 141.335 25.5417C140.343 25.5874 139.96 26.0725 139.907 26.9091C139.844 27.911 139.855 28.9233 139.907 29.9287C139.936 30.5122 140.147 31.0711 140.843 31.1906C141.271 31.2645 141.707 31.3137 142.143 31.3066C142.832 31.2961 143.486 30.7126 143.461 29.9498C143.444 29.4471 143.461 28.9444 143.458 28.4382V28.4453Z" fill="white"/>
<path d="M125.93 25.5666C125.761 25.5666 125.582 25.5666 125.403 25.5666C124.689 25.5666 123.972 25.5771 123.259 25.563C122.953 25.556 122.844 25.672 122.854 25.9743C122.872 26.5754 122.872 27.18 122.854 27.7811C122.844 28.0975 122.977 28.1889 123.269 28.1854C124.057 28.1748 124.844 28.1819 125.635 28.1819C125.758 28.5615 125.723 28.6177 125.322 28.6177C124.524 28.6177 123.723 28.6177 122.893 28.6177V31.1909C123.139 31.1909 123.392 31.1909 123.645 31.1909C124.299 31.1909 124.949 31.1909 125.603 31.1909C125.79 31.1909 125.986 31.1663 125.979 31.4545C125.976 31.7146 125.804 31.7111 125.624 31.7111C124.64 31.7111 123.652 31.7041 122.668 31.7146C122.387 31.7146 122.313 31.6057 122.313 31.3385C122.32 29.3841 122.32 27.4261 122.313 25.4716C122.313 25.2256 122.373 25.1201 122.643 25.1272C123.642 25.1412 124.64 25.1377 125.635 25.1272C125.909 25.1272 126.029 25.2186 125.927 25.5595L125.93 25.5666Z" fill="white"/>
<path d="M121.346 20.7974C121.779 19.539 122.197 18.3122 122.622 17.0854C122.91 16.2558 123.213 15.4332 123.497 14.6037C123.575 14.3787 123.719 14.3435 123.919 14.347C124.137 14.3506 124.387 14.3049 124.478 14.572C124.788 15.4578 125.083 16.3472 125.389 17.233C125.758 18.3016 126.137 19.3667 126.506 20.4318C126.545 20.5408 126.556 20.6568 126.58 20.7728C126.236 20.9064 126.102 20.7588 126.011 20.4846C125.884 20.1084 125.747 19.7358 125.586 19.3738C125.543 19.2824 125.403 19.1804 125.304 19.1804C124.429 19.1664 123.557 19.1734 122.682 19.1699C122.207 19.1699 122.299 19.6058 122.158 19.8483C122.039 20.0522 121.993 20.2983 121.926 20.5303C121.838 20.8326 121.648 20.8958 121.346 20.7939V20.7974ZM124.056 14.7759C124.011 14.7724 123.969 14.7654 123.923 14.7618C123.824 15.0255 123.712 15.2821 123.624 15.5492C123.311 16.4948 123.037 17.4545 122.685 18.3825C122.552 18.734 122.661 18.7621 122.935 18.7621C123.575 18.7621 124.215 18.7621 124.851 18.7621C125.315 18.7621 125.389 18.6215 125.209 18.1751C125.065 17.8201 124.953 17.4545 124.83 17.0924C124.57 16.3226 124.313 15.5492 124.053 14.7794L124.056 14.7759Z" fill="white"/>
<path d="M167.839 25.1375C168.331 25.1375 168.823 25.127 169.315 25.1481C169.41 25.1516 169.558 25.2571 169.582 25.3414C169.638 25.5559 169.466 25.5664 169.308 25.5664C168.531 25.5664 167.758 25.5664 166.981 25.5664C166.542 25.5664 166.485 25.6262 166.485 26.0515C166.485 26.6034 166.506 27.1588 166.478 27.7107C166.461 28.0798 166.633 28.1852 166.956 28.1852C167.645 28.1817 168.334 28.1747 169.023 28.1923C169.16 28.1958 169.294 28.3047 169.431 28.3645C169.294 28.4489 169.16 28.6035 169.02 28.607C168.296 28.6317 167.568 28.6281 166.84 28.6141C166.577 28.6106 166.468 28.6809 166.478 28.9656C166.499 29.5913 166.499 30.2205 166.478 30.8462C166.468 31.1345 166.584 31.2013 166.844 31.1977C167.645 31.1872 168.443 31.1977 169.245 31.1942C169.424 31.1942 169.596 31.1837 169.603 31.4403C169.61 31.718 169.428 31.7145 169.231 31.7145C168.282 31.7145 167.336 31.711 166.387 31.7145C166.099 31.7145 166.004 31.6442 166.014 31.3102C166.049 29.9955 166.035 28.6809 166.032 27.3662C166.032 26.7159 166.018 26.0656 166 25.4152C165.993 25.1692 166.127 25.134 166.324 25.134C166.83 25.1375 167.333 25.134 167.839 25.134V25.1375Z" fill="white"/>
<path d="M127.976 14.3546C129.224 14.3546 130.465 14.3511 131.706 14.3582C131.931 14.3582 132.019 14.7729 131.839 15.0436C131.284 15.8978 130.714 16.7415 130.159 17.5956C129.597 18.4604 129.041 19.3322 128.486 20.2004C128.461 20.2391 128.444 20.2813 128.391 20.3797C128.567 20.3937 128.693 20.4078 128.82 20.4113C129.779 20.4113 130.739 20.4113 131.702 20.4113C131.857 20.4113 132.036 20.3656 132.043 20.6257C132.05 20.8929 131.857 20.8402 131.709 20.8402C130.514 20.8437 129.322 20.8402 128.127 20.8402C128.032 20.8402 127.937 20.8226 127.744 20.8015C127.814 20.5765 127.836 20.3586 127.941 20.1934C128.978 18.5623 130.029 16.9418 131.073 15.3143C131.164 15.1737 131.221 15.012 131.291 14.8608C131.115 14.8327 130.943 14.787 130.767 14.7835C129.931 14.7765 129.094 14.7729 128.257 14.7835C127.93 14.787 127.878 14.6534 127.98 14.3546H127.976Z" fill="white"/>
<path d="M116.504 14.3728C116.831 14.3165 117 14.3904 117.137 14.6927C117.654 15.8316 118.209 16.9529 118.758 18.0813C118.793 18.1551 118.888 18.2008 118.986 18.2887C119.373 17.4908 119.742 16.735 120.107 15.9792C120.315 15.5504 120.515 15.118 120.723 14.6891C120.856 14.4114 121.046 14.2462 121.405 14.4114C121.043 15.1567 120.684 15.9019 120.315 16.6436C119.96 17.3607 119.591 18.0672 119.239 18.7843C119.183 18.8968 119.19 19.0445 119.19 19.178C119.183 19.6456 119.183 20.1131 119.19 20.5806C119.19 20.7704 119.123 20.8513 118.933 20.8478C118.754 20.8443 118.621 20.8161 118.638 20.5841C118.656 20.3275 118.606 20.0639 118.649 19.8108C118.796 18.9039 118.336 18.1797 117.96 17.4275C117.503 16.51 117.039 15.5961 116.582 14.6786C116.54 14.5942 116.533 14.4923 116.504 14.3798V14.3728Z" fill="white"/>
<path d="M161.07 28.4178C161.07 27.4968 161.07 26.5758 161.07 25.6514C161.07 25.5775 161.038 25.4791 161.077 25.4334C161.172 25.3209 161.299 25.2295 161.411 25.1311C161.478 25.2366 161.601 25.3385 161.604 25.444C161.618 26.8079 161.611 28.1717 161.611 29.5356C161.611 29.9645 161.629 30.3969 161.604 30.8257C161.587 31.1315 161.71 31.1983 161.988 31.1948C162.726 31.1807 163.464 31.1913 164.202 31.1878C164.395 31.1878 164.582 31.1772 164.571 31.462C164.564 31.7221 164.388 31.7115 164.213 31.7115C163.316 31.7115 162.416 31.7045 161.52 31.7115C161.193 31.7115 161.063 31.5885 161.067 31.2511C161.084 30.3055 161.074 29.3599 161.074 28.4143L161.07 28.4178Z" fill="white"/>
<path d="M145.674 28.3879C145.674 27.4177 145.674 26.4475 145.674 25.4773C145.674 25.3297 145.621 25.1364 145.885 25.1364C146.121 25.1364 146.212 25.2664 146.212 25.4844C146.212 27.2771 146.219 29.0734 146.194 30.8661C146.191 31.1438 146.258 31.2036 146.511 31.2001C147.235 31.1895 147.963 31.1965 148.687 31.2001C148.785 31.2001 148.898 31.1825 148.975 31.2247C149.059 31.2668 149.161 31.3688 149.165 31.4496C149.168 31.527 149.07 31.6324 148.992 31.6852C148.929 31.7273 148.827 31.7203 148.743 31.7203C147.847 31.7203 146.947 31.7133 146.05 31.7273C145.762 31.7309 145.664 31.6359 145.667 31.3442C145.681 30.3599 145.674 29.3792 145.674 28.3949V28.3879Z" fill="white"/>
<path d="M156.322 28.6908C156.322 27.6222 156.322 26.5536 156.322 25.485C156.322 25.3162 156.284 25.1194 156.565 25.1405C156.804 25.1581 156.867 25.2951 156.867 25.5096C156.867 27.5871 156.867 29.6645 156.864 31.7385C156.864 32.5189 156.315 32.9899 155.805 33.468C155.77 33.4996 155.595 33.4469 155.545 33.3871C155.489 33.3168 155.457 33.1551 155.5 33.0989C155.63 32.9266 155.802 32.7895 155.95 32.6278C156.192 32.3607 156.34 32.0689 156.329 31.6787C156.305 30.6839 156.322 29.6891 156.322 28.6943V28.6908Z" fill="white"/>
<path d="M121.058 25.5653C120.577 25.5653 120.088 25.5653 119.596 25.5653C119.083 25.5653 119.04 25.6074 119.04 26.1031C119.04 27.7869 119.04 29.4706 119.04 31.1544C119.04 31.2142 119.04 31.2774 119.04 31.3372C119.033 31.5024 119.079 31.7344 118.812 31.6887C118.724 31.6747 118.615 31.4708 118.608 31.3477C118.583 30.933 118.597 30.5111 118.597 30.0928C118.597 28.7535 118.597 27.4142 118.597 26.0714C118.597 25.632 118.524 25.5617 118.081 25.5582C117.662 25.5582 117.244 25.5688 116.826 25.5477C116.731 25.5442 116.583 25.4352 116.562 25.3508C116.513 25.1469 116.675 25.1259 116.84 25.1259C118.158 25.1259 119.473 25.1329 120.791 25.1259C121.1 25.1259 121.146 25.2559 121.058 25.5617V25.5653Z" fill="white"/>
<path d="M131.639 25.1853C131.548 25.3154 131.488 25.4103 131.414 25.4981C130.669 26.398 129.92 27.2909 129.185 28.1978C129.133 28.2646 129.136 28.4544 129.192 28.5212C129.976 29.4668 130.774 30.4018 131.565 31.3439C131.636 31.4283 131.667 31.5408 131.72 31.6392C131.583 31.6568 131.435 31.7165 131.309 31.6849C131.193 31.6532 131.091 31.5408 131.006 31.4423C130.261 30.56 129.53 29.6636 128.774 28.7884C128.546 28.5247 128.451 28.3103 128.704 28.008C129.414 27.1573 130.106 26.2926 130.802 25.4314C131.003 25.1818 131.242 25.0623 131.636 25.1888L131.639 25.1853Z" fill="white"/>
<path d="M136.235 14.3706H136.608C136.615 14.5217 136.629 14.6623 136.629 14.8065C136.629 16.5254 136.639 18.2478 136.622 19.9668C136.618 20.3288 136.734 20.4308 137.086 20.4167C137.81 20.3921 138.537 20.4097 139.262 20.4097C139.423 20.4097 139.624 20.3921 139.578 20.6311C139.56 20.7155 139.385 20.828 139.279 20.8315C138.358 20.8456 137.434 20.8385 136.513 20.842C136.316 20.842 136.186 20.8104 136.189 20.5643C136.196 18.5501 136.196 16.5359 136.196 14.5182C136.196 14.4831 136.214 14.4479 136.235 14.3671V14.3706Z" fill="white"/>
<path d="M158.683 28.406C158.683 27.4358 158.683 26.4656 158.683 25.499C158.683 25.3408 158.619 25.1299 158.908 25.1369C159.171 25.1439 159.224 25.2986 159.224 25.5271C159.22 27.2812 159.224 29.0352 159.224 30.7928C159.224 30.9897 159.263 31.1971 159.21 31.3799C159.175 31.5099 159.038 31.6716 158.915 31.7033C158.693 31.756 158.679 31.5627 158.679 31.3904C158.679 30.3956 158.679 29.4008 158.679 28.4095L158.683 28.406Z" fill="white"/>
<path d="M177.459 28.4322C177.459 27.448 177.459 26.4672 177.459 25.483C177.459 25.2756 177.47 25.1244 177.748 25.1315C178.004 25.1385 178.011 25.2826 178.011 25.4724C178.011 27.4269 178.008 29.3778 178.011 31.3323C178.011 31.5502 177.959 31.7084 177.723 31.7014C177.509 31.6978 177.456 31.5467 177.459 31.3428C177.466 30.3726 177.463 29.4024 177.463 28.4322H177.459Z" fill="white"/>
<path d="M141.109 14.3981C141.615 14.3172 141.636 14.3348 141.636 14.7883C141.636 16.6829 141.636 18.5776 141.636 20.4723C141.636 20.6868 141.644 20.859 141.345 20.852C141.046 20.8449 141.092 20.6516 141.092 20.4723C141.092 18.553 141.092 16.6337 141.092 14.7144C141.092 14.616 141.099 14.5211 141.106 14.4016L141.109 14.3981Z" fill="white"/>
<path d="M134.235 14.3828V20.7664C133.774 20.9211 133.711 20.8789 133.711 20.4184C133.711 18.5378 133.711 16.6536 133.711 14.773C133.711 14.3406 133.718 14.3336 134.235 14.3828V14.3828Z" fill="white"/>
<path d="M128.079 28.4327C128.079 29.4029 128.079 30.3731 128.079 31.3433C128.079 31.519 128.093 31.7335 127.843 31.6948C127.759 31.6807 127.646 31.4733 127.643 31.3538C127.629 29.4029 127.632 27.4485 127.636 25.4975C127.636 25.3358 127.579 25.1249 127.864 25.139C128.138 25.153 128.075 25.3639 128.075 25.5221C128.079 26.4923 128.075 27.4625 128.075 28.4327H128.079Z" fill="white"/>
<path d="M178 24.4799H177.48V23.5659C177.944 23.4359 178 23.4745 178 23.921C178 24.0897 178 24.262 178 24.4799V24.4799Z" fill="white"/>
<path d="M158.707 23.544C159.045 23.428 159.157 23.5545 159.136 23.8674C159.122 24.0607 159.136 24.2576 159.136 24.4755H158.711V23.544H158.707Z" fill="white"/>
</svg>
