<svg width="161" height="43" viewBox="0 0 161 43" fill="none" xmlns="http://www.w3.org/2000/svg">
<g clip-path="url(#clip0_870_3804)">
<path d="M76.2106 20.9372C76.2106 19.2811 76.2048 17.625 76.2106 15.969C76.2163 14.3015 77.212 13.301 78.8754 13.2953C80.864 13.2896 82.8497 13.3124 84.8383 13.2839C85.4887 13.2754 85.7362 13.4806 85.7218 14.1391C85.6844 15.9946 85.906 15.8635 83.9778 15.8607C82.5878 15.8607 81.1978 15.8892 79.8107 15.8464C79.2467 15.8293 79.1258 16.0174 79.1517 16.5277C79.192 17.3543 79.1862 18.1837 79.1517 19.0103C79.1344 19.4493 79.2783 19.5747 79.7186 19.569C81.2496 19.5462 82.7835 19.5832 84.3145 19.549C85.011 19.5319 85.2354 19.7942 85.2239 20.4668C85.1894 22.2455 85.3851 22.1343 83.5692 22.1286C82.277 22.1258 80.982 22.14 79.6899 22.1201C79.2956 22.1144 79.1402 22.2141 79.1517 22.6303C79.1805 23.5994 79.1805 24.5714 79.1517 25.5376C79.1373 25.9709 79.2726 26.1048 79.7158 26.0991C81.4166 26.0763 83.1173 26.1162 84.8153 26.0763C85.5203 26.0621 85.7304 26.3272 85.7189 26.9942C85.6901 28.8127 85.8398 28.6502 84.0613 28.6502C82.3375 28.6502 80.6136 28.6559 78.8898 28.6502C77.2379 28.6445 76.2163 27.6241 76.2106 25.9794C76.2048 24.3006 76.2106 22.6217 76.2106 20.9429V20.9372Z" fill="white"/>
<path d="M91.794 26.1704C93.9524 26.1704 95.964 26.1704 97.9727 26.1704C98.931 26.1704 98.98 26.2245 98.9828 27.1823C98.9828 28.159 98.4888 28.6473 97.5008 28.6473C95.2244 28.6473 92.9509 28.6331 90.6745 28.653C89.8083 28.6616 89.1176 28.3965 88.7119 27.6098C88.3234 26.8516 88.5162 26.159 88.9824 25.4834C91.0458 22.4934 93.0977 19.4977 95.1467 16.4991C95.2877 16.2939 95.5007 16.1172 95.5237 15.7552H91.23C90.9911 15.7552 90.7523 15.7552 90.5105 15.7552C88.5881 15.7409 88.7982 16.026 88.7925 13.891C88.7925 13.4777 88.991 13.2925 89.4112 13.2925C91.9984 13.2982 94.5855 13.2554 97.1698 13.3153C98.6461 13.3495 99.3915 15.0027 98.5425 16.2711C97.236 18.2236 95.8978 20.1561 94.5711 22.0972C93.6761 23.4055 92.784 24.7167 91.794 26.1675V26.1704Z" fill="white"/>
<path d="M66.6619 22.1002C66.6619 20.256 66.6418 18.4119 66.6734 16.5677C66.6821 16.0318 66.5727 15.8152 65.9741 15.8494C65.0187 15.9036 64.0604 15.8494 63.102 15.8693C62.5639 15.8807 62.3049 15.6784 62.3106 15.1254C62.3337 13.0332 62.1034 13.3069 64.0632 13.3012C67.0332 13.2926 70.0002 13.2983 72.9701 13.3012C73.8536 13.3012 73.891 13.3411 73.8939 14.2332C73.8939 15.9834 74.0608 15.8693 72.219 15.8636C71.5715 15.8636 70.924 15.9007 70.2793 15.8522C69.7182 15.8123 69.5541 15.9834 69.557 16.5506C69.5829 20.2389 69.5714 23.9302 69.5714 27.6185C69.5714 28.619 69.5397 28.6532 68.5152 28.6475C66.4202 28.6361 66.6705 28.8955 66.6619 26.8546C66.6562 25.2698 66.6619 23.685 66.6619 22.1002V22.1002Z" fill="white"/>
<path d="M130.121 14.1504C130.121 15.6298 130.127 17.1091 130.115 18.5884C130.115 18.7937 130.233 19.1357 129.845 19.1158C129.468 19.0958 129.606 18.7623 129.612 18.5599C129.649 16.9523 129.698 15.3476 129.758 13.74C129.767 13.5405 129.629 13.2355 130.017 13.1899C130.368 13.1471 130.576 13.2383 130.711 13.6117C131.229 15.0284 131.787 16.4279 132.4 18.007C132.99 16.4678 133.522 15.0711 134.058 13.6773C134.15 13.4407 134.187 13.1728 134.559 13.1813C134.855 13.187 135.048 13.2041 135.056 13.5804C135.097 15.3048 135.157 17.0293 135.218 18.7538C135.226 18.9704 135.203 19.1272 134.93 19.13C134.625 19.13 134.668 18.9077 134.668 18.7338C134.662 17.2032 134.668 15.6754 134.668 14.1447C134.582 14.1305 134.492 14.1191 134.406 14.1048C134.104 14.9286 133.802 15.7523 133.497 16.5732C133.333 17.0179 133.148 17.454 132.999 17.9015C132.901 18.1923 132.794 18.3975 132.415 18.3889C132.055 18.3804 131.922 18.2151 131.813 17.9129C131.353 16.6502 130.869 15.3932 130.394 14.1362C130.308 14.1419 130.219 14.1476 130.13 14.1504H130.121Z" fill="white"/>
<path d="M120.837 23.4768C120.837 25.2013 120.843 26.7262 120.831 28.2512C120.831 28.4735 120.975 28.8497 120.538 28.8269C120.161 28.807 120.313 28.4649 120.313 28.2654C120.302 26.6806 120.299 25.0958 120.313 23.511C120.313 23.2915 120.146 22.9581 120.578 22.8982C120.929 22.8497 121.148 22.9666 121.318 23.2972C122.08 24.7965 122.866 26.2844 123.646 27.7752C123.689 27.855 123.741 27.9319 123.919 28.006C123.919 27.3448 123.919 26.6863 123.919 26.025C123.919 25.1272 123.919 24.2265 123.919 23.3286C123.919 23.1405 123.893 22.9182 124.172 22.9096C124.454 22.9011 124.44 23.1205 124.44 23.3115C124.44 25.0132 124.44 26.7177 124.44 28.4193C124.44 28.6046 124.472 28.8184 124.19 28.844C123.89 28.8725 123.64 28.8497 123.476 28.5248C122.952 27.4901 122.403 26.4668 121.862 25.4379C121.548 24.8393 121.234 24.2407 120.837 23.4768V23.4768Z" fill="white"/>
<path d="M110.382 25.8711C110.382 25.0673 110.402 24.2635 110.373 23.4597C110.359 23.0436 110.457 22.8612 110.923 22.884C111.711 22.921 112.503 22.8925 113.291 22.8954C113.473 22.8954 113.72 22.8469 113.737 23.1177C113.763 23.4597 113.476 23.3856 113.277 23.3885C112.678 23.397 112.077 23.4227 111.484 23.3828C111.018 23.3514 110.937 23.5367 110.934 23.95C110.92 25.569 110.906 25.5519 112.56 25.5833C112.888 25.589 113.507 25.3125 113.51 25.8227C113.513 26.3529 112.894 26.0621 112.572 26.0678C110.934 26.102 110.96 26.0849 110.929 27.6897C110.917 28.2569 111.087 28.4308 111.648 28.3852C112.218 28.3367 112.796 28.3709 113.369 28.3766C113.53 28.3766 113.732 28.3396 113.755 28.5818C113.781 28.8783 113.548 28.8469 113.363 28.8498C112.526 28.8526 111.688 28.8327 110.851 28.8583C110.454 28.8697 110.339 28.7073 110.382 28.3567C110.385 28.3339 110.382 28.3082 110.382 28.2854C110.382 27.4816 110.382 26.6778 110.382 25.874V25.8711Z" fill="white"/>
<path d="M150.033 25.8199C150.033 25.0161 150.05 24.2152 150.024 23.4114C150.01 23.0038 150.156 22.8755 150.559 22.8869C151.348 22.9126 152.136 22.8898 152.925 22.8983C153.123 22.8983 153.403 22.8299 153.388 23.1691C153.374 23.457 153.123 23.3857 152.951 23.3886C152.306 23.3971 151.659 23.4028 151.014 23.3886C150.686 23.38 150.565 23.4741 150.545 23.8247C150.441 25.572 150.43 25.5549 152.194 25.5862C152.531 25.5919 153.172 25.3069 153.167 25.8598C153.161 26.313 152.536 26.0651 152.2 26.0708C150.531 26.0993 150.551 26.085 150.545 27.7553C150.545 28.2513 150.689 28.4195 151.19 28.3853C151.785 28.3454 152.384 28.3739 152.982 28.3796C153.161 28.3796 153.408 28.3283 153.397 28.6218C153.385 28.9097 153.135 28.8442 152.962 28.847C152.151 28.8527 151.336 28.8356 150.525 28.8556C150.156 28.8641 150.015 28.7444 150.027 28.371C150.05 27.5216 150.033 26.6722 150.033 25.8228V25.8199Z" fill="white"/>
<path d="M115.973 18.6397C116.995 18.6397 117.876 18.634 118.756 18.6454C118.966 18.6454 119.306 18.5371 119.277 18.9247C119.254 19.2554 118.949 19.13 118.762 19.1328C117.853 19.1442 116.943 19.1414 116.034 19.1385C115.277 19.1385 115.168 18.9561 115.571 18.3233C116.414 17.0036 117.28 15.6981 118.129 14.3841C118.253 14.1932 118.451 14.0335 118.446 13.6801C117.611 13.6801 116.782 13.6858 115.953 13.6772C115.755 13.6772 115.464 13.7513 115.461 13.4293C115.458 13.0844 115.763 13.1984 115.95 13.1955C116.86 13.1841 117.769 13.1841 118.679 13.1927C119.303 13.1984 119.398 13.3951 119.024 13.9765C118.201 15.2506 117.361 16.5162 116.526 17.7875C116.371 18.0212 116.221 18.2578 115.971 18.6454L115.973 18.6397Z" fill="white"/>
<path d="M107.349 16.7273C107.904 15.6128 108.396 14.6265 108.885 13.6375C109.026 13.3496 109.15 13.056 109.637 13.2641C109.205 14.1249 108.799 14.9942 108.342 15.8379C107.87 16.7045 107.493 17.5767 107.628 18.5971C107.654 18.7995 107.74 19.1244 107.352 19.1244C106.949 19.1244 107.07 18.7909 107.093 18.5971C107.199 17.6622 106.908 16.8441 106.459 16.0375C105.967 15.1482 105.55 14.2161 105.098 13.2983C105.564 13.0189 105.682 13.3553 105.826 13.646C106.313 14.6322 106.802 15.6213 107.349 16.7273Z" fill="white"/>
<path d="M106.957 26.0392C106.957 25.3295 106.934 24.6197 106.966 23.91C106.983 23.5024 106.842 23.3599 106.436 23.3969C106.128 23.4254 105.815 23.4026 105.504 23.4026C105.331 23.4026 105.15 23.4026 105.136 23.1689C105.121 22.9494 105.268 22.8867 105.458 22.8867C106.655 22.8867 107.852 22.8867 109.052 22.8867C109.245 22.8867 109.38 22.958 109.366 23.1775C109.355 23.3713 109.208 23.3884 109.061 23.3969C108.966 23.4026 108.868 23.3969 108.773 23.3998C107.944 23.415 107.53 23.8454 107.53 24.691C107.53 25.8967 107.536 27.1052 107.524 28.3109C107.524 28.5247 107.625 28.8411 107.242 28.8411C106.854 28.8411 106.969 28.519 106.966 28.3109C106.954 27.5528 106.96 26.7974 106.96 26.0392H106.957Z" fill="white"/>
<path d="M122.938 16.1229C122.938 15.4132 122.912 14.7006 122.952 13.9937C122.967 13.7229 122.693 13.2013 123.228 13.2241C123.703 13.2441 123.467 13.7486 123.473 14.0279C123.499 15.3533 123.505 16.6787 123.473 18.0013C123.462 18.4802 123.582 18.6911 124.106 18.6512C124.653 18.6113 125.208 18.6369 125.758 18.6426C125.942 18.6426 126.181 18.617 126.175 18.8992C126.17 19.1899 125.922 19.13 125.747 19.1329C124.955 19.1386 124.167 19.1243 123.375 19.1415C123.018 19.15 122.926 19.0018 122.932 18.6768C122.946 17.8246 122.938 16.9723 122.938 16.1201V16.1229Z" fill="white"/>
<path d="M132.124 25.6573C132.124 26.4126 132.135 27.1708 132.118 27.9262C132.109 28.2653 132.236 28.3851 132.579 28.3737C133.2 28.3566 133.825 28.3651 134.446 28.3737C134.605 28.3737 134.806 28.3366 134.829 28.5789C134.858 28.8696 134.639 28.8554 134.446 28.8582C133.632 28.8582 132.817 28.8468 132.006 28.8639C131.64 28.8725 131.566 28.6958 131.568 28.3851C131.574 26.7062 131.568 25.0273 131.571 23.3485C131.571 23.1347 131.551 22.8867 131.876 22.901C132.219 22.9181 132.121 23.1946 132.124 23.3855C132.132 24.1409 132.127 24.8991 132.127 25.6544L132.124 25.6573Z" fill="white"/>
<path d="M145.592 25.871C145.592 25.0444 145.586 24.2207 145.598 23.3941C145.598 23.2059 145.497 22.9181 145.837 22.9038C146.217 22.8896 146.139 23.1945 146.139 23.414C146.145 24.805 146.171 26.1988 146.127 27.5898C146.107 28.1884 146.237 28.4591 146.901 28.3822C147.419 28.3223 147.952 28.3708 148.476 28.3708C148.657 28.3708 148.815 28.4021 148.795 28.6359C148.781 28.824 148.637 28.8496 148.49 28.8496C147.63 28.8496 146.772 28.8496 145.912 28.8496C145.532 28.8496 145.595 28.5732 145.595 28.348C145.592 27.5214 145.595 26.6976 145.595 25.871H145.592Z" fill="white"/>
<path d="M119.073 28.7585C118.653 28.9181 118.428 28.8098 118.221 28.5618C117.556 27.758 116.891 26.9514 116.198 26.1704C115.948 25.8882 116.002 25.7115 116.221 25.4549C116.851 24.7138 117.461 23.9585 118.071 23.1974C118.287 22.9295 118.517 22.8012 118.917 22.9951C118.224 23.8416 117.565 24.6711 116.874 25.472C116.644 25.74 116.627 25.8939 116.871 26.1675C117.611 26.9941 118.313 27.8549 119.076 28.7556L119.073 28.7585Z" fill="white"/>
<path d="M141.779 26.2445C141.779 27.0939 141.742 27.9461 141.788 28.7955C141.828 29.5395 141.356 29.9585 140.896 30.406C140.775 30.5257 140.662 30.5343 140.53 30.406C140.375 30.2549 140.378 30.1095 140.547 29.9955C141.353 29.454 141.275 28.6416 141.267 27.835C141.252 26.3955 141.255 24.9533 141.27 23.5138C141.27 23.3 141.1 22.9124 141.54 22.9267C141.909 22.9381 141.77 23.2801 141.773 23.4853C141.788 24.406 141.779 25.3267 141.779 26.2473V26.2445Z" fill="white"/>
<path d="M120.751 16.1486C120.751 15.322 120.745 14.4926 120.754 13.666C120.754 13.4779 120.653 13.2128 121.004 13.19C121.346 13.1672 121.309 13.4094 121.309 13.6175C121.309 15.3192 121.309 17.0237 121.309 18.7254C121.309 18.9106 121.335 19.1187 121.047 19.1358C120.699 19.1558 120.751 18.9106 120.751 18.7026C120.751 17.8503 120.751 17.0009 120.751 16.1486Z" fill="white"/>
<path d="M115.182 25.8682C115.182 25.0444 115.182 24.2178 115.182 23.3941C115.182 23.1661 115.13 22.8696 115.504 22.901C115.827 22.9266 115.74 23.206 115.74 23.3998C115.746 25.0501 115.746 26.6977 115.74 28.348C115.74 28.5418 115.821 28.8183 115.499 28.8411C115.119 28.8668 115.188 28.5618 115.185 28.3423C115.179 27.5186 115.185 26.6919 115.182 25.8682V25.8682Z" fill="white"/>
<path d="M160.994 25.9682C160.994 26.7948 160.994 27.6214 160.994 28.448C160.994 28.6247 161.043 28.8442 160.738 28.8442C160.468 28.8442 160.436 28.6731 160.436 28.4679C160.436 26.7435 160.436 25.0218 160.436 23.2974C160.436 23.0978 160.447 22.9097 160.718 22.9012C161.081 22.8869 160.991 23.1577 160.991 23.3487C161 24.2209 160.994 25.0959 160.994 25.9682V25.9682Z" fill="white"/>
<path d="M127.447 16.1001C127.447 15.2763 127.444 14.4526 127.45 13.626C127.45 13.4578 127.373 13.2184 127.672 13.1984C128.02 13.1756 127.957 13.4378 127.96 13.6374C127.962 15.3333 127.962 17.0293 127.96 18.7253C127.96 18.9077 128 19.1329 127.701 19.1272C127.413 19.1215 127.447 18.8963 127.447 18.7167C127.442 17.8445 127.447 16.9723 127.447 16.1029V16.1001Z" fill="white"/>
<path d="M143.408 25.8967C143.408 25.0445 143.405 24.195 143.408 23.3428C143.408 23.1661 143.35 22.9266 143.638 22.9124C143.983 22.8953 143.917 23.1689 143.917 23.3656C143.92 25.0445 143.92 26.7233 143.917 28.3993C143.917 28.5732 143.978 28.8126 143.687 28.8269C143.339 28.844 143.408 28.5703 143.408 28.3765C143.399 27.5499 143.405 26.7205 143.405 25.8939L143.408 25.8967Z" fill="white"/>
<path d="M160.997 21.9234C160.954 22.1059 161.095 22.3909 160.75 22.3995C160.315 22.4137 160.447 22.0745 160.433 21.8465C160.422 21.6441 160.381 21.4018 160.718 21.4104C161.121 21.4218 160.945 21.7325 160.997 21.9234Z" fill="white"/>
<path d="M143.402 21.8834C143.445 21.7038 143.304 21.4188 143.655 21.4217C143.995 21.4217 143.914 21.6924 143.909 21.8834C143.906 22.0915 144.009 22.4107 143.624 22.3822C143.307 22.3566 143.442 22.0687 143.399 21.8863L143.402 21.8834Z" fill="white"/>
<path d="M21.2152 0.565495C9.6204 0.536991 0.0487473 9.89756 -0.000175741 21.3047C-0.0490988 33.0795 9.33261 42.5256 21.1173 42.5655C32.7811 42.6054 42.3067 33.2049 42.3442 21.6125C42.3787 10.0401 32.8963 0.593998 21.2152 0.565495ZM9.64342 24.2919C9.46787 24.956 9.20599 25.3237 8.5815 25.1584C7.46778 25.1584 7.45627 25.1413 7.72103 24.2178C8.91245 20.0591 10.1096 15.9004 11.2895 11.736C11.5284 10.8895 11.986 10.3023 12.8781 10.0885C13.2263 10.0059 13.3702 10.0714 13.422 10.479C13.5083 11.1574 13.1601 11.6733 12.9587 12.2605C12.6047 13.2866 12.3515 14.3498 12.0637 15.3959C11.2492 18.3603 10.4233 21.3189 9.64342 24.2919V24.2919ZM18.4841 31.965C17.8625 31.985 17.5718 31.8453 17.5776 31.147C17.6035 27.1736 17.5776 23.2002 17.6035 19.2268C17.6064 18.6425 17.4596 18.4515 16.8524 18.4743C15.6811 18.5227 14.5069 18.4657 13.3328 18.4971C12.6824 18.5142 12.6565 18.1465 12.6709 17.6762C12.6853 17.223 12.5961 16.7441 13.3155 16.7498C15.2063 16.7641 17.0999 16.7669 18.9906 16.7441C19.4683 16.7384 19.4654 16.9892 19.4654 17.3256C19.4597 19.6429 19.4626 21.9603 19.4626 24.2805C19.4626 26.575 19.4309 28.8695 19.4798 31.1641C19.4971 31.9679 19.0654 31.9479 18.487 31.965H18.4841ZM21.0396 22.117C20.9504 19.1641 20.9619 16.2054 21.0339 13.2496C21.0799 11.4653 22.0267 10.4819 23.8311 10.174C25.5664 9.87761 27.319 10.0486 29.0601 10.1484C29.7853 10.1883 29.4141 10.7869 29.486 11.146C29.5637 11.528 29.3853 11.6933 28.9709 11.6933C27.5838 11.6847 26.1938 11.6762 24.8067 11.7246C23.2843 11.7759 22.8613 12.2235 22.8555 13.737C22.8411 16.3394 22.844 18.9389 22.8555 21.5413C22.8613 23.1403 23.3217 23.6021 24.9391 23.6705C25.2873 23.6847 25.6384 23.6705 26.1334 23.6705C25.7477 24.2292 25.4427 24.6681 25.1405 25.1099C25.0312 25.2695 24.8729 25.2752 24.7002 25.2838C22.657 25.3835 21.0972 24.1322 21.0367 22.117H21.0396ZM34.7323 31.6914C34.5769 31.9821 34.2949 31.9394 34.0359 31.9394C32.6459 31.9422 31.2588 31.9394 29.8688 31.9394C28.5766 31.9394 27.2816 31.9536 25.9895 31.9308C25.4053 31.9194 24.7146 32.0106 24.4211 31.3379C24.1189 30.651 24.2023 29.9384 24.6311 29.3085C25.5923 27.8947 26.5737 26.4952 27.5464 25.09C28.8846 23.1574 30.2285 21.2277 31.5609 19.2952C31.7048 19.0871 32.0099 18.8705 31.889 18.6311C31.7422 18.3403 31.3681 18.5028 31.0976 18.4999C29.181 18.4857 27.2644 18.4714 25.3506 18.5056C24.7031 18.517 24.5333 18.2833 24.539 17.6762C24.5477 17.1033 24.6455 16.8125 25.3247 16.8239C27.5752 16.8581 29.8285 16.8296 32.079 16.841C32.7121 16.8439 33.4632 16.727 33.8114 17.4168C34.1798 18.1465 34.0013 18.8847 33.5351 19.5574C31.7653 22.1142 29.9983 24.6767 28.2313 27.2363C27.6931 28.0173 27.1464 28.7954 26.6197 29.585C26.496 29.7702 26.2111 29.947 26.3607 30.1921C26.4758 30.3802 26.7579 30.2862 26.9679 30.2862C29.2673 30.2919 31.5667 30.2862 33.8661 30.289C34.6834 30.289 35.1064 30.9845 34.7294 31.6971L34.7323 31.6914Z" fill="white"/>
<path d="M62.3223 27.7552C62.2071 27.3704 62.0748 26.9913 61.9539 26.6066C60.6618 22.5505 59.3754 18.4944 58.0803 14.4412C57.7897 13.5263 57.499 13.3039 56.6098 13.2954C55.9623 13.2897 55.3176 13.3068 54.6701 13.2897C53.942 13.2726 53.5075 13.6061 53.2974 14.2873C53.0067 15.2365 52.6959 16.1799 52.3966 17.1263C51.28 20.6408 50.1606 24.1552 49.0468 27.6726C48.808 28.4251 48.9576 28.6303 49.7318 28.6417C50.2095 28.6474 50.6901 28.6189 51.1678 28.6503C51.6369 28.6816 51.87 28.4792 51.9937 28.0545C52.2038 27.3277 52.4513 26.6123 52.6556 25.8854C52.7477 25.5633 52.9031 25.4322 53.2571 25.4351C54.8601 25.4522 56.463 25.4493 58.066 25.4351C58.4084 25.4322 58.5782 25.5348 58.6703 25.8769C58.8602 26.5837 59.125 27.2707 59.3149 27.9804C59.4473 28.4764 59.715 28.7016 60.2358 28.6474C60.4488 28.6246 60.6675 28.6446 60.8805 28.6446C61.1424 28.6446 61.4071 28.6503 61.669 28.6446C62.3539 28.6246 62.5151 28.4051 62.3194 27.7524L62.3223 27.7552ZM57.2055 22.9467C56.1292 22.9153 55.0529 22.9353 53.9766 22.9353C53.7204 22.9353 53.496 22.9467 53.614 22.5533C54.2442 20.4982 54.8543 18.4374 55.4759 16.3795C55.4989 16.3025 55.5824 16.2398 55.6342 16.1771C55.8817 16.274 55.8874 16.4764 55.9392 16.6503C56.4975 18.5543 57.0472 20.4612 57.6199 22.3595C57.7465 22.7814 57.712 22.9581 57.2026 22.9438L57.2055 22.9467Z" fill="white"/>
<path d="M157.935 26.9059C157.843 26.7662 157.601 26.5867 157.88 26.4442C158.899 25.9197 158.565 24.9876 158.591 24.1781C158.614 23.4883 158.208 23.0779 157.529 22.9639C156.747 22.8299 155.955 22.9211 155.167 22.904C154.925 22.8983 154.833 23.018 154.833 23.2518C154.839 24.999 154.833 26.7463 154.833 28.4936C154.833 28.6674 154.85 28.8242 155.083 28.8413C155.357 28.8584 155.391 28.6902 155.391 28.4793C155.391 27.9833 155.4 27.4874 155.388 26.9914C155.38 26.6978 155.477 26.581 155.794 26.561C156.588 26.5069 157.299 26.5354 157.676 27.419C157.849 27.8237 158.171 28.1686 158.416 28.5477C158.574 28.7957 158.767 28.924 159.178 28.7672C158.747 28.123 158.335 27.5187 157.935 26.9088V26.9059ZM156.818 26.1078C155.867 26.1306 155.391 25.667 155.391 24.7168V24.4318C155.391 23.7382 155.745 23.399 156.453 23.4142C156.741 23.4142 157.031 23.3886 157.313 23.4199C157.777 23.4712 158.05 23.7363 158.076 24.2123C158.088 24.4261 158.085 24.637 158.085 24.8508C158.082 25.8712 157.866 26.085 156.818 26.1107V26.1078Z" fill="white"/>
<path d="M130.095 24.4487C130.061 23.605 129.623 23.0748 128.791 22.8981C128.25 22.7812 127.695 22.7784 127.157 22.9181C126.388 23.1147 125.957 23.6021 125.931 24.3803C125.899 25.395 125.896 26.4126 125.931 27.4245C125.957 28.1342 126.354 28.6074 127.056 28.8154C127.617 28.9836 128.19 28.995 128.757 28.8724C129.637 28.6815 130.066 28.1713 130.095 27.2819C130.109 26.8344 130.095 26.3841 130.095 25.9366C130.095 25.4406 130.112 24.9447 130.092 24.4487H130.095ZM129.563 27.148C129.537 28.08 129.068 28.4762 128.009 28.4734C126.947 28.4677 126.481 28.0772 126.46 27.1423C126.443 26.29 126.44 25.4406 126.46 24.5884C126.483 23.6791 126.984 23.2857 128.052 23.2971C129.071 23.3085 129.531 23.699 129.56 24.5941C129.574 25.0188 129.56 25.4463 129.56 25.871C129.56 26.2957 129.568 26.7233 129.56 27.148H129.563Z" fill="white"/>
<path d="M139.756 24.4061C139.713 23.5909 139.29 23.0949 138.484 22.9068C137.943 22.7814 137.39 22.7814 136.849 22.9068C136.078 23.0892 135.629 23.5681 135.597 24.3491C135.554 25.361 135.554 26.3785 135.595 27.3933C135.623 28.1743 136.058 28.6417 136.835 28.8441C137.399 28.9923 137.972 28.9895 138.536 28.8384C139.313 28.6303 139.713 28.1657 139.756 27.3762C139.785 26.8831 139.762 26.3842 139.762 25.8883C139.762 25.3923 139.785 24.8964 139.756 24.4004V24.4061ZM139.235 27.2707C139.198 28.123 138.616 28.5135 137.557 28.4736C136.582 28.4365 136.144 28.0517 136.118 27.1852C136.107 26.7605 136.118 26.3358 136.118 25.9139C136.118 25.4664 136.107 25.0189 136.118 24.5714C136.144 23.7192 136.599 23.3258 137.572 23.2973C138.645 23.266 139.198 23.645 139.235 24.5144C139.272 25.4322 139.275 26.3529 139.235 27.2707V27.2707Z" fill="white"/>
<path d="M114.327 18.8677C113.683 17.0378 113.053 15.205 112.385 13.3865C112.261 13.053 111.596 13.0958 111.47 13.4463C110.822 15.2221 110.204 17.0093 109.573 18.7936C109.533 18.9048 109.475 19.0359 109.614 19.1015C109.743 19.1642 109.904 19.167 109.991 19.0188C110.063 18.8991 110.134 18.7651 110.155 18.6311C110.287 17.7333 110.802 17.4055 111.688 17.5794C111.827 17.6079 111.976 17.5822 112.117 17.5822C112.906 17.5822 113.437 17.9357 113.712 18.6425C113.769 18.7936 113.835 18.9561 113.942 19.0701C114.002 19.1328 114.163 19.1157 114.273 19.1043C114.31 19.1015 114.336 19.0017 114.362 18.9618C114.342 18.9133 114.333 18.8934 114.325 18.8706L114.327 18.8677ZM112.802 17.1176C112.16 17.1062 111.306 17.3428 110.94 17.0235C110.54 16.6758 111.173 15.9575 111.314 15.3931C111.453 14.8259 111.677 14.2815 111.927 13.5376C112.35 14.7547 112.699 15.7722 113.061 16.787C113.156 17.0577 113.044 17.1233 112.802 17.1176Z" fill="white"/>
</g>
<defs>
<clipPath id="clip0_870_3804">
<rect width="161" height="42" fill="white" transform="translate(0 0.565674)"/>
</clipPath>
</defs>
</svg>
