<svg width="1239" height="982" viewBox="0 0 1239 982" fill="none" xmlns="http://www.w3.org/2000/svg">
<g filter="url(#filter0_f_371_1972)">
<path fill-rule="evenodd" clip-rule="evenodd" d="M617.011 255.834C683.222 262.501 756.972 230.736 812.944 266.744C868.876 302.726 876.377 379.974 904.026 440.477C929.077 495.293 953.127 547.873 968.099 606.256C987.16 680.581 1051.35 769.446 1003.84 829.688C953.258 893.833 840.673 831.709 765.373 863.337C703.947 889.139 680.683 972.562 617.011 992.171C547.902 1013.45 471.724 1001.15 404.514 974.47C331.877 945.632 241.658 910.378 221.043 834.966C199.292 755.398 301.183 688.702 303.855 606.256C306.388 528.083 217.06 461.936 235.596 385.952C253.922 310.831 323.743 249.805 396.9 224.849C468.243 200.51 542.012 248.281 617.011 255.834Z" fill="url(#paint0_linear_371_1972)" fill-opacity="0.29"/>
</g>
<defs>
<filter id="filter0_f_371_1972" x="0" y="0" width="1239" height="1221" filterUnits="userSpaceOnUse" color-interpolation-filters="sRGB">
<feFlood flood-opacity="0" result="BackgroundImageFix"/>
<feBlend mode="normal" in="SourceGraphic" in2="BackgroundImageFix" result="shape"/>
<feGaussianBlur stdDeviation="109" result="effect1_foregroundBlur_371_1972"/>
</filter>
<linearGradient id="paint0_linear_371_1972" x1="-141.348" y1="614.527" x2="606.28" y2="1379.3" gradientUnits="userSpaceOnUse">
<stop stop-color="#E25544"/>
<stop offset="1" stop-color="#620C90"/>
</linearGradient>
</defs>
</svg>
