<svg width="79" height="51" viewBox="0 0 79 51" fill="none" xmlns="http://www.w3.org/2000/svg">
<path d="M30.4831 22.6277C29.2043 22.6277 28.3925 23.4602 28.1401 24.5639H32.6906C32.5361 23.3453 31.6829 22.6277 30.4831 22.6277Z" fill="white"/>
<path d="M18.3215 23.1118C16.6942 23.1118 15.6677 24.2344 15.6677 25.8033C15.6677 27.3533 16.713 28.5136 18.3215 28.5136C19.93 28.5136 21.013 27.4099 21.013 25.8033C21.013 24.1967 19.9281 23.1118 18.3215 23.1118Z" fill="white"/>
<path d="M51.1615 20.5371C48.7186 20.5371 46.8163 21.5127 46.5056 24.046C46.483 24.0479 46.5206 24.046 46.498 24.046C45.7296 12.5663 36.674 3.48999 25.0003 3.48999C15.7752 3.48999 7.87785 9.16107 4.59311 17.2053H12.4151L12.0083 19.8384H5.87009V22.6277H11.4282L11.0025 25.1648H5.87009V26.7921C5.87009 27.779 6.29575 28.2442 7.1094 28.2442H12.3567L11.931 30.8773H6.12059C5.83807 30.8773 5.56874 30.8509 5.31259 30.8057V30.8076C5.31259 30.8076 4.30683 30.6983 3.6834 29.8885C3.66834 29.8696 3.41407 29.5683 3.28976 29.0729C3.25774 28.943 3.25398 28.9354 3.22949 28.8337C3.27093 29.1614 3.34062 29.6022 3.37263 29.7641C3.54968 30.6833 3.77381 31.4611 3.79453 31.5158C6.40499 40.7748 14.9069 47.5647 25.0003 47.5647C35.3254 47.5647 44.0477 40.4622 46.4378 30.8791H43.4751V25.4962C43.4751 24.0441 42.9138 23.1137 41.4805 23.1137C40.0472 23.1137 39.4859 24.0441 39.4859 25.4962V30.8791H36.5233V24.7598C36.5233 21.8348 38.6535 20.539 41.4805 20.539C44.3076 20.539 46.4378 21.8367 46.4378 24.7598L46.4359 30.8791H49.4174V25.4962C49.4174 24.0441 49.8054 23.1137 51.218 23.1137C51.6643 23.1137 52.2049 23.2493 52.3989 23.3453L52.9602 20.7499C52.6343 20.7104 51.8018 20.5371 51.1615 20.5371ZM23.9945 25.2043C23.9945 28.9034 21.806 31.0713 18.1841 31.0713C14.8334 31.0713 12.5676 28.8243 12.5676 25.8032C12.5676 22.6466 14.7167 20.5352 17.9317 20.5352C19.4027 20.5352 20.4876 21.1153 21.03 21.6973V17.2053H23.9927V25.2043H23.9945ZM31.47 28.845C32.342 28.845 33.1481 28.5926 33.9053 28.2442L33.6585 30.5872C32.8072 30.9357 31.7807 31.0713 30.7543 31.0713C27.3452 31.0713 24.9438 29.0767 24.9438 25.6884C24.9438 22.7445 27.0928 20.5371 30.3851 20.5371C34.103 20.5371 35.962 22.899 35.8848 26.5397H28.2172C28.5073 28.2065 30.0951 28.845 31.47 28.845Z" fill="white"/>
<path d="M57.8817 20.5371C54.5894 20.5371 52.4404 22.7445 52.4404 25.6884C52.4404 29.0767 54.8418 31.0713 58.2509 31.0713C59.2774 31.0713 60.3038 30.9356 61.1552 30.5872L61.4019 28.2442C60.6466 28.5926 59.8386 28.845 58.9685 28.845C57.5936 28.845 56.0058 28.2065 55.7157 26.5397H63.3852C63.4586 22.899 61.5997 20.5371 57.8817 20.5371ZM55.6348 24.5658C55.8871 23.4621 56.7008 22.6296 57.9778 22.6296C59.1794 22.6296 60.0307 23.3453 60.1852 24.5658H55.6348Z" fill="white"/>
<path d="M72.1733 17.2053V21.6974C71.6309 21.1173 70.546 20.5353 69.075 20.5353C65.86 20.5353 63.7109 22.6466 63.7109 25.8033C63.7109 28.8243 65.9767 31.0713 69.3274 31.0713C72.9493 31.0713 75.1378 28.9016 75.1378 25.2043V17.2053H72.1733ZM69.4611 28.5155C67.8545 28.5155 66.8073 27.3534 66.8073 25.8052C66.8073 24.2362 67.8338 23.1137 69.4611 23.1137C71.0677 23.1137 72.1526 24.1986 72.1526 25.8052C72.1545 27.4117 71.0696 28.5155 69.4611 28.5155Z" fill="white"/>
</svg>
