<svg xmlns="http://www.w3.org/2000/svg" width="123.895" height="75.929" viewBox="0 0 123.895 75.929">
  <g id="edenred-logo" transform="translate(-0.81 -0.49)">
    <path id="Path_24692" data-name="Path 24692" d="M47.769,33.458a4.012,4.012,0,0,0-4.04,3.34h7.84a3.6,3.6,0,0,0-3.8-3.34m-20.955.834a4.364,4.364,0,0,0-4.576,4.641A4.428,4.428,0,0,0,26.814,43.6a4.426,4.426,0,0,0,4.64-4.672,4.4,4.4,0,0,0-4.64-4.64" fill="#fff" fill-rule="evenodd"/>
    <path id="Path_24693" data-name="Path 24693" d="M49.47,44.17a9.945,9.945,0,0,0,4.191-1.036l-.423,4.036a13.476,13.476,0,0,1-5.006.836c-5.87,0-10.006-3.438-10.006-9.275,0-5.07,3.7-8.875,9.374-8.875,6.407,0,9.609,4.072,9.476,10.341H43.864c.5,2.869,3.234,3.972,5.606,3.972ZM36.59,37.9c0,6.376-3.769,10.11-10.013,10.11-5.77,0-9.676-3.868-9.676-9.073,0-5.439,3.7-9.077,9.244-9.077a7.356,7.356,0,0,1,5.338,2V24.116h5.108V37.9ZM83.4,29.856c-4.207,0-7.486,1.682-8.024,6.044-.034,0,.027,0-.01,0C74.038,16.126,58.434.49,38.32.49A37.974,37.974,0,0,0,3.16,24.116H16.638l-.7,4.542H5.358v4.8h9.575L14.2,37.83H5.357v2.8c0,1.7.736,2.5,2.138,2.5h9.04L15.8,47.673H5.793A7.7,7.7,0,0,1,4.4,47.547v0a4.507,4.507,0,0,1-2.808-1.585,3.854,3.854,0,0,1-.675-1.4c-.06-.224-.06-.236-.106-.414.072.568.19,1.324.246,1.609.306,1.58.691,2.923.727,3.017a38.036,38.036,0,0,0,73.474-1.1h-5.1V38.4c0-2.506-.967-4.108-3.436-4.108s-3.439,1.6-3.439,4.108v9.273h-5.1V37.129c0-5.037,3.672-7.273,8.544-7.273s8.543,2.236,8.543,7.273l0,10.544h5.137V38.4c0-2.506.666-4.108,3.1-4.108a5.8,5.8,0,0,1,2.04.4l.965-4.471a24.652,24.652,0,0,0-3.105-.368ZM91.1,36.8a4.019,4.019,0,0,1,4.038-3.339,3.6,3.6,0,0,1,3.8,3.34H91.1Zm3.872-6.941c-5.673,0-9.377,3.806-9.377,8.875,0,5.837,4.138,9.275,10.012,9.275a13.435,13.435,0,0,0,5-.835l.428-4.037a9.958,9.958,0,0,1-4.194,1.035c-2.37,0-5.106-1.1-5.607-3.972h13.212c.136-6.27-3.07-10.341-9.475-10.341ZM114.928,43.6a4.422,4.422,0,0,1-4.573-4.667,4.6,4.6,0,1,1,9.209,0A4.421,4.421,0,0,1,114.928,43.6ZM119.6,24.115v7.743a7.343,7.343,0,0,0-5.338-2c-5.538,0-9.24,3.639-9.24,9.078,0,5.2,3.9,9.072,9.673,9.072,6.243,0,10.014-3.735,10.014-10.11V24.116H119.6Z" fill="#fff" fill-rule="evenodd"/>
  </g>
</svg>
