<svg width="348" height="144" viewBox="0 0 348 144" fill="none" xmlns="http://www.w3.org/2000/svg">
<path d="M346.058 17.4451C347.979 23.5037 345.21 30.8685 338.241 39.0795C331.293 47.2674 320.269 56.1714 305.99 65.2488C277.439 83.3995 235.971 102.181 188.356 117.279C140.741 132.376 96.0272 140.92 62.2336 142.537C45.333 143.346 31.1929 142.421 20.7956 139.733C10.3689 137.038 3.86238 132.614 1.94135 126.555C0.0203199 120.496 2.78906 113.132 9.75754 104.921C16.7064 96.7328 27.7299 87.8288 42.0087 78.7514C70.56 60.6008 112.028 41.8192 159.643 26.7217C207.258 11.6242 251.972 3.07998 285.765 1.46276C302.666 0.653964 316.806 1.57932 327.203 4.26722C337.63 6.96272 344.137 11.3865 346.058 17.4451Z" stroke="white"/>
</svg>
