 <svg width="867" height="146" viewBox="0 0 867 146" fill="none" xmlns="http://www.w3.org/2000/svg">
    <g clip-path="url(#clip0)">
        <path d="M166.354 90.6177C169.483 105.712 167.098 121.43 159.632 134.911C174.251 137.652 187.28 141.437 198.108 146C204.723 131.124 207.753 114.898 206.952 98.6323C206.152 82.3668 201.544 66.5178 193.5 52.3652C184.1 65.693 174.85 78.7496 166.354 90.6177Z" fill="url(#paint0_linear)"/>
        <path d="M210.711 0.84794C214.777 -2.03687 219.742 2.96538 216.891 7.0445C189.508 46.2086 131.713 128.408 122.883 137.253C120.114 140.027 116.828 142.227 113.21 143.728C109.593 145.229 105.716 146.002 101.801 146.002C93.8931 146.002 86.309 142.856 80.7171 137.256C75.1252 131.655 71.9835 124.059 71.9829 116.138C71.9824 108.218 75.1231 100.621 80.7143 95.0195C89.5443 86.1689 171.606 28.2824 210.711 0.84794Z" fill="url(#paint1_linear)"/>
        <path d="M130.532 77.2495C127.323 79.4997 122.698 82.7537 118.194 85.9616C118.069 86.0521 117.917 86.095 117.763 86.0826C117.61 86.0702 117.466 86.0033 117.358 85.894C117.249 85.7847 117.183 85.6401 117.172 85.4864C117.16 85.3327 117.204 85.18 117.295 85.0558L118.856 82.8287C118.979 82.6531 119.036 82.4401 119.017 82.2268C118.998 82.0135 118.905 81.8136 118.754 81.6622C118.603 81.5108 118.403 81.4175 118.19 81.3987C117.977 81.3799 117.764 81.4368 117.589 81.5594C109.577 87.179 92.7753 99.0356 90.9667 100.847C90.6983 101.113 90.4571 101.405 90.2467 101.718C89.7321 102.134 89.2367 102.578 88.7606 103.051C85.3773 106.42 83.4264 110.97 83.3164 115.747C83.2065 120.524 84.946 125.159 88.1706 128.681C91.3953 132.202 95.8551 134.338 100.616 134.64C105.377 134.942 110.07 133.387 113.713 130.301C115.092 129.134 116.297 127.774 117.29 126.262C122.687 119.195 135.22 101.361 141.723 92.0601C141.876 91.8162 141.942 91.5273 141.908 91.2412C141.875 90.9551 141.745 90.6889 141.54 90.4869C141.335 90.2849 141.067 90.1592 140.781 90.1305C140.495 90.1018 140.207 90.1719 139.966 90.3292C136.631 92.637 132.202 95.7815 127.565 99.0702C127.366 99.2165 127.121 99.2866 126.874 99.2679C126.628 99.2492 126.396 99.1429 126.221 98.9682C126.046 98.7934 125.939 98.5618 125.919 98.3149C125.9 98.0681 125.969 97.8223 126.114 97.622V97.5816C126.236 97.4061 126.293 97.1929 126.274 96.9797C126.255 96.7664 126.162 96.5665 126.011 96.4151C125.86 96.2637 125.661 96.1704 125.448 96.1516C125.235 96.1328 125.022 96.1897 124.847 96.3123L119.818 99.849L120.936 98.2509C121.058 98.0754 121.115 97.8622 121.096 97.6489C121.077 97.4357 120.984 97.2358 120.833 97.0844C120.682 96.933 120.482 96.8397 120.269 96.8209C120.057 96.8021 119.844 96.859 119.668 96.9816C119.592 97.0581 119.488 97.1011 119.38 97.1011C119.272 97.1011 119.169 97.0581 119.092 96.9816C119.016 96.905 118.973 96.8013 118.973 96.6931C118.973 96.5849 119.016 96.4811 119.092 96.4046C123.332 90.5138 128.562 83.0653 131.764 78.49C131.864 78.3175 131.905 78.1167 131.879 77.9189C131.854 77.721 131.764 77.5371 131.624 77.3957C131.483 77.2543 131.3 77.1633 131.102 77.1369C130.905 77.1105 130.704 77.1501 130.532 77.2495Z" fill="#ffffff"/>
        <path d="M116.386 115.559C116.386 116.794 113.437 117.544 113.074 118.657C112.711 119.771 114.456 122.027 113.754 122.99C113.051 123.954 110.874 123.567 109.877 124.294C108.881 125.021 107.832 124.871 106.68 125.229C105.528 125.587 104.774 127.802 103.541 127.802C102.309 127.802 101.352 126.071 100.241 125.725C99.1291 125.379 97.5625 125.823 96.6006 125.119C95.6386 124.415 94.4291 123.671 93.7206 122.702C93.0531 121.629 92.5483 120.462 92.2229 119.24C91.7745 118.062 91.5047 116.823 91.4224 115.565C91.4224 114.324 92.9315 113.344 93.2943 112.23C93.6572 111.116 93.7954 109.922 94.4923 108.982C95.1893 108.041 95.2067 106.097 96.1743 105.416C97.2719 104.711 98.4648 104.167 99.7166 103.801C100.834 103.437 102.297 102.722 103.535 102.722C104.774 102.722 105.978 104.228 107.095 104.591C108.238 104.977 109.313 105.542 110.28 106.264C111.248 106.968 112.688 107.418 113.397 108.387C114.105 109.357 113.258 111.116 113.633 112.276C114.007 113.436 116.386 114.319 116.386 115.559Z" fill="#07071C"/>
        <path d="M133.044 46.6487C144.045 38.7963 155.841 30.4419 167.546 22.1913C149.352 7.8867 126.902 0.0941637 103.773 0.0558063C80.6438 0.017449 58.1678 7.73548 39.9269 21.9797C21.6861 36.2239 8.73032 56.1745 3.12479 78.6515C-2.48074 101.128 -0.413455 124.838 8.9971 146.001C19.8085 141.432 32.8549 137.653 47.4794 134.912C40.7893 122.845 38.1557 108.94 39.9684 95.2569C41.7811 81.5735 47.9438 68.8384 57.5444 58.9363C67.145 49.0342 79.6733 42.4914 93.275 40.2763C106.877 38.0612 120.829 40.2915 133.066 46.6372L133.044 46.6487Z" fill="url(#paint2_linear)"/>
    </g>
    
    <defs>
        <linearGradient id="paint0_linear" x1="61.92" y1="174.894" x2="205.511" y2="93.9739" gradientUnits="userSpaceOnUse">
            <stop offset="0.458333" stop-color="#ffffff"/>
            <stop offset="1" stop-color="#ffffff"/>
        </linearGradient>
        <linearGradient id="paint1_linear" x1="84.631" y1="133.33" x2="216.495" y2="1.68617" gradientUnits="userSpaceOnUse">
            <stop stop-color="#ffffff"/>
            <stop offset="1" stop-color="#ffffff" stop-opacity="0"/>
        </linearGradient>
        <linearGradient id="paint2_linear" x1="-344.934" y1="191.038" x2="-90.9041" y2="-133.226" gradientUnits="userSpaceOnUse">
            <stop offset="0.458333" stop-color="#ffffff"/>
            <stop offset="1" stop-color="#ffffff"/>
        </linearGradient>
        <clipPath id="clip0">
            <rect width="867" height="146" fill="white"/>
        </clipPath>
    </defs>
</svg>