 <svg width="867" height="146" viewBox="0 0 867 146" fill="none" xmlns="http://www.w3.org/2000/svg">
    <g clip-path="url(#clip0)">
        <path d="M270.43 30.8154H280.337V107.615H312.374V116.552H270.43V30.8154Z" fill="#ffffff"/>
        <path d="M347.838 51.2686C367.036 51.2686 380.975 65.6003 380.975 84.7323C380.975 103.864 366.788 118.196 347.717 118.196C328.646 118.196 314.574 104.112 314.574 84.7323C314.574 65.4791 328.882 51.2686 347.838 51.2686ZM347.717 109.328C361.408 109.328 371.195 98.9428 371.195 84.7092C371.195 70.6198 361.403 60.0903 347.717 60.0903C334.031 60.0903 324.481 70.7467 324.481 84.7092C324.481 99.0409 334.141 109.328 347.717 109.328Z" fill="#ffffff"/>
        <path d="M411.094 76.0086C419.158 76.0086 425.28 79.0723 427.843 81.7783V73.9316C427.843 64.9887 421.853 59.8422 412.436 59.8422C404.614 59.8422 398.255 62.6578 393.727 65.358L389.816 58.2498C394.096 55.5554 402.534 51.2686 413.294 51.2686C430.66 51.2686 437.486 60.9442 437.486 74.5431V116.552H429.168L428.068 111.163C424.768 114.959 419.388 118.144 410.829 118.144C396.884 118.144 386.637 109.328 386.637 96.9581C386.637 84.8304 396.786 76.0086 411.094 76.0086ZM412.436 110.049C421.732 110.049 428.212 104.539 428.212 96.8196C428.212 88.8633 421.876 83.7168 412.315 83.7168C402.655 83.7168 396.417 89.348 396.417 96.8196C396.417 104.182 402.655 110.049 412.436 110.049Z" fill="#ffffff"/>
        <path d="M509.537 116.552H500.12V106.513C497.713 110.139 494.438 113.103 490.593 115.134C486.749 117.166 482.457 118.201 478.111 118.144C459.886 118.144 447.047 104.297 447.047 84.8307C447.047 65.214 459.276 51.2688 477.373 51.2688C490.581 51.2688 497.919 59.8424 499.751 63.1484V28H509.543L509.537 116.552ZM478.433 60.0906C465.963 60.0906 456.914 70.3778 456.914 84.9518C456.914 99.7739 466.332 109.45 478.56 109.45C491.889 109.45 500.079 98.3027 500.079 84.9518C500.102 69.1546 490.322 60.0906 478.433 60.0906Z" fill="#ffffff"/>
        <path d="M612.48 116.552H602.849V78.2184C602.849 66.2118 597.959 60.0903 588.541 60.0903C579.613 60.0903 572.892 66.4369 572.892 78.3396V116.552H563.232V76.3779C563.232 66.2119 557.605 60.0903 548.677 60.0903C540.238 60.0903 533.269 67.1927 533.269 77.9761V116.557H523.609V52.861H533.148V62.0462C535.596 56.5362 542.318 51.2686 551.125 51.2686C560.663 51.2686 567.385 55.9247 570.323 62.9059C574.113 55.3131 581.693 51.2686 590.742 51.2686C604.928 51.2686 612.508 61.3134 612.508 75.2759L612.48 116.552Z" fill="#ffffff"/>
        <path d="M646.354 76.0086C654.418 76.0086 660.541 79.0723 663.104 81.7783V73.9316C663.104 64.9887 657.114 59.8422 647.702 59.8422C639.874 59.8422 633.515 62.6578 628.988 65.358L625.077 58.2498C629.356 55.5554 637.795 51.2686 648.554 51.2686C665.92 51.2686 672.746 60.9442 672.746 74.5431V116.552H664.48L663.38 111.163C660.08 114.959 654.7 118.144 646.141 118.144C632.196 118.144 621.949 109.328 621.949 96.9581C621.897 84.8304 632.046 76.0086 646.354 76.0086ZM647.702 110.049C656.993 110.049 663.472 104.539 663.472 96.8196C663.472 88.8633 657.136 83.7168 647.575 83.7168C637.916 83.7168 631.678 89.348 631.678 96.8196C631.678 104.182 637.916 110.049 647.702 110.049Z" fill="#ffffff"/>
        <path d="M737.148 76.7472V116.557H727.488V76.3837C727.488 66.2176 721.152 60.0961 712.449 60.0961C702.657 60.0961 695.941 67.3196 695.941 77.8549V116.557H686.282V52.861H695.814V62.0462C698.873 56.2766 705.963 51.2686 714.77 51.2686C729.568 51.2686 737.148 62.2943 737.148 76.7472Z" fill="#ffffff"/>
        <path d="M798.238 68.2949C795.789 65.7676 792.864 63.7522 789.631 62.3656C786.399 60.9791 782.924 60.2489 779.409 60.2175C766.08 60.2175 756.662 70.8739 756.662 84.7152C756.662 98.4296 766.57 109.334 779.65 109.334C789.678 109.334 796.038 103.455 798.606 100.882L801.538 109.086C798.975 111.786 791.17 118.15 779.288 118.15C760.332 118.15 746.634 103.576 746.634 84.6864C746.634 65.7967 760.7 51.2227 779.161 51.2227C790.779 51.2227 798.238 56.7326 801.538 59.9174L798.238 68.2949Z" fill="#ffffff"/>
        <path d="M836.795 51.2686C855.503 51.2686 867 64.7406 867 83.8495C867 84.2188 867 85.5804 866.873 86.792H815.886C816.007 100.997 825.546 109.57 838.753 109.57C849.513 109.57 855.503 103.939 858.562 99.6525L864.898 104.303C861.35 110.309 853.038 118.15 838.604 118.15C819.285 118.15 805.956 104.557 805.956 84.9573C805.979 64.6194 819.918 51.2686 836.795 51.2686ZM857.093 79.5396C856.482 66.3099 847.301 59.5768 836.795 59.5768C826.427 59.5768 817.107 67.5389 816.376 79.5396H857.093Z" fill="#ffffff"/>
        <path d="M166.354 90.6177C169.483 105.712 167.098 121.43 159.632 134.911C174.251 137.652 187.28 141.437 198.108 146C204.723 131.124 207.753 114.898 206.952 98.6323C206.152 82.3668 201.544 66.5178 193.5 52.3652C184.1 65.693 174.85 78.7496 166.354 90.6177Z" fill="url(#paint0_linear)"/>
        <path d="M210.711 0.84794C214.777 -2.03687 219.742 2.96538 216.891 7.0445C189.508 46.2086 131.713 128.408 122.883 137.253C120.114 140.027 116.828 142.227 113.21 143.728C109.593 145.229 105.716 146.002 101.801 146.002C93.8931 146.002 86.309 142.856 80.7171 137.256C75.1252 131.655 71.9835 124.059 71.9829 116.138C71.9824 108.218 75.1231 100.621 80.7143 95.0195C89.5443 86.1689 171.606 28.2824 210.711 0.84794Z" fill="url(#paint1_linear)"/>
        <path d="M130.532 77.2495C127.323 79.4997 122.698 82.7537 118.194 85.9616C118.069 86.0521 117.917 86.095 117.763 86.0826C117.61 86.0702 117.466 86.0033 117.358 85.894C117.249 85.7847 117.183 85.6401 117.172 85.4864C117.16 85.3327 117.204 85.18 117.295 85.0558L118.856 82.8287C118.979 82.6531 119.036 82.4401 119.017 82.2268C118.998 82.0135 118.905 81.8136 118.754 81.6622C118.603 81.5108 118.403 81.4175 118.19 81.3987C117.977 81.3799 117.764 81.4368 117.589 81.5594C109.577 87.179 92.7753 99.0356 90.9667 100.847C90.6983 101.113 90.4571 101.405 90.2467 101.718C89.7321 102.134 89.2367 102.578 88.7606 103.051C85.3773 106.42 83.4264 110.97 83.3164 115.747C83.2065 120.524 84.946 125.159 88.1706 128.681C91.3953 132.202 95.8551 134.338 100.616 134.64C105.377 134.942 110.07 133.387 113.713 130.301C115.092 129.134 116.297 127.774 117.29 126.262C122.687 119.195 135.22 101.361 141.723 92.0601C141.876 91.8162 141.942 91.5273 141.908 91.2412C141.875 90.9551 141.745 90.6889 141.54 90.4869C141.335 90.2849 141.067 90.1592 140.781 90.1305C140.495 90.1018 140.207 90.1719 139.966 90.3292C136.631 92.637 132.202 95.7815 127.565 99.0702C127.366 99.2165 127.121 99.2866 126.874 99.2679C126.628 99.2492 126.396 99.1429 126.221 98.9682C126.046 98.7934 125.939 98.5618 125.919 98.3149C125.9 98.0681 125.969 97.8223 126.114 97.622V97.5816C126.236 97.4061 126.293 97.1929 126.274 96.9797C126.255 96.7664 126.162 96.5665 126.011 96.4151C125.86 96.2637 125.661 96.1704 125.448 96.1516C125.235 96.1328 125.022 96.1897 124.847 96.3123L119.818 99.849L120.936 98.2509C121.058 98.0754 121.115 97.8622 121.096 97.6489C121.077 97.4357 120.984 97.2358 120.833 97.0844C120.682 96.933 120.482 96.8397 120.269 96.8209C120.057 96.8021 119.844 96.859 119.668 96.9816C119.592 97.0581 119.488 97.1011 119.38 97.1011C119.272 97.1011 119.169 97.0581 119.092 96.9816C119.016 96.905 118.973 96.8013 118.973 96.6931C118.973 96.5849 119.016 96.4811 119.092 96.4046C123.332 90.5138 128.562 83.0653 131.764 78.49C131.864 78.3175 131.905 78.1167 131.879 77.9189C131.854 77.721 131.764 77.5371 131.624 77.3957C131.483 77.2543 131.3 77.1633 131.102 77.1369C130.905 77.1105 130.704 77.1501 130.532 77.2495Z" fill="#ffffff"/>
        <path d="M116.386 115.559C116.386 116.794 113.437 117.544 113.074 118.657C112.711 119.771 114.456 122.027 113.754 122.99C113.051 123.954 110.874 123.567 109.877 124.294C108.881 125.021 107.832 124.871 106.68 125.229C105.528 125.587 104.774 127.802 103.541 127.802C102.309 127.802 101.352 126.071 100.241 125.725C99.1291 125.379 97.5625 125.823 96.6006 125.119C95.6386 124.415 94.4291 123.671 93.7206 122.702C93.0531 121.629 92.5483 120.462 92.2229 119.24C91.7745 118.062 91.5047 116.823 91.4224 115.565C91.4224 114.324 92.9315 113.344 93.2943 112.23C93.6572 111.116 93.7954 109.922 94.4923 108.982C95.1893 108.041 95.2067 106.097 96.1743 105.416C97.2719 104.711 98.4648 104.167 99.7166 103.801C100.834 103.437 102.297 102.722 103.535 102.722C104.774 102.722 105.978 104.228 107.095 104.591C108.238 104.977 109.313 105.542 110.28 106.264C111.248 106.968 112.688 107.418 113.397 108.387C114.105 109.357 113.258 111.116 113.633 112.276C114.007 113.436 116.386 114.319 116.386 115.559Z" fill="#07071C"/>
        <path d="M133.044 46.6487C144.045 38.7963 155.841 30.4419 167.546 22.1913C149.352 7.8867 126.902 0.0941637 103.773 0.0558063C80.6438 0.017449 58.1678 7.73548 39.9269 21.9797C21.6861 36.2239 8.73032 56.1745 3.12479 78.6515C-2.48074 101.128 -0.413455 124.838 8.9971 146.001C19.8085 141.432 32.8549 137.653 47.4794 134.912C40.7893 122.845 38.1557 108.94 39.9684 95.2569C41.7811 81.5735 47.9438 68.8384 57.5444 58.9363C67.145 49.0342 79.6733 42.4914 93.275 40.2763C106.877 38.0612 120.829 40.2915 133.066 46.6372L133.044 46.6487Z" fill="url(#paint2_linear)"/>
    </g>
    
    <defs>
        <linearGradient id="paint0_linear" x1="61.92" y1="174.894" x2="205.511" y2="93.9739" gradientUnits="userSpaceOnUse">
            <stop offset="0.458333" stop-color="#ffffff"/>
            <stop offset="1" stop-color="#ffffff"/>
        </linearGradient>
        <linearGradient id="paint1_linear" x1="84.631" y1="133.33" x2="216.495" y2="1.68617" gradientUnits="userSpaceOnUse">
            <stop stop-color="#ffffff"/>
            <stop offset="1" stop-color="#ffffff" stop-opacity="0"/>
        </linearGradient>
        <linearGradient id="paint2_linear" x1="-344.934" y1="191.038" x2="-90.9041" y2="-133.226" gradientUnits="userSpaceOnUse">
            <stop offset="0.458333" stop-color="#ffffff"/>
            <stop offset="1" stop-color="#ffffff"/>
        </linearGradient>
        <clipPath id="clip0">
            <rect width="867" height="146" fill="white"/>
        </clipPath>
    </defs>
</svg>