<svg xmlns="http://www.w3.org/2000/svg" width="49.594" height="80.316" viewBox="0 0 49.594 80.316">
  <path id="Path_3084" data-name="Path 3084" d="M12.723,39.082,2.594,40.75l9.68,1.595C2.246,61.478-2.14,77.89,2.454,80.542c3.854,2.225,12.937-5.868,22.587-19.311l.387,2.352.622-3.775q.355-.506.71-1.021c4.037,3.066,7.92,4.2,10.609,2.645,4.079-2.355,4.184-10.18.764-19.014L48.261,40.75l-9.68-1.594C48.609,20.023,53,3.61,48.4.958,44.547-1.267,35.465,6.826,25.815,20.269l-.387-2.352-.622,3.775q-.355.506-.71,1.021c-4.037-3.065-7.92-4.2-10.609-2.644C9.407,22.423,9.3,30.247,12.723,39.082Zm2.44,33.04A115.855,115.855,0,0,0,24.849,60.07l-.557-3.38a46.692,46.692,0,0,1-8.178-10.562q-1-1.727-1.828-3.452l-1.149-.189A135.5,135.5,0,0,0,3.391,65.325,39.209,39.209,0,0,0,1.464,75.337a9.135,9.135,0,0,0,.365,3.045,2.487,2.487,0,0,0,1.04,1.441A2.488,2.488,0,0,0,4.637,80,9.143,9.143,0,0,0,7.456,78.8,39.2,39.2,0,0,0,15.163,72.122Zm.129-29.28q.711,1.431,1.541,2.871a46.892,46.892,0,0,0,7.232,9.6L22.2,43.979ZM26.576,57.588l-.141-.116,2.223-13.493,7-1.153q-.8,1.437-1.634,2.886C31.577,49.947,29.068,53.934,26.576,57.588Zm.654.514q.271.207.541.4c3.8,2.736,7.07,3.43,9.183,2.21s3.147-4.4,2.678-9.058a35.15,35.15,0,0,0-2.336-9.1l-.594.1q-.951,1.727-1.959,3.473C32.277,50.4,29.746,54.417,27.23,58.1Zm9.34-19.278,1.149.189a135.513,135.513,0,0,0,9.746-22.839A39.21,39.21,0,0,0,49.391,6.163a9.142,9.142,0,0,0-.365-3.045,2.488,2.488,0,0,0-1.04-1.441,2.486,2.486,0,0,0-1.768-.18A9.135,9.135,0,0,0,43.4,2.7a39.206,39.206,0,0,0-7.707,6.675A115.862,115.862,0,0,0,26.006,21.43l.557,3.38a46.687,46.687,0,0,1,8.178,10.562C35.406,36.524,36.016,37.677,36.569,38.824ZM26.79,26.189a46.889,46.889,0,0,1,7.232,9.6q.83,1.437,1.541,2.871l-6.907-1.138ZM24.28,23.912l.141.116L22.2,37.521l-7,1.153q.8-1.436,1.634-2.886C19.278,31.553,21.787,27.566,24.28,23.912Zm-.654-.515c-2.517,3.686-5.048,7.707-7.512,11.975q-1.008,1.745-1.959,3.473l-.594.1a35.148,35.148,0,0,1-2.336-9.1c-.47-4.659.564-7.838,2.678-9.058s5.383-.526,9.183,2.21Q23.354,23.191,23.626,23.4Z" transform="translate(-0.631 -0.592)" fill="#fff" fill-rule="evenodd"/>
</svg>
