<svg id="Group_6610" data-name="Group 6610" xmlns="http://www.w3.org/2000/svg" xmlns:xlink="http://www.w3.org/1999/xlink" width="35.035" height="45.995" viewBox="0 0 35.035 45.995">
  <defs>
    <linearGradient id="linear-gradient" x1="0.5" y1="-0.096" x2="0.5" y2="0.904" gradientUnits="objectBoundingBox">
      <stop offset="0" stop-color="#c3ffe8"/>
      <stop offset="0.997" stop-color="#f0fff4"/>
    </linearGradient>
    <linearGradient id="linear-gradient-2" x1="0.5" y1="0.552" x2="0.5" y2="1.552" gradientUnits="objectBoundingBox">
      <stop offset="0" stop-color="#00b59c"/>
      <stop offset="1" stop-color="#9cffac"/>
    </linearGradient>
  </defs>
  <g id="Group_6607" data-name="Group 6607" transform="translate(0 4.043)">
    <g id="Group_6606" data-name="Group 6606">
      <path id="Path_3056" data-name="Path 3056" d="M66.785,73.782l-.395.395V66.65a1.348,1.348,0,0,0-2.7,0v7.527l-.395-.395a1.347,1.347,0,0,0-1.905,1.905l2.693,2.693a1.351,1.351,0,0,0,1.909,0l2.693-2.693a1.347,1.347,0,1,0-1.905-1.905Zm28.856,0a1.347,1.347,0,0,0-1.905,0l-.395.395V66.65a1.348,1.348,0,0,0-2.7,0v7.527l-.395-.395a1.347,1.347,0,0,0-1.905,1.905l2.693,2.693a1.35,1.35,0,0,0,1.909,0l2.693-2.693A1.347,1.347,0,0,0,95.64,73.782ZM83.908,77.52H82.56V68.985a1.346,1.346,0,0,0-1.634-1.316,12.358,12.358,0,0,1-4.816,0,1.346,1.346,0,0,0-1.634,1.316V77.52H73.127a1.348,1.348,0,0,0-1.053,2.19l5.39,6.738a1.349,1.349,0,0,0,2.106,0l5.39-6.738a1.348,1.348,0,0,0-1.053-2.19ZM75.491,57.543a2.7,2.7,0,0,0-.745.393,2.7,2.7,0,0,0-.537,3.774,5.2,5.2,0,0,0,1.613,1.405v.749a2.7,2.7,0,1,0,5.39,0v-.741a5.371,5.371,0,0,0,.334-9.1,2.7,2.7,0,0,0,.742-.4,2.7,2.7,0,0,0,.537-3.774,5.2,5.2,0,0,0-1.613-1.405V47.7a2.7,2.7,0,1,0-5.39,0v.741a5.372,5.372,0,0,0-.332,9.108Z" transform="translate(-61 -45)" fill="url(#linear-gradient)"/>
    </g>
  </g>
  <g id="Group_6609" data-name="Group 6609" transform="translate(2.695)">
    <g id="Group_6608" data-name="Group 6608">
      <path id="Path_3057" data-name="Path 3057" d="M105.823,0a14.823,14.823,0,1,0,14.823,14.823A14.839,14.839,0,0,0,105.823,0Zm1.348,21.312v1.6a1.348,1.348,0,0,1-2.7,0V21.3a4.032,4.032,0,0,1-1.886-1.354,1.348,1.348,0,0,1,2.155-1.619,1.334,1.334,0,0,0,1.078.54,1.348,1.348,0,1,0,0-2.7,4.033,4.033,0,0,1-1.348-7.837v-1.6a1.348,1.348,0,0,1,2.7,0V8.347A4.032,4.032,0,0,1,109.056,9.7,1.348,1.348,0,1,1,106.9,11.32a1.4,1.4,0,0,0-2.425.808,1.348,1.348,0,0,0,1.348,1.348,4.033,4.033,0,0,1,1.348,7.837Z" transform="translate(-91)" fill="url(#linear-gradient-2)"/>
    </g>
  </g>
</svg>
