<svg width="178" height="31" viewBox="0 0 178 31" fill="none" xmlns="http://www.w3.org/2000/svg">
<path d="M12.9452 6.89802C13.7988 7.25637 14.5378 7.84186 15.0819 8.59082C15.5279 9.17382 15.8255 9.85656 15.949 10.5802C16.0772 11.6875 16.13 12.8023 16.107 13.9168V24.0604H11.4988V13.5526C11.5323 12.7745 11.3702 12.0004 11.0274 11.3012C10.8015 10.8934 10.4601 10.5614 10.0462 10.3471C9.63217 10.1328 9.16406 10.0457 8.7007 10.0968C8.18819 10.0646 7.67547 10.1566 7.20612 10.365C6.73677 10.5733 6.32464 10.8919 6.00476 11.2936C5.33122 12.3004 5.00819 13.5011 5.08564 14.7099V24.0629H0.571533L0.571533 0.499268L5.08564 0.499268V8.27357C5.65597 7.63643 6.37271 7.14756 7.17406 6.84912C8.09468 6.50631 9.07007 6.33422 10.0524 6.34128C11.0445 6.32829 12.0288 6.51773 12.9452 6.89802V6.89802Z" fill="white"/>
<path d="M30.0863 7.15188C31.3029 7.702 32.3375 8.58761 33.0687 9.70486C33.7926 10.7743 34.2629 11.9948 34.4436 13.2735C34.582 14.4096 34.6317 15.5548 34.5922 16.6986H22.0217C22.0919 18.4303 22.6936 19.6443 23.8267 20.3406C24.5772 20.7901 25.4407 21.0152 26.3151 20.9895C27.0204 21.0447 27.726 20.8852 28.339 20.532C28.952 20.1787 29.4437 19.6482 29.7496 19.0102H34.3571C34.149 20.2029 33.5622 21.2968 32.6838 22.13C31.1373 23.8085 28.9728 24.6478 26.1903 24.6478C23.9764 24.6775 21.8229 23.9253 20.1088 22.5237C18.3533 21.1076 17.4756 18.8041 17.4756 15.6133C17.4756 12.6236 18.2681 10.331 19.853 8.73558C20.6633 7.93546 21.6292 7.31016 22.6909 6.89842C23.7526 6.48668 24.8876 6.29724 26.0254 6.34183C27.4212 6.32032 28.8056 6.59647 30.0863 7.15188V7.15188ZM23.3352 11.0503C22.6592 11.7894 22.2377 12.7257 22.1327 13.7218H29.907C29.9027 13.2093 29.7939 12.703 29.5871 12.2341C29.3803 11.7651 29.08 11.3433 28.7044 10.9945C27.958 10.3641 27.0045 10.0324 26.028 10.0635C25.5352 10.0333 25.0415 10.1055 24.5779 10.2754C24.1144 10.4454 23.691 10.7094 23.3345 11.0509L23.3352 11.0503Z" fill="white"/>
<path d="M50.7341 8.65465C52.1418 10.1431 52.8457 12.3284 52.8457 15.2108C52.8457 18.2507 52.1577 20.5677 50.7817 22.1619C50.133 22.9351 49.3181 23.5517 48.3977 23.9657C47.4773 24.3798 46.4752 24.5806 45.4663 24.5531C44.2366 24.5994 43.0262 24.2374 42.0237 23.5236C41.4452 23.0554 40.9495 22.4934 40.5573 21.8609V30.4058H36.092V6.80199H40.4149V9.35183C40.8353 8.67935 41.3628 8.08022 41.9767 7.57818C43.013 6.79851 44.2821 6.39116 45.5786 6.42205C46.5471 6.40714 47.5077 6.59852 48.3966 6.98345C49.2855 7.36839 50.0823 7.93807 50.7341 8.65465ZM47.2708 11.9011C46.9634 11.3948 46.5221 10.9834 45.9955 10.7123C45.4689 10.4412 44.8776 10.321 44.287 10.365C43.5421 10.3245 42.8047 10.5306 42.1887 10.9514C41.5727 11.3722 41.1126 11.9843 40.8795 12.6929C40.5297 13.6998 40.3669 14.7622 40.3993 15.8277C40.3993 17.834 40.9374 19.2434 42.0137 20.0559C42.6721 20.5367 43.4707 20.7871 44.2858 20.7682C44.8544 20.7962 45.4206 20.6767 45.9294 20.4214C46.4382 20.1661 46.8724 19.7837 47.1899 19.3111C47.8318 18.1844 48.176 16.9128 48.1901 15.6162C48.2041 14.3195 47.8875 13.0407 47.2701 11.9004L47.2708 11.9011Z" fill="white"/>
<path d="M58.2738 18.5512C58.2988 19.172 58.5157 19.7698 58.8945 20.2622C59.4567 20.8637 60.4962 21.1644 62.013 21.1644C62.742 21.1967 63.4687 21.0614 64.1372 20.7688C64.3582 20.6706 64.5482 20.5139 64.6866 20.3155C64.825 20.1171 64.9064 19.8846 64.9222 19.6433C64.9379 19.4019 64.8874 19.1608 64.776 18.9461C64.6646 18.7314 64.4965 18.5513 64.2901 18.4252C63.8671 18.1615 62.2935 17.7075 59.5691 17.0634C57.6076 16.5778 56.2257 15.9717 55.4237 15.2453C55.0091 14.8467 54.6867 14.3624 54.4787 13.8263C54.2708 13.2901 54.1825 12.715 54.2199 12.1412C54.2164 11.3608 54.3829 10.589 54.7077 9.87945C55.0325 9.16986 55.5079 8.53948 56.1008 8.03209C57.3547 6.88684 59.1189 6.31401 61.3936 6.31359C63.2383 6.23354 65.0678 6.68021 66.6682 7.60138C68.0274 8.46198 68.8078 9.94787 69.0093 12.0591H64.4951C64.463 11.5624 64.2925 11.0846 64.003 10.6798C63.5052 10.0678 62.6584 9.76166 61.4625 9.76124C60.731 9.69975 59.9978 9.85989 59.3585 10.2208C59.1734 10.3349 59.0194 10.4929 58.91 10.6808C58.8007 10.8687 58.7394 11.0807 58.7315 11.2979C58.7192 11.5303 58.776 11.761 58.8947 11.9611C59.0134 12.1611 59.1888 12.3216 59.3986 12.4221C60.9313 12.9711 62.5076 13.3896 64.1108 13.6729C65.6032 13.9459 66.9975 14.6069 68.1535 15.5895C68.5884 16.0085 68.9314 16.5135 69.1604 17.0723C69.3895 17.6311 69.4996 18.2315 69.4839 18.8353C69.5051 19.633 69.3438 20.4249 69.0124 21.1509C68.681 21.8768 68.1882 22.5174 67.5716 23.024C66.2968 24.1057 64.3267 24.6467 61.6613 24.6472C58.9444 24.6472 56.9382 24.0743 55.6425 22.9287C55.0137 22.3889 54.513 21.7159 54.1768 20.9585C53.8407 20.2011 53.6774 19.3784 53.6989 18.55L58.2738 18.5512Z" fill="white"/>
<path d="M71.2764 6.802H75.8532V24.0622H71.2764V6.802Z" fill="white"/>
<path d="M93.0394 8.87674C94.3915 10.7032 95.0755 12.9387 94.9767 15.209C95.0685 17.5782 94.399 19.9145 93.0664 21.8755C92.0509 23.1658 90.6104 24.0539 89.0014 24.3816C87.3925 24.7093 85.7194 24.4553 84.2801 23.6649C83.6162 23.1793 83.0447 22.5786 82.593 21.8912V24.0605H78.1416V0.452271L82.6557 0.452271V9.05103C83.158 8.31745 83.803 7.69267 84.5523 7.21404C85.495 6.65315 86.5803 6.37807 87.6764 6.42219C88.7011 6.37541 89.7222 6.5737 90.6549 7.00059C91.5876 7.42747 92.4051 8.07065 93.0394 8.87674V8.87674ZM89.267 19.3915C89.9628 18.285 90.3028 16.9918 90.2413 15.6862C90.2728 14.6516 90.1104 13.6202 89.7623 12.6454C89.5316 11.9497 89.0782 11.3494 88.4721 10.9372C87.866 10.5251 87.1411 10.324 86.4093 10.3651C85.6771 10.3186 84.9496 10.5111 84.3363 10.9138C83.723 11.3164 83.2571 11.9074 83.0087 12.5978C82.6573 13.5826 82.4948 14.6248 82.5297 15.6699C82.4794 16.9664 82.8247 18.2475 83.5197 19.3432C83.8538 19.8262 84.3074 20.2143 84.8363 20.4696C85.3652 20.725 85.9512 20.8389 86.5372 20.8003C87.0751 20.8201 87.6089 20.7008 88.0872 20.4541C88.5655 20.2073 88.9721 19.8413 89.2676 19.3915H89.267Z" fill="white"/>
<path d="M101.354 6.802V17.2064C101.315 17.9614 101.433 18.7162 101.7 19.4233C102.11 20.3011 102.913 20.7399 104.111 20.7399C104.765 20.7961 105.421 20.6461 105.986 20.3109C106.551 19.9758 106.998 19.4723 107.262 18.871C107.587 18.0175 107.736 17.1075 107.701 16.1951V6.802H112.278V24.0629H107.889V21.624C107.848 21.6766 107.743 21.835 107.576 22.0992C107.411 22.3595 107.209 22.5941 106.976 22.7957C106.385 23.3576 105.691 23.7986 104.931 24.0942C104.185 24.34 103.403 24.4579 102.618 24.4428C100.068 24.4428 98.3523 23.5243 97.47 21.6873C96.9006 20.2652 96.6473 18.7362 96.7277 17.2064V6.802H101.354Z" fill="white"/>
<path d="M124.742 6.39824C124.801 6.40388 124.93 6.41205 125.13 6.42208V11.0465C124.845 11.0148 124.592 10.9939 124.371 10.9838C124.149 10.9732 123.969 10.9675 123.832 10.9675C122.016 10.9675 120.797 11.5588 120.174 12.7412C119.768 13.712 119.589 14.7628 119.651 15.8133V24.0635H115.107V6.80201H119.413V9.81141C119.892 8.93472 120.506 8.13862 121.231 7.45216C122.166 6.71416 123.336 6.33738 124.525 6.39072C124.614 6.39009 124.685 6.39322 124.742 6.39824V6.39824Z" fill="white"/>
<path d="M153.225 7.07725C154.036 7.53514 154.717 8.19191 155.204 8.98572V0.452148H159.781V24.0622H155.392V21.671C154.856 22.5871 154.1 23.3546 153.191 23.9036C152.244 24.3973 151.186 24.6373 150.119 24.6002C149.14 24.608 148.172 24.3918 147.29 23.968C146.408 23.5441 145.634 22.924 145.028 22.155C143.601 20.3817 142.865 18.1505 142.959 15.876C142.959 12.931 143.637 10.6139 144.994 8.9249C145.637 8.10317 146.465 7.44501 147.41 7.00406C148.356 6.56312 149.392 6.35189 150.435 6.38759C151.409 6.3696 152.371 6.6074 153.225 7.07725V7.07725ZM154.333 19.3732C155.04 18.2766 155.388 16.9875 155.33 15.6842C155.33 13.573 154.797 12.0635 153.731 11.1556C153.096 10.6139 152.285 10.3213 151.451 10.3324C150.876 10.2944 150.302 10.4137 149.79 10.6773C149.278 10.941 148.848 11.3391 148.545 11.829C147.934 12.9917 147.616 14.286 147.619 15.5996C147.622 16.9131 147.945 18.2061 148.561 19.3663C148.869 19.8358 149.296 20.2156 149.797 20.4672C150.299 20.7189 150.859 20.8335 151.419 20.7995C151.986 20.83 152.551 20.7151 153.061 20.4658C153.571 20.2165 154.009 19.8411 154.333 19.3751V19.3732Z" fill="white"/>
<path d="M136.955 24.0766C136.955 24.0766 136.987 22.4465 136.955 22.0566C136.325 22.7352 135.596 23.3159 134.794 23.7794C133.785 24.3461 132.644 24.635 131.488 24.6164C130.071 24.6697 128.685 24.1936 127.601 23.281C127.08 22.8041 126.671 22.217 126.406 21.5624C126.141 20.9079 126.025 20.2024 126.067 19.4973C126.067 17.3799 126.889 15.8471 128.534 14.8992C129.779 14.283 131.129 13.9077 132.513 13.7932L134.058 13.6051C134.672 13.5521 135.276 13.4194 135.856 13.2101C136.134 13.1283 136.377 12.96 136.552 12.7298C136.727 12.4996 136.823 12.2195 136.828 11.9305C136.857 11.641 136.803 11.3491 136.671 11.0897C136.538 10.8304 136.334 10.6147 136.083 10.4685C135.397 10.1616 134.647 10.0236 133.897 10.0659C133.481 10.0225 133.06 10.0708 132.664 10.2072C132.268 10.3437 131.907 10.5651 131.606 10.8559C131.256 11.3165 131.035 11.8617 130.965 12.4359H126.62C126.656 11.0978 127.099 9.80246 127.89 8.72237C129.085 7.20596 131.137 6.44755 134.047 6.44713C135.794 6.41431 137.524 6.79883 139.093 7.56876C140.564 8.31735 141.299 9.72885 141.299 11.8032V19.7029C141.299 20.2509 141.31 23.2973 141.331 24.0772L136.955 24.0766ZM136.813 15.7048C136.537 15.8775 136.245 16.0228 135.94 16.1387C135.547 16.2753 135.142 16.3784 134.731 16.4471L133.706 16.6352C132.988 16.7283 132.289 16.9366 131.637 17.2521C131.297 17.4381 131.017 17.7163 130.828 18.0546C130.64 18.3929 130.551 18.7776 130.571 19.1644C130.542 19.4737 130.586 19.7854 130.699 20.0748C130.812 20.3643 130.991 20.6233 131.221 20.8315C131.673 21.1802 132.231 21.3617 132.802 21.345C133.775 21.3485 134.725 21.0506 135.522 20.4923C136.35 19.923 136.781 18.8854 136.812 17.3794L136.813 15.7048Z" fill="white"/>
<path d="M172.719 24.0767C172.719 24.0767 172.751 22.4467 172.719 22.0567C172.088 22.7354 171.36 23.316 170.558 23.7796C169.549 24.3463 168.408 24.6351 167.252 24.6165C165.835 24.6702 164.449 24.1941 163.364 23.2811C162.843 22.8042 162.435 22.2171 162.17 21.5625C161.905 20.908 161.789 20.2025 161.831 19.4974C161.831 17.38 162.653 15.8473 164.298 14.8993C165.543 14.2831 166.893 13.9079 168.277 13.7933L169.821 13.6053C170.436 13.5523 171.04 13.4195 171.62 13.2103C171.897 13.1284 172.141 12.9601 172.316 12.7299C172.491 12.4997 172.587 12.2196 172.591 11.9306C172.621 11.6411 172.567 11.3492 172.434 11.0899C172.302 10.8305 172.098 10.6148 171.847 10.4686C171.161 10.1617 170.411 10.0237 169.661 10.0661C169.245 10.0227 168.824 10.0709 168.428 10.2073C168.032 10.3438 167.671 10.5652 167.37 10.856C167.02 11.3166 166.799 11.8619 166.729 12.436H162.384C162.42 11.0979 162.863 9.80262 163.653 8.72249C164.849 7.20608 166.901 6.44767 169.811 6.44725C171.558 6.41441 173.288 6.79893 174.857 7.56889C176.328 8.31748 177.063 9.72897 177.063 11.8034V19.7031C177.063 20.251 177.074 23.2974 177.095 24.0774L172.719 24.0767ZM172.577 15.7049C172.301 15.8776 172.009 16.0229 171.704 16.1388C171.31 16.2754 170.906 16.3786 170.495 16.4473L169.47 16.6354C168.751 16.7285 168.053 16.9368 167.401 17.2523C167.061 17.4382 166.781 17.7164 166.592 18.0547C166.404 18.393 166.314 18.7777 166.335 19.1645C166.306 19.4738 166.35 19.7856 166.463 20.075C166.576 20.3644 166.754 20.6235 166.985 20.8316C167.437 21.1804 167.995 21.3618 168.566 21.3451C169.539 21.3486 170.489 21.0508 171.285 20.4924C172.114 19.9231 172.545 18.8855 172.576 17.3795L172.577 15.7049Z" fill="white"/>
<path d="M73.4921 5.38387C74.8647 5.38387 75.9774 4.27118 75.9774 2.8986C75.9774 1.52602 74.8647 0.41333 73.4921 0.41333C72.1195 0.41333 71.0068 1.52602 71.0068 2.8986C71.0068 4.27118 72.1195 5.38387 73.4921 5.38387Z" fill="white"/>
</svg>
