<svg width="1440" height="529" viewBox="0 0 1440 529" fill="none" xmlns="http://www.w3.org/2000/svg">
<g clip-path="url(#clip0_371_2062)">
<g filter="url(#filter0_dd_371_2062)">
<path d="M5913.65 1397L713.559 -549" stroke="#B7D8FF" stroke-width="2"/>
<path d="M5639.96 1397L713.561 -549" stroke="#B7D8FF" stroke-width="2"/>
<path d="M-1202.27 1397L713.558 -549" stroke="#B7D8FF" stroke-width="2"/>
<path d="M2629.38 1397L713.559 -549" stroke="#B7D8FF" stroke-width="2"/>
<path d="M-928.576 1397L713.558 -549" stroke="#B7D8FF" stroke-width="2"/>
<path d="M2355.69 1397L713.559 -549" stroke="#B7D8FF" stroke-width="2"/>
<path d="M-107.508 1397L713.559 -549" stroke="#B7D8FF" stroke-width="2"/>
<path d="M1534.62 1397L713.558 -549" stroke="#B7D8FF" stroke-width="2"/>
<path d="M166.18 1397L713.558 -549" stroke="#B7D8FF" stroke-width="2"/>
<path d="M1260.94 1397L713.559 -549" stroke="#B7D8FF" stroke-width="2"/>
<path d="M439.871 1397L713.56 -549" stroke="#B7D8FF" stroke-width="2"/>
<path d="M713.559 1397V-549" stroke="#B7D8FF" stroke-width="2"/>
<path d="M987.248 1397L713.559 -549" stroke="#B7D8FF" stroke-width="2"/>
<path d="M-654.887 1397L713.559 -549" stroke="#B7D8FF" stroke-width="2"/>
<path d="M2082.01 1397L713.56 -549" stroke="#B7D8FF" stroke-width="2"/>
<path d="M-381.197 1397L713.559 -549" stroke="#B7D8FF" stroke-width="2"/>
<path d="M1808.32 1397L713.56 -549" stroke="#B7D8FF" stroke-width="2"/>
<path d="M-1749.64 1397L713.559 -549" stroke="#B7D8FF" stroke-width="2"/>
<path d="M3176.76 1397L713.56 -549" stroke="#B7D8FF" stroke-width="2"/>
<path d="M-1475.95 1397L713.56 -549" stroke="#B7D8FF" stroke-width="2"/>
<path d="M2903.07 1397L713.559 -549" stroke="#B7D8FF" stroke-width="2"/>
<path d="M-2297.02 1397L713.559 -549" stroke="#B7D8FF" stroke-width="2"/>
<path d="M3724.14 1397L713.56 -549" stroke="#B7D8FF" stroke-width="2"/>
<path d="M-2023.33 1397L713.559 -549" stroke="#B7D8FF" stroke-width="2"/>
<path d="M3450.45 1397L713.562 -549" stroke="#B7D8FF" stroke-width="2"/>
<path d="M-2844.4 1397L713.56 -549" stroke="#B7D8FF" stroke-width="2"/>
<path d="M4271.52 1397L713.559 -549" stroke="#B7D8FF" stroke-width="2"/>
<path d="M-2570.71 1397L713.558 -549" stroke="#B7D8FF" stroke-width="2"/>
<path d="M3997.83 1397L713.559 -549" stroke="#B7D8FF" stroke-width="2"/>
<path d="M-3391.78 1397L713.559 -549" stroke="#B7D8FF" stroke-width="2"/>
<path d="M4818.9 1397L713.562 -549" stroke="#B7D8FF" stroke-width="2"/>
<path d="M-3118.09 1397L713.56 -549" stroke="#B7D8FF" stroke-width="2"/>
<path d="M4545.21 1397L713.56 -549" stroke="#B7D8FF" stroke-width="2"/>
<path d="M5366.27 1397L713.559 -549" stroke="#B7D8FF" stroke-width="2"/>
<path d="M-3665.47 1397L713.559 -549" stroke="#B7D8FF" stroke-width="2"/>
<path d="M5092.59 1397L713.56 -549" stroke="#B7D8FF" stroke-width="2"/>
<path d="M-4076 516.082H6324.19" stroke="#B7D8FF" stroke-width="2"/>
<path d="M-4076 494.256H6324.19" stroke="#B7D8FF" stroke-width="2"/>
<path d="M-4076 473.111H6324.19" stroke="#B7D8FF" stroke-width="2"/>
<path d="M-4076 452.648H6324.19" stroke="#B7D8FF" stroke-width="2"/>
<path d="M-4076 432.867H6324.19" stroke="#B7D8FF" stroke-width="2"/>
<path d="M-4076 413.769H6324.19" stroke="#B7D8FF" stroke-width="2"/>
<path d="M-4076 395.353H6324.19" stroke="#B7D8FF" stroke-width="2"/>
<path d="M-4076 377.618H6324.19" stroke="#B7D8FF" stroke-width="2"/>
<path d="M-4076 360.566H6324.19" stroke="#B7D8FF" stroke-width="2"/>
<path d="M-4076 344.196H6324.19" stroke="#B7D8FF" stroke-width="2"/>
<path d="M-4076 328.507H6324.19" stroke="#B7D8FF" stroke-width="2"/>
<path d="M-4076 313.501H6324.19" stroke="#B7D8FF" stroke-width="2"/>
<path d="M-4076 299.178H6324.19" stroke="#B7D8FF" stroke-width="2"/>
<path d="M-4076 285.536H6324.19" stroke="#B7D8FF" stroke-width="2"/>
<path d="M-4076 272.576H6324.19" stroke="#B7D8FF" stroke-width="2"/>
<path d="M-4076 260.299H6324.19" stroke="#B7D8FF" stroke-width="2"/>
<path d="M-4076 248.703H6324.19" stroke="#B7D8FF" stroke-width="2"/>
<path d="M-4076 237.79H6324.19" stroke="#B7D8FF" stroke-width="2"/>
<path d="M-4076 227.559H6324.19" stroke="#B7D8FF" stroke-width="2"/>
<path d="M-4076 218.01H6324.19" stroke="#B7D8FF" stroke-width="2"/>
<path d="M-4076 209.143H6324.19" stroke="#B7D8FF" stroke-width="2"/>
<path d="M-4076 200.958H6324.19" stroke="#B7D8FF" stroke-width="2"/>
<path d="M-4076 193.454H6324.19" stroke="#B7D8FF" stroke-width="2"/>
<path d="M-4076 186.634H6324.19" stroke="#B7D8FF" stroke-width="2"/>
<path d="M-4076 180.495H6324.19" stroke="#B7D8FF" stroke-width="2"/>
<path d="M-4076 175.038H6324.19" stroke="#B7D8FF" stroke-width="2"/>
<path d="M-4076 170.264H6324.19" stroke="#B7D8FF" stroke-width="2"/>
<path d="M-4076 166.171H6324.19" stroke="#B7D8FF" stroke-width="2"/>
<path d="M-4076 162.76H6324.19" stroke="#B7D8FF" stroke-width="2"/>
<path d="M-4076 160.032H6324.19" stroke="#B7D8FF" stroke-width="2"/>
<path d="M-4076 157.986H6324.19" stroke="#B7D8FF" stroke-width="2"/>
<path d="M-4076 156.622H6324.19" stroke="#B7D8FF" stroke-width="2"/>
<path d="M-4076 155.94H6324.19" stroke="#B7D8FF" stroke-width="2"/>
</g>
<rect width="1440" height="900" transform="matrix(1 0 0 -1 0 529)" fill="url(#paint0_linear_371_2062)"/>
<rect width="1440" height="1783" transform="matrix(-1 -8.74228e-08 -8.74228e-08 1 1440 -120)" fill="url(#paint1_linear_371_2062)" fill-opacity="0.2"/>
<rect width="1440" height="1783" transform="matrix(-1 -8.74228e-08 -8.74228e-08 1 1440 218)" fill="url(#paint2_linear_371_2062)"/>
</g>
<defs>
<filter id="filter0_dd_371_2062" x="-4126" y="-599.937" width="10500.2" height="2047.87" filterUnits="userSpaceOnUse" color-interpolation-filters="sRGB">
<feFlood flood-opacity="0" result="BackgroundImageFix"/>
<feColorMatrix in="SourceAlpha" type="matrix" values="0 0 0 0 0 0 0 0 0 0 0 0 0 0 0 0 0 0 127 0" result="hardAlpha"/>
<feOffset/>
<feGaussianBlur stdDeviation="5"/>
<feColorMatrix type="matrix" values="0 0 0 0 0.717647 0 0 0 0 0.847059 0 0 0 0 1 0 0 0 1 0"/>
<feBlend mode="normal" in2="BackgroundImageFix" result="effect1_dropShadow_371_2062"/>
<feColorMatrix in="SourceAlpha" type="matrix" values="0 0 0 0 0 0 0 0 0 0 0 0 0 0 0 0 0 0 127 0" result="hardAlpha"/>
<feOffset/>
<feGaussianBlur stdDeviation="25"/>
<feColorMatrix type="matrix" values="0 0 0 0 0.717647 0 0 0 0 0.847059 0 0 0 0 1 0 0 0 1 0"/>
<feBlend mode="normal" in2="effect1_dropShadow_371_2062" result="effect2_dropShadow_371_2062"/>
<feBlend mode="normal" in="SourceGraphic" in2="effect2_dropShadow_371_2062" result="shape"/>
</filter>
<linearGradient id="paint0_linear_371_2062" x1="720" y1="-169.5" x2="720" y2="900" gradientUnits="userSpaceOnUse">
<stop offset="0.149515" stop-opacity="0"/>
<stop offset="0.515209"/>
</linearGradient>
<linearGradient id="paint1_linear_371_2062" x1="720" y1="0" x2="720" y2="1783" gradientUnits="userSpaceOnUse">
<stop stop-color="#00A3FF" stop-opacity="0"/>
<stop offset="0.416667" stop-color="#1A83FF"/>
</linearGradient>
<linearGradient id="paint2_linear_371_2062" x1="720" y1="-9.50727e-07" x2="759.5" y2="3429.5" gradientUnits="userSpaceOnUse">
<stop stop-color="#5200FF" stop-opacity="0"/>
<stop offset="0.416667" stop-color="#631AFF"/>
<stop offset="0.973958"/>
</linearGradient>
<clipPath id="clip0_371_2062">
<rect width="1440" height="529" fill="white"/>
</clipPath>
</defs>
</svg>
