<svg width="158" height="49" viewBox="0 0 158 49" fill="none" xmlns="http://www.w3.org/2000/svg">
<path fill-rule="evenodd" clip-rule="evenodd" d="M34.4584 23.3099C34.4584 32.8937 26.8626 40.6631 17.4928 40.6631C8.12309 40.6631 0.527344 32.8937 0.527344 23.3099C0.527344 13.7258 8.12309 5.95631 17.4928 5.95631C26.8626 5.95631 34.4584 13.7258 34.4584 23.3099Z" fill="#D33833"/>
<path d="M1.21743 27.6074C1.21743 27.6074 -0.010754 9.51086 16.6641 8.99375L15.5008 7.05483L6.45253 10.0925L3.86725 13.0655L1.60522 17.3959L0.3125 22.4371L0.700285 25.7978" fill="#EF3D3A"/>
<path d="M5.87267 11.4716C2.89603 14.5172 1.05406 18.7224 1.05406 23.3744C1.05406 28.0255 2.89603 32.2312 5.87267 35.2763C8.85074 38.3214 12.955 40.2004 17.4923 40.2004C22.0299 40.2004 26.1344 38.3214 29.1122 35.2763C32.0886 32.2312 33.931 28.0255 33.931 23.3744C33.931 18.7224 32.0886 14.5172 29.1122 11.4716C26.1344 8.42708 22.0299 6.54807 17.4923 6.54768C12.955 6.54807 8.85074 8.42708 5.87267 11.4716ZM5.1192 36.0129C1.95573 32.7777 0 28.3065 0 23.3744C0 18.4416 1.95573 13.9708 5.1192 10.7354C8.28194 7.4993 12.66 5.49349 17.4923 5.49407C22.3248 5.49349 26.7032 7.4993 29.8654 10.7354C33.0292 13.9708 34.9852 18.442 34.9848 23.3744C34.9852 28.3065 33.0292 32.7777 29.8654 36.0129C26.7032 39.2488 22.3248 41.2544 17.4923 41.2544C12.66 41.2544 8.28194 39.2488 5.1192 36.0129" fill="#231F20"/>
<path fill-rule="evenodd" clip-rule="evenodd" d="M24.6344 23.406L22.049 23.7937L18.5589 24.1815L16.2967 24.2461L14.0994 24.1815L12.4189 23.6644L10.9323 22.0487L9.76898 18.7525L9.51048 18.0415L7.95934 17.5246L7.05449 16.038L6.4082 13.9052L7.11925 12.0309L8.79952 11.4492L10.1568 12.0956L10.8032 13.5174L11.5788 13.3881L11.8372 13.0651L11.5788 11.5785L11.514 9.70417L11.9018 7.119L11.8867 5.64231L13.0651 3.75826L15.1334 2.27169L18.7528 0.720551L22.7598 1.30223L26.2499 3.82283L27.8658 6.408L28.8998 8.28235L29.1583 12.9358L28.3827 16.9429L26.9609 20.4976L25.6036 22.3719" fill="#F0D6B7"/>
<path fill-rule="evenodd" clip-rule="evenodd" d="M22.4369 34.5868L13.1945 34.9746V36.5257L13.9701 41.9547L13.5823 42.4072L7.11932 40.2096L6.66678 39.4341L6.0205 32.1309L4.53419 27.736L4.21094 26.7019L9.38127 23.1473L10.9972 22.5009L12.4189 24.2459L13.6469 25.3447L15.0689 25.797L15.7151 25.9909L16.4907 29.3517L17.0724 30.0626L18.559 29.5456L17.5248 31.5493L23.1477 34.199L22.4369 34.5868" fill="#335061"/>
<path fill-rule="evenodd" clip-rule="evenodd" d="M7.11803 12.031L8.7983 11.4493L10.1555 12.0958L10.802 13.5176L11.5776 13.3883L11.7714 12.6127L11.3837 11.1263L11.7714 7.57148L11.4482 5.63256L12.6115 4.27531L15.1321 2.27182L14.4212 1.30236L10.8665 3.04739L9.37998 4.21074L8.5398 6.02034L7.24716 7.76537L6.85938 9.83362L7.11803 12.031Z" fill="#6D6B6D"/>
<path fill-rule="evenodd" clip-rule="evenodd" d="M9.76958 5.95563C9.76958 5.95563 10.739 3.56436 14.6169 2.40101C18.4947 1.23765 14.8108 1.56068 14.8108 1.56068L10.6099 3.17658L8.99401 4.79228L8.2832 6.08496L9.76958 5.95563Z" fill="#DCD9D8"/>
<path fill-rule="evenodd" clip-rule="evenodd" d="M7.82884 11.5784C7.82884 11.5784 6.47159 7.05413 11.6421 6.40788L11.4482 5.63231L7.8936 6.47264L6.85938 9.83338L7.11803 12.0308L7.82884 11.5784Z" fill="#DCD9D8"/>
<path fill-rule="evenodd" clip-rule="evenodd" d="M9.89844 17.5888L10.7447 16.7689C10.7447 16.7689 11.1266 16.8133 11.1912 17.2656C11.2557 17.7182 11.4496 21.7899 14.2287 23.9875C14.4822 24.188 12.1606 23.6641 12.1606 23.6641L10.0923 20.4327" fill="#F7E4CD"/>
<path fill-rule="evenodd" clip-rule="evenodd" d="M21.7923 16.3613C21.7923 16.3613 21.9429 14.4022 22.4705 14.5529C22.9981 14.7035 22.9981 15.2311 22.9981 15.2311C22.9981 15.2311 21.7168 16.06 21.7923 16.3613" fill="#F7E4CD"/>
<path d="M27.1551 9.18695C27.1551 9.18695 26.0899 9.41186 25.9918 10.3503C25.8936 11.2889 27.1551 10.5442 27.349 10.4796" fill="#F7E4CD"/>
<path d="M19.3341 9.25193C19.3341 9.25193 17.9121 9.44582 17.9121 10.3505C17.9121 11.2554 19.528 11.1908 19.9804 10.8031" fill="#F7E4CD"/>
<path fill-rule="evenodd" clip-rule="evenodd" d="M10.5446 13.4527C10.5446 13.4527 8.08855 11.9661 7.83013 13.3882C7.57163 14.81 6.9898 15.8442 8.21791 17.3306L7.37774 17.0721L6.60217 15.0686L6.34375 13.1297L7.83013 11.5784L9.51055 11.7077L10.48 12.4833L10.5446 13.4527Z" fill="#F7E4CD"/>
<path fill-rule="evenodd" clip-rule="evenodd" d="M11.7083 9.38135C11.7083 9.38135 12.807 3.6939 18.3654 2.59511C22.9415 1.69061 25.3453 2.78901 26.2502 3.82303C26.2502 3.82303 22.1785 -1.02408 18.3006 0.462298C14.4228 1.94887 11.5791 4.66336 11.6437 6.4082C11.7537 9.38018 11.7083 9.38135 11.7083 9.38135Z" fill="#F7E4CD"/>
<path fill-rule="evenodd" clip-rule="evenodd" d="M26.7026 4.46875C26.7026 4.46875 24.8284 4.40418 24.7637 6.08465C24.7637 6.08465 24.7635 6.3431 24.8928 6.60156C24.8928 6.60156 26.3796 4.9211 27.2843 5.82599" fill="#F7E4CD"/>
<path fill-rule="evenodd" clip-rule="evenodd" d="M18.4942 6.77705C18.4942 6.77705 18.1715 4.1977 15.9724 5.69727C14.5506 6.66673 14.68 8.02397 14.9384 8.28243C15.1969 8.54108 15.1266 9.06169 15.3234 8.70434C15.5201 8.347 15.4553 7.18365 16.1663 6.86062C16.8773 6.5374 18.0428 6.17637 18.4942 6.77705Z" fill="#F7E4CD"/>
<path fill-rule="evenodd" clip-rule="evenodd" d="M12.4189 24.246L6.34375 26.9605C6.34375 26.9605 8.86435 36.9783 7.57163 40.0806L6.66678 39.7575L6.60217 35.9442L4.92198 28.7057L4.21094 26.702L10.5446 22.4366L12.4189 24.246Z" fill="#49728B"/>
<path fill-rule="evenodd" clip-rule="evenodd" d="M13.0436 29.7868L13.9055 30.8385V34.7163H12.8713C12.8713 34.7163 12.7422 32.0018 12.7422 31.6786C12.7422 31.3554 12.8713 30.192 12.8713 30.192" fill="#49728B"/>
<path fill-rule="evenodd" clip-rule="evenodd" d="M13.0646 35.298L10.1562 35.4272L10.9966 36.0089L13.0646 36.332" fill="#49728B"/>
<path fill-rule="evenodd" clip-rule="evenodd" d="M23.0195 34.6514L25.4108 34.5868L25.9925 40.5329L23.5364 40.856L23.0195 34.6514" fill="#335061"/>
<path fill-rule="evenodd" clip-rule="evenodd" d="M23.6641 34.6519L27.2834 34.458C27.2834 34.458 28.7698 30.7094 28.7698 30.5155C28.7698 30.3216 30.0625 25.0866 30.0625 25.0866L27.1541 22.049L26.5724 21.5319L25.0213 23.0831V29.0937L23.6641 34.6519" fill="#335061"/>
<path fill-rule="evenodd" clip-rule="evenodd" d="M25.2815 34.1992L23.0195 34.6515L23.3426 36.4613C24.1827 36.8491 25.6047 35.8149 25.6047 35.8149" fill="#49728B"/>
<path fill-rule="evenodd" clip-rule="evenodd" d="M25.3457 22.8888L29.8698 26.2495L29.9991 24.6984L26.5736 21.5315L25.3457 22.8888Z" fill="#49728B"/>
<path fill-rule="evenodd" clip-rule="evenodd" d="M15.307 47.3845L13.9689 41.9547L13.3034 37.9484L13.1934 34.9746L19.2495 34.6522L23.0174 34.6516L22.6748 41.4384L23.2565 46.6735L23.1919 47.643L18.2801 48.0308L15.307 47.3845" fill="white"/>
<path fill-rule="evenodd" clip-rule="evenodd" d="M22.1774 34.5872C22.1774 34.5872 21.8544 41.3089 22.8238 46.0914C22.8238 46.0914 20.8849 47.3196 18.041 47.6426L23.4701 47.4487L24.1163 47.0609L23.3408 36.4616L23.1469 34.1992" fill="#DCD9D8"/>
<path fill-rule="evenodd" clip-rule="evenodd" d="M26.102 40.0166L28.6226 39.3056L33.4051 39.0471L34.1161 36.8498L32.8234 33.0365L31.3371 32.8426L29.2688 33.4889L27.2845 34.4577L26.2311 34.2644L25.4102 34.587" fill="white"/>
<path fill-rule="evenodd" clip-rule="evenodd" d="M26.0566 38.7233C26.0566 38.7233 27.7369 37.9479 27.9956 38.0125L27.2848 34.4577L28.1249 34.1347C28.1249 34.1347 28.7066 37.4954 28.7066 37.8831C28.7066 37.8831 32.3258 38.077 32.649 38.077C32.649 38.077 33.4246 36.5905 33.2307 35.0394L33.9417 37.1076L34.0062 38.2709L32.9722 39.8221L31.8088 40.0806L29.8699 40.016L29.2237 39.1759L26.9615 39.4989L26.2505 39.7575" fill="#DCD9D8"/>
<path d="M23.5158 34.1353L22.094 30.5158L20.6074 28.383C20.6074 28.383 20.9304 27.4781 21.383 27.4781C21.8355 27.4781 22.8696 27.4781 22.8696 27.4781L24.2914 27.9952L24.1622 30.3866L23.5158 34.1353Z" fill="white"/>
<path fill-rule="evenodd" clip-rule="evenodd" d="M23.7942 32.9068C23.7942 32.9068 21.9844 29.4169 21.9844 28.8998C21.9844 28.8998 22.3075 28.1242 22.76 28.3181C23.2125 28.512 24.182 29.0289 24.182 29.0289V27.801L21.9844 27.3485L20.498 27.5424L23.0186 33.4885L23.5356 33.5532" fill="#DCD9D8"/>
<path d="M15.889 24.3762L14.0985 24.1815L12.418 23.6644V24.2461L13.2391 25.1516L15.8243 26.3149" fill="white"/>
<path fill-rule="evenodd" clip-rule="evenodd" d="M13.0005 24.57C13.0005 24.57 15.0042 25.4103 15.6505 25.2164L15.7148 25.9912L13.9055 25.6042L12.8066 24.8286L13.0005 24.57Z" fill="#DCD9D8"/>
<path fill-rule="evenodd" clip-rule="evenodd" d="M26.0952 27.6982C24.9985 27.6661 24.0077 27.5358 23.1403 27.2911C23.1992 26.9355 23.0889 26.5865 23.1775 26.3303C23.4193 26.1562 23.8245 26.1589 24.19 26.118C23.874 25.9627 23.4299 25.9012 23.0652 25.991C23.0567 25.7442 22.946 25.5912 22.8789 25.3981C23.4955 25.178 24.951 23.7353 25.7698 24.213C26.16 24.4403 26.3257 25.7382 26.356 26.3693C26.3812 26.8928 26.3085 27.421 26.0952 27.6982Z" fill="#D33833"/>
<path d="M26.0952 27.6982C24.9985 27.6661 24.0077 27.5358 23.1403 27.2911C23.1992 26.9355 23.0889 26.5865 23.1775 26.3303C23.4193 26.1562 23.8245 26.1589 24.19 26.118C23.874 25.9627 23.4299 25.9012 23.0652 25.991C23.0567 25.7442 22.946 25.5912 22.8789 25.3981C23.4955 25.178 24.951 23.7353 25.7698 24.213C26.16 24.4403 26.3257 25.7382 26.356 26.3693C26.3812 26.8928 26.3085 27.421 26.0952 27.6982Z" stroke="#D33833" stroke-width="2.5"/>
<path fill-rule="evenodd" clip-rule="evenodd" d="M20.8499 25.9057C20.847 25.9887 20.8435 26.0723 20.8402 26.156C20.4978 26.381 19.945 26.3782 19.5693 26.5673C20.1232 26.5915 20.5593 26.7249 20.9366 26.913C20.9282 27.122 20.9203 27.3308 20.9122 27.5399C20.2845 27.9695 19.7112 28.6094 18.9722 29.0123C18.6228 29.2028 17.3966 29.6932 17.0249 29.6065C16.8146 29.5577 16.7956 29.2967 16.7116 29.0507C16.5324 28.5239 16.12 27.6853 16.0841 26.8923C16.0382 25.8906 15.9371 24.2119 17.0166 24.4182C17.8874 24.5844 18.9003 24.9855 19.5745 25.3539C19.9865 25.5792 20.2248 25.8576 20.8499 25.9057" fill="#D33833"/>
<path d="M20.8499 25.9057C20.847 25.9887 20.8435 26.0723 20.8402 26.156C20.4978 26.381 19.945 26.3782 19.5693 26.5673C20.1232 26.5915 20.5593 26.7249 20.9366 26.913C20.9282 27.122 20.9203 27.3308 20.9122 27.5399C20.2845 27.9695 19.7112 28.6094 18.9722 29.0123C18.6228 29.2028 17.3966 29.6932 17.0249 29.6065C16.8146 29.5577 16.7956 29.2967 16.7116 29.0507C16.5324 28.5239 16.12 27.6853 16.0841 26.8923C16.0382 25.8906 15.9371 24.2119 17.0166 24.4182C17.8874 24.5844 18.9003 24.9855 19.5745 25.3539C19.9865 25.5792 20.2248 25.8576 20.8499 25.9057V25.9057Z" stroke="#D33833" stroke-width="2.5"/>
<path fill-rule="evenodd" clip-rule="evenodd" d="M21.4739 27.101C21.3781 26.5554 21.2674 26.3997 21.3103 25.9237C22.7654 24.9534 23.0386 27.5902 21.4739 27.101Z" fill="#D33833"/>
<path d="M21.4739 27.101C21.3781 26.5554 21.2674 26.3997 21.3103 25.9237C22.7654 24.9534 23.0386 27.5902 21.4739 27.101Z" stroke="#D33833" stroke-width="2.5"/>
<path fill-rule="evenodd" clip-rule="evenodd" d="M23.5807 27.543C23.5807 27.543 23.1281 26.8965 23.4514 26.7026C23.7746 26.5087 24.0978 26.7028 24.2917 26.3796C24.4856 26.0564 24.2917 25.8625 24.3562 25.4747C24.4208 25.0869 24.7442 25.0222 25.0672 24.9576C25.3903 24.893 26.2954 24.7637 26.4245 25.0869L26.0367 23.9236L25.2611 23.6651L22.8051 25.0869L22.6758 25.7979V27.2198" fill="#EF3D3A"/>
<path fill-rule="evenodd" clip-rule="evenodd" d="M16.7952 29.6758C16.7176 28.6671 16.6354 27.6599 16.544 26.6522C16.4072 25.1476 16.9054 25.4101 18.2096 25.4101C18.4088 25.4101 19.4362 25.6476 19.5096 25.7979C19.8621 26.5178 18.9202 26.3579 19.9157 26.9008C20.756 27.3589 22.2404 26.6225 21.9009 25.604C21.7109 25.3776 20.9109 25.5334 20.6241 25.3847C20.1192 25.123 19.6143 24.8612 19.1094 24.5995C18.467 24.2662 16.9823 23.7803 16.2973 24.246C14.5619 25.4262 16.4069 28.3751 17.026 29.6063" fill="#EF3D3A"/>
<path fill-rule="evenodd" clip-rule="evenodd" d="M18.4957 6.77681C16.7342 6.36653 15.8589 7.51399 15.3249 8.7041C14.8481 8.58854 15.0379 7.94017 15.1583 7.60977C15.4736 6.74269 16.7443 5.58844 17.7825 5.74491C18.2293 5.81219 18.8339 6.22073 18.4957 6.77681" fill="#231F20"/>
<path fill-rule="evenodd" clip-rule="evenodd" d="M27.0778 8.78271C27.1056 8.78388 27.1337 8.78485 27.1614 8.78601C27.5595 9.61296 27.904 10.489 28.4062 11.219C28.0698 12.0025 25.8588 12.6959 25.893 11.289C26.3711 11.08 27.1965 11.2463 27.6204 10.9793C27.3753 10.3067 27.0216 9.73414 27.0778 8.78271" fill="#231F20"/>
<path fill-rule="evenodd" clip-rule="evenodd" d="M19.3981 8.80436C19.7758 9.49675 19.8987 10.2242 20.4356 10.7475C20.6774 10.9831 21.1475 11.2703 20.9145 11.9254C20.86 12.08 20.4619 12.4245 20.2322 12.4922C19.3928 12.74 17.437 12.5434 18.0993 11.4969C18.7935 11.5293 19.7265 11.9477 20.2454 11.4438C19.8469 10.8069 19.1366 9.54677 19.3981 8.80436" fill="#231F20"/>
<path fill-rule="evenodd" clip-rule="evenodd" d="M26.7623 15.8415C25.4985 16.6533 24.0893 17.5361 22.0185 17.3314C21.576 16.9467 21.4074 16.0907 21.8372 15.5253C22.061 15.9099 21.9204 16.6175 22.544 16.7239C23.7189 16.925 25.0865 16.0051 25.9316 15.6837C26.4557 14.8001 25.8865 14.4751 25.4143 13.9065C24.4478 12.7414 23.1512 11.2972 23.1983 9.55299C23.589 9.26971 23.6228 9.98537 23.6788 10.1157C24.1835 11.2969 25.4537 12.8075 26.3807 13.8184C26.6083 14.0674 26.9831 14.3063 27.0248 14.4709C27.145 14.9496 26.7121 15.5231 26.7623 15.8415" fill="#231F20"/>
<path fill-rule="evenodd" clip-rule="evenodd" d="M10.1032 14.9869C9.70712 14.7608 9.61283 13.765 9.14778 13.7367C8.48317 13.6963 8.60435 15.0286 8.60701 15.8076C8.14954 15.3923 8.06909 14.1136 8.40517 13.4569C8.02215 13.2688 7.85112 13.6643 7.63867 13.8037C7.91171 11.8202 10.5403 12.8837 10.1032 14.9869Z" fill="#231F20"/>
<path fill-rule="evenodd" clip-rule="evenodd" d="M27.5662 16.6674C26.978 17.7871 26.1458 19.0203 24.4196 19.0562C24.3845 18.6945 24.3575 18.1443 24.4215 17.9265C25.7411 17.7997 26.5559 17.1281 27.5662 16.6674Z" fill="#231F20"/>
<path fill-rule="evenodd" clip-rule="evenodd" d="M19.2969 17.3932C20.3979 17.9722 22.4213 18.0344 23.9178 17.9906C23.9981 18.3185 23.9961 18.7235 23.9992 19.1233C22.0756 19.2193 19.8013 18.7433 19.2969 17.3932Z" fill="#231F20"/>
<path fill-rule="evenodd" clip-rule="evenodd" d="M19.0886 18.473C19.85 20.3846 22.4667 20.1645 24.6734 20.1118C24.5763 20.36 24.3657 20.6531 24.104 20.7592C23.3968 21.0469 21.4465 21.2652 20.4648 20.7439C19.8422 20.4129 19.4422 19.6651 19.1011 19.2267C18.9364 19.0149 18.1161 18.4742 19.0886 18.473" fill="#231F20"/>
<path fill-rule="evenodd" clip-rule="evenodd" d="M26.6716 29.0176C25.7782 30.5478 24.9233 32.1195 23.8633 33.4692C24.3077 32.1626 24.4979 29.9756 24.565 28.3084C25.4947 27.8733 26.2908 28.4063 26.6716 29.0176Z" fill="#81B0C4"/>
<path fill-rule="evenodd" clip-rule="evenodd" d="M31.4798 34.5175C30.4795 34.7177 29.7766 35.6899 28.8008 35.6275C29.3371 34.8715 30.2769 34.5528 31.4798 34.5175Z" fill="#231F20"/>
<path fill-rule="evenodd" clip-rule="evenodd" d="M31.9202 36.0826C31.1049 36.1687 30.1473 36.3007 29.3203 36.2327C29.7118 35.6347 31.2201 35.841 31.9202 36.0826Z" fill="#231F20"/>
<path fill-rule="evenodd" clip-rule="evenodd" d="M32.2036 37.4325C31.2872 37.4523 30.1483 37.434 29.2773 37.361C29.7925 36.8076 31.6093 37.1556 32.2036 37.4325Z" fill="#231F20"/>
<path fill-rule="evenodd" clip-rule="evenodd" d="M24.9479 41.126C25.0794 42.2768 25.5356 43.4428 25.4784 44.7031C24.9718 44.8739 24.6807 45.0234 24.0019 45.0225C23.954 43.9514 23.8107 42.314 23.8536 41.2929C24.1875 41.315 24.6798 41.0544 24.9479 41.126Z" fill="#DCD9D8"/>
<path fill-rule="evenodd" clip-rule="evenodd" d="M23.4699 24.1659C23.0098 24.4663 22.6179 24.8412 22.176 25.1619C21.1961 25.2104 20.6613 25.0941 19.9414 24.5314C19.9532 24.4862 20.0256 24.5064 20.0283 24.4509C21.0772 24.9184 22.4106 24.2605 23.4699 24.1659" fill="#F0D6B7"/>
<path fill-rule="evenodd" clip-rule="evenodd" d="M17.9629 31.3162C18.2511 30.0673 19.3804 29.4205 20.4058 28.7328C21.4643 30.0761 22.108 31.8036 22.8169 33.4707C21.142 32.9658 19.4308 32.1466 17.9629 31.3162Z" fill="#81B0C4"/>
<path fill-rule="evenodd" clip-rule="evenodd" d="M23.8541 41.2928C23.8112 42.3139 23.9545 43.9513 24.0024 45.0224C24.6812 45.0233 24.9722 44.8739 25.4789 44.703C25.5361 43.4427 25.0799 42.2767 24.9484 41.1259C24.6802 41.0543 24.188 41.3149 23.8541 41.2928V41.2928ZM13.2842 35.486C13.7318 39.601 14.3801 43.0601 15.5692 46.704C18.2084 47.5053 21.3899 47.5752 23.7226 46.8521C23.2943 44.7955 23.4814 42.2916 23.2311 40.0969C23.0424 38.4473 23.1386 36.7876 22.88 35.1046C20.0534 34.5165 16.0581 34.9671 13.2842 35.486V35.486ZM23.5483 35.1304C23.5245 36.8977 23.6274 38.641 23.7624 40.4105C24.441 40.3086 24.9015 40.2406 25.532 40.1024C25.3273 38.3988 25.3525 36.482 24.9354 34.9751C24.4534 34.9797 24.029 34.9694 23.5483 35.1304V35.1304ZM26.9909 34.8455C26.6688 34.7717 26.2938 34.8427 25.9861 34.8486C26.1308 36.2893 26.4817 37.879 26.6052 39.3912C27.0894 39.4062 27.348 39.1779 27.7463 39.1011C27.7676 37.7737 27.6303 35.9449 26.9909 34.8455V34.8455ZM32.2035 39.6081C33.2127 39.363 33.8473 38.1269 33.565 36.8576C33.3755 36.0044 33.0382 34.398 32.6771 33.8522C32.4103 33.4485 31.6869 32.92 31.1093 33.2899C30.1697 33.8916 28.5145 34.0663 27.8293 34.7946C28.1728 35.9385 28.2795 37.5098 28.4212 38.9593C29.595 39.0325 31.0393 38.6363 32.0156 39.0567C31.3341 39.2775 30.4497 39.2792 29.8609 39.601C30.3421 39.8334 31.4688 39.7865 32.2035 39.6081V39.6081ZM22.8185 33.4706C22.1096 31.8036 21.4659 30.076 20.4074 28.7327C19.382 29.4204 18.2527 30.0672 17.9645 31.3161C19.4324 32.1466 21.1437 32.9658 22.8185 33.4706ZM24.5659 28.3083C24.4988 29.9755 24.3086 32.1625 23.8642 33.4691C24.9242 32.1194 25.779 30.5477 26.6725 29.0175C26.2917 28.4062 25.4956 27.8732 24.5659 28.3083V28.3083ZM22.585 27.6044C22.1835 27.5612 21.8426 28.0661 21.3205 27.8478C21.2008 27.98 21.0921 28.1233 20.9701 28.2524C22.1234 29.6423 22.6475 31.6141 23.5382 33.2474C24.0162 31.6785 23.9611 29.9596 24.0664 28.2472C23.4097 28.2889 23.0453 27.6533 22.585 27.6044ZM21.3114 25.9234C21.2685 26.3994 21.3792 26.5551 21.475 27.1007C23.0397 27.5899 22.7665 24.9531 21.3114 25.9234ZM19.5762 25.3537C18.902 24.9853 17.8891 24.5842 17.0183 24.418C15.9389 24.2115 16.04 25.8904 16.0858 26.8921C16.1218 27.6851 16.5342 28.5237 16.7133 29.0505C16.7974 29.2965 16.8163 29.5575 17.0266 29.6063C17.3983 29.693 18.6246 29.2027 18.974 29.0121C19.7129 28.6092 20.2863 27.9693 20.9139 27.5397C20.922 27.3307 20.93 27.1218 20.9383 26.9128C20.561 26.7247 20.1249 26.5913 19.571 26.5671C19.9468 26.3781 20.4995 26.3808 20.842 26.1559C20.8453 26.0721 20.8487 25.9885 20.8516 25.9055C20.2265 25.8575 19.9882 25.579 19.5762 25.3537V25.3537ZM13.1364 24.184C12.5768 24.7521 14.7058 25.5265 15.3837 25.5682C15.3799 25.2087 15.5886 24.8698 15.5465 24.6119C14.7414 24.4705 13.6833 24.5638 13.1364 24.184V24.184ZM20.0295 24.4508C20.0268 24.5062 19.9545 24.4861 19.9427 24.5312C20.6626 25.0939 21.1974 25.2102 22.1773 25.1618C22.6192 24.8411 23.011 24.4661 23.4711 24.1657C22.4119 24.2604 21.0785 24.9182 20.0295 24.4508V24.4508ZM26.3566 26.3693C26.3264 25.7382 26.1606 24.4403 25.7705 24.2131C24.9517 23.7351 23.4961 25.1781 22.8796 25.3981C22.9467 25.5912 23.0574 25.7442 23.0659 25.9911C23.4306 25.9013 23.8746 25.9627 24.1907 26.118C23.8252 26.159 23.4199 26.1562 23.1782 26.3304C23.0896 26.5865 23.1999 26.9355 23.1409 27.2911C24.0084 27.5358 24.9992 27.6661 26.0959 27.6983C26.3091 27.421 26.3818 26.8928 26.3566 26.3693V26.3693ZM12.1943 24.7335C12.0186 24.6082 10.8299 23.0615 10.667 23.1257C8.51604 23.974 6.50478 25.4408 4.70749 26.8281C6.42109 30.5051 7.11282 35.01 7.23505 39.3519C9.19806 40.2701 10.9223 41.5936 13.586 41.7318C13.2778 39.5509 12.9964 37.6052 12.8214 35.5519C12.1521 35.2697 11.1919 35.5647 10.5655 35.4644C10.5602 34.7096 11.5221 35.1339 11.6022 34.6263C11.6626 34.2424 11.073 34.2133 11.265 33.6087C11.7546 33.7867 12.0118 34.1799 12.534 34.3275C13.0112 33.2836 12.5273 31.4365 12.5961 30.564C12.6091 30.4002 12.6779 29.6564 13.0449 29.7869C13.3696 29.9024 13.0263 31.765 13.0619 32.5908C13.0943 33.3516 12.97 34.0878 13.2781 34.5654C15.8521 34.215 18.4678 33.9885 21.2528 33.9121C20.6401 33.6492 19.9122 33.4004 19.1142 32.9506C18.6816 32.7067 17.3179 32.1993 17.1931 31.7884C16.9939 31.1336 17.7157 30.7849 17.8391 30.2235C16.5399 30.9322 16.2864 29.5443 15.979 28.5611C15.7005 27.6705 15.542 27.0053 15.4737 26.4917C14.3544 25.9581 13.1577 25.4177 12.1943 24.7335V24.7335ZM25.2198 23.3128C27.012 22.4438 27.335 26.5607 26.6326 27.8869C26.7411 28.2825 27.1146 28.4339 27.267 28.7895C26.2669 30.581 25.1561 32.2534 24.1356 34.0238C24.8947 33.5513 25.9789 33.9393 26.8722 33.5856C27.1987 33.4565 27.4351 32.709 27.6823 32.111C28.3623 30.4659 29.0762 28.3918 29.3938 26.8219C29.4655 26.4641 29.661 25.6847 29.6171 25.3663C29.539 24.7963 28.7656 24.3736 28.3722 24.0211C27.6474 23.37 27.191 22.7971 26.435 22.1882C26.1284 22.6408 25.4706 22.9448 25.2198 23.3128V23.3128ZM8.09568 7.41985C7.24172 8.35945 7.42047 10.12 7.52385 11.3725C9.06741 10.4015 11.1162 11.4493 11.0968 13.1009C11.8338 13.0813 11.3722 12.1805 11.2389 11.6002C10.8032 9.70467 11.9728 7.64534 11.2919 5.91195C9.96985 6.01219 8.88374 6.55218 8.09568 7.41985V7.41985ZM14.2059 1.96643C12.2727 2.51437 9.79503 3.91912 9.00062 5.65581C9.61576 5.56643 10.0428 5.2562 10.6496 5.21781C10.8789 5.20288 11.1794 5.31398 11.443 5.24845C11.9682 5.11815 12.4115 3.94045 12.8078 3.50225C13.1941 3.07433 13.6583 2.89149 13.9761 2.50138C14.1802 2.40288 14.482 2.40967 14.4936 2.10312C14.4051 2.00851 14.312 1.93638 14.2059 1.96643V1.96643ZM24.2696 2.48179C22.263 1.34966 18.8666 0.498082 16.7321 1.56216C15.0098 2.42091 12.6817 3.84176 11.8879 5.64224C12.6294 7.37971 11.6683 8.97176 11.607 10.7358C11.5744 11.6744 12.0489 12.4938 12.0852 13.5156C11.8315 13.9342 11.0563 13.9858 10.5197 13.9571C10.3391 13.0532 10.0229 12.0372 9.09204 11.9352C7.77493 11.7912 6.8119 12.8812 6.75207 14.0203C6.68126 15.3599 7.78098 17.5802 9.3397 17.426C9.94183 17.3665 10.0897 16.7629 10.7458 16.7691C11.1014 17.4786 10.1973 17.7014 10.1043 18.2088C10.0801 18.3399 10.1793 18.8521 10.237 19.0924C10.5201 20.2621 11.1512 21.776 11.7724 22.6666C12.5609 23.7962 14.1099 23.9664 15.7764 24.0771C16.074 23.4359 17.1705 23.4887 17.885 23.6564C17.0287 23.3173 16.2327 22.4952 15.573 21.7675C14.8153 20.9326 14.0477 20.037 14.0089 18.9458C15.4409 20.9324 16.6239 22.6673 19.2278 23.5412C21.1981 24.202 23.4992 23.2384 25.0132 22.1752C25.6414 21.7334 26.0164 21.0323 26.4629 20.3905C28.1337 17.9872 28.9133 14.5568 28.7419 11.232C28.6713 9.86076 28.6744 8.4942 28.2143 7.57166C27.7335 6.60705 26.1071 5.74404 25.1551 6.61655C24.9786 5.6785 25.9468 5.09837 27.0839 5.43594C26.2731 4.3895 25.4221 3.13211 24.2696 2.48179V2.48179ZM28.008 33.4207C29.576 32.6412 32.5057 31.3225 33.4888 33.4235C33.8515 34.198 34.2771 35.5071 34.465 36.3065C34.7305 37.4344 34.1773 39.8049 33.018 40.1834C31.9941 40.5176 30.7993 40.4973 29.5659 40.2495C29.4207 40.1287 29.259 39.9182 29.146 39.6987C28.2653 39.6645 27.4407 39.7459 26.745 40.108C26.8109 40.7592 26.3704 40.8638 25.9574 40.9979C25.6513 42.2119 26.5699 43.7972 26.35 44.9041C26.1932 45.6927 25.223 45.8146 24.5098 45.9622C24.4865 46.4004 24.541 46.7662 24.5897 47.137C24.4266 47.7378 23.6953 48.0798 23.0023 48.1636C20.7223 48.4378 17.2605 48.5609 15.0675 47.7723C14.4555 46.2713 13.9734 44.4456 13.4637 42.7315C11.3248 42.9599 9.59494 41.8086 7.96413 41.0543C7.39949 40.7926 6.6184 40.6484 6.40746 40.1989C6.20296 39.7638 6.28665 38.9299 6.23591 38.1421C6.10677 36.1301 5.9962 34.1894 5.46487 32.1293C5.22631 31.2048 4.81049 30.3891 4.5204 29.4983C4.25229 28.6728 3.78385 27.6525 3.66167 26.8292C3.48052 25.6091 4.62947 25.5412 5.36415 25.0125C6.49985 24.1948 7.39131 23.7427 8.62131 23.0047C8.98561 22.7862 10.0842 22.233 10.2092 21.9783C10.4576 21.4732 9.78278 20.761 9.60236 20.3651C9.31697 19.739 9.16814 19.2071 9.12725 18.5894C8.09545 18.4263 7.31329 17.8123 6.84083 17.1199C6.05929 15.974 5.51728 13.854 6.19348 12.2414C6.24651 12.1144 6.51098 11.8646 6.54999 11.6696C6.62695 11.2855 6.40517 10.7748 6.39139 10.3662C6.32035 8.27026 6.74602 6.46434 8.15703 5.83225C8.72985 3.55033 10.78 2.79164 12.7116 1.65756C13.4336 1.23371 14.2296 0.962842 15.0516 0.66037C18.0003 -0.424846 22.5246 -0.220482 24.9719 1.63041C26.0096 2.41529 27.6683 4.07249 28.2616 5.27229C29.8287 8.43991 29.7174 13.7338 28.6213 17.587C28.4739 18.1043 28.2603 18.8647 27.9619 19.4862C27.7538 19.9201 27.1072 20.7883 27.1857 21.1715C27.2666 21.5676 28.6601 22.6257 28.9589 22.9138C29.4969 23.4328 30.5191 24.1217 30.6019 24.7767C30.6909 25.4737 30.2948 26.4273 30.0941 27.0999C29.4232 29.3446 28.7687 31.4195 28.008 33.4207" fill="#231F20"/>
<path fill-rule="evenodd" clip-rule="evenodd" d="M17.5459 17.8822C17.6309 17.769 18.0986 17.597 18.753 17.9121C18.753 17.9121 17.9774 18.0414 18.042 19.3345L17.7188 19.2697C17.7188 19.2697 17.3848 18.0972 17.5459 17.8822" fill="#F7E4CD"/>
<path fill-rule="evenodd" clip-rule="evenodd" d="M23.213 28.9967C23.213 29.1929 23.0538 29.3521 22.8574 29.3521C22.6611 29.3521 22.502 29.1929 22.502 28.9967C22.502 28.8005 22.6611 28.6411 22.8574 28.6411C23.0538 28.6411 23.213 28.8005 23.213 28.9967Z" fill="#1D1919"/>
<path fill-rule="evenodd" clip-rule="evenodd" d="M23.5684 30.6446C23.5684 30.8409 23.4092 31 23.2128 31C23.0166 31 22.8574 30.8409 22.8574 30.6446C22.8574 30.4484 23.0166 30.289 23.2128 30.289C23.4092 30.289 23.5684 30.4484 23.5684 30.6446Z" fill="#1D1919"/>
<path d="M60.8226 13.8596C60.459 13.9051 60.15 13.9505 59.8955 13.996C59.6411 14.0414 59.3548 14.105 59.0367 14.1868C58.664 14.2868 58.4232 14.464 58.3141 14.7185C58.2141 14.973 58.1641 15.2638 58.1641 15.591V26.2521C58.1641 27.2337 57.9642 28.1335 57.5643 28.9514C57.1735 29.7694 56.6327 30.4556 55.942 31.01C55.2421 31.5554 54.4605 31.9643 53.5971 32.237C52.7336 32.5188 51.8111 32.6596 50.8296 32.6596C49.13 32.6596 47.7576 32.2506 46.7124 31.4327C45.6763 30.6147 45.1582 29.4922 45.1582 28.0653C45.1582 27.22 45.3945 26.5202 45.8671 25.9658C46.3488 25.4114 47.0078 25.1342 47.8439 25.1342C48.6346 25.1342 49.2618 25.3659 49.7253 25.8295C50.1979 26.293 50.4342 26.8656 50.4342 27.5472C50.4342 28.1289 50.2297 28.6697 49.8207 29.1696C49.4208 29.6604 48.9618 30.1148 48.4438 30.5329V30.7101C48.5256 30.8919 48.7028 31.0464 48.9755 31.1736C49.2481 31.3009 49.5253 31.3645 49.8071 31.3645C50.8977 31.3645 51.7521 30.9737 52.3701 30.192C52.9972 29.4104 53.3108 28.2289 53.3108 26.6474V15.7274C53.3108 15.4002 53.2608 15.1275 53.1608 14.9094C53.0608 14.6913 52.82 14.5004 52.4383 14.3368C52.1656 14.2186 51.8339 14.1187 51.443 14.0369C51.0613 13.9551 50.7432 13.896 50.4887 13.8596V12.7963H60.8226V13.8596Z" fill="white"/>
<path d="M77.005 28.8833C76.6869 29.4013 76.3007 29.8921 75.8462 30.3556C75.4009 30.8101 74.8919 31.2009 74.3193 31.5281C73.7104 31.8735 73.0923 32.1325 72.4652 32.3052C71.8472 32.4869 71.1337 32.5778 70.3248 32.5778C68.9797 32.5778 67.8163 32.387 66.8348 32.0052C65.8623 31.6235 65.0579 31.11 64.4217 30.4647C63.7855 29.8194 63.3083 29.0605 62.9902 28.188C62.6812 27.3064 62.5267 26.3521 62.5267 25.325C62.5267 24.398 62.6949 23.5118 63.0311 22.6666C63.3765 21.8123 63.8628 21.0534 64.4899 20.3899C65.1079 19.7446 65.885 19.222 66.8211 18.8221C67.7664 18.4222 68.8206 18.2222 69.984 18.2222C71.2564 18.2222 72.3016 18.3767 73.1196 18.6857C73.9376 18.9948 74.6147 19.4219 75.1509 19.9673C75.669 20.4853 76.0462 21.0988 76.2825 21.8077C76.5188 22.5075 76.6369 23.2437 76.6369 24.0163V24.9024H67.421C67.421 26.7656 67.78 28.1834 68.498 29.1559C69.216 30.1284 70.3566 30.6147 71.9199 30.6147C72.7742 30.6147 73.5422 30.3829 74.2239 29.9194C74.9055 29.4468 75.4872 28.8515 75.9689 28.1335L77.005 28.8833ZM71.7972 23.7027C71.7972 23.1574 71.7699 22.5984 71.7154 22.0258C71.6609 21.4533 71.5654 20.9852 71.4291 20.6216C71.2746 20.1945 71.061 19.8718 70.7884 19.6537C70.5248 19.4356 70.1885 19.3265 69.7795 19.3265C69.0797 19.3265 68.5207 19.681 68.1026 20.3899C67.6846 21.0988 67.4573 22.2212 67.421 23.7572L71.7972 23.7027Z" fill="white"/>
<path d="M96.3231 32.1416H88.116V31.1464C88.2887 31.1282 88.4977 31.1055 88.7431 31.0782C88.9885 31.0509 89.1748 31.0055 89.302 30.9419C89.4929 30.8419 89.6292 30.6965 89.711 30.5056C89.7928 30.3147 89.8337 30.033 89.8337 29.6604V23.2801C89.8337 22.353 89.661 21.6577 89.3157 21.1942C88.9794 20.7216 88.4795 20.4853 87.816 20.4853C87.4525 20.4853 87.1117 20.5398 86.7936 20.6489C86.4845 20.758 86.1801 20.917 85.8801 21.1261C85.6166 21.3078 85.403 21.4942 85.2394 21.685C85.0849 21.8759 84.9531 22.044 84.844 22.1894V29.5104C84.844 29.8285 84.8895 30.0966 84.9804 30.3147C85.0713 30.5238 85.2212 30.6828 85.4303 30.7919C85.5757 30.8737 85.7575 30.9464 85.9756 31.01C86.1937 31.0736 86.4073 31.1191 86.6163 31.1464V32.1416H78.3274V31.1464C78.5547 31.1282 78.7819 31.1055 79.0091 31.0782C79.2454 31.0418 79.4453 30.9964 79.6089 30.9419C79.8998 30.8419 80.0997 30.6874 80.2088 30.4783C80.3179 30.2693 80.3724 29.9966 80.3724 29.6604V21.7259C80.3724 21.4442 80.2997 21.167 80.1543 20.8943C80.0088 20.6216 79.818 20.399 79.5817 20.2263C79.4181 20.1172 79.209 20.0263 78.9546 19.9536C78.7092 19.8809 78.4365 19.8309 78.1366 19.8037V18.8084L84.6395 18.454L84.844 18.6585V20.6353H84.8986C85.1531 20.4081 85.4621 20.1354 85.8256 19.8173C86.1892 19.4992 86.5254 19.2402 86.8345 19.0402C87.1707 18.8221 87.6115 18.6358 88.1569 18.4812C88.7022 18.3267 89.2839 18.2495 89.9019 18.2495C91.3834 18.2495 92.4922 18.6721 93.2284 19.5174C93.9736 20.3535 94.3463 21.4669 94.3463 22.8575V29.5377C94.3463 29.8739 94.3963 30.1421 94.4962 30.342C94.5962 30.542 94.7825 30.701 95.0552 30.8192C95.2006 30.8828 95.3778 30.9464 95.5869 31.01C95.805 31.0736 96.0504 31.1191 96.3231 31.1464V32.1416Z" fill="white"/>
<path d="M115.096 32.1416H108.675C107.884 30.751 107.161 29.574 106.507 28.6106C105.853 27.6381 105.235 26.7383 104.653 25.9113L103.835 26.6066V29.5786C103.835 29.9058 103.88 30.1739 103.971 30.3829C104.071 30.5919 104.258 30.7465 104.53 30.8464C104.694 30.9191 104.885 30.9828 105.103 31.0373C105.321 31.0918 105.539 31.1282 105.757 31.1464V32.1416H97.3183V31.1464C97.5455 31.1282 97.7727 31.1055 97.9999 31.0782C98.2272 31.0418 98.4271 30.9964 98.5998 30.9419C98.8906 30.8419 99.086 30.6874 99.186 30.4783C99.2951 30.2693 99.3496 29.9966 99.3496 29.6604V14.4595C99.3496 14.1596 99.2814 13.8506 99.1451 13.5324C99.0179 13.2053 98.827 12.9599 98.5725 12.7963C98.3998 12.6872 98.1408 12.5963 97.7954 12.5236C97.4501 12.4509 97.1365 12.4054 96.8548 12.3873V11.3921L103.63 11.0376L103.835 11.2557V25.325C104.507 24.7252 105.262 24.0299 106.098 23.2392C106.943 22.4485 107.62 21.7941 108.129 21.276C108.429 20.967 108.593 20.7352 108.62 20.5807C108.656 20.4171 108.675 20.3172 108.675 20.2808C108.675 20.1172 108.529 19.9809 108.238 19.8718C107.957 19.7628 107.529 19.6673 106.957 19.5855V18.6176H113.882V19.5583C112.974 19.8127 112.278 20.0536 111.797 20.2808C111.324 20.4989 110.806 20.7943 110.242 21.167C109.87 21.4124 109.506 21.6714 109.152 21.944C108.806 22.2076 108.407 22.5394 107.952 22.9393C108.843 24.2299 109.665 25.425 110.42 26.5248C111.174 27.6245 111.965 28.7878 112.792 30.0148C113.074 30.442 113.423 30.7283 113.842 30.8737C114.26 31.0191 114.678 31.11 115.096 31.1464V32.1416Z" fill="white"/>
<path d="M123.862 32.1416H115.246V31.1464C115.482 31.1282 115.714 31.1055 115.941 31.0782C116.168 31.0509 116.364 31.0055 116.527 30.9419C116.818 30.8328 117.023 30.6783 117.141 30.4783C117.259 30.2693 117.318 29.9966 117.318 29.6604V21.7259C117.318 21.4078 117.245 21.1306 117.1 20.8943C116.954 20.6489 116.773 20.4535 116.555 20.3081C116.391 20.199 116.141 20.0945 115.805 19.9945C115.478 19.8945 115.178 19.8309 114.905 19.8037V18.8084L121.585 18.454L121.79 18.6585V29.4831C121.79 29.8012 121.858 30.0739 121.994 30.3011C122.13 30.5192 122.326 30.6828 122.58 30.7919C122.762 30.8737 122.962 30.9464 123.18 31.01C123.398 31.0736 123.626 31.1191 123.862 31.1464V32.1416ZM121.871 13.5461C121.871 14.2368 121.603 14.8276 121.067 15.3184C120.54 15.8001 119.913 16.0409 119.186 16.0409C118.45 16.0409 117.813 15.8001 117.277 15.3184C116.75 14.8276 116.486 14.2368 116.486 13.5461C116.486 12.8553 116.75 12.2646 117.277 11.7738C117.813 11.283 118.45 11.0376 119.186 11.0376C119.922 11.0376 120.554 11.283 121.081 11.7738C121.608 12.2646 121.871 12.8553 121.871 13.5461Z" fill="white"/>
<path d="M143.112 32.1416H134.905V31.1464C135.077 31.1282 135.286 31.1055 135.532 31.0782C135.777 31.0509 135.963 31.0055 136.091 30.9419C136.282 30.8419 136.418 30.6965 136.5 30.5056C136.581 30.3147 136.622 30.033 136.622 29.6604V23.2801C136.622 22.353 136.45 21.6577 136.104 21.1942C135.768 20.7216 135.268 20.4853 134.605 20.4853C134.241 20.4853 133.9 20.5398 133.582 20.6489C133.273 20.758 132.969 20.917 132.669 21.1261C132.405 21.3078 132.192 21.4942 132.028 21.685C131.874 21.8759 131.742 22.044 131.633 22.1894V29.5104C131.633 29.8285 131.678 30.0966 131.769 30.3147C131.86 30.5238 132.01 30.6828 132.219 30.7919C132.364 30.8737 132.546 30.9464 132.764 31.01C132.982 31.0736 133.196 31.1191 133.405 31.1464V32.1416H125.116V31.1464C125.343 31.1282 125.571 31.1055 125.798 31.0782C126.034 31.0418 126.234 30.9964 126.398 30.9419C126.688 30.8419 126.888 30.6874 126.997 30.4783C127.107 30.2693 127.161 29.9966 127.161 29.6604V21.7259C127.161 21.4442 127.088 21.167 126.943 20.8943C126.797 20.6216 126.607 20.399 126.37 20.2263C126.207 20.1172 125.998 20.0263 125.743 19.9536C125.498 19.8809 125.225 19.8309 124.925 19.8037V18.8084L131.428 18.454L131.633 18.6585V20.6353H131.687C131.942 20.4081 132.251 20.1354 132.614 19.8173C132.978 19.4992 133.314 19.2402 133.623 19.0402C133.959 18.8221 134.4 18.6358 134.946 18.4812C135.491 18.3267 136.073 18.2495 136.691 18.2495C138.172 18.2495 139.281 18.6721 140.017 19.5174C140.762 20.3535 141.135 21.4669 141.135 22.8575V29.5377C141.135 29.8739 141.185 30.1421 141.285 30.342C141.385 30.542 141.571 30.701 141.844 30.8192C141.989 30.8828 142.167 30.9464 142.376 31.01C142.594 31.0736 142.839 31.1191 143.112 31.1464V32.1416Z" fill="white"/>
<path d="M150.705 32.6051C149.824 32.6051 148.96 32.4733 148.115 32.2097C147.279 31.9553 146.629 31.6826 146.166 31.3918L145.757 32.3188H144.693L144.516 27.2337H145.511C145.647 27.6427 145.875 28.1062 146.193 28.6242C146.511 29.1332 146.874 29.5922 147.283 30.0012C147.711 30.4102 148.197 30.7555 148.742 31.0373C149.297 31.319 149.887 31.4599 150.514 31.4599C151.342 31.4599 151.955 31.3009 152.355 30.9828C152.764 30.6556 152.968 30.1557 152.968 29.4831C152.968 29.1196 152.878 28.8196 152.696 28.5833C152.514 28.347 152.264 28.1425 151.946 27.9699C151.591 27.7881 151.201 27.6336 150.774 27.5063C150.355 27.3791 149.837 27.2246 149.219 27.0428C148.601 26.861 148.07 26.6793 147.624 26.4975C147.188 26.3066 146.734 26.0112 146.261 25.6113C145.852 25.2569 145.525 24.8297 145.279 24.3298C145.034 23.83 144.911 23.2346 144.911 22.5439C144.911 21.2624 145.448 20.2263 146.52 19.4356C147.602 18.6448 149.015 18.2495 150.76 18.2495C151.587 18.2495 152.346 18.3358 153.037 18.5085C153.736 18.6721 154.323 18.8539 154.795 19.0538L155.082 18.2495H156.118L156.336 22.8984H155.368C155.05 21.9531 154.504 21.1397 153.732 20.458C152.959 19.7673 152.128 19.4219 151.237 19.4219C150.537 19.4219 149.987 19.5673 149.587 19.8582C149.188 20.149 148.988 20.5535 148.988 21.0715C148.988 21.7623 149.278 22.2621 149.86 22.5712C150.451 22.8802 151.273 23.171 152.328 23.4437C153.955 23.8618 155.145 24.4343 155.9 25.1614C156.654 25.8795 157.031 26.7974 157.031 27.9153C157.031 29.4059 156.445 30.5601 155.272 31.3781C154.109 32.1961 152.587 32.6051 150.705 32.6051Z" fill="white"/>
</svg>
