<svg width="116" height="40" viewBox="0 0 116 40" fill="none" xmlns="http://www.w3.org/2000/svg">
<g clip-path="url(#clip0_371_1922)">
<path d="M16.7325 0.192475C16.1158 0.565904 15.0879 1.61151 13.8691 3.12763L14.9925 5.28605C15.7781 4.13589 16.5857 3.10522 17.3933 2.22393C17.452 2.15671 17.4887 2.11937 17.4887 2.11937C17.4594 2.15671 17.4227 2.18659 17.3933 2.22393C17.129 2.5152 16.336 3.45624 15.1393 5.33086C16.292 5.27111 18.0614 5.03211 19.5078 4.77818C19.941 2.32849 19.0893 1.2082 19.0893 1.2082C19.0893 1.2082 18.0027 -0.576789 16.7325 0.192475Z" fill="url(#paint0_linear_371_1922)"/>
<path d="M12.9522 18.311C12.8054 18.3409 12.6586 18.3633 12.5117 18.3857C12.5851 18.3783 12.6659 18.3633 12.7393 18.3484C12.8127 18.3409 12.8862 18.326 12.9522 18.311Z" fill="#BE202E"/>
<path opacity="0.35" d="M12.9522 18.311C12.8054 18.3409 12.6586 18.3633 12.5117 18.3857C12.5851 18.3783 12.6659 18.3633 12.7393 18.3484C12.8127 18.3409 12.8862 18.326 12.9522 18.311Z" fill="#BE202E"/>
<path d="M13.3336 16.4216C13.3263 16.4216 13.3263 16.4216 13.3336 16.4216C13.3557 16.4216 13.3777 16.4141 13.3997 16.4141C13.4952 16.3992 13.5906 16.3842 13.6787 16.3618C13.5686 16.3842 13.4511 16.3992 13.3336 16.4216Z" fill="#BE202E"/>
<path opacity="0.35" d="M13.3336 16.4216C13.3263 16.4216 13.3263 16.4216 13.3336 16.4216C13.3557 16.4216 13.3777 16.4141 13.3997 16.4141C13.4952 16.3992 13.5906 16.3842 13.6787 16.3618C13.5686 16.3842 13.4511 16.3992 13.3336 16.4216Z" fill="#BE202E"/>
<path d="M11.6733 10.8579C12.0184 10.2081 12.3635 9.57331 12.7085 8.95342C13.0683 8.31112 13.4354 7.69123 13.8098 7.08628C13.8319 7.04893 13.8539 7.01159 13.8759 6.98172C14.243 6.3917 14.6101 5.82409 14.9846 5.27888L13.8612 3.12793C13.7805 3.23249 13.6924 3.33705 13.6043 3.44908C13.2812 3.85985 12.9435 4.3005 12.5984 4.77102C12.2093 5.30129 11.8128 5.86143 11.4017 6.45145C11.0272 6.99665 10.6454 7.57173 10.2637 8.16175C9.94062 8.66962 9.61757 9.18495 9.29452 9.71522C9.27984 9.73762 9.2725 9.75256 9.25781 9.77496L10.7189 12.7101C11.0419 12.0902 11.3576 11.4703 11.6733 10.8579Z" fill="url(#paint1_linear_371_1922)"/>
<path d="M5.01456 27.4153C4.82367 27.953 4.62544 28.5057 4.43454 29.0733C4.43454 29.0808 4.4272 29.0882 4.4272 29.0957C4.39783 29.1779 4.36847 29.2526 4.34644 29.3347C4.21429 29.7156 4.10416 30.0592 3.83984 30.8359C4.27302 31.0375 4.61809 31.5603 4.94114 32.1578C4.90443 31.5379 4.6548 30.9554 4.17758 30.5073C6.29941 30.6044 8.13491 30.0592 9.07468 28.4758C9.15544 28.3339 9.23621 28.1845 9.30963 28.0277C8.87645 28.5804 8.34783 28.8194 7.34197 28.7596H7.33463H7.34197C8.81771 28.0875 9.55925 27.4377 10.2127 26.3697C10.3669 26.1158 10.5211 25.8394 10.6752 25.5332C9.38305 26.885 7.88528 27.2659 6.30675 26.9746L5.12469 27.1091C5.08798 27.2136 5.05127 27.3107 5.01456 27.4153Z" fill="url(#paint2_linear_371_1922)"/>
<path d="M5.56548 24.7194C5.82245 24.0472 6.08676 23.3676 6.35107 22.6805C6.60804 22.0232 6.87235 21.366 7.144 20.7013C7.41566 20.0366 7.69465 19.3719 7.97365 18.7072C8.25999 18.0275 8.55367 17.3554 8.85469 16.6832C9.14837 16.0185 9.45673 15.3538 9.75775 14.6966C9.86788 14.4576 9.97801 14.226 10.0955 13.987C10.2864 13.5837 10.4846 13.1804 10.6828 12.7771C10.6902 12.7547 10.7049 12.7323 10.7122 12.7099L9.26584 9.78223C9.24381 9.81957 9.22179 9.86438 9.19242 9.90172C8.85469 10.4693 8.50961 11.0444 8.17922 11.6344C7.84149 12.2319 7.5111 12.8369 7.18806 13.4568C6.9164 13.9796 6.65209 14.5024 6.38778 15.0326C6.33639 15.1372 6.28499 15.2492 6.2336 15.3538C5.91789 16.0185 5.62421 16.6683 5.36724 17.2881C5.07356 17.9902 4.81659 18.6624 4.58899 19.2972C4.44215 19.7154 4.30266 20.1187 4.17784 20.5071C4.07505 20.8357 3.97961 21.1718 3.88416 21.5004C3.6639 22.2772 3.48035 23.0539 3.32617 23.8306L4.79457 26.7807C4.98546 26.2504 5.19104 25.7202 5.38927 25.175C5.44801 25.0256 5.50674 24.8762 5.56548 24.7194Z" fill="url(#paint3_linear_371_1922)"/>
<path d="M3.30389 23.9351C3.12035 24.8762 2.98819 25.8172 2.92211 26.7582C2.92211 26.7881 2.91477 26.8255 2.91477 26.8553C2.45957 26.1085 1.22611 25.3766 1.23345 25.384C2.11449 26.6836 2.78261 27.9682 2.87806 29.2303C2.40817 29.3274 1.76208 29.1855 1.02054 28.9092C1.79879 29.6337 2.3788 29.8353 2.60641 29.8876C1.89423 29.9324 1.15269 30.4328 0.403809 31.0079C1.49777 30.5523 2.38615 30.373 3.01756 30.5224C2.01171 33.4128 1.00585 36.6093 0 40C0.308364 39.9104 0.491913 39.6938 0.594701 39.41C0.770909 38.7976 1.96765 34.7646 3.83252 29.4693C3.88391 29.32 3.94265 29.1706 3.99404 29.0138C4.00873 28.9689 4.02341 28.9316 4.03809 28.8868C4.23633 28.3341 4.4419 27.7665 4.65482 27.184C4.70621 27.0495 4.75027 26.9226 4.80166 26.7881V26.7807L3.33326 23.8306C3.31858 23.8679 3.31124 23.8978 3.30389 23.9351Z" fill="url(#paint4_linear_371_1922)"/>
<path d="M10.9545 12.9638C10.9105 13.0534 10.8738 13.1356 10.8297 13.2252C10.7049 13.4941 10.5728 13.7629 10.4479 14.0393C10.3084 14.338 10.1689 14.6442 10.0221 14.9579C9.94869 15.1147 9.87527 15.2716 9.80185 15.4359C9.58159 15.9213 9.36133 16.4217 9.13373 16.9371C8.85473 17.5719 8.57574 18.2291 8.2894 18.9162C8.01774 19.566 7.73875 20.2456 7.45975 20.9402C7.19544 21.6049 6.92379 22.2846 6.65213 22.9941C6.40985 23.6214 6.16756 24.2712 5.91794 24.9359C5.90325 24.9658 5.89591 25.0031 5.88123 25.033C5.63894 25.6902 5.38931 26.3699 5.13968 27.0645C5.13234 27.0794 5.125 27.0943 5.125 27.1093L6.30706 26.9748C6.28503 26.9674 6.26301 26.9674 6.23364 26.9599C7.65064 26.7807 9.53019 25.7052 10.7416 24.3758C11.2996 23.7633 11.8062 23.0464 12.2761 22.2024C12.6285 21.5751 12.9516 20.8805 13.2673 20.1037C13.5389 19.4316 13.8032 18.6996 14.0529 17.908C13.7298 18.0798 13.3554 18.2067 12.9442 18.2963C12.8708 18.3113 12.7974 18.3262 12.724 18.3412C12.6505 18.3561 12.5771 18.3636 12.4964 18.3785C13.8179 17.8632 14.6476 16.8698 15.2496 15.645C14.9045 15.884 14.3392 16.1977 13.6637 16.3545C13.5756 16.3769 13.4802 16.3919 13.3847 16.4068C13.3627 16.4068 13.3407 16.4143 13.3113 16.4143C13.7665 16.2201 14.1556 16.0035 14.4934 15.7421C14.5668 15.6898 14.6329 15.6301 14.699 15.5703C14.8017 15.4807 14.8972 15.3836 14.9926 15.2865C15.0514 15.2193 15.1101 15.1595 15.1688 15.0923C15.301 14.9355 15.4258 14.7637 15.5359 14.577C15.5727 14.5172 15.6094 14.465 15.6387 14.4052C15.6828 14.3156 15.7268 14.2334 15.7635 14.1513C15.9471 13.7779 16.0939 13.4418 16.2114 13.143C16.2701 12.9937 16.3215 12.8592 16.3656 12.7323C16.3803 12.68 16.4023 12.6352 16.417 12.5829C16.461 12.441 16.5051 12.314 16.5345 12.202C16.5785 12.0377 16.6079 11.9032 16.6226 11.8062C16.5785 11.8435 16.5271 11.8808 16.4684 11.9107C16.0719 12.1497 15.3891 12.3738 14.8385 12.4783L15.9251 12.3588L14.8385 12.4783C14.8311 12.4783 14.8238 12.4783 14.8164 12.4858C14.765 12.4933 14.7063 12.5007 14.6476 12.5157C14.6549 12.5082 14.6696 12.5082 14.6769 12.5007L10.9619 12.9115C10.9692 12.9414 10.9619 12.9563 10.9545 12.9638Z" fill="url(#paint5_linear_371_1922)"/>
<path d="M15.1395 5.33085C14.8091 5.84618 14.4493 6.4362 14.0602 7.09344C14.0382 7.13078 14.0161 7.16065 14.0015 7.198C13.6637 7.77308 13.3113 8.40044 12.9369 9.09501C12.6138 9.6925 12.2761 10.3273 11.9237 11.0219C11.6153 11.6194 11.307 12.2542 10.9766 12.9264L14.6916 12.5156C15.7709 12.0078 16.2555 11.5522 16.7253 10.8875C16.8502 10.7082 16.975 10.514 17.0998 10.3124C17.4816 9.70744 17.856 9.04273 18.1864 8.37803C18.5094 7.73573 18.7958 7.1009 19.0087 6.53329C19.1482 6.16733 19.2583 5.83125 19.3391 5.5325C19.4052 5.2711 19.4566 5.02464 19.5006 4.78564C18.0616 5.03211 16.2922 5.2711 15.1395 5.33085Z" fill="url(#paint6_linear_371_1922)"/>
<path d="M12.7393 18.356C12.6659 18.3709 12.5925 18.3784 12.5117 18.3933C12.5851 18.3784 12.6586 18.3634 12.7393 18.356Z" fill="#BE202E"/>
<path opacity="0.35" d="M12.7393 18.356C12.6659 18.3709 12.5925 18.3784 12.5117 18.3933C12.5851 18.3784 12.6586 18.3634 12.7393 18.356Z" fill="#BE202E"/>
<path d="M12.7393 18.356C12.6659 18.3709 12.5925 18.3784 12.5117 18.3933C12.5851 18.3784 12.6586 18.3634 12.7393 18.356Z" fill="url(#paint7_linear_371_1922)"/>
<path d="M13.3262 16.4215C13.3482 16.4215 13.3702 16.4141 13.3996 16.4141C13.3776 16.4141 13.3555 16.4215 13.3262 16.4215Z" fill="#BE202E"/>
<path opacity="0.35" d="M13.3262 16.4215C13.3482 16.4215 13.3702 16.4141 13.3996 16.4141C13.3776 16.4141 13.3555 16.4215 13.3262 16.4215Z" fill="#BE202E"/>
<path d="M13.3262 16.4215C13.3482 16.4215 13.3702 16.4141 13.3996 16.4141C13.3776 16.4141 13.3555 16.4215 13.3262 16.4215Z" fill="url(#paint8_linear_371_1922)"/>
<path d="M15.0344 12.4472V12.9931H14.8834V12.4472H14.6934V12.3164H15.2188V12.4472H15.0344Z" fill="#B0AFB0"/>
<path d="M15.9227 12.5666L15.7438 12.9363H15.6543L15.4754 12.5666V12.9931H15.3301V12.3164H15.5313L15.7046 12.686L15.8779 12.3164H16.0792V12.9931H15.9338V12.5666H15.9227Z" fill="#B0AFB0"/>
<path d="M21.1325 38.934C20.5122 38.934 19.9682 38.9 19.5006 38.8321C19.033 38.7738 18.637 38.701 18.3125 38.6136V34.8568C18.6656 34.9344 19.0378 35.0024 19.429 35.0606C19.8108 35.1189 20.2307 35.148 20.6887 35.148C21.1277 35.148 21.5333 35.0995 21.9055 35.0024C22.2872 34.9053 22.6164 34.7354 22.8932 34.4927C23.1795 34.2598 23.399 33.9443 23.5517 33.5463C23.7139 33.1482 23.795 32.6483 23.795 32.0464V11.3838H28.2325V31.9008C28.2325 33.124 28.056 34.1772 27.7029 35.0606C27.3593 35.944 26.8726 36.6721 26.2428 37.2449C25.6225 37.8273 24.8781 38.2544 24.0097 38.5263C23.1413 38.7981 22.1822 38.934 21.1325 38.934Z" fill="#D22128" stroke="#D22128" stroke-width="1.22877" stroke-linejoin="round"/>
<path d="M30.6113 11.3857V32.6716H34.5786V22.768C34.5786 22.4962 34.571 22.1916 34.5615 21.8518C34.5615 21.5121 34.5521 21.1596 34.533 20.7907C34.5234 20.4219 34.5122 20.0503 34.4931 19.6716C34.4835 19.2931 34.4666 18.9233 34.4475 18.5642C34.4093 17.7293 34.3622 16.8654 34.305 15.9723H34.4361L39.0304 32.6716H43.106L48.0594 16.0013H48.1734C48.1447 16.8847 48.1146 17.7313 48.0765 18.5468C48.0669 18.8962 48.0499 19.2564 48.0309 19.6253C48.0213 19.9942 48.0119 20.3562 48.0024 20.7153C47.9928 21.0745 47.9834 21.4155 47.9738 21.7359C47.9738 22.0562 47.9738 22.3416 47.9738 22.594V32.6716H52.1121V11.3857H46.07L41.2591 27.6618H41.1736L36.6534 11.3857H30.6113ZM72.1594 12.9281L70.8997 16.3608L68.5 17.8509V19.7296H70.5862V27.5748C70.5862 28.6233 70.7086 29.4968 70.9567 30.1957C71.2143 30.885 71.5665 31.4366 72.0055 31.854C72.4445 32.2618 72.9661 32.553 73.5673 32.718C74.1685 32.883 74.8144 32.9615 75.5111 32.9615C76.2268 32.9615 76.8878 32.8926 77.489 32.747C78.0998 32.6111 78.6063 32.4329 79.0166 32.2194V28.9143C78.6158 29.0599 78.2223 29.1825 77.831 29.2796C77.4493 29.3766 77.0406 29.4245 76.6112 29.4245C76.115 29.4245 75.7138 29.2732 75.4085 28.9723C75.1031 28.6713 74.9525 28.2058 74.9525 27.5748V19.7296H78.8456V16.3955H74.9525V12.9281H72.1594ZM60.953 16.0882C59.8651 16.0883 58.8746 16.2683 57.9775 16.6275C57.09 16.9867 56.3255 17.5211 55.6861 18.2394C55.0563 18.9481 54.5629 19.8389 54.2098 20.9067C53.8567 21.9745 53.6797 23.2196 53.6797 24.6467C53.6797 26.0543 53.8736 27.286 54.2554 28.3344C54.6466 29.3731 55.189 30.2371 55.8856 30.9263C56.5823 31.6058 57.4127 32.1115 58.3766 32.4513C59.3404 32.7911 60.395 32.9615 61.5401 32.9615C62.1318 32.9615 62.6741 32.9405 63.1703 32.892C63.6666 32.8531 64.1317 32.7861 64.5612 32.689C64.9906 32.592 65.3936 32.4712 65.7753 32.3353C66.1666 32.1897 66.5564 32.0173 66.9381 31.8135V28.375C66.5182 28.5886 66.1077 28.7782 65.7069 28.9433C65.3061 29.0986 64.8974 29.2308 64.4871 29.3376C64.0767 29.4443 63.6549 29.5286 63.2159 29.5869C62.7865 29.6354 62.3289 29.6565 61.8422 29.6565C61.2601 29.6565 60.7385 29.5684 60.2804 29.3839C59.8319 29.1995 59.442 28.9351 59.1176 28.5954C58.8026 28.2459 58.5579 27.8206 58.3766 27.3255C58.2048 26.8207 58.1106 26.2595 58.0915 25.6382H67.8501V23.4812C67.8501 22.2969 67.6901 21.251 67.3656 20.3385C67.0507 19.4162 66.5931 18.6385 65.9919 18.0075C65.4002 17.3765 64.6733 16.9015 63.8145 16.5811C62.9651 16.2511 62.0123 16.0883 60.953 16.0882ZM87.2362 16.0882C86.1483 16.0883 85.1578 16.2683 84.2608 16.6275C83.3732 16.9867 82.6087 17.5211 81.9693 18.2394C81.3395 18.9481 80.8461 19.8389 80.493 20.9067C80.1399 21.9745 79.9629 23.2196 79.9629 24.6467C79.9629 26.0543 80.1569 27.286 80.5386 28.3344C80.9299 29.3731 81.4722 30.2371 82.1688 30.9263C82.8655 31.6058 83.6959 32.1115 84.6598 32.4513C85.6236 32.7911 86.6781 32.9615 87.8233 32.9615C88.415 32.9615 88.9573 32.9405 89.4535 32.892C89.9498 32.8531 90.4149 32.7861 90.8444 32.689C91.2738 32.592 91.6768 32.4712 92.0585 32.3353C92.4497 32.1897 92.8396 32.0173 93.2213 31.8135V28.375C92.8014 28.5886 92.3909 28.7782 91.9901 28.9433C91.5893 29.0986 91.1806 29.2308 90.7703 29.3376C90.3599 29.4443 89.9381 29.5286 89.4992 29.5869C89.0697 29.6354 88.6121 29.6565 88.1254 29.6565C87.5433 29.6565 87.0216 29.5684 86.5636 29.3839C86.1151 29.1995 85.7309 28.9351 85.4065 28.5954C85.0916 28.2459 84.8411 27.8206 84.6598 27.3255C84.488 26.8207 84.3938 26.2595 84.3748 25.6382H94.1334V23.4812C94.1333 22.2969 93.9733 21.251 93.6488 20.3385C93.3339 19.4162 92.8763 18.6385 92.2751 18.0075C91.6834 17.3765 90.9565 16.9015 90.0977 16.5811C89.2483 16.2511 88.2955 16.0883 87.2362 16.0882ZM103.647 16.0882C103.112 16.0883 102.636 16.1553 102.216 16.2912C101.806 16.4174 101.433 16.5994 101.099 16.842C100.774 17.075 100.483 17.3662 100.215 17.706C99.9481 18.0458 99.6977 18.4193 99.4686 18.8367H99.252L98.6079 16.3955H95.3019V32.6716H99.6681V24.3857C99.6681 23.6188 99.7604 22.9733 99.9417 22.4491C100.133 21.9152 100.394 21.488 100.728 21.1676C101.072 20.8376 101.481 20.6 101.948 20.4544C102.425 20.3088 102.941 20.2341 103.504 20.2341C103.6 20.2341 103.72 20.2418 103.863 20.2515C104.007 20.2515 104.148 20.2611 104.291 20.2805C104.444 20.2902 104.591 20.3075 104.724 20.3269C104.858 20.3463 104.961 20.3655 105.038 20.3848V16.2158C104.98 16.1964 104.896 16.1849 104.781 16.1752C104.676 16.1558 104.556 16.1386 104.422 16.1288C104.298 16.1094 104.166 16.0998 104.023 16.0998C103.889 16.0901 103.761 16.0882 103.647 16.0882V16.0882ZM60.9815 19.2484C61.4396 19.2484 61.8407 19.3346 62.1842 19.5093C62.5278 19.684 62.8159 19.9234 63.0449 20.2341C63.274 20.535 63.4434 20.8952 63.558 21.3126C63.6725 21.73 63.7365 22.1859 63.7461 22.681H58.177C58.2534 21.4967 58.5434 20.6309 59.0492 20.0775C59.5645 19.5242 60.2085 19.2484 60.9815 19.2484ZM87.2647 19.2484C87.7228 19.2484 88.1239 19.3346 88.4674 19.5093C88.811 19.684 89.0991 19.9234 89.3282 20.2341C89.5572 20.535 89.7266 20.8952 89.8412 21.3126C89.9557 21.73 90.0197 22.1859 90.0293 22.681H84.4603C84.5366 21.4967 84.8266 20.6309 85.3324 20.0775C85.8477 19.5242 86.4917 19.2484 87.2647 19.2484Z" fill="white" stroke="white" stroke-width="1.22877" stroke-linejoin="round"/>
<path d="M109.428 16.048H108.457V12.2013H107.305V11.377H110.577V12.2013H109.428V16.048Z" fill="url(#paint9_linear_371_1922)"/>
<path d="M113.13 16.048L112.122 12.3834H112.094C112.106 12.5793 112.117 12.7689 112.125 12.9521C112.129 13.0309 112.132 13.1118 112.134 13.1949C112.139 13.278 112.142 13.36 112.144 13.4409C112.148 13.5218 112.15 13.5996 112.15 13.6741C112.152 13.7487 112.153 13.8158 112.153 13.8754V16.048H111.283V11.377H112.609L113.601 14.9489H113.62L114.675 11.377H116.001V16.048H115.093V13.8371C115.093 13.7817 115.093 13.7189 115.093 13.6486C115.095 13.5783 115.097 13.5037 115.099 13.4249C115.101 13.3461 115.103 13.2662 115.106 13.1853C115.11 13.1044 115.113 13.0256 115.115 12.9489C115.123 12.77 115.131 12.5836 115.137 12.3898H115.112L114.025 16.048H113.13Z" fill="url(#paint10_linear_371_1922)"/>
<path d="M23.7363 8.10993L26.8708 0.491211H27.4748L30.6092 8.10993H29.8208L28.8481 5.72989H25.4784L24.5183 8.10993H23.7363ZM27.1759 1.37079L25.6373 5.13488H28.6764L27.1759 1.37079Z" fill="#D22128"/>
<path d="M31.4102 8.10993V0.491211H34.5128C35.7971 0.491211 36.7253 1.70063 36.7253 2.88419C36.7253 4.12595 35.8607 5.29657 34.5764 5.29657H32.1413V8.10993H31.4102ZM32.1413 4.63041H34.5382C35.422 4.63041 35.9942 3.80257 35.9942 2.88419C35.9942 1.927 35.3012 1.15736 34.4747 1.15736H32.1413V4.63041Z" fill="#D22128"/>
<path d="M36.3184 8.10993L39.4528 0.491211H40.0568L43.1912 8.10993H42.3901L41.4174 5.72989H38.0541L37.094 8.10993H36.3184ZM39.758 1.37079L38.2194 5.13488H41.2584L39.758 1.37079Z" fill="#D22128"/>
<path d="M46.7259 0.445801C48.0547 0.445801 49.0275 1.13136 49.4916 2.10795L48.9003 2.47013C48.4235 1.4612 47.4952 1.11842 46.6878 1.11842C44.8949 1.11842 43.9157 2.74823 43.9157 4.28103C43.9157 5.96258 45.1301 7.48891 46.7196 7.48891C47.5652 7.48891 48.557 7.06206 49.0275 6.07253L49.6378 6.39591C49.1546 7.53419 47.8258 8.168 46.6751 8.168C44.6215 8.168 43.1719 6.16954 43.1719 4.24223C43.1719 2.41192 44.4689 0.445801 46.7259 0.445801Z" fill="#D22128"/>
<path d="M56.5759 0.491211V8.10993H55.8384V4.54634H51.4006V8.10993H50.6758V0.491211H51.4006V3.88018H55.8384V0.491211H56.5759Z" fill="#D22128"/>
<path d="M63.2947 7.44378V8.10993H58.2656V0.491211H63.1993V1.15736H58.9904V3.90605H62.6589V4.53987H58.9904V7.44378H63.2947Z" fill="#D22128"/>
</g>
<defs>
<linearGradient id="paint0_linear_371_1922" x1="14.8275" y1="3.38819" x2="23.0801" y2="1.1326" gradientUnits="userSpaceOnUse">
<stop stop-color="#F69923"/>
<stop offset="0.3123" stop-color="#F79A23"/>
<stop offset="0.8383" stop-color="#E97826"/>
</linearGradient>
<linearGradient id="paint1_linear_371_1922" x1="-3.19304" y1="40.9748" x2="14.0272" y2="4.67056" gradientUnits="userSpaceOnUse">
<stop offset="0.3233" stop-color="#9E2064"/>
<stop offset="0.6302" stop-color="#C92037"/>
<stop offset="0.7514" stop-color="#CD2335"/>
<stop offset="1" stop-color="#E97826"/>
</linearGradient>
<linearGradient id="paint2_linear_371_1922" x1="2.43048" y1="38.2731" x2="12.6921" y2="16.6393" gradientUnits="userSpaceOnUse">
<stop stop-color="#282662"/>
<stop offset="0.0954839" stop-color="#662E8D"/>
<stop offset="0.7882" stop-color="#9F2064"/>
<stop offset="0.9487" stop-color="#CD2032"/>
</linearGradient>
<linearGradient id="paint3_linear_371_1922" x1="-2.58653" y1="38.7642" x2="14.6337" y2="2.45991" gradientUnits="userSpaceOnUse">
<stop offset="0.3233" stop-color="#9E2064"/>
<stop offset="0.6302" stop-color="#C92037"/>
<stop offset="0.7514" stop-color="#CD2335"/>
<stop offset="1" stop-color="#E97826"/>
</linearGradient>
<linearGradient id="paint4_linear_371_1922" x1="-0.879687" y1="36.3304" x2="8.17004" y2="17.2514" gradientUnits="userSpaceOnUse">
<stop stop-color="#282662"/>
<stop offset="0.0954839" stop-color="#662E8D"/>
<stop offset="0.7882" stop-color="#9F2064"/>
<stop offset="0.9487" stop-color="#CD2032"/>
</linearGradient>
<linearGradient id="paint5_linear_371_1922" x1="1.13013" y1="40.527" x2="18.3504" y2="4.22276" gradientUnits="userSpaceOnUse">
<stop offset="0.3233" stop-color="#9E2064"/>
<stop offset="0.6302" stop-color="#C92037"/>
<stop offset="0.7514" stop-color="#CD2335"/>
<stop offset="1" stop-color="#E97826"/>
</linearGradient>
<linearGradient id="paint6_linear_371_1922" x1="-0.093144" y1="42.7055" x2="17.1271" y2="6.40122" gradientUnits="userSpaceOnUse">
<stop offset="0.3233" stop-color="#9E2064"/>
<stop offset="0.6302" stop-color="#C92037"/>
<stop offset="0.7514" stop-color="#CD2335"/>
<stop offset="1" stop-color="#E97826"/>
</linearGradient>
<linearGradient id="paint7_linear_371_1922" x1="2.23627" y1="41.0507" x2="19.456" y2="4.74704" gradientUnits="userSpaceOnUse">
<stop offset="0.3233" stop-color="#9E2064"/>
<stop offset="0.6302" stop-color="#C92037"/>
<stop offset="0.7514" stop-color="#CD2335"/>
<stop offset="1" stop-color="#E97826"/>
</linearGradient>
<linearGradient id="paint8_linear_371_1922" x1="2.10897" y1="40.9994" x2="19.3384" y2="4.68714" gradientUnits="userSpaceOnUse">
<stop offset="0.3233" stop-color="#9E2064"/>
<stop offset="0.6302" stop-color="#C92037"/>
<stop offset="0.7514" stop-color="#CD2335"/>
<stop offset="1" stop-color="#E97826"/>
</linearGradient>
<linearGradient id="paint9_linear_371_1922" x1="107.305" y1="11.377" x2="110.577" y2="11.377" gradientUnits="userSpaceOnUse">
<stop stop-color="#4D4D4D"/>
<stop offset="1" stop-color="#4D4D4D"/>
</linearGradient>
<linearGradient id="paint10_linear_371_1922" x1="111.283" y1="11.377" x2="116.001" y2="11.377" gradientUnits="userSpaceOnUse">
<stop stop-color="#4D4D4D"/>
<stop offset="1" stop-color="#4D4D4D"/>
</linearGradient>
<clipPath id="clip0_371_1922">
<rect width="116" height="40" fill="white"/>
</clipPath>
</defs>
</svg>
