<svg width="93" height="34" viewBox="0 0 93 34" fill="none" xmlns="http://www.w3.org/2000/svg">
<path d="M3.05309 33.0662C2.89817 33.0309 2.74233 32.9993 2.58879 32.9589C1.71702 32.7311 1.09047 32.0212 1.00888 31.0389C0.958923 30.4376 1.01576 29.8239 1.06434 29.2188C1.19772 27.5619 1.35218 25.9073 1.49793 24.2513C1.6611 22.3982 1.82427 20.5452 1.98699 18.6921C2.11486 17.2336 2.24045 15.7752 2.36833 14.3172C2.53012 12.4715 2.69283 10.6262 2.85463 8.78044C2.98296 7.31466 3.10992 5.84888 3.23872 4.3831C3.31205 3.54754 3.3831 2.71198 3.46331 1.87734C3.52977 1.18707 3.98536 0.72919 4.68158 0.72094C6.23857 0.702606 7.79648 0.715898 9.35347 0.716815C9.36722 0.716815 9.38097 0.727357 9.41993 0.742941C8.64899 9.5477 7.87715 18.3603 7.103 27.2021H15.9211C15.8853 27.6302 15.8541 28.0304 15.8188 28.4305C15.718 29.5773 15.614 30.724 15.515 31.8708C15.4632 32.468 15.14 32.8604 14.563 33.013C14.5126 33.0263 14.4649 33.0483 14.4159 33.0662H3.05309V33.0662Z" fill="white"/>
<path d="M44.7566 27.1413H45.0491C47.4311 27.1413 49.8131 27.1432 52.1951 27.1381C52.3986 27.1381 52.6108 27.1212 52.8047 27.0639C53.2561 26.931 53.5738 26.6326 53.6407 26.1582C53.731 25.5184 53.7745 24.8716 53.8419 24.1864C53.7168 24.1864 53.6219 24.1864 53.5266 24.1864C49.9382 24.1864 46.3498 24.1896 42.7615 24.1814C42.3829 24.1804 41.9937 24.1529 41.6275 24.0645C40.4276 23.7734 39.7877 22.9461 39.5265 21.7792C39.3959 21.1962 39.4417 20.6127 39.4949 20.0265C39.6452 18.3636 39.7896 16.7003 39.9358 15.037C40.099 13.1839 40.2621 11.3304 40.4244 9.47728C40.5678 7.83687 40.7127 6.196 40.8525 4.55514C40.9001 3.99871 40.9661 3.44687 41.1907 2.92894C41.7201 1.70929 42.7037 1.07448 43.961 0.809562C44.2717 0.744019 44.5967 0.717435 44.9152 0.717435C50.3053 0.711935 55.6954 0.710102 61.0855 0.720644C61.5081 0.72156 61.9459 0.765561 62.3492 0.882897C63.5908 1.24407 64.1514 2.17771 64.3489 3.38911C64.4612 4.07846 64.3357 4.75864 64.2793 5.44066C64.1436 7.08977 63.9924 8.73705 63.8475 10.3853C63.6839 12.2461 63.5203 14.107 63.3575 15.9679C63.2288 17.4414 63.0954 18.9146 62.9753 20.3886C62.9116 21.1742 62.7645 21.9304 62.3029 22.5914C61.7208 23.4251 60.8921 23.8752 59.9191 24.0819C59.7362 24.1209 59.6913 24.2002 59.6771 24.3675C59.5276 26.1298 59.3764 27.8921 59.2155 29.654C59.0592 31.3608 57.8455 32.6222 56.0722 32.922C55.7729 32.9724 55.4654 32.998 55.1619 32.9985C51.9934 33.004 48.8249 33.0017 45.6568 33.0017C45.6032 33.0017 45.55 33.0017 45.4964 33.0017C44.6787 32.998 44.2685 32.5292 44.3519 31.711C44.4156 31.089 44.4638 30.4657 44.5183 29.8428C44.5967 28.9545 44.6746 28.0667 44.7557 27.1418L44.7566 27.1413ZM45.5134 18.332H45.8085C48.4188 18.332 51.0291 18.332 53.6393 18.332C54.4561 18.332 55.2728 18.338 56.0892 18.3297C56.8124 18.3224 57.3271 17.8608 57.3899 17.1733C57.4834 16.1562 57.5719 15.1387 57.6613 14.1217C57.8588 11.8744 58.0554 9.6267 58.2516 7.37899C58.2745 7.11681 58.291 6.85418 58.3126 6.56726H57.9881C55.3091 6.56726 52.6305 6.56726 49.9515 6.56726C49.2264 6.56726 48.5013 6.56176 47.7762 6.56909C47.0332 6.57643 46.5048 7.02698 46.441 7.71862C46.3104 9.1381 46.1926 10.5585 46.068 11.9785C45.9222 13.6413 45.7746 15.3037 45.6289 16.9666C45.5899 17.4121 45.5532 17.8576 45.5134 18.3325V18.332Z" fill="white"/>
<path d="M78.4162 24.1863C75.7445 24.1863 73.0724 24.1909 70.4007 24.1813C70.0221 24.1799 69.633 24.1533 69.2672 24.0639C68.026 23.7605 67.3944 22.8943 67.1488 21.6893C67.0085 21.0027 67.113 20.3216 67.1712 19.6396C67.3129 17.9836 67.4623 16.3285 67.608 14.673C67.7872 12.6379 67.966 10.6024 68.1443 8.56738C68.2703 7.13185 68.4042 5.69724 68.5192 4.26079C68.6929 2.08825 70.1326 1.01618 71.8894 0.757219C72.1222 0.722843 72.3606 0.715052 72.5966 0.715052C77.9863 0.71276 83.3755 0.71001 88.7651 0.720093C89.1721 0.72101 89.5938 0.767303 89.9834 0.880055C91.1943 1.22977 91.7677 2.12996 91.9763 3.31477C92.111 4.07929 91.9676 4.83601 91.9066 5.59365C91.7861 7.0906 91.6472 8.58617 91.5156 10.0822C91.3538 11.9202 91.1916 13.7576 91.0302 15.5951C90.9019 17.0609 90.7805 18.5272 90.6439 19.992C90.5971 20.4916 90.565 21.0018 90.4372 21.483C90.0434 22.9658 88.998 23.766 87.5446 24.0841C87.2269 24.1538 86.8942 24.1804 86.5683 24.1813C83.8508 24.1886 81.1328 24.1854 78.4153 24.1854L78.4162 24.1863ZM73.1526 18.3319H73.4354C76.389 18.3319 79.3425 18.3319 82.2961 18.3319C82.7691 18.3319 83.2425 18.336 83.7156 18.3305C84.4617 18.3218 84.9586 17.8781 85.0269 17.1393C85.1676 15.6217 85.2973 14.1028 85.4311 12.5843C85.5631 11.0887 85.6961 9.59315 85.8271 8.09712C85.8707 7.59798 85.9101 7.09839 85.9527 6.5855C85.8679 6.57771 85.8093 6.56717 85.7501 6.56717C82.3007 6.56625 78.8507 6.5635 75.4012 6.569C74.6459 6.57038 74.1444 7.02735 74.0743 7.77719C73.9391 9.21914 73.8213 10.6625 73.6953 12.1053C73.5637 13.6087 73.4303 15.1116 73.2983 16.615C73.2493 17.1755 73.203 17.7361 73.1521 18.3314L73.1526 18.3319Z" fill="white"/>
<path d="M23.1522 24.1864C20.4728 24.1864 17.7933 24.1845 15.1138 24.1877C14.5899 24.1882 14.0748 24.1424 13.5875 23.9425C12.5265 23.5066 12.0351 22.6491 11.8509 21.5683C11.7244 20.8263 11.8596 20.0924 11.9192 19.3573C12.0562 17.6784 12.2102 16.0004 12.3578 14.3224C12.5201 12.4771 12.6841 10.6318 12.8459 8.78651C12.9743 7.32073 13.1081 5.85541 13.2259 4.38917C13.3144 3.2896 13.6572 2.31425 14.5505 1.60519C15.2866 1.02081 16.1446 0.722426 17.0751 0.720134C22.5944 0.707759 28.1133 0.710051 33.6327 0.717843C34.6488 0.719218 35.549 1.02768 36.1554 1.90587C36.6426 2.61171 36.8081 3.41702 36.7421 4.25762C36.5954 6.1272 36.4222 7.99449 36.2581 9.8627C36.067 12.0348 35.8735 14.2064 35.6819 16.378C35.5559 17.8058 35.4239 19.2326 35.3084 20.6612C35.1548 22.5574 33.9173 23.8719 32.0111 24.135C31.77 24.1685 31.5248 24.1841 31.2814 24.1845C28.5712 24.1877 25.8615 24.1868 23.1513 24.1868L23.1522 24.1864ZM17.8767 18.3182C17.9478 18.3255 17.9775 18.331 18.0069 18.331C21.4949 18.331 24.9829 18.3347 28.4708 18.3283C29.1941 18.3269 29.6905 17.8557 29.7565 17.1297C29.888 15.68 30.0086 14.2293 30.1355 12.7791C30.2813 11.1163 30.4298 9.45385 30.576 7.79099C30.6108 7.39223 30.6416 6.99301 30.6759 6.56721H30.3766C28.2623 6.56721 26.1484 6.56721 24.0341 6.56721C22.7443 6.56721 21.4545 6.56492 20.1643 6.56813C19.4112 6.56996 18.8731 7.00951 18.809 7.69107C18.6806 9.04914 18.5651 10.409 18.4455 11.768C18.297 13.4534 18.149 15.1391 18.0018 16.8245C17.9588 17.3163 17.9189 17.8085 17.8763 18.3182H17.8767Z" fill="white"/>
</svg>
