<svg width="200" height="40" viewBox="0 0 200 40" fill="none" xmlns="http://www.w3.org/2000/svg">
<path d="M36.5575 20.3621C37.2453 23.6705 36.7211 27.1155 35.0801 30.0703C38.2931 30.6709 41.1568 31.5005 43.5369 32.5008C44.9908 29.2402 45.6566 25.6838 45.4807 22.1188C45.3048 18.5537 44.292 15.08 42.5241 11.978C40.458 14.8992 38.4248 17.7609 36.5575 20.3621Z" fill="url(#paint0_linear_371_1884)"/>
<path d="M46.3075 0.686586C47.2013 0.0542995 48.2926 1.15068 47.6659 2.04473C41.6474 10.6287 28.9445 28.645 27.0037 30.5836C26.3953 31.1915 25.6729 31.6737 24.8778 32.0027C24.0828 32.3317 23.2307 32.5011 22.3701 32.5012C20.6321 32.5013 18.9651 31.8117 17.7361 30.5842C16.507 29.3567 15.8165 27.6918 15.8164 25.9557C15.8163 24.2196 16.5066 22.5546 17.7355 21.3269C19.6762 19.3871 37.7127 6.69963 46.3075 0.686586Z" fill="url(#paint1_linear_371_1884)"/>
<path d="M28.6852 17.4317C27.9801 17.9249 26.9635 18.6381 25.9735 19.3412C25.9461 19.361 25.9125 19.3704 25.8788 19.3677C25.8451 19.365 25.8135 19.3504 25.7896 19.3264C25.7658 19.3024 25.7513 19.2707 25.7488 19.2371C25.7463 19.2034 25.7559 19.1699 25.776 19.1427L26.1191 18.6545C26.146 18.6161 26.1584 18.5694 26.1543 18.5226C26.1502 18.4759 26.1297 18.4321 26.0965 18.3989C26.0633 18.3657 26.0194 18.3452 25.9726 18.3411C25.9258 18.337 25.8791 18.3495 25.8405 18.3763C24.0796 19.608 20.3867 22.2067 19.9892 22.6038C19.9302 22.662 19.8772 22.726 19.8309 22.7948C19.7178 22.8858 19.6089 22.9832 19.5043 23.0869C18.7607 23.8253 18.3319 24.8224 18.3077 25.8695C18.2835 26.9166 18.6659 27.9324 19.3746 28.7043C20.0834 29.4761 21.0636 29.9442 22.11 30.0104C23.1565 30.0766 24.188 29.7358 24.9885 29.0594C25.2918 28.8036 25.5566 28.5055 25.7747 28.1742C26.9609 26.6251 29.7157 22.7163 31.145 20.6779C31.1786 20.6244 31.193 20.5611 31.1857 20.4984C31.1783 20.4357 31.1497 20.3773 31.1047 20.3331C31.0596 20.2888 31.0008 20.2612 30.9379 20.2549C30.875 20.2486 30.8118 20.264 30.7589 20.2985C30.0259 20.8043 29.0524 21.4935 28.0332 22.2143C27.9894 22.2464 27.9355 22.2618 27.8814 22.2577C27.8272 22.2536 27.7763 22.2303 27.7378 22.192C27.6993 22.1537 27.6757 22.1029 27.6714 22.0488C27.6671 21.9947 27.6823 21.9408 27.7142 21.8969V21.8881C27.7411 21.8496 27.7536 21.8029 27.7494 21.7561C27.7453 21.7094 27.7249 21.6656 27.6916 21.6324C27.6584 21.5992 27.6146 21.5788 27.5678 21.5746C27.521 21.5705 27.4742 21.583 27.4357 21.6098L26.3305 22.385L26.5761 22.0348C26.603 21.9963 26.6155 21.9496 26.6113 21.9028C26.6072 21.8561 26.5867 21.8123 26.5535 21.7791C26.5203 21.7459 26.4764 21.7254 26.4296 21.7213C26.3828 21.7172 26.3361 21.7297 26.2975 21.7565V21.7565C26.2808 21.7733 26.258 21.7827 26.2342 21.7827C26.2105 21.7827 26.1877 21.7733 26.171 21.7565C26.1542 21.7398 26.1447 21.717 26.1447 21.6933C26.1447 21.6696 26.1542 21.6469 26.171 21.6301C27.1027 20.339 28.2522 18.7064 28.9561 17.7036C28.9781 17.6658 28.987 17.6218 28.9814 17.5784C28.9758 17.5351 28.9561 17.4947 28.9252 17.4638C28.8943 17.4328 28.854 17.4128 28.8106 17.407C28.7672 17.4012 28.7232 17.4099 28.6852 17.4317V17.4317Z" fill="#7BF8F9"/>
<path d="M25.5746 25.8283C25.5746 26.0989 24.9265 26.2633 24.8467 26.5074C24.7669 26.7515 25.1506 27.2459 24.9961 27.4571C24.8417 27.6683 24.3631 27.5835 24.1441 27.7429C23.9251 27.9022 23.6947 27.8693 23.4415 27.9478C23.1883 28.0262 23.0224 28.5117 22.7515 28.5117C22.4806 28.5117 22.2704 28.1324 22.0261 28.0565C21.7818 27.9806 21.4374 28.078 21.226 27.9237C21.0146 27.7694 20.7487 27.6063 20.593 27.3939C20.4463 27.1586 20.3354 26.9029 20.2638 26.6351C20.1653 26.3769 20.106 26.1054 20.0879 25.8296C20.0879 25.5577 20.4196 25.3427 20.4993 25.0987C20.5791 24.8546 20.6095 24.5928 20.7626 24.3867C20.9158 24.1806 20.9196 23.7544 21.1323 23.6052C21.3736 23.4506 21.6358 23.3313 21.9109 23.2511C22.1565 23.1715 22.478 23.0146 22.7502 23.0146C23.0224 23.0146 23.287 23.3447 23.5326 23.4244C23.7839 23.509 24.0202 23.6327 24.2327 23.7911C24.4454 23.9454 24.7619 24.044 24.9176 24.2565C25.0733 24.4689 24.8872 24.8546 24.9695 25.1088C25.0518 25.363 25.5746 25.5564 25.5746 25.8283Z" fill="#28293D"/>
<path d="M29.2336 10.721C31.6516 8.99988 34.2443 7.16878 36.8168 5.36044C32.818 2.22518 27.8836 0.517227 22.8001 0.50882C17.7166 0.500413 12.7766 2.19204 8.76741 5.31406C4.75824 8.43608 1.91069 12.8088 0.678643 17.7353C-0.5534 22.6617 -0.0990299 27.8584 1.96932 32.4969C4.34558 31.4954 7.21304 30.6671 10.4274 30.0664C8.95695 27.4215 8.3781 24.3739 8.77653 21.3748C9.17495 18.3757 10.5295 15.5845 12.6396 13.4141C14.7497 11.2438 17.5033 9.80977 20.4928 9.32427C23.4823 8.83878 26.5489 9.32761 29.2386 10.7184L29.2336 10.721Z" fill="url(#paint2_linear_371_1884)"/>
<path d="M58.2741 11.5805H60.4581V26.5805H68.9781V28.5005H58.2741V11.5805ZM77.0988 28.9805C75.8348 28.9805 74.7068 28.7005 73.7148 28.1405C72.7388 27.5805 71.9708 26.8045 71.4108 25.8125C70.8668 24.8205 70.5948 23.6925 70.5948 22.4285C70.5948 21.1645 70.8668 20.0445 71.4108 19.0685C71.9708 18.0765 72.7388 17.3005 73.7148 16.7405C74.7068 16.1805 75.8348 15.9005 77.0988 15.9005C78.3468 15.9005 79.4668 16.1805 80.4588 16.7405C81.4508 17.3005 82.2188 18.0765 82.7628 19.0685C83.3228 20.0605 83.6028 21.1805 83.6028 22.4285C83.6028 23.6925 83.3228 24.8205 82.7628 25.8125C82.2188 26.8045 81.4508 27.5805 80.4588 28.1405C79.4668 28.7005 78.3468 28.9805 77.0988 28.9805ZM77.0988 27.1805C77.9628 27.1805 78.7388 26.9805 79.4268 26.5805C80.1148 26.1645 80.6508 25.5965 81.0348 24.8765C81.4188 24.1565 81.6108 23.3405 81.6108 22.4285C81.6108 21.5325 81.4188 20.7245 81.0348 20.0045C80.6508 19.2845 80.1148 18.7245 79.4268 18.3245C78.7388 17.9085 77.9628 17.7005 77.0988 17.7005C76.2348 17.7005 75.4588 17.9085 74.7708 18.3245C74.0828 18.7245 73.5468 19.2845 73.1628 20.0045C72.7788 20.7245 72.5868 21.5325 72.5868 22.4285C72.5868 23.3405 72.7788 24.1565 73.1628 24.8765C73.5468 25.5965 74.0828 26.1645 74.7708 26.5805C75.4588 26.9805 76.2348 27.1805 77.0988 27.1805ZM89.7852 28.8845C88.4732 28.8845 87.4172 28.5725 86.6172 27.9485C85.8332 27.3085 85.4412 26.4685 85.4412 25.4285C85.4412 24.3405 85.9052 23.4285 86.8332 22.6925C87.7612 21.9565 89.1052 21.4925 90.8652 21.3005L94.2252 20.8925V20.4125C94.2252 19.5965 93.9452 18.9485 93.3852 18.4685C92.8252 17.9725 92.0492 17.7245 91.0572 17.7245C90.1292 17.7245 89.3932 17.9405 88.8492 18.3725C88.3052 18.7885 88.0412 19.3725 88.0572 20.1245H86.0412C86.0412 18.8445 86.4972 17.8285 87.4092 17.0765C88.3212 16.3085 89.5452 15.9245 91.0812 15.9245C92.6492 15.9245 93.8972 16.3405 94.8252 17.1725C95.7532 17.9885 96.2172 19.0845 96.2172 20.4605V28.5005H94.2252V26.7245H94.0092C93.1132 28.1645 91.7052 28.8845 89.7852 28.8845ZM90.0732 27.2285C90.8892 27.2285 91.6092 27.0765 92.2332 26.7725C92.8572 26.4685 93.3452 26.0445 93.6972 25.5005C94.0492 24.9565 94.2252 24.3485 94.2252 23.6765V22.5965L90.8652 22.9805C89.6812 23.1245 88.8092 23.4125 88.2492 23.8445C87.7052 24.2605 87.4332 24.7725 87.4332 25.3805C87.4332 25.9565 87.6652 26.4125 88.1292 26.7485C88.6092 27.0685 89.2572 27.2285 90.0732 27.2285ZM105.091 28.9805C103.923 28.9805 102.859 28.7005 101.899 28.1405C100.939 27.5645 100.179 26.7805 99.6188 25.7885C99.0748 24.7965 98.8028 23.6765 98.8028 22.4285C98.8028 21.1805 99.0748 20.0605 99.6188 19.0685C100.163 18.0765 100.915 17.3005 101.875 16.7405C102.835 16.1805 103.899 15.9005 105.067 15.9005C106.043 15.9005 106.915 16.1005 107.683 16.5005C108.451 16.8845 109.059 17.4445 109.507 18.1805H109.747V10.8605H111.739V28.5005H109.747V26.6285H109.507C109.059 27.3805 108.451 27.9645 107.683 28.3805C106.931 28.7805 106.067 28.9805 105.091 28.9805ZM105.307 27.1805C106.155 27.1805 106.915 26.9725 107.587 26.5565C108.275 26.1405 108.811 25.5725 109.195 24.8525C109.595 24.1165 109.795 23.3085 109.795 22.4285C109.795 21.5485 109.603 20.7485 109.219 20.0285C108.835 19.3085 108.299 18.7405 107.611 18.3245C106.923 17.9085 106.155 17.7005 105.307 17.7005C104.443 17.7005 103.667 17.9085 102.979 18.3245C102.307 18.7405 101.771 19.3085 101.371 20.0285C100.987 20.7485 100.795 21.5485 100.795 22.4285C100.795 23.3245 100.987 24.1325 101.371 24.8525C101.771 25.5725 102.315 26.1405 103.003 26.5565C103.691 26.9725 104.459 27.1805 105.307 27.1805ZM115.171 16.3805H117.091V17.9885H117.331C117.683 17.3485 118.163 16.8445 118.771 16.4765C119.395 16.0925 120.091 15.9005 120.859 15.9005C121.707 15.9005 122.491 16.1165 123.211 16.5485C123.931 16.9805 124.467 17.5485 124.819 18.2525H125.035C125.467 17.5165 126.027 16.9485 126.715 16.5485C127.403 16.1325 128.195 15.9245 129.091 15.9245C130.035 15.9245 130.875 16.1565 131.611 16.6205C132.363 17.0685 132.947 17.7005 133.363 18.5165C133.779 19.3165 133.987 20.2365 133.987 21.2765V28.5005H131.995V21.2525C131.995 20.2285 131.699 19.3805 131.107 18.7085C130.515 18.0365 129.763 17.7005 128.851 17.7005C127.875 17.7005 127.075 18.0365 126.451 18.7085C125.843 19.3645 125.539 20.2125 125.539 21.2525V28.5005H123.547V21.2525C123.547 20.1805 123.259 19.3245 122.683 18.6845C122.123 18.0285 121.371 17.7005 120.427 17.7005C119.451 17.7005 118.659 18.0285 118.051 18.6845C117.459 19.3245 117.163 20.1805 117.163 21.2525V28.5005H115.171V16.3805ZM140.581 28.8845C139.269 28.8845 138.213 28.5725 137.413 27.9485C136.629 27.3085 136.237 26.4685 136.237 25.4285C136.237 24.3405 136.701 23.4285 137.629 22.6925C138.557 21.9565 139.901 21.4925 141.661 21.3005L145.021 20.8925V20.4125C145.021 19.5965 144.741 18.9485 144.181 18.4685C143.621 17.9725 142.845 17.7245 141.853 17.7245C140.925 17.7245 140.189 17.9405 139.645 18.3725C139.101 18.7885 138.837 19.3725 138.853 20.1245H136.837C136.837 18.8445 137.293 17.8285 138.205 17.0765C139.117 16.3085 140.341 15.9245 141.877 15.9245C143.445 15.9245 144.693 16.3405 145.621 17.1725C146.549 17.9885 147.013 19.0845 147.013 20.4605V28.5005H145.021V26.7245H144.805C143.909 28.1645 142.501 28.8845 140.581 28.8845ZM140.869 27.2285C141.685 27.2285 142.405 27.0765 143.029 26.7725C143.653 26.4685 144.141 26.0445 144.493 25.5005C144.845 24.9565 145.021 24.3485 145.021 23.6765V22.5965L141.661 22.9805C140.477 23.1245 139.605 23.4125 139.045 23.8445C138.501 24.2605 138.229 24.7725 138.229 25.3805C138.229 25.9565 138.461 26.4125 138.925 26.7485C139.405 27.0685 140.053 27.2285 140.869 27.2285ZM150.222 16.3805H152.214V18.0365H152.454C152.886 17.3645 153.43 16.8445 154.086 16.4765C154.742 16.1085 155.47 15.9245 156.27 15.9245C157.278 15.9245 158.158 16.1565 158.91 16.6205C159.678 17.0685 160.27 17.7005 160.686 18.5165C161.102 19.3165 161.31 20.2285 161.31 21.2525V28.5005H159.318V21.2525C159.318 20.2125 159.022 19.3645 158.43 18.7085C157.838 18.0525 157.03 17.7245 156.006 17.7245C155.334 17.7245 154.702 17.8845 154.11 18.2045C153.534 18.5245 153.07 18.9725 152.718 19.5485C152.382 20.1085 152.214 20.7325 152.214 21.4205V28.5005H150.222V16.3805ZM170.202 28.9805C169.002 28.9805 167.922 28.7005 166.962 28.1405C166.002 27.5805 165.25 26.8045 164.706 25.8125C164.162 24.8205 163.89 23.7085 163.89 22.4765C163.89 21.2285 164.154 20.1085 164.682 19.1165C165.226 18.1085 165.978 17.3245 166.938 16.7645C167.898 16.1885 168.986 15.9005 170.202 15.9005C171.178 15.9005 172.09 16.0925 172.938 16.4765C173.786 16.8605 174.49 17.3965 175.05 18.0845C175.61 18.7565 175.962 19.5165 176.106 20.3645L174.162 20.6285C173.954 19.7645 173.474 19.0605 172.722 18.5165C171.986 17.9725 171.154 17.7005 170.226 17.7005C169.41 17.7005 168.666 17.9005 167.994 18.3005C167.338 18.7005 166.818 19.2605 166.434 19.9805C166.066 20.7005 165.882 21.5165 165.882 22.4285C165.882 23.3565 166.066 24.1805 166.434 24.9005C166.818 25.6205 167.338 26.1805 167.994 26.5805C168.65 26.9805 169.386 27.1805 170.202 27.1805C171.146 27.1805 171.986 26.9165 172.722 26.3885C173.458 25.8445 173.946 25.1485 174.186 24.3005L176.154 24.5645C175.978 25.4125 175.602 26.1725 175.026 26.8445C174.45 27.5165 173.738 28.0445 172.89 28.4285C172.058 28.7965 171.162 28.9805 170.202 28.9805ZM184.873 28.9805C183.625 28.9805 182.505 28.6925 181.513 28.1165C180.521 27.5405 179.745 26.7485 179.185 25.7405C178.625 24.7165 178.345 23.5645 178.345 22.2845C178.345 21.0685 178.617 19.9805 179.161 19.0205C179.721 18.0445 180.489 17.2845 181.465 16.7405C182.441 16.1805 183.545 15.9005 184.777 15.9005C185.993 15.9005 187.081 16.1805 188.041 16.7405C189.017 17.2845 189.777 18.0445 190.321 19.0205C190.865 19.9805 191.137 21.0765 191.137 22.3085C191.137 22.6605 191.129 22.9245 191.113 23.1005H180.385C180.529 24.3325 181.009 25.3245 181.825 26.0765C182.657 26.8125 183.689 27.1805 184.921 27.1805C185.817 27.1805 186.633 26.9725 187.369 26.5565C188.121 26.1245 188.689 25.5485 189.073 24.8285L190.729 25.6685C190.233 26.7085 189.465 27.5245 188.425 28.1165C187.401 28.6925 186.217 28.9805 184.873 28.9805ZM189.049 21.3485C188.873 20.2445 188.385 19.3645 187.585 18.7085C186.801 18.0365 185.833 17.7005 184.681 17.7005C183.561 17.7005 182.609 18.0365 181.825 18.7085C181.057 19.3805 180.585 20.2605 180.409 21.3485H189.049Z" fill="white"/>
<defs>
<linearGradient id="paint0_linear_371_1884" x1="13.6039" y1="38.8338" x2="45.1213" y2="21.0225" gradientUnits="userSpaceOnUse">
<stop offset="0.75" stop-color="#0642FF"/>
<stop offset="1" stop-color="#7BF8F9"/>
</linearGradient>
<linearGradient id="paint1_linear_371_1884" x1="18.5964" y1="29.7237" x2="47.4981" y2="0.789628" gradientUnits="userSpaceOnUse">
<stop stop-color="#DA54FC"/>
<stop offset="1" stop-color="#FCEEFF" stop-opacity="0"/>
</linearGradient>
<linearGradient id="paint2_linear_371_1884" x1="-75.8214" y1="42.3679" x2="-20.181" y2="-28.8544" gradientUnits="userSpaceOnUse">
<stop offset="0.75" stop-color="#0642FF"/>
<stop offset="1" stop-color="#7BF8F9"/>
</linearGradient>
</defs>
</svg>
