<svg width="189" height="40" viewBox="0 0 189 40" fill="none" xmlns="http://www.w3.org/2000/svg">
<path d="M36.5633 20.8616C37.2512 24.17 36.7269 27.6151 35.0859 30.5698C38.299 31.1704 41.1627 32 43.5427 33.0003C44.9966 29.7397 45.6625 26.1833 45.4865 22.6183C45.3106 19.0532 44.2978 15.5795 42.5299 12.4775C40.4638 15.3987 38.4307 18.2604 36.5633 20.8616Z" fill="url(#paint0_linear_3277_11520)"/>
<path d="M46.3124 1.1861C47.2062 0.553811 48.2974 1.65019 47.6708 2.54425C41.6523 11.1282 28.9494 29.1445 27.0086 31.0831C26.4002 31.691 25.6778 32.1732 24.8827 32.5022C24.0877 32.8312 23.2355 33.0006 22.375 33.0007C20.6369 33.0008 18.97 32.3113 17.741 31.0837C16.5119 29.8562 15.8214 28.1913 15.8213 26.4552C15.8212 24.7192 16.5115 23.0541 17.7404 21.8264C19.6811 19.8866 37.7176 7.19914 46.3124 1.1861Z" fill="url(#paint1_linear_3277_11520)"/>
<path d="M28.6901 17.9312C27.9849 18.4244 26.9684 19.1376 25.9784 19.8407C25.951 19.8606 25.9174 19.87 25.8837 19.8672C25.85 19.8645 25.8184 19.8499 25.7945 19.8259C25.7707 19.8019 25.7562 19.7703 25.7537 19.7366C25.7512 19.7029 25.7608 19.6694 25.7809 19.6422L26.1239 19.1541C26.1508 19.1156 26.1633 19.0689 26.1592 19.0221C26.1551 18.9754 26.1346 18.9316 26.1014 18.8984C26.0682 18.8652 26.0243 18.8448 25.9775 18.8406C25.9307 18.8365 25.8839 18.849 25.8454 18.8759C24.0844 20.1075 20.3916 22.7062 19.9941 23.1033C19.9351 23.1615 19.882 23.2255 19.8358 23.2943C19.7227 23.3853 19.6138 23.4827 19.5092 23.5864C18.7656 24.3248 18.3368 25.3219 18.3126 26.369C18.2884 27.4161 18.6708 28.4319 19.3795 29.2038C20.0883 29.9756 21.0685 30.4437 22.1149 30.5099C23.1614 30.5761 24.1928 30.2353 24.9934 29.559C25.2967 29.3031 25.5614 29.005 25.7796 28.6738C26.9658 27.1247 29.7206 23.2159 31.1499 21.1774C31.1835 21.1239 31.1979 21.0606 31.1905 20.9979C31.1832 20.9352 31.1546 20.8768 31.1096 20.8326C31.0645 20.7883 31.0057 20.7607 30.9428 20.7544C30.8799 20.7482 30.8167 20.7635 30.7638 20.798C30.0308 21.3038 29.0572 21.993 28.0381 22.7138C27.9943 22.7459 27.9404 22.7613 27.8862 22.7572C27.8321 22.7531 27.7811 22.7298 27.7426 22.6915C27.7041 22.6532 27.6806 22.6024 27.6763 22.5483C27.672 22.4942 27.6872 22.4403 27.7191 22.3964V22.3876C27.746 22.3491 27.7585 22.3024 27.7543 22.2556C27.7502 22.2089 27.7297 22.1651 27.6965 22.1319C27.6633 22.0987 27.6195 22.0783 27.5727 22.0741C27.5259 22.07 27.4791 22.0825 27.4406 22.1094L26.3353 22.8845L26.581 22.5343C26.6079 22.4958 26.6203 22.4491 26.6162 22.4023C26.6121 22.3556 26.5916 22.3118 26.5584 22.2786C26.5252 22.2454 26.4813 22.225 26.4345 22.2208C26.3877 22.2167 26.341 22.2292 26.3024 22.2561V22.2561C26.2856 22.2728 26.2629 22.2822 26.2391 22.2822C26.2154 22.2822 26.1926 22.2728 26.1758 22.2561C26.159 22.2393 26.1496 22.2165 26.1496 22.1928C26.1496 22.1691 26.159 22.1464 26.1758 22.1296C27.1076 20.8385 28.2571 19.2059 28.961 18.2031C28.983 18.1653 28.9919 18.1213 28.9863 18.0779C28.9807 18.0346 28.9609 17.9943 28.9301 17.9633C28.8992 17.9323 28.8589 17.9123 28.8155 17.9065C28.7721 17.9007 28.728 17.9094 28.6901 17.9312V17.9312Z" fill="#7BF8F9"/>
<path d="M25.5805 26.3278C25.5805 26.5985 24.9323 26.7628 24.8526 27.0069C24.7728 27.251 25.1564 27.7454 25.002 27.9566C24.8475 28.1678 24.369 28.0831 24.1499 28.2424C23.9309 28.4017 23.7005 28.3689 23.4473 28.4473C23.1941 28.5257 23.0283 29.0113 22.7574 29.0113C22.4864 29.0113 22.2763 28.6319 22.0319 28.556C21.7876 28.4801 21.4433 28.5775 21.2319 28.4232C21.0204 28.2689 20.7546 28.1058 20.5989 27.8934C20.4522 27.6581 20.3412 27.4024 20.2697 27.1346C20.1711 26.8764 20.1118 26.6049 20.0938 26.3291C20.0937 26.0572 20.4254 25.8422 20.5052 25.5982C20.585 25.3541 20.6153 25.0923 20.7685 24.8862C20.9217 24.6801 20.9255 24.2539 21.1382 24.1047C21.3794 23.9501 21.6416 23.8309 21.9168 23.7506C22.1624 23.671 22.4839 23.5142 22.7561 23.5142C23.0283 23.5142 23.2929 23.8442 23.5385 23.9239C23.7897 24.0085 24.026 24.1323 24.2386 24.2906C24.4513 24.4449 24.7678 24.5435 24.9235 24.756C25.0792 24.9684 24.8931 25.3541 24.9754 25.6083C25.0577 25.8625 25.5805 26.056 25.5805 26.3278Z" fill="#28293D"/>
<path d="M29.2394 11.2205C31.6575 9.4994 34.2502 7.66829 36.8227 5.85996C32.8239 2.72469 27.8895 1.01674 22.806 1.00833C17.7225 0.999925 12.7824 2.69155 8.77327 5.81357C4.7641 8.93559 1.91655 13.3083 0.684502 18.2348C-0.547541 23.1612 -0.0931705 28.3579 1.97518 32.9964C4.35144 31.9949 7.2189 31.1666 10.4332 30.5659C8.9628 27.921 8.38396 24.8734 8.78239 21.8743C9.18081 18.8752 10.5353 16.084 12.6454 13.9136C14.7556 11.7433 17.5092 10.3093 20.4987 9.82378C23.4882 9.33829 26.5547 9.82712 29.2445 11.2179L29.2394 11.2205Z" fill="url(#paint2_linear_3277_11520)"/>
<path d="M67.184 30.056V32H58.16V14.96H60.224V30.056H67.184ZM74.4541 32.24C73.2541 32.24 72.1581 31.96 71.1661 31.4C70.1901 30.824 69.4141 30.056 68.8381 29.096C68.2781 28.12 67.9981 27.056 67.9981 25.904C67.9981 24.768 68.2781 23.72 68.8381 22.76C69.4141 21.8 70.1901 21.04 71.1661 20.48C72.1581 19.904 73.2541 19.616 74.4541 19.616C75.6541 19.616 76.7421 19.896 77.7181 20.456C78.7101 21.016 79.4861 21.784 80.0461 22.76C80.6061 23.72 80.8861 24.768 80.8861 25.904C80.8861 27.056 80.6061 28.12 80.0461 29.096C79.4861 30.056 78.7101 30.824 77.7181 31.4C76.7421 31.96 75.6541 32.24 74.4541 32.24ZM74.4541 30.296C75.2701 30.296 76.0061 30.104 76.6621 29.72C77.3341 29.32 77.8621 28.784 78.2461 28.112C78.6301 27.44 78.8221 26.704 78.8221 25.904C78.8221 25.12 78.6301 24.4 78.2461 23.744C77.8621 23.072 77.3341 22.544 76.6621 22.16C76.0061 21.76 75.2701 21.56 74.4541 21.56C73.6541 21.56 72.9181 21.76 72.2461 22.16C71.5741 22.544 71.0381 23.072 70.6381 23.744C70.2541 24.416 70.0621 25.136 70.0621 25.904C70.0621 26.688 70.2541 27.416 70.6381 28.088C71.0381 28.76 71.5741 29.296 72.2461 29.696C72.9181 30.096 73.6541 30.296 74.4541 30.296ZM82.43 25.904C82.43 24.768 82.694 23.72 83.222 22.76C83.75 21.784 84.47 21.016 85.382 20.456C86.31 19.896 87.342 19.616 88.478 19.616C89.63 19.616 90.646 19.92 91.526 20.528C92.422 21.12 93.07 21.888 93.47 22.832L93.566 19.856H95.534V32H93.566L93.47 29.024C93.07 29.968 92.422 30.744 91.526 31.352C90.646 31.944 89.63 32.24 88.478 32.24C87.342 32.24 86.31 31.96 85.382 31.4C84.47 30.824 83.75 30.056 83.222 29.096C82.694 28.12 82.43 27.056 82.43 25.904ZM84.494 25.904C84.494 26.688 84.686 27.416 85.07 28.088C85.47 28.76 86.006 29.296 86.678 29.696C87.35 30.096 88.086 30.296 88.886 30.296C89.702 30.296 90.438 30.104 91.094 29.72C91.766 29.32 92.294 28.784 92.678 28.112C93.062 27.44 93.254 26.704 93.254 25.904C93.254 25.12 93.062 24.4 92.678 23.744C92.294 23.072 91.766 22.544 91.094 22.16C90.438 21.76 89.702 21.56 88.886 21.56C88.086 21.56 87.35 21.76 86.678 22.16C86.006 22.544 85.47 23.072 85.07 23.744C84.686 24.416 84.494 25.136 84.494 25.904ZM97.4244 25.904C97.4244 24.768 97.6884 23.72 98.2164 22.76C98.7444 21.784 99.4644 21.016 100.376 20.456C101.304 19.896 102.336 19.616 103.472 19.616C104.592 19.616 105.608 19.904 106.52 20.48C107.432 21.056 108.08 21.8 108.464 22.712V14H110.528V32H108.56L108.464 29.12C108.08 30.048 107.432 30.8 106.52 31.376C105.608 31.952 104.592 32.24 103.472 32.24C102.336 32.24 101.304 31.96 100.376 31.4C99.4644 30.824 98.7444 30.056 98.2164 29.096C97.6884 28.12 97.4244 27.056 97.4244 25.904ZM99.4884 25.904C99.4884 26.688 99.6804 27.416 100.064 28.088C100.464 28.76 101 29.296 101.672 29.696C102.344 30.096 103.08 30.296 103.88 30.296C104.696 30.296 105.432 30.104 106.088 29.72C106.76 29.32 107.288 28.784 107.672 28.112C108.056 27.44 108.248 26.704 108.248 25.904C108.248 25.12 108.056 24.4 107.672 23.744C107.288 23.072 106.76 22.544 106.088 22.16C105.432 21.76 104.696 21.56 103.88 21.56C103.08 21.56 102.344 21.76 101.672 22.16C101 22.544 100.464 23.072 100.064 23.744C99.6804 24.416 99.4884 25.136 99.4884 25.904ZM128.16 19.616C129.424 19.616 130.408 20.056 131.112 20.936C131.832 21.816 132.192 22.984 132.192 24.44V32H130.128V25.064C130.128 23.992 129.896 23.144 129.432 22.52C128.968 21.88 128.304 21.56 127.44 21.56C126.432 21.56 125.608 22.008 124.968 22.904C124.328 23.784 123.968 24.888 123.888 26.216V32H121.824V25.064C121.824 23.992 121.584 23.144 121.104 22.52C120.64 21.88 119.984 21.56 119.136 21.56C118.128 21.56 117.304 22.008 116.664 22.904C116.024 23.784 115.664 24.888 115.584 26.216V32H113.52V19.856H115.464L115.56 21.944C116.12 21.24 116.76 20.68 117.48 20.264C118.2 19.832 118.992 19.616 119.856 19.616C120.784 19.616 121.56 19.856 122.184 20.336C122.824 20.816 123.288 21.488 123.576 22.352C124.152 21.52 124.824 20.856 125.592 20.36C126.36 19.864 127.216 19.616 128.16 19.616ZM134.21 25.904C134.21 24.768 134.474 23.72 135.002 22.76C135.53 21.784 136.25 21.016 137.162 20.456C138.09 19.896 139.122 19.616 140.258 19.616C141.41 19.616 142.426 19.92 143.306 20.528C144.202 21.12 144.85 21.888 145.25 22.832L145.346 19.856H147.314V32H145.346L145.25 29.024C144.85 29.968 144.202 30.744 143.306 31.352C142.426 31.944 141.41 32.24 140.258 32.24C139.122 32.24 138.09 31.96 137.162 31.4C136.25 30.824 135.53 30.056 135.002 29.096C134.474 28.12 134.21 27.056 134.21 25.904ZM136.274 25.904C136.274 26.688 136.466 27.416 136.85 28.088C137.25 28.76 137.786 29.296 138.458 29.696C139.13 30.096 139.866 30.296 140.666 30.296C141.482 30.296 142.218 30.104 142.874 29.72C143.546 29.32 144.074 28.784 144.458 28.112C144.842 27.44 145.034 26.704 145.034 25.904C145.034 25.12 144.842 24.4 144.458 23.744C144.074 23.072 143.546 22.544 142.874 22.16C142.218 21.76 141.482 21.56 140.666 21.56C139.866 21.56 139.13 21.76 138.458 22.16C137.786 22.544 137.25 23.072 136.85 23.744C136.466 24.416 136.274 25.136 136.274 25.904ZM156.888 19.616C158.312 19.616 159.416 20.072 160.2 20.984C161 21.896 161.4 23.2 161.4 24.896V32H159.336V25.76C159.336 24.304 159.056 23.24 158.496 22.568C157.936 21.896 157.16 21.56 156.168 21.56C155.272 21.56 154.52 21.784 153.912 22.232C153.304 22.68 152.856 23.232 152.568 23.888C152.28 24.528 152.136 25.168 152.136 25.808V32H150.072V19.856H152.016L152.112 21.968C152.72 21.264 153.424 20.696 154.224 20.264C155.024 19.832 155.912 19.616 156.888 19.616ZM173.341 23.072C172.301 22.064 171.141 21.56 169.861 21.56C169.093 21.56 168.365 21.752 167.677 22.136C166.989 22.504 166.437 23.024 166.021 23.696C165.621 24.352 165.421 25.088 165.421 25.904C165.421 26.736 165.621 27.488 166.021 28.16C166.437 28.816 166.989 29.336 167.677 29.72C168.365 30.104 169.093 30.296 169.861 30.296C171.157 30.296 172.317 29.784 173.341 28.76V30.776C172.861 31.24 172.301 31.6 171.661 31.856C171.021 32.112 170.317 32.24 169.549 32.24C168.381 32.24 167.317 31.96 166.357 31.4C165.397 30.824 164.637 30.056 164.077 29.096C163.533 28.12 163.261 27.056 163.261 25.904C163.261 24.784 163.533 23.744 164.077 22.784C164.637 21.808 165.397 21.04 166.357 20.48C167.333 19.904 168.397 19.616 169.549 19.616C170.317 19.616 171.021 19.744 171.661 20C172.301 20.256 172.861 20.616 173.341 21.08V23.072ZM187.259 26.576H177.179C177.211 27.68 177.611 28.592 178.379 29.312C179.147 30.032 180.147 30.392 181.379 30.392C182.307 30.392 183.083 30.184 183.707 29.768C184.331 29.352 184.795 28.84 185.099 28.232L186.923 28.472C186.747 29.064 186.419 29.656 185.939 30.248C185.459 30.824 184.827 31.304 184.043 31.688C183.259 32.056 182.371 32.24 181.379 32.24C180.179 32.24 179.099 31.968 178.139 31.424C177.195 30.864 176.451 30.104 175.907 29.144C175.379 28.168 175.115 27.072 175.115 25.856C175.115 24.72 175.371 23.68 175.883 22.736C176.395 21.776 177.115 21.016 178.043 20.456C178.971 19.896 180.019 19.616 181.187 19.616C182.387 19.616 183.443 19.912 184.355 20.504C185.283 21.08 185.995 21.864 186.491 22.856C187.003 23.832 187.259 24.896 187.259 26.048V26.576ZM181.187 21.464C180.451 21.464 179.779 21.624 179.171 21.944C178.579 22.264 178.107 22.704 177.755 23.264C177.403 23.824 177.211 24.432 177.179 25.088H185.195C185.147 24.448 184.955 23.856 184.619 23.312C184.283 22.752 183.811 22.304 183.203 21.968C182.611 21.632 181.939 21.464 181.187 21.464Z" fill="white"/>
<defs>
<linearGradient id="paint0_linear_3277_11520" x1="13.6098" y1="39.3333" x2="45.1272" y2="21.522" gradientUnits="userSpaceOnUse">
<stop offset="0.458333" stop-color="#0642FF"/>
<stop offset="1" stop-color="#7BF8F9"/>
</linearGradient>
<linearGradient id="paint1_linear_3277_11520" x1="18.6012" y1="30.2232" x2="47.503" y2="1.28914" gradientUnits="userSpaceOnUse">
<stop stop-color="#E79DFA"/>
<stop offset="1" stop-color="#E79DFA" stop-opacity="0"/>
</linearGradient>
<linearGradient id="paint2_linear_3277_11520" x1="-75.8155" y1="42.8674" x2="-20.1752" y2="-28.3549" gradientUnits="userSpaceOnUse">
<stop offset="0.458333" stop-color="#0642FF"/>
<stop offset="1" stop-color="#7BF8F9"/>
</linearGradient>
</defs>
</svg>
