<svg width="48" height="33" viewBox="0 0 48 33" fill="none" xmlns="http://www.w3.org/2000/svg">
<path d="M36.5633 20.8616C37.2512 24.17 36.7269 27.6151 35.0859 30.5698C38.299 31.1704 41.1627 32 43.5427 33.0003C44.9966 29.7397 45.6625 26.1833 45.4865 22.6183C45.3106 19.0532 44.2978 15.5795 42.5299 12.4775C40.4638 15.3987 38.4307 18.2604 36.5633 20.8616Z" fill="url(#paint0_linear_1106_12477)"/>
<path d="M46.3124 1.1861C47.2062 0.553811 48.2974 1.65019 47.6708 2.54425C41.6523 11.1282 28.9494 29.1445 27.0086 31.0831C26.4002 31.691 25.6778 32.1732 24.8827 32.5022C24.0877 32.8312 23.2355 33.0006 22.375 33.0007C20.6369 33.0008 18.97 32.3113 17.741 31.0837C16.5119 29.8562 15.8214 28.1913 15.8213 26.4552C15.8212 24.7192 16.5115 23.0541 17.7404 21.8264C19.6811 19.8866 37.7176 7.19914 46.3124 1.1861Z" fill="url(#paint1_linear_1106_12477)"/>
<path d="M28.6901 17.9312C27.9849 18.4244 26.9684 19.1376 25.9784 19.8407C25.951 19.8606 25.9174 19.87 25.8837 19.8672C25.85 19.8645 25.8184 19.8499 25.7945 19.8259C25.7707 19.8019 25.7562 19.7703 25.7537 19.7366C25.7512 19.7029 25.7608 19.6694 25.7809 19.6422L26.1239 19.1541C26.1508 19.1156 26.1633 19.0689 26.1592 19.0221C26.1551 18.9754 26.1346 18.9316 26.1014 18.8984C26.0682 18.8652 26.0243 18.8448 25.9775 18.8406C25.9307 18.8365 25.8839 18.849 25.8454 18.8759C24.0844 20.1075 20.3916 22.7062 19.9941 23.1033C19.9351 23.1615 19.882 23.2255 19.8358 23.2943C19.7227 23.3853 19.6138 23.4827 19.5092 23.5864C18.7656 24.3248 18.3368 25.3219 18.3126 26.369C18.2884 27.4161 18.6708 28.4319 19.3795 29.2038C20.0883 29.9756 21.0685 30.4437 22.1149 30.5099C23.1614 30.5761 24.1928 30.2353 24.9934 29.559C25.2967 29.3031 25.5614 29.005 25.7796 28.6738C26.9658 27.1247 29.7206 23.2159 31.1499 21.1774C31.1835 21.1239 31.1979 21.0606 31.1905 20.9979C31.1832 20.9352 31.1546 20.8768 31.1096 20.8326C31.0645 20.7883 31.0057 20.7607 30.9428 20.7544C30.8799 20.7482 30.8167 20.7635 30.7638 20.798C30.0308 21.3038 29.0572 21.993 28.0381 22.7138C27.9943 22.7459 27.9404 22.7613 27.8862 22.7572C27.8321 22.7531 27.7811 22.7298 27.7426 22.6915C27.7041 22.6532 27.6806 22.6024 27.6763 22.5483C27.672 22.4942 27.6872 22.4403 27.7191 22.3964V22.3876C27.746 22.3491 27.7585 22.3024 27.7543 22.2556C27.7502 22.2089 27.7297 22.1651 27.6965 22.1319C27.6633 22.0987 27.6195 22.0783 27.5727 22.0741C27.5259 22.07 27.4791 22.0825 27.4406 22.1094L26.3353 22.8845L26.581 22.5343C26.6079 22.4958 26.6203 22.4491 26.6162 22.4023C26.6121 22.3556 26.5916 22.3118 26.5584 22.2786C26.5252 22.2454 26.4813 22.225 26.4345 22.2208C26.3877 22.2167 26.341 22.2292 26.3024 22.2561V22.2561C26.2856 22.2728 26.2629 22.2822 26.2391 22.2822C26.2154 22.2822 26.1926 22.2728 26.1758 22.2561C26.159 22.2393 26.1496 22.2165 26.1496 22.1928C26.1496 22.1691 26.159 22.1464 26.1758 22.1296C27.1076 20.8385 28.2571 19.2059 28.961 18.2031C28.983 18.1653 28.9919 18.1213 28.9863 18.0779C28.9807 18.0346 28.9609 17.9943 28.9301 17.9633C28.8992 17.9323 28.8589 17.9123 28.8155 17.9065C28.7721 17.9007 28.728 17.9094 28.6901 17.9312V17.9312Z" fill="#7BF8F9"/>
<path d="M25.581 26.3278C25.581 26.5985 24.9328 26.7628 24.8531 27.0069C24.7733 27.251 25.1569 27.7454 25.0025 27.9566C24.848 28.1678 24.3694 28.0831 24.1504 28.2424C23.9314 28.4017 23.701 28.3689 23.4478 28.4473C23.1946 28.5257 23.0288 29.0113 22.7578 29.0113C22.4869 29.0113 22.2768 28.6319 22.0324 28.556C21.7881 28.4801 21.4438 28.5775 21.2324 28.4232C21.0209 28.2689 20.7551 28.1058 20.5994 27.8934C20.4527 27.6581 20.3417 27.4024 20.2702 27.1346C20.1716 26.8764 20.1123 26.6049 20.0942 26.3291C20.0942 26.0572 20.4259 25.8422 20.5057 25.5982C20.5854 25.3541 20.6158 25.0923 20.769 24.8862C20.9222 24.6801 20.926 24.2539 21.1387 24.1047C21.3799 23.9501 21.6421 23.8309 21.9172 23.7506C22.1628 23.671 22.4844 23.5142 22.7566 23.5142C23.0288 23.5142 23.2934 23.8442 23.539 23.9239C23.7902 24.0085 24.0265 24.1323 24.2391 24.2906C24.4518 24.4449 24.7682 24.5435 24.924 24.756C25.0797 24.9684 24.8936 25.3541 24.9758 25.6083C25.0581 25.8625 25.581 26.056 25.581 26.3278Z" fill="#28293D"/>
<path d="M29.2394 11.2205C31.6575 9.4994 34.2502 7.66829 36.8227 5.85996C32.8239 2.72469 27.8895 1.01674 22.806 1.00833C17.7225 0.999925 12.7824 2.69155 8.77327 5.81357C4.7641 8.93559 1.91655 13.3083 0.684502 18.2348C-0.547541 23.1612 -0.0931705 28.3579 1.97518 32.9964C4.35144 31.9949 7.2189 31.1666 10.4332 30.5659C8.9628 27.921 8.38396 24.8734 8.78239 21.8743C9.18081 18.8752 10.5353 16.084 12.6454 13.9136C14.7556 11.7433 17.5092 10.3093 20.4987 9.82378C23.4882 9.33829 26.5547 9.82712 29.2445 11.2179L29.2394 11.2205Z" fill="url(#paint2_linear_1106_12477)"/>
<defs>
<linearGradient id="paint0_linear_1106_12477" x1="13.6098" y1="39.3333" x2="45.1272" y2="21.522" gradientUnits="userSpaceOnUse">
<stop offset="0.458333" stop-color="#0642FF"/>
<stop offset="1" stop-color="#7BF8F9"/>
</linearGradient>
<linearGradient id="paint1_linear_1106_12477" x1="18.6012" y1="30.2232" x2="47.503" y2="1.28914" gradientUnits="userSpaceOnUse">
<stop stop-color="#E79DFA"/>
<stop offset="1" stop-color="#E79DFA" stop-opacity="0"/>
</linearGradient>
<linearGradient id="paint2_linear_1106_12477" x1="-75.8155" y1="42.8674" x2="-20.1752" y2="-28.3549" gradientUnits="userSpaceOnUse">
<stop offset="0.458333" stop-color="#0642FF"/>
<stop offset="1" stop-color="#7BF8F9"/>
</linearGradient>
</defs>
</svg>
