<svg width="190" height="68" viewBox="0 0 190 68" fill="none" xmlns="http://www.w3.org/2000/svg">
<g clip-path="url(#clip0_874_3902)">
<path d="M0.198548 22.7688C0.198548 23.0246 0.198548 23.2804 0.198548 23.6818C0.840172 22.9227 1.31669 23.3865 1.81828 23.7192C8.0715 27.8703 14.3289 32.0131 20.5758 36.1725C23.0357 37.8114 25.5103 39.4273 27.9514 41.0931C29.8094 42.3597 31.705 43.5763 33.5755 44.8241C34.0478 45.1382 34.4951 45.4938 34.9883 45.7767C35.4001 46.0137 35.4001 46.1302 34.9946 46.4006C34.5327 46.7084 34.0667 47.0058 33.6069 47.3136C30.8021 49.1853 28.0015 51.0633 25.1947 52.9309C23.366 54.1475 21.5268 55.3496 19.696 56.5662C19.5643 56.6535 19.4953 56.6806 19.3428 56.5787C13.5389 52.725 7.73292 48.8775 1.9186 45.0425C1.29997 44.6349 0.689693 44.2356 0.213178 43.6616C0.211088 38.1753 0.206908 32.689 0.204818 27.2048C0.204818 27.0488 0.206908 26.8949 0.194368 26.739C0.186008 26.6204 0.0877791 26.6308 0 26.635" fill="#808080"/>
<path d="M54.7992 22.9063C54.7992 25.9676 54.7992 29.031 54.7992 32.0924C54.7992 32.2483 54.8118 32.4064 54.7909 32.5582C54.701 33.2279 54.2078 33.4608 53.633 33.0865C52.3247 32.2359 51.0247 31.3728 49.7269 30.5097C44.7569 27.2092 39.789 23.9045 34.819 20.6061C29.9661 17.3846 25.1111 14.1694 20.2561 10.9521C19.5894 10.5091 19.6103 10.4114 20.2728 9.97461C23.1214 8.09455 25.9575 6.1937 28.802 4.30532C30.6955 3.04917 32.5953 1.80551 34.493 0.555599C35.3541 -0.0121621 35.7407 -0.0142418 36.5872 0.545201C42.1946 4.25957 47.8041 7.97601 53.4115 11.6904C53.6289 11.8339 53.8358 11.9919 54.0594 12.1209C54.6237 12.4453 54.8034 12.9507 54.8034 13.5621C54.8013 16.6754 54.8034 19.7909 54.8034 22.9042L54.7992 22.9063Z" fill="#808080"/>
<path d="M62.5176 31.8572C62.5197 28.1574 65.3349 25.3768 69.0718 25.3831C72.8107 25.3893 75.5946 28.1678 75.5904 31.8863C75.5862 35.5903 72.7647 38.3813 69.0404 38.3625C65.2952 38.3459 62.5155 35.5716 62.5176 31.8572V31.8572ZM65.6818 31.8822C65.6881 34.4007 67.4207 35.9002 69.8262 35.4676C71.283 35.2055 72.2402 34.095 72.4032 32.3085C72.6519 29.5716 70.9318 27.8018 68.288 28.2676C66.6829 28.5505 65.6776 29.946 65.6818 31.8822V31.8822Z" fill="white"/>
<path d="M83.3859 29.4594C83.3859 28.6379 83.3859 27.9557 83.3859 27.2736C83.3859 26.5998 83.3964 25.9238 83.3818 25.25C83.3755 24.9713 83.4382 24.8507 83.7517 24.8611C84.5166 24.884 85.2836 24.8923 86.0465 24.859C86.4478 24.8424 86.4875 25.0109 86.4854 25.3415C86.4728 27.1738 86.4791 29.0081 86.4791 30.8403C86.4791 33.1571 86.4707 35.476 86.4875 37.7928C86.4896 38.1505 86.4018 38.269 86.0298 38.2545C85.2836 38.2253 84.5333 38.2295 83.7872 38.2545C83.4633 38.2649 83.3504 38.1733 83.3797 37.851C83.4047 37.5806 83.3859 37.3061 83.3859 37.0295C83.3065 37.0357 83.2584 37.0253 83.2459 37.042C81.7014 39.0801 77.6301 38.9803 76.2905 35.6923C75.4252 33.5668 75.5297 31.4559 76.976 29.555C78.3073 27.806 81.3775 27.3152 83.3859 29.4594V29.4594ZM81.1873 35.6819C82.4935 35.6715 83.4006 34.642 83.388 33.1841C83.3755 31.7242 82.4434 30.6968 81.1476 30.7113C79.8497 30.7259 78.9301 31.7699 78.9426 33.2174C78.9552 34.6711 79.8852 35.6902 81.1873 35.6819V35.6819Z" fill="white"/>
<path d="M93.8086 33.9474C92.7637 33.9474 91.7208 33.962 90.6758 33.9391C90.3037 33.9308 90.2557 34.0888 90.3518 34.3738C90.588 35.0788 90.9496 35.6486 91.7667 35.8046C92.5547 35.9543 93.2255 35.8129 93.7041 35.137C93.8337 34.954 93.9696 34.902 94.1765 34.9041C95.0292 34.9124 95.8819 34.929 96.7346 34.8978C97.1777 34.8833 97.1317 35.0559 97.0147 35.3554C96.3166 37.1211 94.9686 38.1006 93.1294 38.3231C91.1126 38.5664 89.3215 38.0632 88.0905 36.2975C86.6797 34.276 86.9723 31.0109 88.753 29.3117C89.7436 28.3675 90.9934 28.014 92.3415 28.0244C93.8421 28.0348 95.188 28.4611 96.2079 29.6299C97.1777 30.7426 97.4515 32.0674 97.3971 33.4961C97.3846 33.8351 97.2613 33.9661 96.8935 33.9578C95.8673 33.9308 94.8411 33.9495 93.8128 33.9495L93.8086 33.9474ZM92.2349 32.2275C92.7365 32.2275 93.2402 32.2275 93.7418 32.2275C94.235 32.2275 94.2998 32.1277 94.1221 31.6535C93.8463 30.9131 93.0772 30.4452 92.2203 30.4972C91.3007 30.5533 90.5483 31.1606 90.3581 31.9571C90.2891 32.2441 90.4333 32.2296 90.6214 32.2275C91.1586 32.2254 91.6957 32.2275 92.2328 32.2275H92.2349Z" fill="white"/>
<path d="M102.779 28.0202C105.901 28.041 108.052 30.1706 108.041 33.2299C108.031 36.2683 105.839 38.3875 102.714 38.3771C99.552 38.3667 97.4766 36.2662 97.5038 33.1009C97.5289 30.1103 99.7192 27.9994 102.779 28.0202V28.0202ZM104.863 33.0988C104.854 32.9948 104.852 32.7848 104.821 32.581C104.654 31.485 103.893 30.755 102.863 30.6947C101.891 30.6364 101.046 31.252 100.781 32.2295C100.582 32.9657 100.597 33.7019 100.862 34.4194C101.186 35.2929 101.968 35.7733 102.902 35.6922C104.127 35.5841 104.861 34.6503 104.861 33.0988H104.863Z" fill="white"/>
<path d="M111.891 29.399C113.427 27.9931 115.281 27.6853 116.84 28.486C118.111 29.139 118.732 30.2559 118.796 31.5889C118.899 33.7123 118.84 35.844 118.861 37.9716C118.863 38.2711 118.692 38.2503 118.493 38.2482C117.728 38.244 116.961 38.2274 116.197 38.2565C115.835 38.2711 115.772 38.138 115.774 37.8156C115.789 36.1019 115.789 34.3903 115.783 32.6766C115.776 31.1896 114.51 30.287 113.11 30.7633C112.336 31.0253 111.883 31.7595 111.885 32.7328C111.889 34.4111 111.877 36.0894 111.9 37.7678C111.906 38.1546 111.808 38.2752 111.41 38.2565C110.664 38.2232 109.914 38.2357 109.166 38.2523C108.882 38.2586 108.777 38.192 108.777 37.8842C108.788 34.7688 108.788 31.6555 108.777 28.5401C108.777 28.2489 108.85 28.1533 109.153 28.1616C109.935 28.1824 110.721 28.1865 111.502 28.1616C111.847 28.1512 111.92 28.2843 111.895 28.5858C111.874 28.8209 111.891 29.0579 111.891 29.399V29.399Z" fill="white"/>
<path d="M159.518 36.8362C160.235 34.3239 160.937 31.8698 161.635 29.4116C161.847 28.6657 162.359 28.3357 163.173 28.4216C162.77 29.6923 162.368 30.9547 161.971 32.2192C161.386 34.0785 160.793 35.9377 160.226 37.8032C160.124 38.1443 159.99 38.2691 159.62 38.2545C158.815 38.2254 158.813 38.2483 158.563 37.4975C157.812 35.2369 157.064 32.9762 156.31 30.7176C156.245 30.5263 156.228 30.31 156.03 30.1021C155.768 30.8799 155.517 31.6202 155.271 32.3627C154.669 34.1804 154.042 35.9939 153.482 37.824C153.29 38.45 152.844 38.1713 152.485 38.2462C152.105 38.3232 151.99 38.1256 151.887 37.797C150.961 34.8126 150.025 31.8324 149.074 28.8584C148.953 28.482 148.967 28.3509 149.419 28.3697C150.219 28.4008 150.221 28.3738 150.443 29.1433C151.145 31.5807 151.845 34.0202 152.546 36.4597C152.579 36.5762 152.587 36.6989 152.732 36.807C153.198 35.372 153.657 33.9495 154.119 32.5291C154.525 31.2812 154.941 30.0376 155.329 28.7856C155.419 28.4965 155.52 28.3655 155.856 28.3717C156.736 28.3884 156.738 28.3676 157.008 29.2119C157.752 31.5475 158.494 33.883 159.242 36.2164C159.302 36.4077 159.317 36.624 159.52 36.8341L159.518 36.8362Z" fill="white"/>
<path d="M172.08 30.4242C172.08 29.7525 172.089 29.218 172.076 28.6835C172.072 28.4652 172.133 28.3924 172.365 28.3778C173.349 28.3154 173.349 28.3071 173.349 29.2866C173.349 32.088 173.339 34.8894 173.36 37.6908C173.364 38.1337 173.274 38.2918 172.797 38.2606C172.083 38.2148 172.08 38.2502 172.078 37.5473C172.078 37.15 172.074 36.7528 172.07 36.3535C172.07 36.3431 172.049 36.3327 172.009 36.2974C171.32 37.3143 170.413 38.0256 169.173 38.2772C166.44 38.8346 164.001 37.2124 163.526 34.4776C163.234 32.793 163.474 31.2145 164.573 29.8253C166.206 27.7622 170.223 27.5522 171.89 30.1497C171.926 30.2038 171.963 30.2558 172.083 30.4222L172.08 30.4242ZM172.072 33.3338C172.072 33.1965 172.078 33.0572 172.072 32.9199C171.963 30.9192 170.597 29.4821 168.574 29.3615C166.776 29.2554 165.234 30.2184 164.805 32.2835C164.682 32.8804 164.686 33.4835 164.766 34.0887C165.071 36.3764 167.163 37.7573 169.407 37.1459C171.063 36.6946 172.076 35.2492 172.072 33.3358V33.3338Z" fill="white"/>
<path d="M185.816 33.7934C184.6 33.7934 183.381 33.8059 182.165 33.7872C181.816 33.781 181.728 33.8704 181.768 34.2219C181.939 35.79 183.061 37.0004 184.656 37.2624C186.163 37.5099 187.843 36.9754 188.416 35.3761C188.552 34.9997 188.825 35.1349 189.053 35.1307C189.946 35.1161 189.965 35.1328 189.559 35.9314C188.825 37.3726 187.701 38.2274 186.008 38.1879C185.642 38.1796 185.279 38.1879 184.913 38.1879C182.612 38.1879 181.078 36.9463 180.633 34.696C180.296 32.9907 180.422 31.356 181.534 29.9169C182.2 29.0538 183.088 28.5401 184.169 28.4049C185.402 28.2531 186.629 28.2219 187.774 28.8458C189.542 29.8087 190.142 31.72 189.975 33.5356C189.948 33.833 189.758 33.7914 189.574 33.7934C188.322 33.7934 187.07 33.7934 185.818 33.7934H185.816ZM185.204 32.7619C186.213 32.7619 187.222 32.7411 188.23 32.7723C188.631 32.7848 188.725 32.6725 188.696 32.2815C188.564 30.5054 187.082 29.2555 185.13 29.3283C183.02 29.4073 181.926 30.886 181.761 32.4999C181.726 32.8389 181.954 32.7578 182.127 32.7578C183.153 32.7619 184.179 32.7598 185.206 32.7598L185.204 32.7619Z" fill="white"/>
<path d="M133.182 28.2406C136.131 28.2489 138.143 30.3203 138.137 33.3422C138.131 36.3182 136.054 38.3959 133.102 38.3751C130.172 38.3563 128.208 36.3078 128.216 33.2756C128.222 30.2995 130.264 28.2302 133.182 28.2386V28.2406ZM136.816 33.2902C136.808 30.6302 135.032 29.0455 132.465 29.4073C130.812 29.6403 129.696 30.8985 129.524 32.8659C129.282 35.6361 130.992 37.5681 133.744 37.2291C135.583 37.0025 136.823 35.4406 136.816 33.2902V33.2902Z" fill="white"/>
<path d="M123.823 28.2531C124.659 28.2677 125.587 28.4819 126.335 29.1994C126.803 29.6486 127.048 30.2101 127.171 30.8341C127.23 31.1252 127.181 31.3103 126.818 31.2646C126.646 31.2438 126.469 31.2479 126.297 31.2646C126.042 31.2874 125.961 31.1939 125.898 30.9339C125.739 30.258 125.328 29.763 124.653 29.5155C123.865 29.2264 123.079 29.2597 122.318 29.5821C121.798 29.8046 121.432 30.1956 121.39 30.7945C121.348 31.406 121.622 31.8594 122.145 32.1713C122.703 32.5041 123.321 32.6746 123.94 32.8472C124.575 33.024 125.213 33.1925 125.81 33.4732C126.63 33.858 127.202 34.4403 127.284 35.3866C127.372 36.3911 126.966 37.1751 126.151 37.7449C124.65 38.7952 121.915 38.5248 120.638 37.2209C120.236 36.8091 120.021 36.3099 119.885 35.7651C119.835 35.5654 119.858 35.4261 120.124 35.4489C120.297 35.4635 120.473 35.4656 120.644 35.4489C120.978 35.4136 121.196 35.4697 121.248 35.8732C121.275 36.0749 121.444 36.2746 121.584 36.4451C122.37 37.3893 124.368 37.6222 125.367 36.8943C126.358 36.1727 126.251 34.9353 125.142 34.3987C124.546 34.1096 123.902 33.9557 123.265 33.7873C122.661 33.6271 122.061 33.4503 121.503 33.1675C120.606 32.7141 120.099 31.9925 120.084 30.9838C120.069 29.971 120.592 29.2514 121.447 28.7544C122.126 28.3592 122.874 28.2323 123.814 28.249L123.823 28.2531Z" fill="white"/>
<path d="M141.155 33.8517C141.155 35.1661 141.143 36.4804 141.163 37.7948C141.17 38.1546 141.078 38.3148 140.706 38.2503C140.672 38.244 140.637 38.2503 140.601 38.2503C140.121 38.2503 139.88 38.018 139.88 37.5536C139.88 35.0122 139.872 32.4687 139.889 29.9273C139.891 29.5425 139.792 29.3761 139.397 29.4406C139.312 29.4552 139.224 29.4406 139.136 29.4406C138.501 29.4406 138.323 29.1869 138.484 28.5588C138.545 28.3197 138.712 28.3987 138.852 28.3862C139.18 28.3571 139.598 28.5235 139.811 28.3176C140.024 28.1117 139.87 27.6916 139.886 27.3671C139.991 25.2521 141.278 24.6552 143.115 24.572C143.339 24.5616 143.383 24.6635 143.375 24.8486C143.368 24.9859 143.36 25.1273 143.375 25.2625C143.414 25.5703 143.304 25.6722 142.978 25.6909C141.546 25.7741 140.817 26.8056 141.149 28.2073C141.199 28.4174 141.324 28.382 141.456 28.3841C141.979 28.3883 142.503 28.4278 143.019 28.3737C143.556 28.3176 143.435 28.6524 143.462 28.9498C143.496 29.3096 143.421 29.4905 142.996 29.451C142.549 29.4094 142.091 29.4677 141.642 29.4344C141.262 29.4073 141.134 29.5072 141.143 29.9106C141.17 31.225 141.153 32.5394 141.153 33.8538L141.155 33.8517Z" fill="white"/>
<path d="M148.903 29.4386C148.113 29.4386 147.35 29.4552 146.589 29.4303C146.257 29.4199 146.184 29.5322 146.186 29.8441C146.198 31.7824 146.184 33.7207 146.196 35.659C146.205 36.7259 146.556 37.0732 147.628 37.1377C147.853 37.1523 148.085 37.1793 148.305 37.146C148.819 37.0691 148.955 37.2687 148.932 37.7658C148.913 38.1422 148.846 38.294 148.443 38.2524C148.046 38.2108 147.642 38.2524 147.243 38.2295C145.726 38.1464 144.946 37.3727 144.925 35.8608C144.898 33.9225 144.898 31.9842 144.93 30.048C144.938 29.5488 144.815 29.3388 144.307 29.4365C143.832 29.528 143.791 29.2764 143.784 28.8833C143.778 28.4757 143.893 28.3052 144.303 28.38C144.796 28.4715 144.98 28.2927 144.928 27.779C144.877 27.2819 144.932 26.7766 144.911 26.2754C144.898 25.9884 144.98 25.8927 145.283 25.8906C146.192 25.8844 146.192 25.8698 146.192 26.7724C146.192 27.1696 146.217 27.571 146.184 27.9662C146.154 28.326 146.301 28.4029 146.629 28.3863C147.132 28.3613 147.64 28.4154 148.142 28.3696C148.566 28.3301 148.742 28.4923 148.786 28.8833C148.804 29.0518 148.857 29.2182 148.905 29.4365L148.903 29.4386Z" fill="white"/>
<path d="M176.632 29.8234C177.404 28.7856 178.401 28.301 179.636 28.2199C179.933 28.2012 180.022 28.2532 180.027 28.5589C180.039 29.4428 180.052 29.4428 179.153 29.5426C177.667 29.709 176.741 30.6054 176.676 32.1298C176.599 33.9766 176.645 35.8275 176.626 37.6764C176.626 37.8635 176.749 38.1693 176.501 38.2171C176.152 38.2857 175.776 38.2483 175.416 38.2067C175.305 38.1942 175.345 37.9946 175.345 37.8781C175.345 34.8355 175.347 31.795 175.337 28.7523C175.337 28.4529 175.431 28.378 175.721 28.3759C176.63 28.3655 176.63 28.353 176.63 29.2619C176.63 29.449 176.63 29.6341 176.63 29.8213L176.632 29.8234Z" fill="white"/>
<path d="M150.301 43.7636C150.301 44.3418 150.278 44.922 150.309 45.4981C150.33 45.8745 150.155 45.9099 149.847 45.9099C149.542 45.9099 149.381 45.8766 149.394 45.5002C149.423 44.5331 149.394 43.566 149.411 42.599C149.413 42.4368 149.273 42.1373 149.534 42.1227C149.841 42.104 150.215 41.9231 150.468 42.3328C150.873 42.992 151.314 43.6305 151.885 44.269C151.885 43.6867 151.904 43.1023 151.879 42.522C151.864 42.1851 151.969 42.0978 152.309 42.0853C152.711 42.0707 152.8 42.1955 152.788 42.5761C152.759 43.5078 152.788 44.4416 152.769 45.3733C152.765 45.548 152.924 45.8579 152.614 45.8828C152.318 45.9078 151.96 46.0555 151.722 45.6749C151.31 45.0198 150.871 44.3813 150.443 43.7345C150.395 43.7428 150.347 43.7532 150.301 43.7615V43.7636Z" fill="white"/>
<path d="M180.779 42.077C181.345 42.0603 181.895 42.3473 182.24 42.9983C182.357 43.2208 182.342 43.3518 182.037 43.3373C181.715 43.3206 181.425 43.3477 181.136 43.0794C180.758 42.7279 180.087 42.8797 179.805 43.2915C179.454 43.8052 179.552 44.6059 180.006 44.9407C180.438 45.2589 181.164 45.1757 181.467 44.7702C181.527 44.6891 181.621 44.6101 181.565 44.4957C181.508 44.3813 181.387 44.4146 181.287 44.4125C181.113 44.4083 180.938 44.3979 180.764 44.4125C180.495 44.4374 180.451 44.3023 180.453 44.0714C180.453 43.853 180.514 43.7615 180.748 43.7678C181.199 43.7823 181.653 43.7823 182.104 43.7678C182.334 43.7595 182.384 43.8468 182.405 44.0652C182.472 44.7806 182.2 45.3213 181.582 45.6666C180.89 46.0534 180.173 46.0347 179.502 45.6166C178.804 45.1799 178.61 44.4853 178.697 43.7199C178.817 42.6739 179.554 42.0624 180.779 42.0749V42.077Z" fill="white"/>
<path d="M160.736 44.007C160.722 45.1176 159.89 45.937 158.786 45.9266C157.693 45.9162 156.859 45.0593 156.876 43.9633C156.891 42.8632 157.747 42.025 158.834 42.0438C159.948 42.0646 160.751 42.8944 160.738 44.007H160.736ZM159.823 43.9737C159.819 43.3145 159.432 42.8923 158.828 42.884C158.197 42.8757 157.781 43.3145 157.785 43.9841C157.789 44.6392 158.241 45.1113 158.841 45.0905C159.428 45.0697 159.827 44.6143 159.825 43.9717L159.823 43.9737Z" fill="white"/>
<path d="M174.701 43.9591C174.71 45.0842 173.909 45.9161 172.806 45.9265C171.702 45.9369 170.86 45.1112 170.845 44.0111C170.831 42.913 171.656 42.0624 172.756 42.0416C173.857 42.0229 174.693 42.8464 174.701 43.9591V43.9591ZM173.786 43.9944C173.79 43.2977 173.404 42.8776 172.766 42.8839C172.162 42.8901 171.767 43.3144 171.761 43.9674C171.755 44.6287 172.189 45.1029 172.791 45.0946C173.389 45.0842 173.782 44.6495 173.786 43.9944Z" fill="white"/>
<path d="M141.901 43.9903C141.901 43.4891 141.933 42.9858 141.891 42.4887C141.859 42.0853 142.075 42.1019 142.357 42.0936C142.668 42.0832 142.871 42.1352 142.802 42.5074C142.8 42.5241 142.802 42.5428 142.802 42.5594C142.812 43.6409 142.946 43.7449 144.043 43.5764C144.213 43.5514 144.292 43.4953 144.288 43.3227C144.282 43.0981 144.319 42.8672 144.282 42.6509C144.192 42.1289 144.459 42.0665 144.89 42.0915C145.159 42.1081 145.199 42.2142 145.197 42.4388C145.189 43.4745 145.178 44.5123 145.201 45.548C145.21 45.9286 145.003 45.9161 144.744 45.9057C144.512 45.8953 144.221 45.9743 144.286 45.5667C144.298 45.4814 144.286 45.3941 144.286 45.3088C144.286 44.2066 144.209 44.1483 143.069 44.2897C142.869 44.3147 142.798 44.3875 142.8 44.5767C142.806 44.9053 142.777 45.2339 142.806 45.5605C142.84 45.9577 142.585 45.8994 142.34 45.9078C142.077 45.9161 141.868 45.9244 141.891 45.5459C141.922 45.0301 141.899 44.5102 141.899 43.9923L141.901 43.9903Z" fill="white"/>
<path d="M137.767 43.4185C137.278 43.4704 136.889 43.4808 136.515 43.0857C136.118 42.6677 135.422 42.8777 135.169 43.4081C134.952 43.8635 134.977 44.3169 135.261 44.737C135.466 45.0406 135.786 45.1155 136.135 45.0739C136.369 45.0469 136.576 44.9387 136.706 44.7453C136.961 44.3647 137.339 44.5394 137.659 44.5457C137.897 44.5519 137.74 44.7723 137.696 44.8659C137.385 45.5439 136.829 45.8808 136.093 45.9183C135.383 45.9536 134.77 45.7228 134.409 45.0926C133.982 44.346 133.986 43.5516 134.453 42.8257C134.883 42.1561 135.571 42.0063 136.331 42.0958C137.044 42.1789 137.567 42.6469 137.767 43.4185Z" fill="white"/>
<path d="M117.074 45.8869C116.665 45.9014 116.247 46.0221 115.977 45.5562C115.814 45.2755 115.716 45.5271 115.603 45.629C115.152 46.0262 114.428 46.0262 113.979 45.6332C113.567 45.2713 113.406 44.5268 113.804 44.1379C114.209 43.7406 114.389 43.4287 114.303 42.8297C114.23 42.3264 114.863 42.0228 115.572 42.0914C116.128 42.1455 116.529 42.551 116.533 43.0626C116.533 43.1833 116.562 43.3476 116.376 43.3101C116.151 43.2644 115.827 43.4952 115.71 43.1458C115.63 42.9067 115.513 42.7382 115.277 42.8526C114.982 42.9961 115.124 43.2311 115.264 43.4162C115.776 44.0942 116.299 44.7618 116.811 45.4398C116.911 45.5729 117.064 45.6789 117.076 45.889L117.074 45.8869ZM115.285 44.7264C115.271 44.4768 115.099 44.3333 114.821 44.325C114.558 44.3167 114.391 44.454 114.389 44.7285C114.389 45.0217 114.566 45.1798 114.844 45.1798C115.091 45.1798 115.273 45.0508 115.285 44.7264V44.7264Z" fill="white"/>
<path d="M127.779 44.0027C127.779 43.4661 127.788 42.9296 127.775 42.3951C127.771 42.1746 127.836 42.0914 128.068 42.0977C128.659 42.1122 129.251 42.1164 129.842 42.0977C130.13 42.0873 130.145 42.2391 130.137 42.4512C130.13 42.6446 130.164 42.8422 129.857 42.8152C129.633 42.7944 129.405 42.8173 129.179 42.8089C128.891 42.7985 128.644 42.7673 128.657 43.2103C128.667 43.6034 128.835 43.6803 129.167 43.6471C129.322 43.6325 129.483 43.6595 129.635 43.6408C129.905 43.6096 129.984 43.7074 129.988 43.9798C129.995 44.2876 129.85 44.3209 129.612 44.3001C129.474 44.2897 129.332 44.3105 129.194 44.2959C128.845 44.2606 128.649 44.3292 128.657 44.7597C128.663 45.1611 128.847 45.2193 129.171 45.1944C129.361 45.1798 129.556 45.2048 129.744 45.1881C130.018 45.1632 130.149 45.2297 130.145 45.5479C130.143 45.8599 130.022 45.9202 129.744 45.9119C129.188 45.8931 128.63 45.8973 128.074 45.9119C127.846 45.9181 127.769 45.837 127.775 45.6145C127.785 45.0779 127.779 44.5413 127.779 44.0068V44.0027Z" fill="white"/>
<path d="M186.234 42.1269C186.901 42.0853 187.364 42.3363 187.622 42.8798C187.732 43.1106 187.845 43.3415 187.969 43.5994C188.203 43.3436 188.282 43.0587 188.407 42.7987C188.782 42.025 188.777 42.023 189.735 42.1498C189.484 42.6344 189.256 43.1169 188.991 43.5744C188.631 44.1963 188.326 44.8264 188.451 45.573C188.502 45.8725 188.324 45.9453 188.084 45.8933C187.889 45.8517 187.488 46.0722 187.553 45.6458C187.703 44.6829 187.172 43.9592 186.781 43.1814C186.612 42.8444 186.435 42.5138 186.234 42.1249V42.1269Z" fill="white"/>
<path d="M121.86 44.375C121.86 44.1503 121.86 43.9257 121.86 43.7011C121.86 42.8921 121.86 42.8776 121.079 42.8152C120.818 42.7944 120.807 42.6696 120.822 42.4824C120.834 42.3098 120.744 42.0893 121.072 42.0956C121.904 42.1081 122.738 42.1081 123.572 42.0956C123.902 42.0914 123.804 42.316 123.819 42.4845C123.835 42.6717 123.819 42.7944 123.56 42.8131C122.772 42.8713 122.774 42.888 122.774 43.6928C122.774 44.3146 122.749 44.9365 122.782 45.5562C122.803 45.9597 122.558 45.9015 122.318 45.8994C122.084 45.8994 121.819 45.9701 121.854 45.5604C121.888 45.1673 121.86 44.768 121.86 44.3708V44.375Z" fill="white"/>
<path d="M164.824 43.9758C164.824 43.4579 164.843 42.938 164.818 42.4201C164.797 41.9979 165.085 42.1165 165.305 42.1019C165.533 42.0874 165.742 42.0541 165.729 42.4201C165.702 43.1979 165.737 43.9758 165.712 44.7536C165.702 45.103 165.788 45.2714 166.166 45.2194C166.318 45.1986 166.481 45.234 166.634 45.2111C166.931 45.1695 166.966 45.3172 166.971 45.5647C166.975 45.8371 166.885 45.9203 166.613 45.9078C166.04 45.8808 165.296 46.0991 164.943 45.8163C164.569 45.5189 164.868 44.7452 164.824 44.1816C164.818 44.113 164.824 44.0444 164.824 43.9737V43.9758Z" fill="white"/>
<path d="M54.8849 46.3486H54.887C54.887 43.2353 54.8828 40.122 54.8912 37.0086C54.8912 36.5802 54.7115 36.2724 54.3687 36.0582C54.0343 35.8502 53.7835 36.0915 53.5244 36.2641C50.8952 38.0069 48.2618 39.7455 45.6305 41.4863C43.1058 43.1584 40.5769 44.8263 38.0627 46.515C37.6154 46.8145 37.2769 47.1909 37.2789 47.8273C37.2998 53.7774 37.2957 59.7274 37.2894 65.6775C37.2894 66.2161 37.5067 66.6196 37.9394 66.8941C38.4284 67.2061 38.9426 67.2144 39.4442 66.8775C40.1485 66.4033 40.8612 65.9416 41.5697 65.4716C43.9836 63.8764 46.3975 62.2792 48.8094 60.6841C50.5294 59.5465 52.2432 58.4026 53.9674 57.2754C54.6279 56.8449 54.8933 56.2564 54.8891 55.4827C54.8745 52.438 54.8828 49.3954 54.8828 46.3507L54.8849 46.3486Z" fill="white"/>
</g>
<defs>
<clipPath id="clip0_874_3902">
<rect width="190" height="67" fill="white" transform="translate(0 0.12915)"/>
</clipPath>
</defs>
</svg>
