<svg xmlns="http://www.w3.org/2000/svg" width="445.499" height="108" viewBox="0 0 445.499 108">
  <g id="odeon-software-logo" transform="translate(7.499)">
    <rect id="Rectangle_2650" data-name="Rectangle 2650" width="438" height="108" fill="rgba(255,255,255,0)"/>
    <path id="Path_24635" data-name="Path 24635" d="M109.92,57c3.247,0,5.364-2.348,5.364-5.916,0-3.624-2.117-5.915-5.364-5.915-3.305,0-5.394,2.29-5.394,5.915C104.526,54.651,106.615,57,109.92,57Zm0,4.523a10.424,10.424,0,1,1,10.409-10.439A10.24,10.24,0,0,1,109.92,61.522Z" fill="#fff" fill-rule="evenodd"/>
    <path id="Path_24636" data-name="Path 24636" d="M129.232,49.229c-1.856,0-3.537,1.391-3.537,3.973s1.681,4.031,3.537,4.031c1.885,0,3.537-1.421,3.537-4S131.117,49.229,129.232,49.229Zm-1.45-4.32a5.939,5.939,0,0,1,4.987,2.464V39.862h4.958V61.32h-4.958V59a5.594,5.594,0,0,1-4.987,2.551c-3.972,0-7.134-3.247-7.134-8.35S123.81,44.909,127.782,44.909Z" fill="#fff" fill-rule="evenodd"/>
    <path id="Path_24637" data-name="Path 24637" d="M143.844,51.664h6.205a2.8,2.8,0,0,0-3.043-2.783A3.067,3.067,0,0,0,143.844,51.664Zm3.219,9.889c-4.756,0-8.176-3.189-8.176-8.322s3.363-8.322,8.176-8.322c4.727,0,8.061,3.132,8.061,8.061a12.529,12.529,0,0,1-.087,1.449H143.815a3,3,0,0,0,3.073,3.1,2.634,2.634,0,0,0,2.581-1.565h5.278A7.561,7.561,0,0,1,147.063,61.553Z" fill="#fff" fill-rule="evenodd"/>
    <path id="Path_24638" data-name="Path 24638" d="M163.647,57.26c1.768,0,3.421-1.305,3.421-4.03,0-2.755-1.623-4.03-3.363-4.03-1.8,0-3.363,1.276-3.363,4.03C160.342,55.955,161.849,57.26,163.647,57.26Zm0,4.292c-4.756,0-8.35-3.189-8.35-8.322s3.682-8.322,8.408-8.322c4.756,0,8.409,3.189,8.409,8.322S168.4,61.552,163.647,61.552Z" fill="#fff" fill-rule="evenodd"/>
    <path id="Path_24639" data-name="Path 24639" d="M184.465,52.534c0-2.2-1.218-3.421-3.1-3.421s-3.1,1.216-3.1,3.421v8.785H173.3V45.141h4.959v2.145a5.932,5.932,0,0,1,4.9-2.32c3.74,0,6.233,2.552,6.233,6.9v9.452h-4.929Z" fill="#fff" fill-rule="evenodd"/>
    <path id="Path_24640" data-name="Path 24640" d="M197.367,61.552c-3.6,0-6.118-1.8-6.379-4.7h2.087c.176,1.74,1.683,2.988,4.262,2.988,2.263,0,3.538-1.218,3.538-2.727,0-3.915-9.51-1.623-9.51-7.567,0-2.348,2.233-4.292,5.567-4.292,3.393,0,5.626,1.8,5.8,4.842H200.7c-.116-1.768-1.421-3.1-3.827-3.1-2.117,0-3.451,1.13-3.451,2.522,0,4.292,9.365,2,9.452,7.6C202.876,59.666,200.644,61.552,197.367,61.552Z" fill="#fff" fill-rule="evenodd"/>
    <path id="Path_24641" data-name="Path 24641" d="M212.182,59.783c2.988,0,5.886-2.031,5.886-6.38s-2.842-6.379-5.856-6.379-5.829,2.031-5.829,6.379S209.166,59.783,212.182,59.783Zm0,1.768c-4.465,0-7.858-3.13-7.858-8.148,0-5.045,3.48-8.147,7.916-8.147,4.466,0,7.917,3.1,7.917,8.147A7.719,7.719,0,0,1,212.182,61.551Z" fill="#fff" fill-rule="evenodd"/>
    <path id="Path_24642" data-name="Path 24642" d="M222.939,47.2h-2.205V45.487h2.205v-1.1c0-3.393,1.594-5.017,5.6-5.017v1.74c-2.695,0-3.566.986-3.566,3.277v1.1h3.682V47.2h-3.682V61.32h-2.029Z" fill="#fff" fill-rule="evenodd"/>
    <path id="Path_24643" data-name="Path 24643" d="M230.969,47.2h-1.758V45.487h1.758V41.516h2.059v3.971h3.9l.445,1.712h-4.349v9.829c0,1.943.666,2.551,2.493,2.551h1.856v1.74H235.2c-2.754,0-4.233-1.13-4.233-4.292Z" fill="#fff" fill-rule="evenodd"/>
    <path id="Path_24644" data-name="Path 24644" d="M237.379,45.488h2.059l3.943,13.774,4.437-13.774h2.029l4.379,13.8,3.913-13.8h2L255.183,61.32h-2.031l-4.377-13.281L244.4,61.32h-2.06Z" fill="#fff" fill-rule="evenodd"/>
    <path id="Path_24645" data-name="Path 24645" d="M268.461,47.025c-3.335,0-5.886,2.319-5.886,6.349,0,4,2.551,6.408,5.886,6.408,3.247,0,5.886-2.434,5.886-6.379S271.708,47.025,268.461,47.025Zm-.377-1.77a6.61,6.61,0,0,1,6.263,3.712V45.488h2.031V61.319h-2.031V57.811a6.688,6.688,0,0,1-6.293,3.741c-4.319,0-7.538-3.219-7.538-8.178S263.735,45.255,268.084,45.255Z" fill="#fff" fill-rule="evenodd"/>
    <path id="Path_24646" data-name="Path 24646" d="M281.593,61.32h-2.031V45.487h2.031V48.3c.87-1.942,2.7-3.1,5.422-3.1v2.117h-.552c-2.637,0-4.87,1.188-4.87,5.161Z" fill="#fff" fill-rule="evenodd"/>
    <g id="Group_11781" data-name="Group 11781">
      <path id="Path_24647" data-name="Path 24647" d="M289.743,52.534h11.134a5.178,5.178,0,0,0-5.509-5.539A5.466,5.466,0,0,0,289.743,52.534Zm5.712,9.018c-4.495,0-7.771-3.132-7.771-8.148,0-5.045,3.219-8.147,7.771-8.147a7.117,7.117,0,0,1,7.481,7.335,13.868,13.868,0,0,1-.058,1.595H289.743a5.535,5.535,0,0,0,5.712,5.655,4.9,4.9,0,0,0,5.1-3.538H302.7C301.979,59.29,299.428,61.552,295.455,61.552Z" fill="#fff" fill-rule="evenodd"/>
    </g>
    <path id="Path_24648" data-name="Path 24648" d="M183.482,72.262a.7.7,0,0,0-.022-.991.743.743,0,0,0-.52-.2.69.69,0,0,0-.491.174.641.641,0,0,0-.187.5.683.683,0,0,0,.2.516.719.719,0,0,0,.517.2A.682.682,0,0,0,183.482,72.262Zm1.76,1.363-.712-.859a2.394,2.394,0,0,1-.149.217,1.344,1.344,0,0,1-.559.512,1.841,1.841,0,0,1-.856.191,2.139,2.139,0,0,1-1.065-.251,1.724,1.724,0,0,1-.682-.682,1.993,1.993,0,0,1-.235-.969,1.875,1.875,0,0,1,.4-1.239,1.531,1.531,0,0,1,1.025-.559l-.1-.174a1.865,1.865,0,0,1-.209-.435,1.573,1.573,0,0,1-.07-.478,1.374,1.374,0,0,1,.208-.73,1.479,1.479,0,0,1,.613-.543,2.127,2.127,0,0,1,.97-.2,1.963,1.963,0,0,1,1.224.335,1.647,1.647,0,0,1,.59.872,2.3,2.3,0,0,1,.1.843h-1.381a3.171,3.171,0,0,0-.018-.322q-.025-.494-.486-.494a.426.426,0,0,0-.309.113.385.385,0,0,0-.117.286.572.572,0,0,0,.065.27,2.734,2.734,0,0,0,.214.32l3.04,3.979Z" fill="#fff" fill-rule="evenodd"/>
    <path id="Path_24649" data-name="Path 24649" d="M197.324,67.484v1.181h-1.669v4.961h-1.494V68.665h-1.649V67.484Z" fill="#fff" fill-rule="evenodd"/>
    <path id="Path_24650" data-name="Path 24650" d="M205.084,68.666v1.286h2.075v1.12h-2.075v1.365h2.336v1.19H203.6V67.485h3.822v1.181Z" fill="#fff" fill-rule="evenodd"/>
    <path id="Path_24651" data-name="Path 24651" d="M218.656,68.04a2.822,2.822,0,0,1,.995,1.667h-1.574a1.429,1.429,0,0,0-.534-.668,1.482,1.482,0,0,0-.854-.243,1.3,1.3,0,0,0-1.052.478,2.237,2.237,0,0,0,0,2.55,1.312,1.312,0,0,0,1.052.472,1.492,1.492,0,0,0,.854-.242,1.443,1.443,0,0,0,.534-.662h1.574a2.836,2.836,0,0,1-.995,1.664,2.992,2.992,0,0,1-1.942.622,3.059,3.059,0,0,1-1.572-.4,2.689,2.689,0,0,1-1.048-1.107,3.782,3.782,0,0,1,0-3.25,2.7,2.7,0,0,1,1.048-1.108,3.073,3.073,0,0,1,1.572-.395A3.006,3.006,0,0,1,218.656,68.04Z" fill="#fff" fill-rule="evenodd"/>
    <path id="Path_24652" data-name="Path 24652" d="M231.44,67.484v6.141h-1.495V71.064h-2.327v2.562h-1.485V67.484h1.485v2.381h2.327V67.484Z" fill="#fff" fill-rule="evenodd"/>
    <path id="Path_24653" data-name="Path 24653" d="M243.565,73.626h-1.486L239.6,69.857v3.769h-1.487V67.485H239.6l2.483,3.8v-3.8h1.486Z" fill="#fff" fill-rule="evenodd"/>
    <path id="Path_24654" data-name="Path 24654" d="M252,69.244a2.143,2.143,0,0,0,0,2.575,1.641,1.641,0,0,0,2.315,0,2.121,2.121,0,0,0,0-2.571,1.652,1.652,0,0,0-2.319,0Zm2.737-1.451a2.934,2.934,0,0,1,1.116,1.12,3.417,3.417,0,0,1,0,3.246,2.974,2.974,0,0,1-1.12,1.124,3.249,3.249,0,0,1-3.136,0,2.98,2.98,0,0,1-1.122-1.124,3.4,3.4,0,0,1,0-3.246,2.978,2.978,0,0,1,1.122-1.12,3.264,3.264,0,0,1,3.144,0Z" fill="#fff" fill-rule="evenodd"/>
    <path id="Path_24655" data-name="Path 24655" d="M264.223,72.488H266.2v1.138h-3.466V67.485h1.485Z" fill="#fff" fill-rule="evenodd"/>
    <path id="Path_24656" data-name="Path 24656" d="M274.3,69.244a2.143,2.143,0,0,0,0,2.575,1.64,1.64,0,0,0,2.314,0,2.119,2.119,0,0,0,.005-2.571,1.652,1.652,0,0,0-2.319,0Zm2.737-1.451a2.934,2.934,0,0,1,1.116,1.12,3.413,3.413,0,0,1-.005,3.246,2.96,2.96,0,0,1-1.12,1.124,3.249,3.249,0,0,1-3.136,0,2.956,2.956,0,0,1-1.121-1.124,3.395,3.395,0,0,1,0-3.246,2.954,2.954,0,0,1,1.121-1.12,3.266,3.266,0,0,1,3.145,0Z" fill="#fff" fill-rule="evenodd"/>
    <path id="Path_24657" data-name="Path 24657" d="M289.816,67.988a2.411,2.411,0,0,1,.929,1.529h-1.573a1.2,1.2,0,0,0-.477-.527,1.47,1.47,0,0,0-.773-.194,1.442,1.442,0,0,0-1.129.473,1.838,1.838,0,0,0-.426,1.28,1.881,1.881,0,0,0,.447,1.347,1.676,1.676,0,0,0,1.272.469,1.5,1.5,0,0,0,1.494-1.12H287.7V70.178h3.118v1.467a2.968,2.968,0,0,1-.556,1,2.858,2.858,0,0,1-.978.748,3.1,3.1,0,0,1-1.358.286,3.224,3.224,0,0,1-1.625-.4,2.689,2.689,0,0,1-1.072-1.107,3.674,3.674,0,0,1,0-3.25,2.7,2.7,0,0,1,1.068-1.107,3.178,3.178,0,0,1,1.611-.395A3.065,3.065,0,0,1,289.816,67.988Z" fill="#fff" fill-rule="evenodd"/>
    <path id="Path_24658" data-name="Path 24658" d="M302.611,67.484l-2.129,4.1v2.041h-1.494V71.584l-2.129-4.1h1.7l1.181,2.5,1.182-2.5Z" fill="#fff" fill-rule="evenodd"/>
    <path id="Path_24660" data-name="Path 24660" d="M44.059,25.507l-.61-.406.162-.107a.348.348,0,0,1,.19-.058.344.344,0,0,1,.258.571Z" fill="#fffffe" fill-rule="evenodd"/>
    <g id="Group_11783" data-name="Group 11783">
      <path id="Path_24661" data-name="Path 24661" d="M52.788,31.334l-.1-.065v-.018l-.479-.32.094-.061a.342.342,0,0,1,.188-.058.344.344,0,0,1,.3.522Z" fill="#fffffe" fill-rule="evenodd"/>
    </g>
    <path id="Path_24662" data-name="Path 24662" d="M48.427,28.415l-.6-.4.129-.085a.343.343,0,0,1,.475.1A.342.342,0,0,1,48.427,28.415Z" fill="#fffffe" fill-rule="evenodd"/>
    <path id="Path_24663" data-name="Path 24663" d="M39.683,22.6l-.617-.411.2-.131a.344.344,0,0,1,.42.541Z" fill="#fffffe" fill-rule="evenodd"/>
    <path id="Path_24664" data-name="Path 24664" d="M35.305,19.684l-.621-.414.233-.153a.344.344,0,0,1,.182-.058h.013a.345.345,0,0,1,.193.625Z" fill="#fffffe" fill-rule="evenodd"/>
    <g id="Group_11786" data-name="Group 11786">
      <path id="Path_24659" data-name="Path 24659" d="M85.473,57.876,60.013,74.816a2.293,2.293,0,0,0-1.021,1.908V105.47a2.294,2.294,0,0,0,2.3,2.295h0a2.27,2.27,0,0,0,1.259-.387L86.232,91.622a2.3,2.3,0,0,0,1.021-1.909V58.83a1.147,1.147,0,0,0-1.15-1.147A1.128,1.128,0,0,0,85.473,57.876Z" fill="#fff" fill-rule="evenodd"/>
      <g id="Group_11784" data-name="Group 11784">
        <path id="Path_24665" data-name="Path 24665" d="M56.377.07a2.283,2.283,0,0,0-1.239.383L34.565,14.144v.018l-3.65,2.382-.185.226L58.991,35.576v.019L85.472,53.216a1.146,1.146,0,0,0,1.78-.954V21.379a2.293,2.293,0,0,0-1.021-1.908L58.991,1.344V1.326L57.677.452A2.278,2.278,0,0,0,56.44.07Z" fill="#fff" fill-rule="evenodd"/>
      </g>
    </g>
    <g id="Group_11785" data-name="Group 11785">
      <path id="Path_24666" data-name="Path 24666" d="M.027,39.084V69.568a2.291,2.291,0,0,0,1,1.559l27.24,18.125v.021l2.58,1.718L52.687,76.454v-.019l3.836-2.551v-.056L28.263,55.022V55C1.58,37.247,2.4,37.084,2.4,37.084S.146,38.547.027,39.084Z" fill="#fff" fill-rule="evenodd"/>
      <path id="Path_24691" data-name="Path 24691" d="M.027,38.084V69.568c.1.63,1.888.7,1.476,1.849l26.76,17.835v.021l3.872,2.293L52.687,76.454v-.019l3.836-2.551v-.056L28.263,55.022V55L1.781,37.381a1.133,1.133,0,0,0-.632-.193A1.152,1.152,0,0,0,.027,38.084Z" transform="translate(98.241 40.659) rotate(111)" fill="#fff" fill-rule="evenodd"/>
    </g>
    <path id="Path_24667" data-name="Path 24667" d="M318.4,0V107.765" fill="#fff" stroke="#fff" stroke-width="1.28"/>
    <path id="Path_24668" data-name="Path 24668" d="M353.044,14.995a2.24,2.24,0,0,0-.81-.445,2.943,2.943,0,0,0-.94-.16,3.013,3.013,0,0,0-.954.148,2.336,2.336,0,0,0-.837.493,2.5,2.5,0,0,0-.666,1.037,4.086,4.086,0,0,0-.249,1.418,4.268,4.268,0,0,0,.236,1.432,2.523,2.523,0,0,0,.654,1.012,2.686,2.686,0,0,0,.875.506,3.134,3.134,0,0,0,.941.147,3.173,3.173,0,0,0,.94-.135,2.54,2.54,0,0,0,.849-.494,2.5,2.5,0,0,0,.654-1.035A4.019,4.019,0,0,0,354,17.485a3.955,3.955,0,0,0-.249-1.418A2.481,2.481,0,0,0,353.044,14.995Zm1.424,6.081a3.516,3.516,0,0,1-1.412.838,5.382,5.382,0,0,1-1.762.283,5.557,5.557,0,0,1-1.777-.271,3.762,3.762,0,0,1-1.438-.875,4.589,4.589,0,0,1-.994-1.592,5.422,5.422,0,0,1-.012-3.947,4.372,4.372,0,0,1,.993-1.565,3.7,3.7,0,0,1,1.451-.889,5.825,5.825,0,0,1,3.552-.012,3.581,3.581,0,0,1,1.425.889,4.35,4.35,0,0,1,1.007,1.577,5.428,5.428,0,0,1,.378,1.974,5.5,5.5,0,0,1-.365,1.986A4.524,4.524,0,0,1,354.468,21.075Z" fill="#fff" fill-rule="evenodd"/>
    <path id="Path_24669" data-name="Path 24669" d="M360.8,14.463v7.45h-1.96v-7.45h-2.887V12.922h7.629v1.541" fill="#fff" fill-rule="evenodd"/>
    <path id="Path_24670" data-name="Path 24670" d="M364.57,21.913h1.961V12.921H364.57Z" fill="#fff" fill-rule="evenodd"/>
    <path id="Path_24671" data-name="Path 24671" d="M377.637,21.914V17.845h-3.775v4.069H371.9V12.921h1.96V16.3h3.775V12.921h1.96v8.993" fill="#fff" fill-rule="evenodd"/>
    <path id="Path_24672" data-name="Path 24672" d="M386.65,14.995a2.239,2.239,0,0,0-.81-.445,2.955,2.955,0,0,0-.942-.16,3.02,3.02,0,0,0-.953.148,2.348,2.348,0,0,0-.836.493,2.5,2.5,0,0,0-.665,1.037,4.087,4.087,0,0,0-.249,1.418,4.268,4.268,0,0,0,.236,1.432,2.5,2.5,0,0,0,.653,1.012,2.665,2.665,0,0,0,.875.506,3.135,3.135,0,0,0,.939.147,3.167,3.167,0,0,0,.942-.135,2.546,2.546,0,0,0,.848-.494,2.479,2.479,0,0,0,.654-1.035,4.108,4.108,0,0,0,.014-2.85A2.483,2.483,0,0,0,386.65,14.995Zm1.424,6.081a3.512,3.512,0,0,1-1.411.838,5.4,5.4,0,0,1-1.765.283,5.559,5.559,0,0,1-1.776-.271,3.752,3.752,0,0,1-1.437-.875,4.573,4.573,0,0,1-.993-1.592,5.4,5.4,0,0,1-.013-3.947,4.334,4.334,0,0,1,.994-1.565,3.691,3.691,0,0,1,1.449-.889,5.828,5.828,0,0,1,3.553-.012,3.571,3.571,0,0,1,1.424.889,4.3,4.3,0,0,1,1.007,1.577,5.431,5.431,0,0,1,.38,1.974,5.5,5.5,0,0,1-.366,1.986A4.538,4.538,0,0,1,388.074,21.075Z" fill="#fff" fill-rule="evenodd"/>
    <path id="Path_24673" data-name="Path 24673" d="M390.348,21.914V12.921h1.959v7.451h4.56v1.541" fill="#fff" fill-rule="evenodd"/>
    <path id="Path_24674" data-name="Path 24674" d="M403.2,15.291a1.8,1.8,0,0,0-.745-.654,2.386,2.386,0,0,0-.967-.174h-1.764v5.908H401.3a2.47,2.47,0,0,0,1.215-.283,1.739,1.739,0,0,0,.758-.752,3.547,3.547,0,0,0,.326-1,6.392,6.392,0,0,0,.092-1.086,4.885,4.885,0,0,0-.118-1.123A2.071,2.071,0,0,0,403.2,15.291Zm1.581,5.044a3.727,3.727,0,0,1-1.228,1.148,2.954,2.954,0,0,1-1.491.432h-4.3V12.922H402.2a3.172,3.172,0,0,1,1.66.481,2.936,2.936,0,0,1,1.189,1.222,5.929,5.929,0,0,1,.5,1.233,5.067,5.067,0,0,1,.118,1.16,7.02,7.02,0,0,1-.235,1.936A4.74,4.74,0,0,1,404.786,20.334Z" fill="#fff" fill-rule="evenodd"/>
    <path id="Path_24675" data-name="Path 24675" d="M406.359,21.913h1.96V12.921h-1.96Z" fill="#fff" fill-rule="evenodd"/>
    <path id="Path_24676" data-name="Path 24676" d="M415.216,21.914l-3.854-6.266v6.266H409.4V12.921h1.933l3.856,6.18v-6.18h1.959v8.993" fill="#fff" fill-rule="evenodd"/>
    <path id="Path_24677" data-name="Path 24677" d="M425.28,21.951l-.235-1.123a4.276,4.276,0,0,1-1.2.988,4.055,4.055,0,0,1-1.933.381,3.487,3.487,0,0,1-1.608-.271,7,7,0,0,1-1.163-.875,4.155,4.155,0,0,1-1.058-1.566,5.519,5.519,0,0,1-.366-1.986,5.236,5.236,0,0,1,.693-2.651,3.324,3.324,0,0,1,1.529-1.543,7.289,7.289,0,0,1,1.28-.43,4.725,4.725,0,0,1,1.033-.1,6.818,6.818,0,0,1,1.7.2,2.922,2.922,0,0,1,1.346.728,3.506,3.506,0,0,1,.8.973,4.36,4.36,0,0,1,.367,1.11h-1.791a1.848,1.848,0,0,0-.876-1.11,2.8,2.8,0,0,0-1.45-.369,2.881,2.881,0,0,0-.862.123,3.3,3.3,0,0,0-.81.383,2.464,2.464,0,0,0-.8,1.159,4.574,4.574,0,0,0-.261,1.555,3.444,3.444,0,0,0,.326,1.578,3.521,3.521,0,0,0,.849,1.074,1.947,1.947,0,0,0,.967.493c.288.025.483.037.587.037a2.8,2.8,0,0,0,1.046-.209,2.075,2.075,0,0,0,.835-.556,2.557,2.557,0,0,0,.445-.665,1.516,1.516,0,0,0,.144-.654h-2.169V17.091h3.816v4.86" fill="#fff" fill-rule="evenodd"/>
    <path id="Path_24678" data-name="Path 24678" d="M348.485,51.679h15.98A12.37,12.37,0,0,1,375.651,58.8h7.8a19.737,19.737,0,0,0-18.988-14.463h-1.279L376.464,26.65H342.949v7.345h18.815Z" fill="#fff" fill-rule="evenodd"/>
    <path id="Path_24679" data-name="Path 24679" d="M375.956,69.443a17.354,17.354,0,0,1-33.846-5.4h-7.344a24.7,24.7,0,0,0,48.8,5.4Z" fill="#fff" fill-rule="evenodd"/>
    <path id="Path_24680" data-name="Path 24680" d="M360.288,64.754l-3.05-3.36h.97l2.441,2.7,2.438-2.7h.971l-3.05,3.36v2.46h-.72Z" fill="#858a88" fill-rule="evenodd"/>
    <path id="Path_24681" data-name="Path 24681" d="M360.288,64.754l-3.05-3.36h.97l2.441,2.7,2.438-2.7h.971l-3.05,3.36v2.46h-.72Z" fill="#fff" stroke="#fff" stroke-width="0.431" fill-rule="evenodd"/>
    <path id="Path_24682" data-name="Path 24682" d="M368.93,61.394h5.706v.644h-4.92v1.856h4.728v.644h-4.728v2.034h4.952v.642H368.93Z" fill="#858a88" fill-rule="evenodd"/>
    <path id="Path_24683" data-name="Path 24683" d="M368.93,61.394h5.706v.644h-4.92v1.856h4.728v.644h-4.728v2.034h4.952v.642H368.93Z" fill="#fff" stroke="#fff" stroke-width="0.431" fill-rule="evenodd"/>
    <path id="Path_24684" data-name="Path 24684" d="M382.306,61.394h.949l3.346,5.819h-.864l-.7-1.23h-4.513l-.7,1.23h-.863Zm.475.644-1.89,3.3h3.78Z" fill="#858a88" fill-rule="evenodd"/>
    <path id="Path_24685" data-name="Path 24685" d="M382.306,61.394h.949l3.346,5.819h-.864l-.7-1.23h-4.513l-.7,1.23h-.863Zm.475.644-1.89,3.3h3.78Z" fill="#fff" stroke="#fff" stroke-width="0.431" fill-rule="evenodd"/>
    <path id="Path_24686" data-name="Path 24686" d="M391.227,61.394h4.721a4.1,4.1,0,0,1,1.028.105,1.321,1.321,0,0,1,.6.309,1.02,1.02,0,0,1,.277.515,3.339,3.339,0,0,1,.068.719v.475a1.376,1.376,0,0,1-.081.51.833.833,0,0,1-.227.329.906.906,0,0,1-.347.181,2.655,2.655,0,0,1-.429.08v.016a1.876,1.876,0,0,1,.5.156.854.854,0,0,1,.466.564,1.484,1.484,0,0,1,.045.374v1.486H397.1V65.936a1.479,1.479,0,0,0-.082-.543.664.664,0,0,0-.232-.31.866.866,0,0,0-.37-.136,3.517,3.517,0,0,0-.489-.033h-3.9v2.3h-.8Zm4.632,2.878a1.836,1.836,0,0,0,.966-.193.716.716,0,0,0,.3-.651V62.9a1.164,1.164,0,0,0-.062-.4.506.506,0,0,0-.229-.265,1.245,1.245,0,0,0-.448-.145,4.98,4.98,0,0,0-.722-.043h-3.636v2.234Z" fill="#858a88" fill-rule="evenodd"/>
    <path id="Path_24687" data-name="Path 24687" d="M391.227,61.394h4.721a4.1,4.1,0,0,1,1.028.105,1.321,1.321,0,0,1,.6.309,1.02,1.02,0,0,1,.277.515,3.339,3.339,0,0,1,.068.719v.475a1.376,1.376,0,0,1-.081.51.833.833,0,0,1-.227.329.906.906,0,0,1-.347.181,2.655,2.655,0,0,1-.429.08v.016a1.876,1.876,0,0,1,.5.156.854.854,0,0,1,.466.564,1.484,1.484,0,0,1,.045.374v1.486H397.1V65.936a1.479,1.479,0,0,0-.082-.543.664.664,0,0,0-.232-.31.866.866,0,0,0-.37-.136,3.517,3.517,0,0,0-.489-.033h-3.9v2.3h-.8Zm4.632,2.878a1.836,1.836,0,0,0,.966-.193.716.716,0,0,0,.3-.651V62.9a1.164,1.164,0,0,0-.062-.4.506.506,0,0,0-.229-.265,1.245,1.245,0,0,0-.448-.145,4.98,4.98,0,0,0-.722-.043h-3.636v2.234Z" fill="#fff" stroke="#fff" stroke-width="0.431" fill-rule="evenodd"/>
    <path id="Path_24688" data-name="Path 24688" d="M402.735,65.383h.753v.411a.951.951,0,0,0,.065.375.586.586,0,0,0,.215.261,1.06,1.06,0,0,0,.4.157,3.061,3.061,0,0,0,.626.053h2.482a4.077,4.077,0,0,0,.723-.053,1.154,1.154,0,0,0,.463-.172.665.665,0,0,0,.244-.331,1.6,1.6,0,0,0,.073-.524,1.381,1.381,0,0,0-.061-.452.56.56,0,0,0-.208-.282.955.955,0,0,0-.4-.145,4.033,4.033,0,0,0-.625-.04h-1.519q-.914,0-1.535-.048a3.082,3.082,0,0,1-1-.218,1.054,1.054,0,0,1-.544-.507,2.149,2.149,0,0,1-.163-.92,1.878,1.878,0,0,1,.151-.813,1.145,1.145,0,0,1,.458-.5,2.119,2.119,0,0,1,.763-.249,7.337,7.337,0,0,1,1.078-.068H406.9a6.779,6.779,0,0,1,1.225.092,2,2,0,0,1,.76.286,1.028,1.028,0,0,1,.387.484,1.89,1.89,0,0,1,.111.677v.2h-.752a3.009,3.009,0,0,0-.056-.559.512.512,0,0,0-.266-.335,1.741,1.741,0,0,0-.661-.16c-.3-.028-.708-.042-1.23-.042h-.85c-.386,0-.712.01-.979.028a2.055,2.055,0,0,0-.646.134.706.706,0,0,0-.356.31,1.237,1.237,0,0,0-.109.568,1.523,1.523,0,0,0,.053.436.522.522,0,0,0,.212.286,1.149,1.149,0,0,0,.45.157,4.9,4.9,0,0,0,.755.048h2.369a3.152,3.152,0,0,1,1.691.347,1.213,1.213,0,0,1,.522,1.087v.38a1.506,1.506,0,0,1-.205.846,1.268,1.268,0,0,1-.538.46,2.35,2.35,0,0,1-.764.193q-.429.04-.869.04h-2.223a6.53,6.53,0,0,1-.836-.052,2.1,2.1,0,0,1-.7-.209,1.216,1.216,0,0,1-.482-.448,1.435,1.435,0,0,1-.18-.765Z" fill="#858a88" fill-rule="evenodd"/>
    <path id="Path_24689" data-name="Path 24689" d="M402.735,65.383h.753v.411a.951.951,0,0,0,.065.375.586.586,0,0,0,.215.261,1.06,1.06,0,0,0,.4.157,3.061,3.061,0,0,0,.626.053h2.482a4.077,4.077,0,0,0,.723-.053,1.154,1.154,0,0,0,.463-.172.665.665,0,0,0,.244-.331,1.6,1.6,0,0,0,.073-.524,1.381,1.381,0,0,0-.061-.452.56.56,0,0,0-.208-.282.955.955,0,0,0-.4-.145,4.033,4.033,0,0,0-.625-.04h-1.519q-.914,0-1.535-.048a3.082,3.082,0,0,1-1-.218,1.054,1.054,0,0,1-.544-.507,2.149,2.149,0,0,1-.163-.92,1.878,1.878,0,0,1,.151-.813,1.145,1.145,0,0,1,.458-.5,2.119,2.119,0,0,1,.763-.249,7.337,7.337,0,0,1,1.078-.068H406.9a6.779,6.779,0,0,1,1.225.092,2,2,0,0,1,.76.286,1.028,1.028,0,0,1,.387.484,1.89,1.89,0,0,1,.111.677v.2h-.752a3.009,3.009,0,0,0-.056-.559.512.512,0,0,0-.266-.335,1.741,1.741,0,0,0-.661-.16c-.3-.028-.708-.042-1.23-.042h-.85c-.386,0-.712.01-.979.028a2.055,2.055,0,0,0-.646.134.706.706,0,0,0-.356.31,1.237,1.237,0,0,0-.109.568,1.523,1.523,0,0,0,.053.436.522.522,0,0,0,.212.286,1.149,1.149,0,0,0,.45.157,4.9,4.9,0,0,0,.755.048h2.369a3.152,3.152,0,0,1,1.691.347,1.213,1.213,0,0,1,.522,1.087v.38a1.506,1.506,0,0,1-.205.846,1.268,1.268,0,0,1-.538.46,2.35,2.35,0,0,1-.764.193q-.429.04-.869.04h-2.223a6.53,6.53,0,0,1-.836-.052,2.1,2.1,0,0,1-.7-.209,1.216,1.216,0,0,1-.482-.448,1.435,1.435,0,0,1-.18-.765Z" fill="#fff" stroke="#fff" stroke-width="0.431" fill-rule="evenodd"/>
    <path id="Path_24690" data-name="Path 24690" d="M381.654,69.42A29.122,29.122,0,0,0,408.8,89.057,28.773,28.773,0,1,0,380.082,58.8h8.5A19.963,19.963,0,0,1,408.767,40.07a20.221,20.221,0,0,1,.037,40.443,20.5,20.5,0,0,1-17.84-11.069Z" fill="#fff" fill-rule="evenodd"/>
  </g>
</svg>
