<svg xmlns="http://www.w3.org/2000/svg" xmlns:xlink="http://www.w3.org/1999/xlink" width="90.577" height="83.014" viewBox="0 0 90.577 83.014">
  <defs>
    <linearGradient id="linear-gradient" x1="0.5" y1="1" x2="0.5" gradientUnits="objectBoundingBox">
      <stop offset="0" stop-color="#5558ff"/>
      <stop offset="1" stop-color="#00c0ff"/>
    </linearGradient>
    <linearGradient id="linear-gradient-2" x1="0.5" y1="1" x2="0.5" gradientUnits="objectBoundingBox">
      <stop offset="0" stop-color="#2325aa"/>
      <stop offset="1" stop-color="#09222b"/>
    </linearGradient>
  </defs>
  <g id="send-message" transform="translate(-151.986 -182.056)">
    <g id="Group_64" data-name="Group 64" transform="translate(151.986 182.056)">
      <g id="Group_63" data-name="Group 63" transform="translate(0)">
        <path id="Path_34" data-name="Path 34" d="M241.646,183.415l.016-.014a3.652,3.652,0,0,0-3.949-1.175c-.325.093,4.7-1.951-83.381,34.084a3.844,3.844,0,0,0-2.34,3.17,3.917,3.917,0,0,0,1.812,3.548l24.606,15.02,24.229-10.3-6.929,20.9,26.02,15.875a3.776,3.776,0,0,0,5.668-2.48l15.1-75.48a3.736,3.736,0,0,0-.848-3.142Z" transform="translate(-151.986 -182.056)" fill="url(#linear-gradient)"/>
      </g>
    </g>
    <g id="Group_66" data-name="Group 66" transform="translate(178.41 183.401)">
      <g id="Group_65" data-name="Group 65" transform="translate(0 0)">
        <path id="Path_35" data-name="Path 35" d="M257.009,242.047V265.3a3.787,3.787,0,0,0,6.793,2.264L320.261,187.4Z" transform="translate(-257.009 -187.4)" fill="url(#linear-gradient-2)"/>
      </g>
    </g>
  </g>
</svg>
