<svg xmlns="http://www.w3.org/2000/svg" width="383.68" height="51.979" viewBox="0 0 383.68 51.979">
  <g id="the" transform="translate(-1.62 -0.021)">
    <g id="Group_11778" data-name="Group 11778">
      <path id="Path_24600" data-name="Path 24600" d="M172.1,47.3a7.579,7.579,0,0,1-3.8,1.1c-3.6,0-5.9-2.6-5.9-6.3s2.4-6.3,6-6.3a5.89,5.89,0,0,1,3.6,1l.1,2.5h-.7l-.4-2.6.7.2v.6a4.717,4.717,0,0,0-3.2-1.2c-3,0-5,2.2-5,5.7s1.9,5.7,5,5.7a5.949,5.949,0,0,0,3.2-.9l-.5.5v-.9c0-1.3,0-2.7-.1-4h1.1c0,1.2-.1,2.5-.1,4v.9Zm-3-4.4v-.5h4.4v.5l-1.7.1h-.3Z" fill="#fff"/>
      <path id="Path_24601" data-name="Path 24601" d="M175.7,44.9c0,1.9.6,2.6,1.8,2.6a3.931,3.931,0,0,0,3-1.7h.3v.7h-.6l.4-.2a4.415,4.415,0,0,1-3.4,2c-1.6,0-2.4-.8-2.4-3.3V40.1l.3.3-1.8-.2v-.5l2.2-.2.2.2-.1,2.5v2.7Zm-.1-8.8a.7.7,0,1,1,.7.7C175.9,36.9,175.6,36.6,175.6,36.1Zm4.9,12.2-.1-2.1v-6l.3.2-1.8-.2v-.5l2.2-.2.2.2-.1,2.5v5.7l-.3-.5,1.7.2v.5Zm-1.4-12.2a.7.7,0,1,1,.7.7A.632.632,0,0,1,179.1,36.1Z" fill="#fff"/>
      <path id="Path_24602" data-name="Path 24602" d="M184.6,43.8c0,2.3,1.3,3.8,3.2,3.8a3.225,3.225,0,0,0,2.7-1.3l.3.2a3.465,3.465,0,0,1-3.2,1.8c-2.4,0-4-1.8-4-4.5a4.221,4.221,0,0,1,4.1-4.5,3.035,3.035,0,0,1,3,2.1.634.634,0,0,1-.6.5.666.666,0,0,1-.7-.5L189,40l.7.6a3.25,3.25,0,0,0-2-.7C185.9,39.9,184.6,41.4,184.6,43.8Z" fill="#fff"/>
      <path id="Path_24603" data-name="Path 24603" d="M193.6,44.9c0,1.9.6,2.6,1.8,2.6a3.931,3.931,0,0,0,3-1.7h.3v.7h-.6l.4-.2a4.415,4.415,0,0,1-3.4,2c-1.6,0-2.4-.8-2.4-3.3V40.1l.3.3-1.8-.2v-.5l2.2-.2.2.2-.1,2.5v2.7Zm-.1-8.8a.7.7,0,1,1,.7.7A.632.632,0,0,1,193.5,36.1Zm4.9,12.2-.1-2.1v-6l.3.2-1.8-.2v-.5l2.2-.2.2.2-.1,2.5v5.7l-.3-.5,1.7.2v.5ZM197,36.1a.7.7,0,1,1,.7.7A.632.632,0,0,1,197,36.1Z" fill="#fff"/>
      <path id="Path_24604" data-name="Path 24604" d="M201.6,52l-.2-.4a4.267,4.267,0,0,0,2.2-3.3l.1.5-.6-.5c-.3-.3-.5-.5-.5-.9a.684.684,0,0,1,.7-.7,1.6,1.6,0,0,1,.8.3,2.958,2.958,0,0,1,.2,1A5.207,5.207,0,0,1,201.6,52Z" fill="#fff"/>
      <path id="Path_24605" data-name="Path 24605" d="M212.7,43.5a15.294,15.294,0,0,1,2.9-.7v.5a21.285,21.285,0,0,0-2.7.8c-1.5.6-2,1.3-2,2a1.55,1.55,0,0,0,1.7,1.6c.9,0,1.5-.4,2.7-1.5l.3-.2.1.4-.3.3c-1.1,1.2-1.9,1.7-3,1.7a2.126,2.126,0,0,1-2.3-2.2C209.9,45,210.7,44.2,212.7,43.5Zm2.5,2.9V42.3c0-1.9-.6-2.4-2-2.4a3.859,3.859,0,0,0-2,.6l.6-.5-.4,1.4q-.15.6-.6.6a.634.634,0,0,1-.6-.5,3.118,3.118,0,0,1,3.2-2.1c1.8,0,2.7.8,2.7,2.8v4c0,1.2.3,1.5.8,1.5a.908.908,0,0,0,.7-.3l.3.3a1.709,1.709,0,0,1-1.3.7C215.7,48.3,215.2,47.6,215.2,46.4Z" fill="#fff"/>
      <path id="Path_24606" data-name="Path 24606" d="M222.1,47.7a3.08,3.08,0,0,0,2.7-1.6l.2.4a3.467,3.467,0,0,1-3.1,1.9c-2.1,0-3.6-1.8-3.6-4.4,0-2.8,1.6-4.6,3.8-4.6a3.521,3.521,0,0,1,2.9,1.8l-.2.3a3.423,3.423,0,0,0-2.6-1.4c-1.6,0-2.9,1.2-2.9,3.9C219.2,46.5,220.5,47.7,222.1,47.7Zm5.1,0v.5l-2.6.1V35.8l-1.6-.1v-.5l2.3-.5.3.1-.1,2.5V48.1l-.3-.7Z" fill="#fff"/>
      <path id="Path_24607" data-name="Path 24607" d="M229.3,44.3v-.9a24.441,24.441,0,0,0-.1-2.9l-1.6-.1V40l2.3-.6.2.1v4.7c0,1.1,0,3,.1,3.8h-1C229.2,47.3,229.3,45.5,229.3,44.3Zm-1.6,3.4,1.9-.2h.2l1.7.2v.5h-3.9v-.5Z" fill="#fff"/>
      <path id="Path_24608" data-name="Path 24608" d="M233.9,48.1c0-.8.1-2.7.1-3.8v-.9a24.441,24.441,0,0,0-.1-2.9l-1.6-.1V40l2.2-.6.2.1.1,2v2.8c0,1.1,0,3,.1,3.8Zm2.4-.4v.5h-3.9v-.5l1.9-.2h.2Zm4.2-5.1v1.8c0,1.2,0,3,.1,3.8h-1c0-.8.1-2.6.1-3.8V42.7c0-1.8-.6-2.4-1.7-2.4a4.568,4.568,0,0,0-3.2,1.8h-.3v-.6h.6l-.4.2a4.955,4.955,0,0,1,3.7-2.2C239.7,39.4,240.5,40.3,240.5,42.6Zm-.3,4.8,1.7.2v.5H238v-.5l1.9-.2Z" fill="#fff"/>
      <path id="Path_24609" data-name="Path 24609" d="M246.5,47.7a3.08,3.08,0,0,0,2.7-1.6l.2.4a3.467,3.467,0,0,1-3.1,1.9c-2.1,0-3.6-1.8-3.6-4.4,0-2.8,1.6-4.6,3.8-4.6a3.521,3.521,0,0,1,2.9,1.8l-.2.3a3.423,3.423,0,0,0-2.6-1.4c-1.6,0-2.9,1.2-2.9,3.9C243.7,46.5,244.9,47.7,246.5,47.7Zm5.2,0v.5l-2.6.1V35.8l-1.6-.1v-.5l2.3-.5.3.1-.1,2.5V48.1l-.3-.7Z" fill="#fff"/>
      <path id="Path_24610" data-name="Path 24610" d="M254.9,43.5a15.294,15.294,0,0,1,2.9-.7v.5a21.285,21.285,0,0,0-2.7.8c-1.5.6-2,1.3-2,2a1.55,1.55,0,0,0,1.7,1.6c.9,0,1.5-.4,2.7-1.5l.3-.2.1.4-.3.3c-1.1,1.2-1.9,1.7-3,1.7a2.126,2.126,0,0,1-2.3-2.2C252.1,45,252.9,44.2,254.9,43.5Zm2.5,2.9V42.3c0-1.9-.6-2.4-2-2.4a3.859,3.859,0,0,0-2,.6l.6-.5-.4,1.4q-.15.6-.6.6a.634.634,0,0,1-.6-.5,3.118,3.118,0,0,1,3.2-2.1c1.8,0,2.7.8,2.7,2.8v4c0,1.2.3,1.5.8,1.5a.908.908,0,0,0,.7-.3l.3.3a1.709,1.709,0,0,1-1.3.7C257.9,48.3,257.4,47.6,257.4,46.4Z" fill="#fff"/>
      <path id="Path_24611" data-name="Path 24611" d="M261.4,47.5a.789.789,0,0,1,.8-.8.8.8,0,1,1-.8.8Z" fill="#fff"/>
    </g>
    <g id="Group_11780" data-name="Group 11780">
      <path id="Path_24612" data-name="Path 24612" d="M22.8.4A17.661,17.661,0,1,0,36.6,21.3,17.8,17.8,0,0,0,22.8.4" fill="rgba(255,255,255,0)"/>
      <path id="Path_24613" data-name="Path 24613" d="M14.8,15.9A9.617,9.617,0,0,1,3.9,11.5a27.586,27.586,0,0,0-.8,2.7c-.1.4-.1.8-.2,1.2v2.2A9.7,9.7,0,0,0,3,19.3H3c0,.3.1.5.1.8v.2a4.331,4.331,0,0,0,.1.5c-.2.2-.2.3-.1.4a.367.367,0,0,0,.1.3,1.421,1.421,0,0,0,.2.6h0a15.584,15.584,0,0,0,2.2,4.7h0a16.666,16.666,0,0,0,10.3,7h0c.4.1.7.1,1.1.2h0c.3,0,.5.1.8.1h2.3a2.2,2.2,0,0,0,.8-.1H21c.2,0,.4-.1.6-.1h.2c.2,0,.4-.1.6-.1a.367.367,0,0,0,.3-.1.367.367,0,0,0,.3-.1c.5-.1,1-.3,1.4-.4h0A14.087,14.087,0,0,0,28.6,31a.1.1,0,0,0,.1-.1c.4-.3.7-.5,1.1-.8.1-.1.2-.1.3-.2s.2-.1.2-.2c.2-.1.3-.3.5-.4l.1-.1.4-.4.1-.1a.1.1,0,0,1,.1-.1c-9.5,8.3-22-3-16.7-12.7" fill="#fff"/>
      <path id="Path_24614" data-name="Path 24614" d="M19.2,1.1A16.4,16.4,0,0,0,5.4,8.6h0a17.1,17.1,0,0,0-1.3,2.3c4.3,3.1,9.3,1.6,13.1,0,4.3-1.8,11.4-2.9,16,3.4a8.243,8.243,0,0,0-6.6-2.4,8.375,8.375,0,0,0,1.3,16.7c3-.2,7.7-3,7.7-11A16.243,16.243,0,0,0,19.2,1.1" fill="#fff"/>
      <g id="Group_11779" data-name="Group 11779">
        <path id="Path_24615" data-name="Path 24615" d="M40.1,12.1h5.3V27.2H50V12.1h5.4V8.2H40.1Z" fill="#fff"/>
        <path id="Path_24616" data-name="Path 24616" d="M92.6,27.2l-5-8.1a5.912,5.912,0,0,0,2.9-1.9,5.086,5.086,0,0,0,1-3.2,5.4,5.4,0,0,0-.6-2.7,5.814,5.814,0,0,0-1.7-1.8,9.432,9.432,0,0,0-2.3-1,12.413,12.413,0,0,0-2.7-.3H77v19h4.5V19.7h1.6l4.1,7.5Zm-5.9-12a2.7,2.7,0,0,1-.8.7,2.016,2.016,0,0,1-1.1.3,4.869,4.869,0,0,1-1.2.1H81.4V11.9H84a4.484,4.484,0,0,1,1.1.1c.4.1.7.2,1,.3a4.349,4.349,0,0,1,.7.6,1.8,1.8,0,0,1,.3,1.1,3.373,3.373,0,0,1-.4,1.2" fill="#fff"/>
        <path id="Path_24617" data-name="Path 24617" d="M102.8,16.9,111,8.2h-5.7l-6.8,7.7h-.1V8.2H93.9v19h4.5V18.4h0l7.1,8.8h6Z" fill="#fff"/>
        <path id="Path_24618" data-name="Path 24618" d="M124.9,27.2h4.6V19.1l7.3-10.9h-5.4l-4.1,7-4-7h-5.6l7.2,10.9Z" fill="#fff"/>
        <path id="Path_24619" data-name="Path 24619" d="M150.8,23.3H142v-4h7.9V15.6H142V12h8.3V8.2H137.6v19h13.2Z" fill="#fff"/>
        <path id="Path_24620" data-name="Path 24620" d="M69.3,27.1a7.6,7.6,0,0,0,2.6-1.6,8.068,8.068,0,0,0,1.7-2.4,7.79,7.79,0,0,0,.6-3.1V12.1H69.6v7.5a7.719,7.719,0,0,1-.2,1.5,2.281,2.281,0,0,1-.6,1.2,3.126,3.126,0,0,1-1.1.9,4.309,4.309,0,0,1-1.7.3,4.671,4.671,0,0,1-1.7-.3,2.445,2.445,0,0,1-1.1-.9,3.379,3.379,0,0,1-.6-1.2,7.719,7.719,0,0,1-.2-1.5V12.1H57.8V20A7.664,7.664,0,0,0,60,25.5a7.161,7.161,0,0,0,2.5,1.6,9.933,9.933,0,0,0,6.8,0" fill="#fff"/>
        <rect id="Rectangle_2646" data-name="Rectangle 2646" width="4.6" height="2.8" transform="translate(112.3 8.2)" fill="#fff"/>
        <rect id="Rectangle_2647" data-name="Rectangle 2647" width="4.6" height="2.8" transform="translate(57.8 8.2)" fill="#fff"/>
        <rect id="Rectangle_2648" data-name="Rectangle 2648" width="4.6" height="2.8" transform="translate(69.6 8.2)" fill="#fff"/>
        <rect id="Rectangle_2649" data-name="Rectangle 2649" width="4.6" height="15" transform="translate(112.3 12.2)" fill="#fff"/>
        <path id="Path_24621" data-name="Path 24621" d="M343.9,11h-4.6V8.2h4.6Zm0,1.2h-4.6v15h4.6Z" fill="#fff"/>
        <path id="Path_24622" data-name="Path 24622" d="M365.5,11h-4.6V8.2h4.6Zm0,1.2h-4.6v15h4.6Z" fill="#fff"/>
        <path id="Path_24623" data-name="Path 24623" d="M172.8,27.2V19.3h-7.4v7.9h-4.6V8.2h4.6v7.2h7.4V8.2h4.6v19Z" fill="#fff"/>
        <path id="Path_24624" data-name="Path 24624" d="M193.1,27.2l-1.5-3.7h-7.4l-1.4,3.7h-5l8-19h4.5l7.9,19Zm-5.1-14-2.4,6.5h4.8Z" fill="#fff"/>
        <path id="Path_24625" data-name="Path 24625" d="M205.3,19.1v8.1h-4.6V19.1l-7.1-11h5.6l4.1,7,4.1-7h5.4Z" fill="#fff"/>
        <path id="Path_24626" data-name="Path 24626" d="M223.9,27.2l-1.5-3.7H215l-1.4,3.7h-5l8-19h4.5l7.9,19Zm-5.1-14-2.4,6.5h4.8Z" fill="#fff"/>
        <path id="Path_24627" data-name="Path 24627" d="M236.1,12.1V27.2h-4.6V12.1h-5.4V8.2h15.3v3.9Z" fill="#fff"/>
        <path id="Path_24628" data-name="Path 24628" d="M250.8,27.2V8.2h12.8V12h-8.3v3.6h7.9v3.7h-7.9v3.9h8.8v3.9H250.8Z" fill="#fff"/>
        <path id="Path_24629" data-name="Path 24629" d="M283.6,27.2l.1-13.4h-.1l-4.9,13.4h-3.2l-4.8-13.4h-.1l.1,13.4h-4.3V8.2h6.5l4.3,12.2h.1l4.1-12.2H288v19Z" fill="#fff"/>
        <path id="Path_24630" data-name="Path 24630" d="M291.2,27.2V8.2H304V12h-8.3v3.6h7.9v3.7h-7.9v3.9h8.8v3.9H291.2Z" fill="#fff"/>
        <path id="Path_24631" data-name="Path 24631" d="M318.4,27.2l-7.1-8.7h-.1v8.7h-4.5V8.2h4.5v7.7h.1l6.8-7.7h5.7l-8.2,8.7,8.7,10.3Z" fill="#fff"/>
        <path id="Path_24632" data-name="Path 24632" d="M325.2,27.2V8.2h4.6v15h7.4v4Z" fill="#fff"/>
        <path id="Path_24633" data-name="Path 24633" d="M346.8,27.2V8.2h4.6v15h7.4v4Z" fill="#fff"/>
        <path id="Path_24634" data-name="Path 24634" d="M379.4,27.2l-7.1-8.7h-.1v8.7h-4.5V8.2h4.5v7.7h.1l6.8-7.7h5.7l-8.2,8.7,8.7,10.3Z" fill="#fff"/>
      </g>
    </g>
  </g>
</svg>
