<svg width="293" height="28" viewBox="0 0 293 28" fill="none" xmlns="http://www.w3.org/2000/svg">
<path d="M16.1739 0.28982C8.91916 -1.2375 1.81714 3.42082 0.28982 10.7519C-1.2375 18.0067 3.42082 25.1851 10.7519 26.7124C18.0067 28.2397 25.1851 23.5814 26.7124 16.2503C28.1633 8.99552 23.505 1.81714 16.1739 0.28982Z" fill="black"/>
<path d="M10.0646 12.1267C6.09356 13.2722 2.73346 10.7521 1.74071 8.7666C1.51161 9.45389 1.28251 10.1412 1.12978 10.8285C1.05342 11.1339 1.05342 11.4394 0.977051 11.7449C0.977051 11.8212 0.977051 11.8976 0.977051 11.974C0.977051 12.0503 0.977051 12.2031 0.977051 12.2794C0.977051 12.4322 0.977051 12.5849 0.977051 12.7376V12.814C0.977051 13.0431 0.977051 13.1958 0.977051 13.4249C0.977051 13.8831 0.977051 14.2649 1.05342 14.7231C1.05342 14.9522 1.12978 15.105 1.12978 15.3341C1.12978 15.4104 1.12978 15.4104 1.12978 15.4868C1.12978 15.6395 1.20615 15.7923 1.20615 15.8686C1.05342 16.0214 1.05342 16.0977 1.12978 16.1741C1.12978 16.2505 1.12978 16.3268 1.20615 16.4032C1.20615 16.5559 1.28251 16.7086 1.35888 16.8614C1.74071 18.1596 2.27527 19.3815 3.03893 20.4506C4.87171 23.1234 7.62088 25.1089 10.9046 25.7962C11.2101 25.8725 11.4392 25.8725 11.7446 25.9489C11.9737 25.9489 12.1265 26.0253 12.3556 26.0253C12.4319 26.0253 12.5847 26.0253 12.661 26.0253C12.7374 26.0253 12.8138 26.0253 12.8901 26.0253C13.0429 26.0253 13.2719 26.0253 13.4247 26.0253C13.6538 26.0253 13.8065 26.0253 14.0356 26.0253H14.112C14.3411 26.0253 14.4938 26.0253 14.7229 25.9489H14.7993C14.952 25.9489 15.1047 25.8725 15.2575 25.8725C15.3338 25.8725 15.4102 25.8725 15.4102 25.8725C15.5629 25.8725 15.7157 25.7962 15.8684 25.7962C15.9448 25.7962 16.0211 25.7962 16.0975 25.7198C16.1739 25.7198 16.2502 25.7198 16.3266 25.6434C16.7084 25.5671 17.0902 25.4144 17.3957 25.338C18.5412 24.9562 19.6103 24.4216 20.6031 23.6579C20.6031 23.6579 20.6794 23.6579 20.6794 23.5816C20.9849 23.3525 21.214 23.1997 21.5195 22.9706C21.5958 22.8943 21.6722 22.8943 21.7486 22.8179C21.8249 22.7415 21.9013 22.7415 21.9013 22.6652C22.054 22.5888 22.1304 22.4361 22.2831 22.3597L22.3595 22.2834C22.4358 22.207 22.5886 22.0543 22.6649 21.9779L22.7413 21.9015C22.7413 21.9015 22.7413 21.8252 22.8177 21.8252C15.5629 28.1635 6.01719 19.5342 10.0646 12.1267Z" fill="white"/>
<path d="M13.425 0.824463C8.99582 0.824463 5.10116 3.11544 2.88655 6.5519C2.50473 7.08646 2.19926 7.69739 1.8938 8.30831C5.17753 10.6757 8.99582 9.53017 11.8977 8.30831C15.1815 6.93373 20.6034 6.0937 24.1163 10.9048C22.818 9.60653 21.0616 8.91924 19.0761 9.07197C15.5633 9.37743 12.9668 12.4321 13.1959 15.9449C13.5014 19.4577 16.556 22.0542 20.0689 21.8251C22.3598 21.6723 25.949 19.5341 25.949 13.4248C26.1018 6.47553 20.4507 0.824463 13.425 0.824463Z" fill="white"/>
<path d="M29.3853 9.22461H33.4326V20.7558H36.9455V9.22461H41.0692V6.24634H29.3853V9.22461Z" fill="white"/>
<path d="M69.477 20.7558L65.6587 14.5702C66.5751 14.2647 67.3388 13.8066 67.8734 13.1193C68.4079 12.432 68.637 11.5919 68.637 10.6756C68.637 9.83553 68.4843 9.14824 68.1788 8.61368C67.8734 8.07912 67.4152 7.62092 66.8806 7.23909C66.346 6.93363 65.7351 6.62817 65.1242 6.47544C64.4369 6.3227 63.7496 6.24634 63.0623 6.24634H57.564V20.7558H61.0004V15.0284H62.2223L65.3533 20.7558H69.477ZM64.9714 11.5919C64.8187 11.821 64.5896 11.9738 64.3605 12.1265C64.1314 12.2792 63.826 12.3556 63.5205 12.3556C63.215 12.432 62.9096 12.432 62.6041 12.432H60.9241V9.07187H62.9096C63.1387 9.07187 63.4441 9.07187 63.7496 9.14824C64.0551 9.2246 64.2842 9.30097 64.5133 9.37734C64.7424 9.53007 64.8951 9.6828 65.0478 9.83553C65.2005 10.0646 65.2769 10.2937 65.2769 10.6756C65.2005 11.0574 65.1242 11.3628 64.9714 11.5919Z" fill="white"/>
<path d="M77.2665 12.8902L83.5285 6.24634H79.1757L73.9828 12.1265H73.9064V6.24634H70.47V20.7558H73.9064V14.0357L79.3284 20.7558H83.9104L77.2665 12.8902Z" fill="white"/>
<path d="M94.1434 20.7558H97.6562V14.5702L103.231 6.24634H99.1071L95.9761 11.5919L92.9215 6.24634H88.645L94.1434 14.5702V20.7558Z" fill="white"/>
<path d="M113.922 17.7776H107.202V14.7229H113.235V11.8974H107.202V9.14824H113.54V6.24634H103.842V20.7558H113.922V17.7776Z" fill="white"/>
<path d="M51.6839 20.6797C52.4476 20.3743 53.1349 19.9924 53.6694 19.4579C54.204 18.9233 54.6622 18.3124 54.9677 17.6251C55.2731 16.9378 55.4258 16.0978 55.4258 15.2578V9.22485H51.913V14.9523C51.913 15.3341 51.8367 15.7159 51.7603 16.0978C51.6839 16.4796 51.5312 16.7851 51.3021 17.0142C51.073 17.3196 50.7675 17.5487 50.4621 17.7015C50.0802 17.8542 49.6984 17.9306 49.1639 17.9306C48.7057 17.9306 48.2475 17.8542 47.8656 17.7015C47.4838 17.5487 47.2547 17.3196 47.0256 17.0142C46.7965 16.7087 46.6438 16.4032 46.5674 16.0978C46.491 15.7159 46.4147 15.3341 46.4147 14.9523V9.22485H42.9019V15.2578C42.9019 16.0978 43.0546 16.9378 43.3601 17.6251C43.6655 18.3124 44.0473 18.9233 44.5819 19.4579C45.1165 19.9924 45.7274 20.3743 46.491 20.6797C47.2547 20.9852 48.0947 21.1379 49.0875 21.1379C50.0802 21.1379 50.9203 20.9852 51.6839 20.6797Z" fill="white"/>
<path d="M88.0341 6.24634H84.5212V8.38458H88.0341V6.24634Z" fill="white"/>
<path d="M46.4147 6.24634H42.9019V8.38458H46.4147V6.24634Z" fill="white"/>
<path d="M55.4259 6.24634H51.9131V8.38458H55.4259V6.24634Z" fill="white"/>
<path d="M88.0341 9.30103H84.5212V20.7559H88.0341V9.30103Z" fill="white"/>
<path d="M261.385 8.38458H257.872V6.24634H261.385V8.38458ZM261.385 9.30097H257.872V20.7558H261.385V9.30097Z" fill="white"/>
<path d="M277.879 8.38458H274.366V6.24634H277.879V8.38458ZM277.879 9.30097H274.366V20.7558H277.879V9.30097Z" fill="white"/>
<path d="M130.722 20.7558V14.7229H125.071V20.7558H121.559V6.24634H125.071V11.7447H130.722V6.24634H134.235V20.7558H130.722Z" fill="white"/>
<path d="M146.225 20.7558L145.079 17.9303H139.428L138.359 20.7558H134.541L140.65 6.24634H144.087L150.119 20.7558H146.225ZM142.33 10.0646L140.497 15.0284H144.163L142.33 10.0646Z" fill="white"/>
<path d="M155.541 14.5704V20.756H152.029V14.5704L146.607 6.17017H150.883L154.014 11.5158L157.145 6.17017H161.269L155.541 14.5704Z" fill="white"/>
<path d="M169.745 20.7558L168.6 17.9303H162.949L161.88 20.7558H158.062L164.171 6.24634H167.607L173.64 20.7558H169.745ZM165.851 10.0646L164.018 15.0284H167.684L165.851 10.0646Z" fill="white"/>
<path d="M179.062 9.22461V20.7558H175.549V9.22461H171.426V6.24634H183.109V9.22461H179.062Z" fill="white"/>
<path d="M190.288 20.7558V6.24634H200.063V9.14824H193.725V11.8974H199.757V14.7229H193.725V17.7012H200.445V20.6795H190.288V20.7558Z" fill="white"/>
<path d="M215.336 20.7558L215.412 10.5228H215.336L211.594 20.7558H209.15L205.484 10.5228H205.408L205.484 20.7558H202.201V6.24634H207.164L210.448 15.563H210.525L213.656 6.24634H218.696V20.7558H215.336Z" fill="white"/>
<path d="M221.14 20.7558V6.24634H230.914V9.14824H224.576V11.8974H230.609V14.7229H224.576V17.7012H231.296V20.6795H221.14V20.7558Z" fill="white"/>
<path d="M241.911 20.7558L236.489 14.112H236.413V20.7558H232.976V6.24634H236.413V12.1265H236.489L241.682 6.24634H246.035L239.773 12.8902L246.417 20.7558H241.911Z" fill="white"/>
<path d="M247.104 20.7558V6.24634H250.617V17.7012H256.268V20.7558H247.104Z" fill="white"/>
<path d="M263.599 20.7558V6.24634H267.112V17.7012H272.763V20.7558H263.599Z" fill="white"/>
<path d="M288.494 20.7558L283.072 14.112H282.996V20.7558H279.56V6.24634H282.996V12.1265H283.072L288.265 6.24634H292.618L286.356 12.8902L293 20.7558H288.494Z" fill="white"/>
</svg>
