<svg width="217" height="35" viewBox="0 0 217 35" fill="none" xmlns="http://www.w3.org/2000/svg">
<path d="M17.0912 16.1258C17.0951 15.8481 16.984 15.7712 16.7239 15.7751C16.0496 15.7868 15.3753 15.7686 14.7022 15.7829C14.4343 15.7882 14.3376 15.7008 14.3428 15.4283C14.3559 14.7022 14.3415 13.9747 14.3481 13.2485C14.3507 13.0099 14.2605 12.9252 14.0213 12.9278C13.1078 12.9382 12.1956 12.9382 11.2821 12.9278C11.0417 12.9252 10.9567 13.0047 10.9593 13.2472C10.9698 13.9734 10.9528 14.7009 10.9646 15.427C10.9685 15.6982 10.8718 15.7882 10.6026 15.7829C9.90731 15.7686 9.21075 15.7855 8.5155 15.7764C8.29071 15.7738 8.20708 15.8507 8.21361 16.0776C8.22668 16.5756 8.21753 17.0749 8.21753 17.5742C8.21753 18.0618 8.22799 18.5507 8.21361 19.0383C8.20708 19.2847 8.30378 19.359 8.53902 19.3564C9.23428 19.3473 9.93084 19.3629 10.6261 19.3512C10.8744 19.3473 10.9724 19.419 10.9672 19.6837C10.9515 20.4203 10.9698 21.1582 10.9593 21.8961C10.9567 22.1372 11.0456 22.2194 11.2848 22.2168C12.1865 22.2077 13.0895 22.205 13.9913 22.2168C14.2631 22.2207 14.3546 22.1268 14.3494 21.8583C14.3376 21.1425 14.3546 20.4268 14.3428 19.711C14.3389 19.4503 14.4147 19.3421 14.6931 19.3486C15.3779 19.3642 16.0627 19.3447 16.7475 19.3564C16.9997 19.3603 17.0951 19.2795 17.0912 19.0214C17.0794 18.0566 17.0794 17.0906 17.0912 16.1258V16.1258Z" fill="white"/>
<path d="M27.4377 0.692383H6.38798C2.85943 0.692383 0 3.54622 0 7.06495V28.0639C0 31.5839 2.86074 34.4365 6.38798 34.4365H27.4377C30.9663 34.4365 33.8257 31.5826 33.8257 28.0639V7.06495C33.8257 3.54491 30.965 0.692383 27.4377 0.692383ZM20.7949 21.5414C20.791 23.2258 19.5403 24.4839 17.8584 24.4878C14.3899 24.4956 10.9202 24.4839 7.45177 24.4943C5.75415 24.4995 4.45381 23.1319 4.47472 21.5388C4.51001 18.8923 4.47472 16.2444 4.48648 13.5966C4.49171 12.358 5.09287 11.4806 6.2024 10.9461C6.54873 10.7792 6.91726 10.7075 7.30671 10.7088C9.09059 10.7154 10.8732 10.7114 12.657 10.7114V10.7141C14.4292 10.7141 16.2026 10.7075 17.9747 10.7154C19.5338 10.7219 20.791 11.9787 20.7949 13.534C20.8014 16.2027 20.8014 18.8714 20.7949 21.5414ZM27.4273 22.6835C26.8274 23.0211 26.2328 22.9846 25.6421 22.6235C24.4947 21.9221 23.342 21.2311 22.1841 20.5467C21.9907 20.432 21.9149 20.3016 21.9162 20.08C21.9241 18.3995 21.9227 16.719 21.9162 15.0385C21.9162 14.8507 21.9802 14.7308 22.1331 14.6395C23.3485 13.9186 24.5051 13.1012 25.7506 12.4323C26.945 11.7922 28.2937 12.6149 28.3003 13.972C28.3068 15.1754 28.3003 16.3787 28.3016 17.582C28.3016 18.7645 28.3003 19.9457 28.3029 21.1281C28.3042 21.8139 28.0271 22.3458 27.426 22.6835H27.4273Z" fill="white"/>
<path d="M48.5133 27.1994L41.6586 7.49829H45.2116L50.4574 23.2636L55.734 7.49829H59.2605L52.4058 27.1994H48.5133Z" fill="white"/>
<path d="M64.6253 24.1035H73.3712V27.1994H61.3809V7.49829H73.2301V10.5942H64.6253V15.7173H72.5248V18.7868H64.6253V24.1079V24.1035Z" fill="white"/>
<path d="M87.5877 27.1994L83.4131 20.0226H79.5735V27.1994H76.3291V7.49829H84.2286C85.9963 7.49829 87.4951 8.11394 88.7294 9.34086C89.9593 10.5678 90.5764 12.0674 90.5764 13.8308C90.5764 15.0885 90.215 16.2363 89.492 17.2785C88.7691 18.3207 87.8213 19.0771 86.6575 19.5432L91.1451 27.1994H87.5921H87.5877ZM79.5735 10.537V17.1246H84.2286C85.0926 17.1246 85.8288 16.8079 86.4283 16.1659C87.0278 15.5283 87.332 14.7499 87.332 13.8308C87.332 12.9117 87.0322 12.1333 86.4283 11.4957C85.8244 10.858 85.0926 10.537 84.2286 10.537H79.5735Z" fill="white"/>
<path d="M106.49 27.1994L105.097 23.2328H96.6994L95.3197 27.1994H91.7931L98.9608 7.49829H102.853L109.99 27.1994H106.49V27.1994ZM97.7706 20.1897H104.026L100.905 11.2978L97.7706 20.1897V20.1897Z" fill="white"/>
<path d="M119.442 7.49829H127.059C129.748 7.49829 131.97 8.45696 133.715 10.3699C135.483 12.2477 136.369 14.574 136.369 17.3488C136.369 20.1237 135.483 22.4808 133.715 24.3586C131.965 26.2539 129.748 27.1994 127.059 27.1994H119.442V7.49829V7.49829ZM121.416 25.3436H127.059C129.223 25.3436 130.991 24.5741 132.362 23.0349C133.755 21.4782 134.451 19.5828 134.451 17.3488C134.451 15.1149 133.755 13.2195 132.362 11.6628C130.987 10.1236 129.219 9.35405 127.059 9.35405H121.416V25.3392V25.3436Z" fill="white"/>
<path d="M146.045 27.5378C143.955 27.5378 142.197 26.8342 140.768 25.4269C139.34 24.0021 138.626 22.2475 138.626 20.1631C138.626 18.0786 139.34 16.3372 140.768 14.93C142.197 13.5051 143.955 12.7927 146.045 12.7927C148.134 12.7927 149.862 13.5051 151.291 14.93C152.741 16.3372 153.464 18.083 153.464 20.1631C153.464 22.2431 152.741 23.9801 151.291 25.4269C149.84 26.8342 148.095 27.5378 146.045 27.5378ZM146.045 25.7348C147.605 25.7348 148.923 25.1983 149.995 24.1297C151.066 23.0215 151.604 21.6978 151.604 20.1631C151.604 18.6283 151.066 17.2914 149.995 16.2228C148.923 15.1366 147.605 14.5913 146.045 14.5913C144.484 14.5913 143.166 15.1366 142.095 16.2228C141.024 17.2914 140.486 18.6063 140.486 20.1631C140.486 21.7198 141.024 23.0259 142.095 24.1297C143.166 25.1983 144.484 25.7348 146.045 25.7348Z" fill="white"/>
<path d="M157.837 25.4269C156.426 23.9845 155.721 22.2299 155.721 20.1631C155.721 18.0962 156.426 16.3372 157.837 14.93C159.248 13.5051 161.015 12.7927 163.14 12.7927C164.533 12.7927 165.78 13.1226 166.891 13.7778C168.002 14.455 168.809 15.3521 169.316 16.4779L167.791 17.3486C167.434 16.5219 166.83 15.849 165.983 15.3213C165.119 14.8332 164.167 14.5913 163.136 14.5913C161.575 14.5913 160.257 15.1366 159.186 16.2228C158.115 17.2914 157.577 18.6063 157.577 20.1631C157.577 21.7198 158.115 23.0259 159.186 24.1297C160.257 25.1983 161.575 25.7348 163.136 25.7348C165.3 25.7348 166.887 24.8157 167.905 22.9775L169.457 23.879C168.853 25.0224 167.998 25.9151 166.891 26.5527C165.745 27.208 164.493 27.5378 163.14 27.5378C161.015 27.5378 159.248 26.8342 157.837 25.4269V25.4269Z" fill="white"/>
<path d="M179.618 13.127V14.93H175.553V23.4569C175.553 24.5255 175.893 25.1939 176.567 25.4534C176.999 25.6029 178.018 25.6425 179.613 25.5677V27.1992C177.599 27.5202 176.122 27.3795 175.183 26.777C174.187 26.1746 173.689 25.0708 173.689 23.4569V14.93H170.726V13.127H173.689V9.74966L175.549 9.18677V13.127H179.613H179.618Z" fill="white"/>
<path d="M188.448 27.5378C186.358 27.5378 184.599 26.8342 183.171 25.4269C181.743 24.0021 181.029 22.2475 181.029 20.1631C181.029 18.0786 181.743 16.3372 183.171 14.93C184.599 13.5051 186.358 12.7927 188.448 12.7927C190.537 12.7927 192.265 13.5051 193.693 14.93C195.144 16.3372 195.867 18.083 195.867 20.1631C195.867 22.2431 195.144 23.9801 193.693 25.4269C192.243 26.8342 190.497 27.5378 188.448 27.5378ZM188.448 25.7348C190.008 25.7348 191.326 25.1983 192.397 24.1297C193.469 23.0215 194.006 21.6978 194.006 20.1631C194.006 18.6283 193.469 17.2914 192.397 16.2228C191.326 15.1366 190.008 14.5913 188.448 14.5913C186.887 14.5913 185.569 15.1366 184.498 16.2228C183.427 17.2914 182.889 18.6063 182.889 20.1631C182.889 21.7198 183.427 23.0259 184.498 24.1297C185.569 25.1983 186.887 25.7348 188.448 25.7348Z" fill="white"/>
<path d="M200.83 13.1274V15.4625C201.694 13.7562 203.18 12.9031 205.287 12.9031V14.7061C203.911 14.7061 202.849 15.0799 202.1 15.8319C201.253 16.6586 200.83 17.8415 200.83 19.3763V27.1996H198.97V13.1274H200.83V13.1274Z" fill="white"/>
<path d="M211.639 19.2093L212.543 19.4335L213.473 19.6886C214.112 19.8953 214.685 20.1371 215.192 20.4186C216.378 21.1134 216.969 22.1336 216.969 23.4881C216.969 24.6886 216.488 25.6649 215.532 26.4169C214.61 27.1689 213.389 27.5427 211.864 27.5427C210.568 27.5427 209.417 27.2436 208.421 26.6412C207.46 26.0387 206.795 25.2603 206.42 24.306L207.998 23.3782C208.598 24.9525 209.889 25.7441 211.864 25.7441C214.028 25.7441 215.108 24.9921 215.108 23.4925C215.108 22.4063 214.139 21.6059 212.203 21.1002L211.3 20.8759L210.37 20.6209C209.73 20.4142 209.157 20.1723 208.65 19.8909C207.465 19.1785 206.874 18.1538 206.874 16.8214C206.874 15.678 207.324 14.7193 208.227 13.9498C209.166 13.1802 210.326 12.7976 211.697 12.7976C212.843 12.7976 213.848 13.0527 214.716 13.5584C215.563 14.0465 216.202 14.7501 216.634 15.6692L215.082 16.5707C214.557 15.2558 213.429 14.6006 211.697 14.6006C210.85 14.6006 210.154 14.7897 209.607 15.1635C209.025 15.5769 208.734 16.131 208.734 16.8258C208.734 17.9164 209.704 18.7123 211.639 19.2181V19.2093Z" fill="white"/>
</svg>
