<svg width="113" height="113" viewBox="0 0 113 113" fill="none" xmlns="http://www.w3.org/2000/svg">
<path d="M53.298 112.132C52.3247 105.805 49.502 98.992 44.83 91.692C40.2553 84.392 33.734 77.53 25.266 71.106C16.7007 64.5847 8.42733 60.5453 0.446 58.988V52.856C8.52467 51.0067 16.36 47.4053 23.952 42.052C31.544 36.6987 37.968 30.3233 43.224 22.926C48.48 15.4313 51.838 7.79066 53.298 0.0039984H59.43C60.306 4.968 62.058 9.98066 64.686 15.042C67.4113 20.1033 70.8667 24.97 75.052 29.642C79.2373 34.2167 83.8607 38.3533 88.922 42.052C96.6113 47.5027 104.495 51.104 112.574 52.856V58.988C107.123 60.0587 101.527 62.2487 95.784 65.558C90.1387 68.8673 84.8827 72.7607 80.016 77.238C75.1493 81.7153 71.1587 86.436 68.044 91.4C63.2747 98.992 60.4033 105.903 59.43 112.132H53.298ZM55.342 108.628H57.386C57.8727 103.567 58.6513 98.5053 59.722 93.444C60.89 88.2853 62.204 83.516 63.664 79.136C65.2213 74.756 66.8273 71.1547 68.482 68.332C71.7913 66.4827 75.7333 64.7793 80.308 63.222C84.98 61.6647 89.798 60.3507 94.762 59.28C99.8233 58.2093 104.495 57.528 108.778 57.236V55.192C104.495 54.8027 99.7747 54.0727 94.616 53.002C89.5547 51.834 84.688 50.4713 80.016 48.914C75.344 47.2593 71.4993 45.556 68.482 43.804C66.8273 40.884 65.2213 37.2827 63.664 33C62.204 28.62 60.89 23.948 59.722 18.984C58.6513 13.9227 57.8727 8.86133 57.386 3.79999H55.342C54.9527 8.37466 54.2227 13.144 53.152 18.108C52.1787 22.9747 50.9133 27.6467 49.356 32.124C47.7987 36.6013 46.0953 40.4947 44.246 43.804C41.1313 45.556 37.2867 47.2593 32.712 48.914C28.1373 50.4713 23.3193 51.834 18.258 53.002C13.1967 54.0727 8.42733 54.8027 3.95 55.192V57.236C8.42733 57.528 13.148 58.2093 18.112 59.28C23.076 60.3507 27.8453 61.6647 32.42 63.222C36.9947 64.7793 40.9367 66.4827 44.246 68.332C46.0953 71.4467 47.75 75.2913 49.21 79.866C50.7673 84.3433 52.0813 89.1127 53.152 94.174C54.2227 99.138 54.9527 103.956 55.342 108.628Z" fill="white"/>
</svg>
