<svg width="73" height="119" viewBox="0 0 73 119" fill="none" xmlns="http://www.w3.org/2000/svg">
<path fill-rule="evenodd" clip-rule="evenodd" d="M17.7988 57.0282L2.88985 59.5L17.1383 61.8624C2.37758 90.2103 -4.07891 114.527 2.68307 118.457C8.3566 121.754 21.7258 109.763 35.9297 89.8457L36.5 93.3308L37.4152 87.738C37.7632 87.2384 38.1116 86.7343 38.4602 86.2258C44.402 90.7676 50.1188 92.4442 54.0769 90.1439C60.0813 86.6546 60.2355 75.0615 55.2012 61.9719L70.1102 59.5L55.8617 57.1377C70.6224 28.7897 77.0789 4.47258 70.3169 0.542922C64.6434 -2.75419 51.2742 9.23657 37.0703 29.1543L36.5 25.6693L35.5848 31.262C35.2368 31.7615 34.8885 32.2656 34.5398 32.7742C28.598 28.2324 22.8812 26.5558 18.9231 28.856C12.9187 32.3454 12.7645 43.9385 17.7988 57.0282ZM21.3909 105.981C25.8529 101.194 30.7033 95.1382 35.6481 88.1252L34.8286 83.1168C30.5893 79.0986 26.3935 73.7495 22.7901 67.4674C21.8119 65.7618 20.9146 64.0527 20.0997 62.3534L18.4088 62.073C11.8463 74.6314 6.92436 86.3886 4.06333 95.9113C2.25827 101.919 1.29412 106.971 1.22605 110.745C1.19201 112.632 1.38387 114.135 1.76381 115.256C2.14035 116.367 2.67446 117.032 3.29416 117.392C3.91387 117.752 4.75251 117.885 5.89655 117.658C7.05093 117.429 8.44004 116.844 10.0469 115.871C13.2598 113.925 17.1243 110.558 21.3909 105.981ZM21.5801 62.5988C22.2781 64.0123 23.0344 65.4329 23.8486 66.8522C27.0681 72.4652 30.7548 77.2993 34.4943 81.0742L31.7468 64.2844L21.5801 62.5988ZM38.1898 84.4478C38.1205 84.3911 38.0511 84.334 37.9816 84.2766L41.2532 64.2844L51.5571 62.576C50.7745 63.9948 49.9724 65.4209 49.1514 66.8522C45.5523 73.127 41.859 79.034 38.1898 84.4478ZM39.1526 85.2103C39.4186 85.4142 39.684 85.6122 39.9486 85.804C45.5419 89.858 50.3555 90.8861 53.4658 89.0785C56.5762 87.271 58.0984 82.561 57.4071 75.6582C57.0026 71.6194 55.8486 67.0091 53.9687 62.1762L53.0937 62.3213C52.1602 64.0271 51.1986 65.7436 50.2099 67.4674C46.5824 73.7915 42.8568 79.7486 39.1526 85.2103ZM52.9003 56.6467L54.5912 56.927C61.1537 44.3686 66.0756 32.6114 68.9367 23.0887C70.7417 17.0807 71.7059 12.0288 71.7739 8.25499C71.808 6.36762 71.6161 4.86457 71.2362 3.74366C70.8596 2.63279 70.3255 1.96845 69.7058 1.60831C69.0861 1.24818 68.2475 1.11476 67.1034 1.34196C65.9491 1.57122 64.56 2.1555 62.9531 3.12886C59.7402 5.07512 55.8757 8.44153 51.6091 13.019C47.1471 17.8061 42.2967 23.8618 37.3518 30.8748L38.1714 35.8832C42.4107 39.9013 46.6065 45.2505 50.2099 51.5326C51.1881 53.2382 52.0854 54.9474 52.9003 56.6467ZM38.5057 37.9258C42.2452 41.7007 45.9319 46.5347 49.1514 52.1477C49.9656 53.5671 50.7219 54.9877 51.42 56.4012L41.2532 54.7156L38.5057 37.9258ZM34.8102 34.5522C34.8795 34.6089 34.9489 34.6659 35.0184 34.7234L31.7468 54.7156L21.4429 56.424C22.2255 55.0052 23.0276 53.5791 23.8486 52.1477C27.4477 45.873 31.141 39.966 34.8102 34.5522ZM33.8474 33.7897C30.1432 39.2514 26.4176 45.2085 22.7901 51.5326C21.8014 53.2564 20.8398 54.9729 19.9063 56.6787L19.0313 56.8238C17.1514 51.9909 15.9974 47.3806 15.5929 43.3418C14.9016 36.439 16.4238 31.729 19.5342 29.9214C22.6445 28.1139 27.4581 29.142 33.0514 33.196C33.316 33.3878 33.5814 33.5858 33.8474 33.7897Z" fill="white"/>
</svg>
