{
	"nodes":[{
		"name":"id1",
		"mesh":0
	},
	{
		"name":"germany",
		"mesh":1
	},
	{
		"name":"spain",
		"mesh":2
	},
	{
		"name":"turkey",
		"mesh":3
	},
	{
		"name":"earth",
		"mesh":4
	}],
	"asset":{
		"version":"2.0",
		"generator":"Created using the official Cinema 4D glTF Exporter 1.000x284978"
	},
	"scenes":[{
		"nodes":[0,
		1,
		2,
		3,
		4]
	}],
	"meshes":[{
		"name":"id1",
		"primitives":[{
			"attributes":{
				"POSITION":1
			},
			"indices":0,
			"material":0
		}]
	},
	{
		"name":"germany",
		"primitives":[{
			"attributes":{
				"POSITION":3
			},
			"indices":2,
			"material":0
		}]
	},
	{
		"name":"spain",
		"primitives":[{
			"attributes":{
				"POSITION":5
			},
			"indices":4,
			"material":0
		}]
	},
	{
		"name":"turkey",
		"primitives":[{
			"attributes":{
				"POSITION":7
			},
			"indices":6,
			"material":0
		}]
	},
	{
		"name":"earth",
		"primitives":[{
			"attributes":{
				"POSITION":9
			},
			"indices":8,
			"material":0
		}]
	}],
	"accessors":[{
		"bufferView":0,
		"type":"SCALAR",
		"componentType":5123,
		"count":144,
		"byteOffset":0,
		"min":[0],
		"max":[35]
	},
	{
		"bufferView":1,
		"type":"VEC3",
		"componentType":5126,
		"count":36,
		"byteOffset":0,
		"min":[-12.489466667175293,
		15.596392631530762,
		-2.093139886856079],
		"max":[-11.013152122497559,
		16.67434310913086,
		-0.4001861810684204]
	},
	{
		"bufferView":2,
		"type":"SCALAR",
		"componentType":5123,
		"count":360,
		"byteOffset":0,
		"min":[0],
		"max":[89]
	},
	{
		"bufferView":3,
		"type":"VEC3",
		"componentType":5126,
		"count":90,
		"byteOffset":0,
		"min":[-12.171379089355469,
		15.1195068359375,
		2.993105411529541],
		"max":[-9.823230743408204,
		16.742216110229493,
		5.5435333251953129]
	},
	{
		"bufferView":4,
		"type":"SCALAR",
		"componentType":5123,
		"count":192,
		"byteOffset":0,
		"min":[0],
		"max":[47]
	},
	{
		"bufferView":5,
		"type":"VEC3",
		"componentType":5126,
		"count":48,
		"byteOffset":0,
		"min":[-15.933470726013184,
		12.036663055419922,
		-1.4022451639175416],
		"max":[-14.77143669128418,
		13.455638885498047,
		0.6954206824302673]
	},
	{
		"bufferView":6,
		"type":"SCALAR",
		"componentType":5123,
		"count":456,
		"byteOffset":0,
		"min":[0],
		"max":[113]
	},
	{
		"bufferView":7,
		"type":"VEC3",
		"componentType":5126,
		"count":114,
		"byteOffset":0,
		"min":[-14.042986869812012,
		-6.25920295715332,
		0.7176589965820313],
		"max":[19.083391189575197,
		13.426551818847657,
		11.030899047851563]
	},
	{
		"bufferView":8,
		"type":"SCALAR",
		"componentType":5123,
		"count":85920,
		"byteOffset":0,
		"min":[0],
		"max":[21479]
	},
	{
		"bufferView":9,
		"type":"VEC3",
		"componentType":5126,
		"count":21480,
		"byteOffset":0,
		"min":[-19.92020034790039,
		-20.059844970703126,
		-19.65077781677246],
		"max":[18.736684799194337,
		19.935544967651368,
		19.82529640197754]
	}],
	"bufferViews":[{
		"buffer":0,
		"byteOffset":0,
		"byteLength":288,
		"target":34963
	},
	{
		"buffer":0,
		"byteOffset":288,
		"byteLength":432,
		"target":34962
	},
	{
		"buffer":1,
		"byteOffset":0,
		"byteLength":720,
		"target":34963
	},
	{
		"buffer":1,
		"byteOffset":720,
		"byteLength":1080,
		"target":34962
	},
	{
		"buffer":2,
		"byteOffset":0,
		"byteLength":384,
		"target":34963
	},
	{
		"buffer":2,
		"byteOffset":384,
		"byteLength":576,
		"target":34962
	},
	{
		"buffer":3,
		"byteOffset":0,
		"byteLength":912,
		"target":34963
	},
	{
		"buffer":3,
		"byteOffset":912,
		"byteLength":1368,
		"target":34962
	},
	{
		"buffer":4,
		"byteOffset":0,
		"byteLength":171840,
		"target":34963
	},
	{
		"buffer":4,
		"byteOffset":171840,
		"byteLength":257760,
		"target":34962
	}],
	"buffers":[{
		"uri":"data:application/octet-stream;base64,",
		"byteLength":720
	},
	{
		"uri":"data:application/octet-stream;base64,",
		"byteLength":1800
	},
	{
		"uri":"data:application/octet-stream;base64,",
		"byteLength":960
	},
	{
		"uri":"data:application/octet-stream;base64,",
		"byteLength":2280
	},
	{
		"uri":"data:application/octet-stream;base64,",
		"byteLength":429600
	}],
	"materials":[{
		"pbrMetallicRoughness":{
			"baseColorFactor":[1.0,
			1.0,
			1.0,
			1.0],
			"metallicFactor":0.0,
			"roughnessFactor":0.5
		},
		"name":"Default",
		"emissiveFactor":[0.0,
		0.0,
		0.0],
		"alphaMode":"OPAQUE",
		"doubleSided":false
	}]
}