<svg width="6" height="7" viewBox="0 0 6 7" fill="none" xmlns="http://www.w3.org/2000/svg">
<path d="M5.58099 3.32784C5.58099 3.59845 4.93281 3.76285 4.85305 4.00691C4.7733 4.25097 5.15691 4.74542 5.00246 4.95661C4.84801 5.16779 4.36944 5.08305 4.15043 5.24239C3.93141 5.40172 3.70103 5.36886 3.44783 5.44726C3.19463 5.52567 3.02876 6.01126 2.75784 6.01126C2.48692 6.01126 2.27677 5.63189 2.03244 5.55601C1.7881 5.48014 1.44378 5.57751 1.23236 5.42323C1.02094 5.26895 0.755081 5.10583 0.599365 4.89338C0.452654 4.65813 0.341713 4.40243 0.270196 4.13463C0.17163 3.8764 0.112329 3.60488 0.0942383 3.3291C0.0942383 3.05722 0.425926 2.84224 0.505683 2.59817C0.58544 2.35411 0.615803 2.09234 0.768987 1.88622C0.922171 1.68009 0.92599 1.25393 1.13868 1.10471C1.37991 0.950092 1.6421 0.83086 1.91724 0.750635C2.16284 0.670967 2.48439 0.51416 2.75658 0.51416C3.02876 0.51416 3.29338 0.844213 3.53898 0.923881C3.79023 1.0085 4.02651 1.13226 4.23907 1.29059C4.45175 1.44487 4.76824 1.54352 4.92396 1.75596C5.07967 1.96841 4.89356 2.35411 4.97585 2.60829C5.05814 2.86247 5.58099 3.05595 5.58099 3.32784Z" fill="#28293D"/>
</svg>
