<svg width="49" height="45" viewBox="0 0 49 45" fill="none" xmlns="http://www.w3.org/2000/svg">
<path d="M36.5633 25.8616C37.2512 29.17 36.7269 32.6151 35.0859 35.5698C38.299 36.1704 41.1627 37 43.5427 38.0003C44.9966 34.7397 45.6625 31.1833 45.4865 27.6183C45.3106 24.0532 44.2978 20.5795 42.5299 17.4775C40.4638 20.3987 38.4307 23.2604 36.5633 25.8616Z" fill="url(#paint0_linear_3021_11275)"/>
<path d="M29.2394 16.2205C31.6575 14.4994 34.2502 12.6683 36.8227 10.86C32.8239 7.72469 27.8895 6.01674 22.806 6.00833C17.7225 5.99992 12.7824 7.69155 8.77327 10.8136C4.7641 13.9356 1.91655 18.3083 0.684502 23.2348C-0.547541 28.1612 -0.0931704 33.3579 1.97518 37.9964C4.35144 36.9949 7.2189 36.1666 10.4332 35.5659C8.9628 32.921 8.38396 29.8734 8.78238 26.8743C9.18081 23.8752 10.5353 21.084 12.6454 18.9136C14.7556 16.7433 17.5092 15.3093 20.4987 14.8238C23.4882 14.3383 26.5547 14.8271 29.2445 16.2179C31.9342 17.6088 29.2394 16.2205 29.2394 16.2205Z" fill="url(#paint1_linear_3021_11275)"/>
<path d="M36.6412 30.0602C39.5 32 41.5129 33.4978 44 35.2676C45.5766 30.5936 45.5442 25.5248 43.9079 20.8691C42.2717 16.2134 39.1258 12.2388 34.9716 9.57882C30.8175 6.91883 25.8943 5.72653 20.9866 6.19199C16.079 6.65745 11.4694 8.75387 7.89261 12.1471C9.57778 13.9982 9.41073 16.7522 11 19.5C12.9454 17.2988 17.4002 15.3862 20.2741 14.781C23.148 14.1758 26.3311 14.7704 29 16C31.6689 17.2296 34.3447 19.4207 35.7559 22C36.6451 24.5 37.0483 27.1522 36.6451 30.0639C36.2419 32.9757 36.6412 30.0602 36.6412 30.0602Z" fill="url(#paint2_linear_3021_11275)"/>
<defs>
<linearGradient id="paint0_linear_3021_11275" x1="13.6098" y1="44.3333" x2="45.1272" y2="26.522" gradientUnits="userSpaceOnUse">
<stop offset="0.458333" stop-color="#0642FF"/>
<stop offset="1" stop-color="#7BF8F9"/>
</linearGradient>
<linearGradient id="paint1_linear_3021_11275" x1="-75.8155" y1="47.8674" x2="-20.1752" y2="-23.3549" gradientUnits="userSpaceOnUse">
<stop offset="0.458333" stop-color="#0642FF"/>
<stop offset="1" stop-color="#7BF8F9"/>
</linearGradient>
<linearGradient id="paint2_linear_3021_11275" x1="-26.5548" y1="-55.863" x2="56.6288" y2="-27.9675" gradientUnits="userSpaceOnUse">
<stop offset="0.458333" stop-color="#0642FF"/>
<stop offset="1" stop-color="#7BF8F9"/>
</linearGradient>
</defs>
</svg>
