<svg width="14" height="14" viewBox="0 0 14 14" fill="none" xmlns="http://www.w3.org/2000/svg">
<path d="M10.6901 0.931219C9.98494 1.4244 8.96836 2.13762 7.97836 2.84072C7.95099 2.86055 7.9174 2.86996 7.88369 2.86724C7.84998 2.86452 7.81836 2.84986 7.79452 2.8259C7.77069 2.80194 7.7562 2.77026 7.75369 2.73657C7.75119 2.70288 7.76083 2.66941 7.78086 2.64219L8.12394 2.15405C8.15084 2.11557 8.16333 2.06888 8.1592 2.02213C8.15508 1.97538 8.1346 1.93157 8.10138 1.89839C8.06816 1.8652 8.0243 1.84476 7.9775 1.84064C7.9307 1.83652 7.88395 1.84898 7.84543 1.87585C6.08444 3.10754 2.39157 5.70625 1.99405 6.10332C1.93506 6.16154 1.88204 6.22551 1.8358 6.29427C1.72271 6.38532 1.61382 6.48269 1.50917 6.58638C0.765557 7.32479 0.336775 8.32193 0.312603 9.36901C0.288432 10.4161 0.670762 11.4319 1.37951 12.2038C2.08826 12.9756 3.06848 13.4437 4.11492 13.5099C5.16135 13.5761 6.19284 13.2353 6.99342 12.559C7.29667 12.3031 7.56145 12.005 7.77959 11.6738C8.96582 10.1247 11.7206 6.21586 13.1499 4.17737C13.1835 4.12391 13.1979 4.06059 13.1905 3.99788C13.1832 3.93518 13.1546 3.87685 13.1096 3.83257C13.0645 3.7883 13.0057 3.76074 12.9428 3.75445C12.8799 3.74816 12.8167 3.76352 12.7638 3.798C12.0308 4.30382 11.0572 4.99302 10.0381 5.71383C9.99429 5.7459 9.94042 5.76127 9.88624 5.75717C9.83206 5.75307 9.78114 5.72977 9.74264 5.69147C9.70415 5.65317 9.6806 5.6024 9.67628 5.5483C9.67197 5.4942 9.68716 5.44033 9.71909 5.39642V5.38757C9.74599 5.34909 9.75845 5.30238 9.75433 5.25563C9.7502 5.20889 9.72975 5.16508 9.69653 5.13189C9.66331 5.09871 9.61945 5.07827 9.57265 5.07414C9.52585 5.07002 9.47907 5.08249 9.44055 5.10936L8.33535 5.88454L8.58097 5.53427C8.60787 5.49579 8.62033 5.44908 8.61621 5.40233C8.61208 5.35558 8.59163 5.31177 8.55841 5.27859C8.52519 5.2454 8.48133 5.22496 8.43453 5.22084C8.38773 5.21672 8.34095 5.22918 8.30243 5.25605V5.25605C8.28564 5.27282 8.26287 5.28225 8.23913 5.28225C8.21539 5.28225 8.19262 5.27282 8.17583 5.25605C8.15904 5.23928 8.14962 5.21654 8.14962 5.19282C8.14962 5.16911 8.15904 5.14636 8.17583 5.12959C9.1076 3.83847 10.2571 2.20591 10.961 1.20311C10.983 1.1653 10.9919 1.1213 10.9863 1.07793C10.9807 1.03456 10.9609 0.994257 10.9301 0.963266C10.8992 0.932275 10.8589 0.912332 10.8155 0.906536C10.7721 0.900741 10.728 0.909422 10.6901 0.931219V0.931219Z" fill="#7BF8F9"/>
</svg>
